<?xml version="1.0" standalone="no"?>
<!DOCTYPE svg PUBLIC "-//W3C//DTD SVG 20010904//EN"
 "http://www.w3.org/TR/2001/REC-SVG-20010904/DTD/svg10.dtd">
<svg version="1.0" xmlns="http://www.w3.org/2000/svg"
 width="304.000000pt" height="174.000000pt" viewBox="0 0 304.000000 174.000000"
 preserveAspectRatio="xMidYMid meet">
<metadata>
Created by potrace 1.16, written by Peter Selinger 2001-2019
</metadata>
<g transform="translate(0.000000,174.000000) scale(0.100000,-0.100000)"
fill="#000000" stroke="none">
<path d="M123 1586 l-28 -24 -3 -624 c-2 -456 1 -630 9 -651 14 -34 56 -57
104 -57 35 0 35 0 35 -45 l0 -45 105 0 105 0 0 33 c0 17 4 38 8 45 7 10 226
12 1063 10 l1054 -3 3 -42 3 -43 104 0 104 0 3 42 3 43 50 7 c36 5 56 14 73
33 l22 26 0 630 0 631 -29 29 -29 29 -1366 0 -1365 0 -28 -24z m2768 -25 c18
-22 19 -47 19 -640 0 -542 -2 -619 -16 -639 l-15 -22 -1360 0 c-1346 0 -1359
0 -1379 20 -20 20 -20 33 -20 638 0 668 -1 656 53 664 12 2 624 3 1360 3
l1339 0 19 -24z"/>
<path d="M220 1527 c-49 -25 -50 -35 -50 -460 l0 -399 29 -29 29 -29 762 0
c503 0 768 3 781 10 47 26 49 43 49 461 l0 391 -34 34 -34 34 -753 0 c-585 0
-760 -3 -779 -13z m770 -30 c0 -7 -5 -18 -12 -25 -9 -9 -9 -12 0 -12 7 0 12
-13 12 -30 0 -22 -5 -30 -17 -30 -17 -1 -17 -1 0 -11 19 -11 24 -59 5 -59 -9
0 -9 -3 0 -12 16 -16 16 -58 0 -58 -9 0 -9 -3 0 -12 7 -7 12 -22 12 -35 0 -13
-5 -23 -12 -23 -9 0 -9 -3 0 -12 20 -20 15 -59 -8 -65 -19 -5 -24 -18 -21 -55
3 -26 -55 -134 -96 -179 -46 -51 -84 -71 -138 -71 -54 0 -92 20 -138 71 -32
35 -109 171 -106 186 1 4 -25 57 -56 120 -63 126 -117 195 -176 226 -46 23
-53 58 -17 83 19 14 74 16 395 16 299 0 373 -3 373 -13z m780 -7 c19 -19 20
-33 20 -350 -1 -288 -3 -330 -16 -330 -49 0 -132 81 -178 176 -16 31 -29 63
-30 70 -1 6 -6 18 -12 25 -6 8 -25 48 -44 89 -67 149 -132 228 -210 251 -85
26 -179 -36 -244 -161 -21 -39 -41 -70 -47 -70 -13 0 -11 44 3 58 8 8 8 12 1
12 -7 0 -11 25 -11 65 0 54 2 65 16 66 15 1 15 2 0 6 -21 5 -26 63 -6 63 9 0
9 3 0 12 -37 37 -23 38 363 38 361 0 376 -1 395 -20z m-418 -135 c20 -13 48
-39 62 -57 42 -56 108 -196 101 -217 -3 -12 0 -21 9 -24 9 -4 33 -41 55 -84
60 -120 94 -161 157 -190 52 -24 54 -26 54 -64 0 -26 -7 -46 -20 -59 -19 -19
-33 -20 -395 -20 -386 0 -400 1 -363 38 9 9 9 12 0 12 -7 0 -12 13 -12 30 0
21 5 30 18 31 15 1 15 2 0 6 -14 3 -17 17 -17 69 0 53 3 64 17 65 15 1 15 2 0
6 -21 5 -26 63 -6 63 9 0 9 3 0 12 -19 19 -14 56 8 68 23 12 26 47 6 69 -12
14 -10 25 22 90 85 172 194 227 304 156z m-1109 14 c57 -30 122 -118 167 -229
39 -95 111 -233 147 -281 43 -58 103 -92 157 -92 87 0 155 61 225 201 17 34
36 62 41 62 14 0 12 -44 -2 -58 -9 -9 -9 -12 0 -12 7 0 12 -13 12 -30 0 -21
-5 -30 -17 -31 -17 -1 -17 -2 0 -6 19 -5 24 -48 6 -59 -8 -4 -8 -9 0 -17 18
-18 13 -57 -6 -57 -17 -1 -17 -1 0 -11 19 -11 24 -59 5 -59 -9 0 -9 -3 0 -12
37 -37 23 -38 -366 -38 -354 0 -380 1 -395 18 -15 16 -17 58 -17 370 0 239 4
352 11 352 6 0 20 -5 32 -11z"/>
<path d="M1907 1482 c-15 -17 -17 -60 -17 -415 0 -449 -4 -427 80 -427 87 0
80 -39 80 424 0 307 -3 415 -12 424 -20 20 -112 15 -131 -6z m128 -412 l0
-415 -53 -3 c-31 -2 -60 2 -68 9 -19 16 -21 798 -2 817 8 8 34 12 68 10 l55
-3 0 -415z"/>
<path d="M331 444 c-45 -37 -39 -83 13 -117 23 -16 27 -15 56 1 53 29 53 100
0 127 -37 19 -33 20 -69 -11z"/>
</g>
</svg>
