M48
INCH,TZ
T1C0.0157
T2C0.0197
T3C0.0315
T4C0.0394
T5C0.0512
T6C0.1260
%
G90
G05
T1
X64961Y-37795
X67717Y-54724
X68110Y-19291
X83071Y-19291
X83071Y-54724
X86220Y-37402
T2
X65055Y-19500
X65332Y-18832
X65332Y-20168
X66000Y-18555
X66000Y-20445
X66668Y-18832
X66668Y-20168
X66945Y-19500
X84055Y-55500
X84332Y-54832
X84332Y-56168
X85000Y-54555
X85000Y-56445
X85668Y-54832
X85668Y-56168
X85945Y-55500
X84055Y-19500
X84332Y-18832
X84332Y-20168
X85000Y-18555
X85000Y-20445
X85668Y-18832
X85668Y-20168
X85945Y-19500
X65055Y-55500
X65332Y-54832
X65332Y-56168
X66000Y-54555
X66000Y-56445
X66668Y-54832
X66668Y-56168
X66945Y-55500
T3
X73520Y-26000
X73520Y-27000
X73520Y-28000
X73520Y-29000
X73520Y-30000
X73520Y-31000
X73520Y-32000
X73520Y-33000
X77520Y-26000
X77520Y-27000
X77520Y-28000
X77520Y-29000
X77520Y-30000
X77520Y-31000
X77520Y-32000
X77520Y-33000
T4
X81500Y-35500
X71500Y-37500
X71500Y-36500
X72500Y-38500
X80500Y-43500
X72677Y-50787
X74500Y-41500
X74500Y-43500
X73677Y-50787
X79500Y-41500
X72500Y-44500
X78500Y-41500
X82000Y-46500
X82000Y-47500
X82000Y-48500
X82000Y-49500
X82000Y-50500
X82000Y-51500
X82000Y-52500
X82000Y-53500
X80500Y-42500
X76677Y-47787
X72500Y-43500
X72000Y-26000
X72000Y-27000
X72000Y-28000
X72000Y-29000
X72000Y-30000
X72000Y-31000
X72000Y-32000
X72000Y-33000
X73677Y-47787
X76500Y-39500
X77677Y-47787
X79500Y-39500
X75677Y-53787
X81500Y-38500
X76500Y-40500
X73677Y-52787
X74500Y-37500
X78677Y-52787
X76500Y-36500
X73500Y-35500
X77500Y-36500
X72677Y-45787
X73500Y-36500
X79500Y-37500
X74677Y-50787
X69500Y-44500
X78677Y-48787
X81500Y-41500
X81500Y-43500
X76677Y-50787
X79500Y-40500
X77500Y-43500
X75500Y-41500
X70000Y-26000
X70000Y-27000
X70000Y-28000
X70000Y-29000
X70000Y-30000
X70000Y-31000
X70000Y-32000
X70000Y-33000
X76500Y-42500
X75677Y-47787
X72500Y-42500
X78677Y-45787
X69500Y-40500
X74677Y-46787
X80500Y-39500
X76677Y-53787
X70500Y-39500
X73500Y-40500
X72677Y-51787
X74677Y-52787
X69500Y-39500
X72677Y-53787
X69500Y-37500
X74677Y-45787
X74500Y-35500
X78500Y-38500
X79500Y-35500
X70500Y-38500
X75677Y-48787
X71500Y-44500
X73677Y-49787
X76500Y-41500
X76500Y-44500
X75677Y-50787
X77500Y-40500
X78500Y-43500
X80500Y-46500
X80500Y-47500
X80500Y-48500
X80500Y-49500
X80500Y-50500
X80500Y-51500
X80500Y-52500
X80500Y-53500
X69500Y-41500
X73500Y-42500
X79000Y-26000
X79000Y-27000
X79000Y-28000
X79000Y-29000
X79000Y-30000
X79000Y-31000
X79000Y-32000
X79000Y-33000
X81500Y-42500
X81000Y-26000
X81000Y-27000
X81000Y-28000
X81000Y-29000
X81000Y-30000
X81000Y-31000
X81000Y-32000
X81000Y-33000
X78677Y-47787
X69500Y-42500
X72677Y-46787
X70500Y-40500
X81500Y-39500
X77677Y-51787
X76500Y-37500
X72500Y-39500
X74677Y-51787
X77677Y-52787
X73500Y-37500
X75677Y-45787
X79500Y-38500
X76677Y-45787
X75500Y-35500
X78500Y-36500
X78500Y-35500
X75500Y-38500
X76677Y-48787
X73500Y-44500
X74677Y-49787
X77500Y-41500
X70500Y-44500
X78677Y-49787
X80500Y-40500
X79500Y-43500
X75500Y-42500
X75197Y-55799
X76197Y-55799
X69500Y-43500
X71000Y-46500
X71000Y-47500
X71000Y-48500
X71000Y-49500
X71000Y-50500
X71000Y-51500
X71000Y-52500
X71000Y-53500
X72677Y-47787
X70500Y-43500
X73677Y-46787
X72500Y-40500
X78500Y-39500
X75677Y-51787
X74500Y-38500
X74500Y-40500
X73677Y-51787
X78677Y-53787
X73500Y-38500
X73677Y-45787
X69500Y-36500
X72500Y-37500
X77677Y-45787
X77500Y-35500
X80500Y-36500
X80500Y-35500
X71500Y-38500
X77677Y-50787
X74500Y-44500
X75677Y-49787
X70500Y-41500
X77500Y-44500
X78677Y-50787
X71500Y-41500
X69500Y-46500
X69500Y-47500
X69500Y-48500
X69500Y-49500
X69500Y-50500
X69500Y-51500
X69500Y-52500
X69500Y-53500
X77500Y-42500
X73500Y-43500
X72677Y-48787
X71500Y-43500
X75677Y-46787
X75500Y-40500
X77500Y-39500
X78677Y-51787
X77500Y-37500
X77677Y-53787
X79500Y-36500
X79500Y-44500
X71500Y-35500
X81500Y-37500
X70500Y-36500
X81500Y-36500
X74500Y-36500
X71500Y-39500
X77677Y-48787
X75500Y-44500
X76677Y-49787
X78500Y-40500
X75500Y-43500
X80500Y-41500
X78500Y-42500
X74677Y-48787
X71500Y-42500
X77677Y-46787
X70500Y-42500
X76677Y-46787
X71500Y-40500
X73677Y-53787
X73500Y-39500
X72677Y-52787
X70500Y-37500
X75677Y-52787
X76500Y-38500
X80500Y-44500
X72500Y-35500
X75500Y-37500
X72500Y-36500
X80500Y-37500
X76500Y-35500
X77500Y-38500
X72677Y-49787
X73500Y-41500
X78500Y-44500
X77677Y-49787
X72500Y-41500
X76500Y-43500
X81500Y-40500
X69500Y-35500
X79500Y-42500
X78677Y-46787
X74500Y-42500
X73677Y-48787
X74677Y-47787
X74500Y-39500
X78500Y-37500
X75500Y-39500
X76677Y-51787
X74677Y-53787
X80500Y-38500
X76677Y-52787
X75500Y-36500
X70500Y-35500
X69500Y-38500
X81500Y-44500
T5
X85000Y-39000
X85000Y-41000
X85000Y-43000
X85000Y-45000
X85000Y-47000
X85000Y-49000
X85000Y-51000
X85000Y-53000
X66000Y-39000
X66000Y-41000
X66000Y-43000
X66000Y-45000
X66000Y-47000
X66000Y-49000
X66000Y-51000
X66000Y-53000
X85000Y-22000
X85000Y-24000
X85000Y-26000
X85000Y-28000
X85000Y-30000
X85000Y-32000
X85000Y-34000
X85000Y-36000
X66000Y-22000
X66000Y-24000
X66000Y-26000
X66000Y-28000
X66000Y-30000
X66000Y-32000
X66000Y-34000
X66000Y-36000
T6
X85000Y-55500
X85000Y-19500
X66000Y-55500
X66000Y-19500
T0
M30
