<?xml version="1.0" standalone="no"?>
 <!DOCTYPE svg PUBLIC "-//W3C//DTD SVG 1.1//EN" 
 "http://www.w3.org/Graphics/SVG/1.1/DTD/svg11.dtd"> 
<svg
  xmlns:svg="http://www.w3.org/2000/svg"
  xmlns="http://www.w3.org/2000/svg"
  xmlns:xlink="http://www.w3.org/1999/xlink"
  version="1.1"
  width="29.700220cm" height="21.000720cm" viewBox="0 0 116930 82680">
<title>SVG Picture created as ProbeMaster-NPTH-drl_map.svg date 2021/07/17 10:25:30 </title>
  <desc>Picture generated by PCBNEW </desc>
<g style="fill:#000000; fill-opacity:1;stroke:#000000; stroke-opacity:1;
stroke-linecap:round; stroke-linejoin:round;"
 transform="translate(0 0) scale(1 1)">
</g>
<g style="fill:#000000; fill-opacity:0.0; 
stroke:#000000; stroke-width:-0.000393701; stroke-opacity:1; 
stroke-linecap:round; stroke-linejoin:round;">
</g>
<g style="fill:#000000; fill-opacity:0.0; 
stroke:#000000; stroke-width:19.685; stroke-opacity:1; 
stroke-linecap:round; stroke-linejoin:round;">
<path d="M63500 18000
L87500 18000
" />
</g>
<g style="fill:#000000; fill-opacity:0.0; 
stroke:#000000; stroke-width:39.3701; stroke-opacity:1; 
stroke-linecap:round; stroke-linejoin:round;">
<path d="M63500 57000
L63500 18000
" />
<path d="M87500 57000
L63500 57000
" />
</g>
<g style="fill:#000000; fill-opacity:0.0; 
stroke:#000000; stroke-width:19.685; stroke-opacity:1; 
stroke-linecap:round; stroke-linejoin:round;">
<path d="M87500 18000
L87500 57000
" />
</g>
<g style="fill:#000000; fill-opacity:0.0; 
stroke:#000000; stroke-width:78.7402; stroke-opacity:1; 
stroke-linecap:round; stroke-linejoin:round;">
</g>
<g style="fill:#000000; fill-opacity:0.0; 
stroke:#000000; stroke-width:118.11; stroke-opacity:1; 
stroke-linecap:round; stroke-linejoin:round;">
<text x="64267.7" y="58909.4"
textLength="8779.53" font-size="1574.8" lengthAdjust="spacingAndGlyphs"
text-anchor="start" opacity="0">Drill Map:</text>
<path d="M64607 58853
L64607 57672
L64889 57672
L65057 57728
L65170 57840
L65226 57953
L65282 58178
L65282 58347
L65226 58571
L65170 58684
L65057 58796
L64889 58853
L64607 58853
" />
<path d="M65789 58853
L65789 58065
" />
<path d="M65789 58290
L65845 58178
L65901 58122
L66014 58065
L66126 58065
" />
<path d="M66520 58853
L66520 58065
" />
<path d="M66520 57672
L66464 57728
L66520 57784
L66576 57728
L66520 57672
L66520 57784
" />
<path d="M67251 58853
L67138 58796
L67082 58684
L67082 57672
" />
<path d="M67870 58853
L67757 58796
L67701 58684
L67701 57672
" />
<path d="M69219 58853
L69219 57672
L69613 58515
L70007 57672
L70007 58853
" />
<path d="M71075 58853
L71075 58234
L71019 58122
L70907 58065
L70682 58065
L70569 58122
" />
<path d="M71075 58796
L70963 58853
L70682 58853
L70569 58796
L70513 58684
L70513 58571
L70569 58459
L70682 58403
L70963 58403
L71075 58347
" />
<path d="M71638 58065
L71638 59246
" />
<path d="M71638 58122
L71750 58065
L71975 58065
L72088 58122
L72144 58178
L72200 58290
L72200 58628
L72144 58740
L72088 58796
L71975 58853
L71750 58853
L71638 58796
" />
<path d="M72706 58740
L72763 58796
L72706 58853
L72650 58796
L72706 58740
L72706 58853
" />
<path d="M72706 58122
L72763 58178
L72706 58234
L72650 58178
L72706 58122
L72706 58234
" />
</g> 
</svg>
