%TF.GenerationSoftware,KiCad,Pcbnew,(5.1.6)-1*%
%TF.CreationDate,2021-07-16T15:07:44-04:00*%
%TF.ProjectId,ProbeMaster,50726f62-654d-4617-9374-65722e6b6963,rev?*%
%TF.SameCoordinates,Original*%
%TF.FileFunction,Legend,Top*%
%TF.FilePolarity,Positive*%
%FSLAX46Y46*%
G04 Gerber Fmt 4.6, Leading zero omitted, Abs format (unit mm)*
G04 Created by KiCad (PCBNEW (5.1.6)-1) date 2021-07-16 15:07:44*
%MOMM*%
%LPD*%
G01*
G04 APERTURE LIST*
%ADD10C,0.150000*%
%ADD11C,0.300000*%
%ADD12C,0.120000*%
%ADD13C,0.010000*%
G04 APERTURE END LIST*
D10*
X171958095Y-144280000D02*
X171862857Y-144232380D01*
X171720000Y-144232380D01*
X171577142Y-144280000D01*
X171481904Y-144375238D01*
X171434285Y-144470476D01*
X171386666Y-144660952D01*
X171386666Y-144803809D01*
X171434285Y-144994285D01*
X171481904Y-145089523D01*
X171577142Y-145184761D01*
X171720000Y-145232380D01*
X171815238Y-145232380D01*
X171958095Y-145184761D01*
X172005714Y-145137142D01*
X172005714Y-144803809D01*
X171815238Y-144803809D01*
X172434285Y-145232380D02*
X172434285Y-144232380D01*
X173005714Y-145232380D01*
X173005714Y-144232380D01*
X173481904Y-145232380D02*
X173481904Y-144232380D01*
X173720000Y-144232380D01*
X173862857Y-144280000D01*
X173958095Y-144375238D01*
X174005714Y-144470476D01*
X174053333Y-144660952D01*
X174053333Y-144803809D01*
X174005714Y-144994285D01*
X173958095Y-145089523D01*
X173862857Y-145184761D01*
X173720000Y-145232380D01*
X173481904Y-145232380D01*
X210058095Y-144280000D02*
X209962857Y-144232380D01*
X209820000Y-144232380D01*
X209677142Y-144280000D01*
X209581904Y-144375238D01*
X209534285Y-144470476D01*
X209486666Y-144660952D01*
X209486666Y-144803809D01*
X209534285Y-144994285D01*
X209581904Y-145089523D01*
X209677142Y-145184761D01*
X209820000Y-145232380D01*
X209915238Y-145232380D01*
X210058095Y-145184761D01*
X210105714Y-145137142D01*
X210105714Y-144803809D01*
X209915238Y-144803809D01*
X210534285Y-145232380D02*
X210534285Y-144232380D01*
X211105714Y-145232380D01*
X211105714Y-144232380D01*
X211581904Y-145232380D02*
X211581904Y-144232380D01*
X211820000Y-144232380D01*
X211962857Y-144280000D01*
X212058095Y-144375238D01*
X212105714Y-144470476D01*
X212153333Y-144660952D01*
X212153333Y-144803809D01*
X212105714Y-144994285D01*
X212058095Y-145089523D01*
X211962857Y-145184761D01*
X211820000Y-145232380D01*
X211581904Y-145232380D01*
D11*
X194124285Y-52738571D02*
X194124285Y-51238571D01*
X194695714Y-51238571D01*
X194838571Y-51310000D01*
X194910000Y-51381428D01*
X194981428Y-51524285D01*
X194981428Y-51738571D01*
X194910000Y-51881428D01*
X194838571Y-51952857D01*
X194695714Y-52024285D01*
X194124285Y-52024285D01*
X195624285Y-52738571D02*
X195624285Y-51738571D01*
X195624285Y-52024285D02*
X195695714Y-51881428D01*
X195767142Y-51810000D01*
X195910000Y-51738571D01*
X196052857Y-51738571D01*
X196767142Y-52738571D02*
X196624285Y-52667142D01*
X196552857Y-52595714D01*
X196481428Y-52452857D01*
X196481428Y-52024285D01*
X196552857Y-51881428D01*
X196624285Y-51810000D01*
X196767142Y-51738571D01*
X196981428Y-51738571D01*
X197124285Y-51810000D01*
X197195714Y-51881428D01*
X197267142Y-52024285D01*
X197267142Y-52452857D01*
X197195714Y-52595714D01*
X197124285Y-52667142D01*
X196981428Y-52738571D01*
X196767142Y-52738571D01*
X197910000Y-52738571D02*
X197910000Y-51238571D01*
X197910000Y-51810000D02*
X198052857Y-51738571D01*
X198338571Y-51738571D01*
X198481428Y-51810000D01*
X198552857Y-51881428D01*
X198624285Y-52024285D01*
X198624285Y-52452857D01*
X198552857Y-52595714D01*
X198481428Y-52667142D01*
X198338571Y-52738571D01*
X198052857Y-52738571D01*
X197910000Y-52667142D01*
X199838571Y-52667142D02*
X199695714Y-52738571D01*
X199410000Y-52738571D01*
X199267142Y-52667142D01*
X199195714Y-52524285D01*
X199195714Y-51952857D01*
X199267142Y-51810000D01*
X199410000Y-51738571D01*
X199695714Y-51738571D01*
X199838571Y-51810000D01*
X199910000Y-51952857D01*
X199910000Y-52095714D01*
X199195714Y-52238571D01*
X200552857Y-52738571D02*
X200552857Y-51238571D01*
X201052857Y-52310000D01*
X201552857Y-51238571D01*
X201552857Y-52738571D01*
X202910000Y-52738571D02*
X202910000Y-51952857D01*
X202838571Y-51810000D01*
X202695714Y-51738571D01*
X202410000Y-51738571D01*
X202267142Y-51810000D01*
X202910000Y-52667142D02*
X202767142Y-52738571D01*
X202410000Y-52738571D01*
X202267142Y-52667142D01*
X202195714Y-52524285D01*
X202195714Y-52381428D01*
X202267142Y-52238571D01*
X202410000Y-52167142D01*
X202767142Y-52167142D01*
X202910000Y-52095714D01*
X203552857Y-52667142D02*
X203695714Y-52738571D01*
X203981428Y-52738571D01*
X204124285Y-52667142D01*
X204195714Y-52524285D01*
X204195714Y-52452857D01*
X204124285Y-52310000D01*
X203981428Y-52238571D01*
X203767142Y-52238571D01*
X203624285Y-52167142D01*
X203552857Y-52024285D01*
X203552857Y-51952857D01*
X203624285Y-51810000D01*
X203767142Y-51738571D01*
X203981428Y-51738571D01*
X204124285Y-51810000D01*
X204624285Y-51738571D02*
X205195714Y-51738571D01*
X204838571Y-51238571D02*
X204838571Y-52524285D01*
X204910000Y-52667142D01*
X205052857Y-52738571D01*
X205195714Y-52738571D01*
X206267142Y-52667142D02*
X206124285Y-52738571D01*
X205838571Y-52738571D01*
X205695714Y-52667142D01*
X205624285Y-52524285D01*
X205624285Y-51952857D01*
X205695714Y-51810000D01*
X205838571Y-51738571D01*
X206124285Y-51738571D01*
X206267142Y-51810000D01*
X206338571Y-51952857D01*
X206338571Y-52095714D01*
X205624285Y-52238571D01*
X206981428Y-52738571D02*
X206981428Y-51738571D01*
X206981428Y-52024285D02*
X207052857Y-51881428D01*
X207124285Y-51810000D01*
X207267142Y-51738571D01*
X207410000Y-51738571D01*
X197945714Y-54288571D02*
X198302857Y-55288571D01*
X198660000Y-54288571D01*
X199517142Y-53788571D02*
X199660000Y-53788571D01*
X199802857Y-53860000D01*
X199874285Y-53931428D01*
X199945714Y-54074285D01*
X200017142Y-54360000D01*
X200017142Y-54717142D01*
X199945714Y-55002857D01*
X199874285Y-55145714D01*
X199802857Y-55217142D01*
X199660000Y-55288571D01*
X199517142Y-55288571D01*
X199374285Y-55217142D01*
X199302857Y-55145714D01*
X199231428Y-55002857D01*
X199160000Y-54717142D01*
X199160000Y-54360000D01*
X199231428Y-54074285D01*
X199302857Y-53931428D01*
X199374285Y-53860000D01*
X199517142Y-53788571D01*
X200660000Y-55145714D02*
X200731428Y-55217142D01*
X200660000Y-55288571D01*
X200588571Y-55217142D01*
X200660000Y-55145714D01*
X200660000Y-55288571D01*
X202160000Y-55288571D02*
X201302857Y-55288571D01*
X201731428Y-55288571D02*
X201731428Y-53788571D01*
X201588571Y-54002857D01*
X201445714Y-54145714D01*
X201302857Y-54217142D01*
X192731428Y-56838571D02*
X193017142Y-57838571D01*
X193302857Y-57124285D01*
X193588571Y-57838571D01*
X193874285Y-56838571D01*
X194302857Y-56838571D02*
X194588571Y-57838571D01*
X194874285Y-57124285D01*
X195160000Y-57838571D01*
X195445714Y-56838571D01*
X195874285Y-56838571D02*
X196160000Y-57838571D01*
X196445714Y-57124285D01*
X196731428Y-57838571D01*
X197017142Y-56838571D01*
X197588571Y-57695714D02*
X197660000Y-57767142D01*
X197588571Y-57838571D01*
X197517142Y-57767142D01*
X197588571Y-57695714D01*
X197588571Y-57838571D01*
X198302857Y-57838571D02*
X198302857Y-56838571D01*
X198302857Y-56981428D02*
X198374285Y-56910000D01*
X198517142Y-56838571D01*
X198731428Y-56838571D01*
X198874285Y-56910000D01*
X198945714Y-57052857D01*
X198945714Y-57838571D01*
X198945714Y-57052857D02*
X199017142Y-56910000D01*
X199160000Y-56838571D01*
X199374285Y-56838571D01*
X199517142Y-56910000D01*
X199588571Y-57052857D01*
X199588571Y-57838571D01*
X200302857Y-57838571D02*
X200302857Y-56338571D01*
X200445714Y-57267142D02*
X200874285Y-57838571D01*
X200874285Y-56838571D02*
X200302857Y-57410000D01*
X201517142Y-57838571D02*
X201517142Y-56838571D01*
X201517142Y-56981428D02*
X201588571Y-56910000D01*
X201731428Y-56838571D01*
X201945714Y-56838571D01*
X202088571Y-56910000D01*
X202160000Y-57052857D01*
X202160000Y-57838571D01*
X202160000Y-57052857D02*
X202231428Y-56910000D01*
X202374285Y-56838571D01*
X202588571Y-56838571D01*
X202731428Y-56910000D01*
X202802857Y-57052857D01*
X202802857Y-57838571D01*
X204088571Y-57767142D02*
X203945714Y-57838571D01*
X203660000Y-57838571D01*
X203517142Y-57767142D01*
X203445714Y-57624285D01*
X203445714Y-57052857D01*
X203517142Y-56910000D01*
X203660000Y-56838571D01*
X203945714Y-56838571D01*
X204088571Y-56910000D01*
X204160000Y-57052857D01*
X204160000Y-57195714D01*
X203445714Y-57338571D01*
X204802857Y-57695714D02*
X204874285Y-57767142D01*
X204802857Y-57838571D01*
X204731428Y-57767142D01*
X204802857Y-57695714D01*
X204802857Y-57838571D01*
X205731428Y-57838571D02*
X205588571Y-57767142D01*
X205517142Y-57695714D01*
X205445714Y-57552857D01*
X205445714Y-57124285D01*
X205517142Y-56981428D01*
X205588571Y-56910000D01*
X205731428Y-56838571D01*
X205945714Y-56838571D01*
X206088571Y-56910000D01*
X206160000Y-56981428D01*
X206231428Y-57124285D01*
X206231428Y-57552857D01*
X206160000Y-57695714D01*
X206088571Y-57767142D01*
X205945714Y-57838571D01*
X205731428Y-57838571D01*
X206874285Y-57838571D02*
X206874285Y-56838571D01*
X206874285Y-57124285D02*
X206945714Y-56981428D01*
X207017142Y-56910000D01*
X207160000Y-56838571D01*
X207302857Y-56838571D01*
X208445714Y-56838571D02*
X208445714Y-58052857D01*
X208374285Y-58195714D01*
X208302857Y-58267142D01*
X208160000Y-58338571D01*
X207945714Y-58338571D01*
X207802857Y-58267142D01*
X208445714Y-57767142D02*
X208302857Y-57838571D01*
X208017142Y-57838571D01*
X207874285Y-57767142D01*
X207802857Y-57695714D01*
X207731428Y-57552857D01*
X207731428Y-57124285D01*
X207802857Y-56981428D01*
X207874285Y-56910000D01*
X208017142Y-56838571D01*
X208302857Y-56838571D01*
X208445714Y-56910000D01*
D12*
%TO.C,*%
X201040000Y-136620000D02*
G75*
G03*
X201040000Y-136620000I-1200000J0D01*
G01*
X198500000Y-136620000D02*
G75*
G03*
X198500000Y-136620000I-1200000J0D01*
G01*
X195960000Y-136620000D02*
G75*
G03*
X195960000Y-136620000I-1200000J0D01*
G01*
X193420000Y-136620000D02*
G75*
G03*
X193420000Y-136620000I-1200000J0D01*
G01*
X190880000Y-136620000D02*
G75*
G03*
X190880000Y-136620000I-1200000J0D01*
G01*
X188340000Y-136620000D02*
G75*
G03*
X188340000Y-136620000I-1200000J0D01*
G01*
X185800000Y-136620000D02*
G75*
G03*
X185800000Y-136620000I-1200000J0D01*
G01*
X201040000Y-134080000D02*
G75*
G03*
X201040000Y-134080000I-1200000J0D01*
G01*
X198500000Y-134080000D02*
G75*
G03*
X198500000Y-134080000I-1200000J0D01*
G01*
X195960000Y-134080000D02*
G75*
G03*
X195960000Y-134080000I-1200000J0D01*
G01*
X193420000Y-134080000D02*
G75*
G03*
X193420000Y-134080000I-1200000J0D01*
G01*
X190880000Y-134080000D02*
G75*
G03*
X190880000Y-134080000I-1200000J0D01*
G01*
X188340000Y-134080000D02*
G75*
G03*
X188340000Y-134080000I-1200000J0D01*
G01*
X185800000Y-134080000D02*
G75*
G03*
X185800000Y-134080000I-1200000J0D01*
G01*
X201040000Y-131540000D02*
G75*
G03*
X201040000Y-131540000I-1200000J0D01*
G01*
X198500000Y-131540000D02*
G75*
G03*
X198500000Y-131540000I-1200000J0D01*
G01*
X195960000Y-131540000D02*
G75*
G03*
X195960000Y-131540000I-1200000J0D01*
G01*
X193420000Y-131540000D02*
G75*
G03*
X193420000Y-131540000I-1200000J0D01*
G01*
X190880000Y-131540000D02*
G75*
G03*
X190880000Y-131540000I-1200000J0D01*
G01*
X188340000Y-131540000D02*
G75*
G03*
X188340000Y-131540000I-1200000J0D01*
G01*
X185800000Y-131540000D02*
G75*
G03*
X185800000Y-131540000I-1200000J0D01*
G01*
X201040000Y-129000000D02*
G75*
G03*
X201040000Y-129000000I-1200000J0D01*
G01*
X198500000Y-129000000D02*
G75*
G03*
X198500000Y-129000000I-1200000J0D01*
G01*
X195960000Y-129000000D02*
G75*
G03*
X195960000Y-129000000I-1200000J0D01*
G01*
X193420000Y-129000000D02*
G75*
G03*
X193420000Y-129000000I-1200000J0D01*
G01*
X190880000Y-129000000D02*
G75*
G03*
X190880000Y-129000000I-1200000J0D01*
G01*
X188340000Y-129000000D02*
G75*
G03*
X188340000Y-129000000I-1200000J0D01*
G01*
X185800000Y-129000000D02*
G75*
G03*
X185800000Y-129000000I-1200000J0D01*
G01*
X201040000Y-126460000D02*
G75*
G03*
X201040000Y-126460000I-1200000J0D01*
G01*
X198500000Y-126460000D02*
G75*
G03*
X198500000Y-126460000I-1200000J0D01*
G01*
X195960000Y-126460000D02*
G75*
G03*
X195960000Y-126460000I-1200000J0D01*
G01*
X193420000Y-126460000D02*
G75*
G03*
X193420000Y-126460000I-1200000J0D01*
G01*
X190880000Y-126460000D02*
G75*
G03*
X190880000Y-126460000I-1200000J0D01*
G01*
X188340000Y-126460000D02*
G75*
G03*
X188340000Y-126460000I-1200000J0D01*
G01*
X185800000Y-126460000D02*
G75*
G03*
X185800000Y-126460000I-1200000J0D01*
G01*
X201040000Y-123920000D02*
G75*
G03*
X201040000Y-123920000I-1200000J0D01*
G01*
X198500000Y-123920000D02*
G75*
G03*
X198500000Y-123920000I-1200000J0D01*
G01*
X195960000Y-123920000D02*
G75*
G03*
X195960000Y-123920000I-1200000J0D01*
G01*
X193420000Y-123920000D02*
G75*
G03*
X193420000Y-123920000I-1200000J0D01*
G01*
X190880000Y-123920000D02*
G75*
G03*
X190880000Y-123920000I-1200000J0D01*
G01*
X188340000Y-123920000D02*
G75*
G03*
X188340000Y-123920000I-1200000J0D01*
G01*
X185800000Y-123920000D02*
G75*
G03*
X185800000Y-123920000I-1200000J0D01*
G01*
X201040000Y-121380000D02*
G75*
G03*
X201040000Y-121380000I-1200000J0D01*
G01*
X198500000Y-121380000D02*
G75*
G03*
X198500000Y-121380000I-1200000J0D01*
G01*
X195960000Y-121380000D02*
G75*
G03*
X195960000Y-121380000I-1200000J0D01*
G01*
X193420000Y-121380000D02*
G75*
G03*
X193420000Y-121380000I-1200000J0D01*
G01*
X190880000Y-121380000D02*
G75*
G03*
X190880000Y-121380000I-1200000J0D01*
G01*
X188340000Y-121380000D02*
G75*
G03*
X188340000Y-121380000I-1200000J0D01*
G01*
X185800000Y-121380000D02*
G75*
G03*
X185800000Y-121380000I-1200000J0D01*
G01*
X201040000Y-118840000D02*
G75*
G03*
X201040000Y-118840000I-1200000J0D01*
G01*
X198500000Y-118840000D02*
G75*
G03*
X198500000Y-118840000I-1200000J0D01*
G01*
X195960000Y-118840000D02*
G75*
G03*
X195960000Y-118840000I-1200000J0D01*
G01*
X193420000Y-118840000D02*
G75*
G03*
X193420000Y-118840000I-1200000J0D01*
G01*
X190880000Y-118840000D02*
G75*
G03*
X190880000Y-118840000I-1200000J0D01*
G01*
X188340000Y-118840000D02*
G75*
G03*
X188340000Y-118840000I-1200000J0D01*
G01*
X185800000Y-118840000D02*
G75*
G03*
X185800000Y-118840000I-1200000J0D01*
G01*
X201040000Y-116300000D02*
G75*
G03*
X201040000Y-116300000I-1200000J0D01*
G01*
X198500000Y-116300000D02*
G75*
G03*
X198500000Y-116300000I-1200000J0D01*
G01*
X195960000Y-116300000D02*
G75*
G03*
X195960000Y-116300000I-1200000J0D01*
G01*
X193420000Y-116300000D02*
G75*
G03*
X193420000Y-116300000I-1200000J0D01*
G01*
X190880000Y-116300000D02*
G75*
G03*
X190880000Y-116300000I-1200000J0D01*
G01*
X188340000Y-116300000D02*
G75*
G03*
X188340000Y-116300000I-1200000J0D01*
G01*
X185800000Y-116300000D02*
G75*
G03*
X185800000Y-116300000I-1200000J0D01*
G01*
%TO.C,J5*%
X217580000Y-60960000D02*
G75*
G03*
X217580000Y-60960000I-1680000J0D01*
G01*
X217580000Y-66040000D02*
G75*
G03*
X217580000Y-66040000I-1680000J0D01*
G01*
X217580000Y-71120000D02*
G75*
G03*
X217580000Y-71120000I-1680000J0D01*
G01*
X217580000Y-76200000D02*
G75*
G03*
X217580000Y-76200000I-1680000J0D01*
G01*
X217580000Y-81280000D02*
G75*
G03*
X217580000Y-81280000I-1680000J0D01*
G01*
X217580000Y-86360000D02*
G75*
G03*
X217580000Y-86360000I-1680000J0D01*
G01*
X217580000Y-91440000D02*
G75*
G03*
X217580000Y-91440000I-1680000J0D01*
G01*
X211200000Y-53280000D02*
X211200000Y-94040000D01*
X213400000Y-53280000D02*
X213400000Y-94040000D01*
X219200000Y-53280000D02*
X219200000Y-94040000D01*
X221260000Y-53280000D02*
X221260000Y-94040000D01*
X210540000Y-53280000D02*
X210540000Y-94040000D01*
X221260000Y-53280000D02*
X210540000Y-53280000D01*
X221260000Y-94040000D02*
X210540000Y-94040000D01*
X220950000Y-54630000D02*
X220950000Y-57130000D01*
X220450000Y-54630000D02*
X220450000Y-57130000D01*
X220950000Y-54630000D02*
X220450000Y-54630000D01*
X220950000Y-57130000D02*
X220450000Y-57130000D01*
X216969000Y-62235000D02*
X216876000Y-62141000D01*
X214684000Y-59950000D02*
X214626000Y-59891000D01*
X217175000Y-62030000D02*
X217116000Y-61971000D01*
X214924000Y-59780000D02*
X214831000Y-59686000D01*
X220950000Y-59710000D02*
X220950000Y-62210000D01*
X220450000Y-59710000D02*
X220450000Y-62210000D01*
X220950000Y-59710000D02*
X220450000Y-59710000D01*
X220950000Y-62210000D02*
X220450000Y-62210000D01*
X216969000Y-67315000D02*
X216876000Y-67221000D01*
X214684000Y-65030000D02*
X214626000Y-64971000D01*
X217175000Y-67110000D02*
X217116000Y-67051000D01*
X214924000Y-64860000D02*
X214831000Y-64766000D01*
X220950000Y-64790000D02*
X220950000Y-67290000D01*
X220450000Y-64790000D02*
X220450000Y-67290000D01*
X220950000Y-64790000D02*
X220450000Y-64790000D01*
X220950000Y-67290000D02*
X220450000Y-67290000D01*
X216969000Y-72395000D02*
X216876000Y-72301000D01*
X214684000Y-70110000D02*
X214626000Y-70051000D01*
X217175000Y-72190000D02*
X217116000Y-72131000D01*
X214924000Y-69940000D02*
X214831000Y-69846000D01*
X220950000Y-69870000D02*
X220950000Y-72370000D01*
X220450000Y-69870000D02*
X220450000Y-72370000D01*
X220950000Y-69870000D02*
X220450000Y-69870000D01*
X220950000Y-72370000D02*
X220450000Y-72370000D01*
X216969000Y-77475000D02*
X216876000Y-77381000D01*
X214684000Y-75190000D02*
X214626000Y-75131000D01*
X217175000Y-77270000D02*
X217116000Y-77211000D01*
X214924000Y-75020000D02*
X214831000Y-74926000D01*
X220950000Y-74950000D02*
X220950000Y-77450000D01*
X220450000Y-74950000D02*
X220450000Y-77450000D01*
X220950000Y-74950000D02*
X220450000Y-74950000D01*
X220950000Y-77450000D02*
X220450000Y-77450000D01*
X216969000Y-82555000D02*
X216876000Y-82461000D01*
X214684000Y-80270000D02*
X214626000Y-80211000D01*
X217175000Y-82350000D02*
X217116000Y-82291000D01*
X214924000Y-80100000D02*
X214831000Y-80006000D01*
X220950000Y-80030000D02*
X220950000Y-82530000D01*
X220450000Y-80030000D02*
X220450000Y-82530000D01*
X220950000Y-80030000D02*
X220450000Y-80030000D01*
X220950000Y-82530000D02*
X220450000Y-82530000D01*
X216969000Y-87635000D02*
X216876000Y-87541000D01*
X214684000Y-85350000D02*
X214626000Y-85291000D01*
X217175000Y-87430000D02*
X217116000Y-87371000D01*
X214924000Y-85180000D02*
X214831000Y-85086000D01*
X220950000Y-85110000D02*
X220950000Y-87610000D01*
X220450000Y-85110000D02*
X220450000Y-87610000D01*
X220950000Y-85110000D02*
X220450000Y-85110000D01*
X220950000Y-87610000D02*
X220450000Y-87610000D01*
X216969000Y-92715000D02*
X216876000Y-92621000D01*
X214684000Y-90430000D02*
X214626000Y-90371000D01*
X217175000Y-92510000D02*
X217116000Y-92451000D01*
X214924000Y-90260000D02*
X214831000Y-90166000D01*
X220950000Y-90190000D02*
X220950000Y-92690000D01*
X220450000Y-90190000D02*
X220450000Y-92690000D01*
X220950000Y-90190000D02*
X220450000Y-90190000D01*
X220950000Y-92690000D02*
X220450000Y-92690000D01*
X211140000Y-53040000D02*
X210300000Y-53040000D01*
X210300000Y-53040000D02*
X210300000Y-53640000D01*
X214416648Y-56668712D02*
G75*
G02*
X214220000Y-55880000I1483352J788712D01*
G01*
X216689088Y-57363953D02*
G75*
G02*
X215111000Y-57364000I-789088J1483953D01*
G01*
X217383953Y-55090912D02*
G75*
G02*
X217384000Y-56669000I-1483953J-789088D01*
G01*
X215110912Y-54396047D02*
G75*
G02*
X216689000Y-54396000I789088J-1483953D01*
G01*
X214219550Y-55909383D02*
G75*
G02*
X214416000Y-55091000I1680450J29383D01*
G01*
D13*
%TO.C,G\u002A\u002A\u002A*%
G36*
X185826542Y-50376811D02*
G01*
X186618560Y-50377446D01*
X187320154Y-50378703D01*
X187936939Y-50380776D01*
X188474532Y-50383863D01*
X188938548Y-50388160D01*
X189334603Y-50393863D01*
X189668314Y-50401168D01*
X189945296Y-50410272D01*
X190171166Y-50421370D01*
X190351539Y-50434660D01*
X190492032Y-50450337D01*
X190598260Y-50468598D01*
X190675840Y-50489640D01*
X190730388Y-50513657D01*
X190767519Y-50540847D01*
X190792850Y-50571406D01*
X190811996Y-50605530D01*
X190830575Y-50643416D01*
X190836993Y-50655763D01*
X190848900Y-50733711D01*
X190859493Y-50912747D01*
X190868775Y-51181078D01*
X190876743Y-51526911D01*
X190883400Y-51938452D01*
X190888744Y-52403909D01*
X190892775Y-52911489D01*
X190895494Y-53449397D01*
X190896901Y-54005842D01*
X190896995Y-54569029D01*
X190895777Y-55127166D01*
X190893246Y-55668459D01*
X190889403Y-56181116D01*
X190884247Y-56653342D01*
X190877779Y-57073346D01*
X190869999Y-57429334D01*
X190860906Y-57709512D01*
X190850501Y-57902088D01*
X190838783Y-57995268D01*
X190836993Y-57999793D01*
X190715645Y-58128648D01*
X190527230Y-58228755D01*
X190317412Y-58277353D01*
X190277025Y-58278889D01*
X190158344Y-58291049D01*
X190111757Y-58351030D01*
X190104025Y-58462334D01*
X190097193Y-58601662D01*
X190065783Y-58694453D01*
X189991087Y-58749291D01*
X189854394Y-58774761D01*
X189636994Y-58779449D01*
X189422939Y-58774857D01*
X188834889Y-58758667D01*
X188817532Y-58518778D01*
X188800176Y-58278889D01*
X176903380Y-58278889D01*
X176886023Y-58518778D01*
X176868667Y-58758667D01*
X176261889Y-58774688D01*
X175655111Y-58790708D01*
X175655111Y-58534799D01*
X175650450Y-58377901D01*
X175622541Y-58303309D01*
X175550499Y-58280467D01*
X175480197Y-58278889D01*
X175256332Y-58242557D01*
X175050567Y-58147482D01*
X174903075Y-58014551D01*
X174872710Y-57963069D01*
X174859846Y-57879149D01*
X174848318Y-57694673D01*
X174838135Y-57421492D01*
X174829309Y-57071454D01*
X174821849Y-56656411D01*
X174815764Y-56188212D01*
X174811066Y-55678706D01*
X174807763Y-55139743D01*
X174805866Y-54583174D01*
X174805385Y-54020847D01*
X174806329Y-53464614D01*
X174808709Y-52926323D01*
X174812535Y-52417824D01*
X174817816Y-51950968D01*
X174824563Y-51537603D01*
X174832785Y-51189581D01*
X174842493Y-50918750D01*
X174851156Y-50778179D01*
X175034222Y-50778179D01*
X175034222Y-54319690D01*
X175034759Y-55085922D01*
X175036446Y-55745506D01*
X175039402Y-56304678D01*
X175043742Y-56769673D01*
X175049584Y-57146727D01*
X175057046Y-57442075D01*
X175066244Y-57661955D01*
X175077294Y-57812600D01*
X175090315Y-57900248D01*
X175101956Y-57928934D01*
X175137281Y-57939007D01*
X175225053Y-57948120D01*
X175369659Y-57956311D01*
X175575490Y-57963619D01*
X175846936Y-57970081D01*
X176188386Y-57975737D01*
X176604230Y-57980624D01*
X177098858Y-57984781D01*
X177676659Y-57988246D01*
X178342024Y-57991058D01*
X179099341Y-57993254D01*
X179953000Y-57994874D01*
X180907392Y-57995955D01*
X181966905Y-57996536D01*
X182856155Y-57996667D01*
X183946257Y-57996591D01*
X184929049Y-57996320D01*
X185810111Y-57995787D01*
X186595022Y-57994923D01*
X187289361Y-57993663D01*
X187898708Y-57991940D01*
X188428642Y-57989685D01*
X188884742Y-57986832D01*
X189272587Y-57983315D01*
X189597757Y-57979065D01*
X189865832Y-57974017D01*
X190082390Y-57968102D01*
X190253010Y-57961254D01*
X190383273Y-57953406D01*
X190478757Y-57944491D01*
X190545041Y-57934441D01*
X190587705Y-57923190D01*
X190612328Y-57910671D01*
X190620089Y-57903358D01*
X190636797Y-57865707D01*
X190651259Y-57790647D01*
X190663689Y-57670324D01*
X190674300Y-57496887D01*
X190683306Y-57262482D01*
X190690921Y-56959257D01*
X190697357Y-56579360D01*
X190702830Y-56114938D01*
X190707551Y-55558138D01*
X190711735Y-54901109D01*
X190714123Y-54446136D01*
X190716596Y-53835208D01*
X190717916Y-53254202D01*
X190718127Y-52713597D01*
X190717272Y-52223869D01*
X190715398Y-51795498D01*
X190712548Y-51438961D01*
X190708767Y-51164737D01*
X190704100Y-50983302D01*
X190699074Y-50907411D01*
X190620381Y-50737463D01*
X190524628Y-50667522D01*
X190470989Y-50657537D01*
X190353479Y-50648503D01*
X190168264Y-50640387D01*
X189911508Y-50633158D01*
X189579376Y-50626782D01*
X189168033Y-50621227D01*
X188673645Y-50616461D01*
X188092376Y-50612452D01*
X187420392Y-50609166D01*
X186653858Y-50606571D01*
X185788938Y-50604635D01*
X184821798Y-50603326D01*
X183748602Y-50602611D01*
X182833459Y-50602445D01*
X181748902Y-50602545D01*
X180771633Y-50602889D01*
X179896048Y-50603540D01*
X179116546Y-50604564D01*
X178427525Y-50606023D01*
X177823383Y-50607982D01*
X177298518Y-50610506D01*
X176847329Y-50613657D01*
X176464212Y-50617502D01*
X176143567Y-50622103D01*
X175879791Y-50627524D01*
X175667283Y-50633831D01*
X175500440Y-50641087D01*
X175373660Y-50649356D01*
X175281343Y-50658702D01*
X175217884Y-50669190D01*
X175177684Y-50680884D01*
X175159670Y-50690312D01*
X175034222Y-50778179D01*
X174851156Y-50778179D01*
X174853697Y-50736961D01*
X174866406Y-50656063D01*
X174866562Y-50655763D01*
X174886086Y-50616689D01*
X174904464Y-50581437D01*
X174927311Y-50549811D01*
X174960244Y-50521613D01*
X175008878Y-50496648D01*
X175078831Y-50474719D01*
X175175717Y-50455630D01*
X175305153Y-50439184D01*
X175472755Y-50425186D01*
X175684139Y-50413440D01*
X175944920Y-50403748D01*
X176260716Y-50395914D01*
X176637141Y-50389743D01*
X177079813Y-50385038D01*
X177594346Y-50381602D01*
X178186358Y-50379240D01*
X178861463Y-50377755D01*
X179625279Y-50376951D01*
X180483421Y-50376631D01*
X181441504Y-50376600D01*
X182505146Y-50376660D01*
X182851778Y-50376667D01*
X183948766Y-50376617D01*
X184938482Y-50376600D01*
X185826542Y-50376811D01*
G37*
X185826542Y-50376811D02*
X186618560Y-50377446D01*
X187320154Y-50378703D01*
X187936939Y-50380776D01*
X188474532Y-50383863D01*
X188938548Y-50388160D01*
X189334603Y-50393863D01*
X189668314Y-50401168D01*
X189945296Y-50410272D01*
X190171166Y-50421370D01*
X190351539Y-50434660D01*
X190492032Y-50450337D01*
X190598260Y-50468598D01*
X190675840Y-50489640D01*
X190730388Y-50513657D01*
X190767519Y-50540847D01*
X190792850Y-50571406D01*
X190811996Y-50605530D01*
X190830575Y-50643416D01*
X190836993Y-50655763D01*
X190848900Y-50733711D01*
X190859493Y-50912747D01*
X190868775Y-51181078D01*
X190876743Y-51526911D01*
X190883400Y-51938452D01*
X190888744Y-52403909D01*
X190892775Y-52911489D01*
X190895494Y-53449397D01*
X190896901Y-54005842D01*
X190896995Y-54569029D01*
X190895777Y-55127166D01*
X190893246Y-55668459D01*
X190889403Y-56181116D01*
X190884247Y-56653342D01*
X190877779Y-57073346D01*
X190869999Y-57429334D01*
X190860906Y-57709512D01*
X190850501Y-57902088D01*
X190838783Y-57995268D01*
X190836993Y-57999793D01*
X190715645Y-58128648D01*
X190527230Y-58228755D01*
X190317412Y-58277353D01*
X190277025Y-58278889D01*
X190158344Y-58291049D01*
X190111757Y-58351030D01*
X190104025Y-58462334D01*
X190097193Y-58601662D01*
X190065783Y-58694453D01*
X189991087Y-58749291D01*
X189854394Y-58774761D01*
X189636994Y-58779449D01*
X189422939Y-58774857D01*
X188834889Y-58758667D01*
X188817532Y-58518778D01*
X188800176Y-58278889D01*
X176903380Y-58278889D01*
X176886023Y-58518778D01*
X176868667Y-58758667D01*
X176261889Y-58774688D01*
X175655111Y-58790708D01*
X175655111Y-58534799D01*
X175650450Y-58377901D01*
X175622541Y-58303309D01*
X175550499Y-58280467D01*
X175480197Y-58278889D01*
X175256332Y-58242557D01*
X175050567Y-58147482D01*
X174903075Y-58014551D01*
X174872710Y-57963069D01*
X174859846Y-57879149D01*
X174848318Y-57694673D01*
X174838135Y-57421492D01*
X174829309Y-57071454D01*
X174821849Y-56656411D01*
X174815764Y-56188212D01*
X174811066Y-55678706D01*
X174807763Y-55139743D01*
X174805866Y-54583174D01*
X174805385Y-54020847D01*
X174806329Y-53464614D01*
X174808709Y-52926323D01*
X174812535Y-52417824D01*
X174817816Y-51950968D01*
X174824563Y-51537603D01*
X174832785Y-51189581D01*
X174842493Y-50918750D01*
X174851156Y-50778179D01*
X175034222Y-50778179D01*
X175034222Y-54319690D01*
X175034759Y-55085922D01*
X175036446Y-55745506D01*
X175039402Y-56304678D01*
X175043742Y-56769673D01*
X175049584Y-57146727D01*
X175057046Y-57442075D01*
X175066244Y-57661955D01*
X175077294Y-57812600D01*
X175090315Y-57900248D01*
X175101956Y-57928934D01*
X175137281Y-57939007D01*
X175225053Y-57948120D01*
X175369659Y-57956311D01*
X175575490Y-57963619D01*
X175846936Y-57970081D01*
X176188386Y-57975737D01*
X176604230Y-57980624D01*
X177098858Y-57984781D01*
X177676659Y-57988246D01*
X178342024Y-57991058D01*
X179099341Y-57993254D01*
X179953000Y-57994874D01*
X180907392Y-57995955D01*
X181966905Y-57996536D01*
X182856155Y-57996667D01*
X183946257Y-57996591D01*
X184929049Y-57996320D01*
X185810111Y-57995787D01*
X186595022Y-57994923D01*
X187289361Y-57993663D01*
X187898708Y-57991940D01*
X188428642Y-57989685D01*
X188884742Y-57986832D01*
X189272587Y-57983315D01*
X189597757Y-57979065D01*
X189865832Y-57974017D01*
X190082390Y-57968102D01*
X190253010Y-57961254D01*
X190383273Y-57953406D01*
X190478757Y-57944491D01*
X190545041Y-57934441D01*
X190587705Y-57923190D01*
X190612328Y-57910671D01*
X190620089Y-57903358D01*
X190636797Y-57865707D01*
X190651259Y-57790647D01*
X190663689Y-57670324D01*
X190674300Y-57496887D01*
X190683306Y-57262482D01*
X190690921Y-56959257D01*
X190697357Y-56579360D01*
X190702830Y-56114938D01*
X190707551Y-55558138D01*
X190711735Y-54901109D01*
X190714123Y-54446136D01*
X190716596Y-53835208D01*
X190717916Y-53254202D01*
X190718127Y-52713597D01*
X190717272Y-52223869D01*
X190715398Y-51795498D01*
X190712548Y-51438961D01*
X190708767Y-51164737D01*
X190704100Y-50983302D01*
X190699074Y-50907411D01*
X190620381Y-50737463D01*
X190524628Y-50667522D01*
X190470989Y-50657537D01*
X190353479Y-50648503D01*
X190168264Y-50640387D01*
X189911508Y-50633158D01*
X189579376Y-50626782D01*
X189168033Y-50621227D01*
X188673645Y-50616461D01*
X188092376Y-50612452D01*
X187420392Y-50609166D01*
X186653858Y-50606571D01*
X185788938Y-50604635D01*
X184821798Y-50603326D01*
X183748602Y-50602611D01*
X182833459Y-50602445D01*
X181748902Y-50602545D01*
X180771633Y-50602889D01*
X179896048Y-50603540D01*
X179116546Y-50604564D01*
X178427525Y-50606023D01*
X177823383Y-50607982D01*
X177298518Y-50610506D01*
X176847329Y-50613657D01*
X176464212Y-50617502D01*
X176143567Y-50622103D01*
X175879791Y-50627524D01*
X175667283Y-50633831D01*
X175500440Y-50641087D01*
X175373660Y-50649356D01*
X175281343Y-50658702D01*
X175217884Y-50669190D01*
X175177684Y-50680884D01*
X175159670Y-50690312D01*
X175034222Y-50778179D01*
X174851156Y-50778179D01*
X174853697Y-50736961D01*
X174866406Y-50656063D01*
X174866562Y-50655763D01*
X174886086Y-50616689D01*
X174904464Y-50581437D01*
X174927311Y-50549811D01*
X174960244Y-50521613D01*
X175008878Y-50496648D01*
X175078831Y-50474719D01*
X175175717Y-50455630D01*
X175305153Y-50439184D01*
X175472755Y-50425186D01*
X175684139Y-50413440D01*
X175944920Y-50403748D01*
X176260716Y-50395914D01*
X176637141Y-50389743D01*
X177079813Y-50385038D01*
X177594346Y-50381602D01*
X178186358Y-50379240D01*
X178861463Y-50377755D01*
X179625279Y-50376951D01*
X180483421Y-50376631D01*
X181441504Y-50376600D01*
X182505146Y-50376660D01*
X182851778Y-50376667D01*
X183948766Y-50376617D01*
X184938482Y-50376600D01*
X185826542Y-50376811D01*
G36*
X176525573Y-56885763D02*
G01*
X176550757Y-56900569D01*
X176726196Y-57057301D01*
X176802842Y-57246854D01*
X176780094Y-57446346D01*
X176657349Y-57632898D01*
X176571932Y-57704682D01*
X176459777Y-57777850D01*
X176379606Y-57789448D01*
X176276416Y-57740531D01*
X176227939Y-57711291D01*
X176048265Y-57552068D01*
X175973715Y-57367193D01*
X175974146Y-57364438D01*
X176116725Y-57364438D01*
X176165097Y-57492378D01*
X176264715Y-57574558D01*
X176412619Y-57601484D01*
X176556009Y-57568163D01*
X176603378Y-57533822D01*
X176669423Y-57397265D01*
X176656359Y-57234866D01*
X176571444Y-57093481D01*
X176530000Y-57060143D01*
X176419527Y-57000421D01*
X176332664Y-57010080D01*
X176247778Y-57060143D01*
X176130226Y-57193211D01*
X176116725Y-57364438D01*
X175974146Y-57364438D01*
X176004290Y-57172166D01*
X176139993Y-56982490D01*
X176227812Y-56908538D01*
X176333988Y-56838577D01*
X176414565Y-56831447D01*
X176525573Y-56885763D01*
G37*
X176525573Y-56885763D02*
X176550757Y-56900569D01*
X176726196Y-57057301D01*
X176802842Y-57246854D01*
X176780094Y-57446346D01*
X176657349Y-57632898D01*
X176571932Y-57704682D01*
X176459777Y-57777850D01*
X176379606Y-57789448D01*
X176276416Y-57740531D01*
X176227939Y-57711291D01*
X176048265Y-57552068D01*
X175973715Y-57367193D01*
X175974146Y-57364438D01*
X176116725Y-57364438D01*
X176165097Y-57492378D01*
X176264715Y-57574558D01*
X176412619Y-57601484D01*
X176556009Y-57568163D01*
X176603378Y-57533822D01*
X176669423Y-57397265D01*
X176656359Y-57234866D01*
X176571444Y-57093481D01*
X176530000Y-57060143D01*
X176419527Y-57000421D01*
X176332664Y-57010080D01*
X176247778Y-57060143D01*
X176130226Y-57193211D01*
X176116725Y-57364438D01*
X175974146Y-57364438D01*
X176004290Y-57172166D01*
X176139993Y-56982490D01*
X176227812Y-56908538D01*
X176333988Y-56838577D01*
X176414565Y-56831447D01*
X176525573Y-56885763D01*
G36*
X179014222Y-56924634D02*
G01*
X179182084Y-57081648D01*
X179252454Y-57267885D01*
X179227140Y-57458863D01*
X179107946Y-57630102D01*
X178954630Y-57732483D01*
X178760867Y-57824882D01*
X178562656Y-57626671D01*
X178414809Y-57439845D01*
X178385674Y-57321642D01*
X178549245Y-57321642D01*
X178587409Y-57483410D01*
X178691063Y-57572777D01*
X178841676Y-57602491D01*
X178986904Y-57566597D01*
X179030489Y-57533822D01*
X179099923Y-57401940D01*
X179090613Y-57255215D01*
X179021011Y-57122163D01*
X178909568Y-57031303D01*
X178774734Y-57011149D01*
X178707563Y-57034729D01*
X178591926Y-57153811D01*
X178549245Y-57321642D01*
X178385674Y-57321642D01*
X178373533Y-57272389D01*
X178440313Y-57111931D01*
X178616639Y-56946096D01*
X178647123Y-56923897D01*
X178817143Y-56802833D01*
X179014222Y-56924634D01*
G37*
X179014222Y-56924634D02*
X179182084Y-57081648D01*
X179252454Y-57267885D01*
X179227140Y-57458863D01*
X179107946Y-57630102D01*
X178954630Y-57732483D01*
X178760867Y-57824882D01*
X178562656Y-57626671D01*
X178414809Y-57439845D01*
X178385674Y-57321642D01*
X178549245Y-57321642D01*
X178587409Y-57483410D01*
X178691063Y-57572777D01*
X178841676Y-57602491D01*
X178986904Y-57566597D01*
X179030489Y-57533822D01*
X179099923Y-57401940D01*
X179090613Y-57255215D01*
X179021011Y-57122163D01*
X178909568Y-57031303D01*
X178774734Y-57011149D01*
X178707563Y-57034729D01*
X178591926Y-57153811D01*
X178549245Y-57321642D01*
X178385674Y-57321642D01*
X178373533Y-57272389D01*
X178440313Y-57111931D01*
X178616639Y-56946096D01*
X178647123Y-56923897D01*
X178817143Y-56802833D01*
X179014222Y-56924634D01*
G36*
X181492378Y-56984083D02*
G01*
X181645191Y-57171571D01*
X181687137Y-57361271D01*
X181619644Y-57543818D01*
X181444139Y-57709847D01*
X181375286Y-57752413D01*
X181273737Y-57786220D01*
X181161671Y-57755628D01*
X181080126Y-57710054D01*
X180902221Y-57551475D01*
X180827484Y-57367913D01*
X180830754Y-57345534D01*
X180958497Y-57345534D01*
X180998274Y-57495528D01*
X181028622Y-57533822D01*
X181165117Y-57599810D01*
X181327508Y-57586842D01*
X181468795Y-57502160D01*
X181502016Y-57460880D01*
X181564413Y-57310275D01*
X181526436Y-57182948D01*
X181387256Y-57062131D01*
X181275727Y-57001233D01*
X181189529Y-57008941D01*
X181102000Y-57060143D01*
X180995492Y-57184787D01*
X180958497Y-57345534D01*
X180830754Y-57345534D01*
X180855167Y-57178492D01*
X180984523Y-57002335D01*
X181111378Y-56910528D01*
X181290089Y-56806471D01*
X181492378Y-56984083D01*
G37*
X181492378Y-56984083D02*
X181645191Y-57171571D01*
X181687137Y-57361271D01*
X181619644Y-57543818D01*
X181444139Y-57709847D01*
X181375286Y-57752413D01*
X181273737Y-57786220D01*
X181161671Y-57755628D01*
X181080126Y-57710054D01*
X180902221Y-57551475D01*
X180827484Y-57367913D01*
X180830754Y-57345534D01*
X180958497Y-57345534D01*
X180998274Y-57495528D01*
X181028622Y-57533822D01*
X181165117Y-57599810D01*
X181327508Y-57586842D01*
X181468795Y-57502160D01*
X181502016Y-57460880D01*
X181564413Y-57310275D01*
X181526436Y-57182948D01*
X181387256Y-57062131D01*
X181275727Y-57001233D01*
X181189529Y-57008941D01*
X181102000Y-57060143D01*
X180995492Y-57184787D01*
X180958497Y-57345534D01*
X180830754Y-57345534D01*
X180855167Y-57178492D01*
X180984523Y-57002335D01*
X181111378Y-56910528D01*
X181290089Y-56806471D01*
X181492378Y-56984083D01*
G36*
X183860385Y-56919653D02*
G01*
X184027115Y-57077016D01*
X184099473Y-57266746D01*
X184077724Y-57462090D01*
X183962133Y-57636296D01*
X183852485Y-57716945D01*
X183720206Y-57772043D01*
X183605573Y-57755170D01*
X183558295Y-57733406D01*
X183373149Y-57593049D01*
X183285398Y-57401136D01*
X183278465Y-57321642D01*
X183403467Y-57321642D01*
X183441631Y-57483410D01*
X183545285Y-57572777D01*
X183695898Y-57602491D01*
X183841127Y-57566597D01*
X183884711Y-57533822D01*
X183954145Y-57401940D01*
X183944835Y-57255215D01*
X183875233Y-57122163D01*
X183763790Y-57031303D01*
X183628956Y-57011149D01*
X183561785Y-57034729D01*
X183446149Y-57153811D01*
X183403467Y-57321642D01*
X183278465Y-57321642D01*
X183275111Y-57283196D01*
X183299862Y-57137849D01*
X183391110Y-57016316D01*
X183471149Y-56949776D01*
X183667187Y-56800250D01*
X183860385Y-56919653D01*
G37*
X183860385Y-56919653D02*
X184027115Y-57077016D01*
X184099473Y-57266746D01*
X184077724Y-57462090D01*
X183962133Y-57636296D01*
X183852485Y-57716945D01*
X183720206Y-57772043D01*
X183605573Y-57755170D01*
X183558295Y-57733406D01*
X183373149Y-57593049D01*
X183285398Y-57401136D01*
X183278465Y-57321642D01*
X183403467Y-57321642D01*
X183441631Y-57483410D01*
X183545285Y-57572777D01*
X183695898Y-57602491D01*
X183841127Y-57566597D01*
X183884711Y-57533822D01*
X183954145Y-57401940D01*
X183944835Y-57255215D01*
X183875233Y-57122163D01*
X183763790Y-57031303D01*
X183628956Y-57011149D01*
X183561785Y-57034729D01*
X183446149Y-57153811D01*
X183403467Y-57321642D01*
X183278465Y-57321642D01*
X183275111Y-57283196D01*
X183299862Y-57137849D01*
X183391110Y-57016316D01*
X183471149Y-56949776D01*
X183667187Y-56800250D01*
X183860385Y-56919653D01*
G36*
X186248996Y-56895743D02*
G01*
X186292559Y-56922792D01*
X186463651Y-57082972D01*
X186538486Y-57272043D01*
X186517221Y-57465229D01*
X186400010Y-57637748D01*
X186287578Y-57718883D01*
X186163181Y-57779937D01*
X186072829Y-57782079D01*
X185956958Y-57723725D01*
X185933394Y-57709473D01*
X185755180Y-57550137D01*
X185679893Y-57365150D01*
X185681473Y-57354221D01*
X185826424Y-57354221D01*
X185885133Y-57489433D01*
X185997493Y-57575671D01*
X186156518Y-57600032D01*
X186309715Y-57554602D01*
X186311194Y-57553671D01*
X186388403Y-57446469D01*
X186391732Y-57298636D01*
X186325900Y-57150580D01*
X186255786Y-57078920D01*
X186145108Y-57004783D01*
X186064726Y-56999338D01*
X185959453Y-57058026D01*
X185839505Y-57190102D01*
X185826424Y-57354221D01*
X185681473Y-57354221D01*
X185707405Y-57174936D01*
X185837584Y-56999920D01*
X185938375Y-56926165D01*
X186062890Y-56856868D01*
X186147747Y-56846905D01*
X186248996Y-56895743D01*
G37*
X186248996Y-56895743D02*
X186292559Y-56922792D01*
X186463651Y-57082972D01*
X186538486Y-57272043D01*
X186517221Y-57465229D01*
X186400010Y-57637748D01*
X186287578Y-57718883D01*
X186163181Y-57779937D01*
X186072829Y-57782079D01*
X185956958Y-57723725D01*
X185933394Y-57709473D01*
X185755180Y-57550137D01*
X185679893Y-57365150D01*
X185681473Y-57354221D01*
X185826424Y-57354221D01*
X185885133Y-57489433D01*
X185997493Y-57575671D01*
X186156518Y-57600032D01*
X186309715Y-57554602D01*
X186311194Y-57553671D01*
X186388403Y-57446469D01*
X186391732Y-57298636D01*
X186325900Y-57150580D01*
X186255786Y-57078920D01*
X186145108Y-57004783D01*
X186064726Y-56999338D01*
X185959453Y-57058026D01*
X185839505Y-57190102D01*
X185826424Y-57354221D01*
X185681473Y-57354221D01*
X185707405Y-57174936D01*
X185837584Y-56999920D01*
X185938375Y-56926165D01*
X186062890Y-56856868D01*
X186147747Y-56846905D01*
X186248996Y-56895743D01*
G36*
X188659000Y-56880181D02*
G01*
X188716181Y-56912922D01*
X188851115Y-57024247D01*
X188939798Y-57154854D01*
X188942394Y-57161808D01*
X188960809Y-57345527D01*
X188903618Y-57521375D01*
X188791773Y-57665526D01*
X188646223Y-57754152D01*
X188487918Y-57763423D01*
X188431687Y-57742669D01*
X188252732Y-57634500D01*
X188161927Y-57519576D01*
X188137640Y-57364835D01*
X188138418Y-57347514D01*
X188258090Y-57347514D01*
X188295853Y-57483410D01*
X188403074Y-57581677D01*
X188550701Y-57602873D01*
X188698180Y-57548599D01*
X188781155Y-57464230D01*
X188831662Y-57301881D01*
X188776021Y-57150282D01*
X188637340Y-57037115D01*
X188496218Y-57012603D01*
X188372269Y-57074071D01*
X188286043Y-57194661D01*
X188258090Y-57347514D01*
X188138418Y-57347514D01*
X188140650Y-57297834D01*
X188172318Y-57127037D01*
X188257339Y-57009618D01*
X188349602Y-56940004D01*
X188476751Y-56860763D01*
X188562704Y-56842091D01*
X188659000Y-56880181D01*
G37*
X188659000Y-56880181D02*
X188716181Y-56912922D01*
X188851115Y-57024247D01*
X188939798Y-57154854D01*
X188942394Y-57161808D01*
X188960809Y-57345527D01*
X188903618Y-57521375D01*
X188791773Y-57665526D01*
X188646223Y-57754152D01*
X188487918Y-57763423D01*
X188431687Y-57742669D01*
X188252732Y-57634500D01*
X188161927Y-57519576D01*
X188137640Y-57364835D01*
X188138418Y-57347514D01*
X188258090Y-57347514D01*
X188295853Y-57483410D01*
X188403074Y-57581677D01*
X188550701Y-57602873D01*
X188698180Y-57548599D01*
X188781155Y-57464230D01*
X188831662Y-57301881D01*
X188776021Y-57150282D01*
X188637340Y-57037115D01*
X188496218Y-57012603D01*
X188372269Y-57074071D01*
X188286043Y-57194661D01*
X188258090Y-57347514D01*
X188138418Y-57347514D01*
X188140650Y-57297834D01*
X188172318Y-57127037D01*
X188257339Y-57009618D01*
X188349602Y-56940004D01*
X188476751Y-56860763D01*
X188562704Y-56842091D01*
X188659000Y-56880181D01*
G36*
X187610864Y-55869828D02*
G01*
X187609551Y-56047311D01*
X187558368Y-56159949D01*
X187439421Y-56221306D01*
X187234814Y-56244944D01*
X187113333Y-56246889D01*
X186860967Y-56235079D01*
X186709593Y-56198506D01*
X186665047Y-56166162D01*
X186625386Y-56059509D01*
X186613976Y-55900806D01*
X186615802Y-55869828D01*
X186633556Y-55654222D01*
X187593111Y-55654222D01*
X187610864Y-55869828D01*
G37*
X187610864Y-55869828D02*
X187609551Y-56047311D01*
X187558368Y-56159949D01*
X187439421Y-56221306D01*
X187234814Y-56244944D01*
X187113333Y-56246889D01*
X186860967Y-56235079D01*
X186709593Y-56198506D01*
X186665047Y-56166162D01*
X186625386Y-56059509D01*
X186613976Y-55900806D01*
X186615802Y-55869828D01*
X186633556Y-55654222D01*
X187593111Y-55654222D01*
X187610864Y-55869828D01*
G36*
X188637988Y-55643815D02*
G01*
X188743746Y-55686981D01*
X188793713Y-55767170D01*
X188806654Y-55892245D01*
X188806667Y-55898009D01*
X188789732Y-56055724D01*
X188748067Y-56168076D01*
X188738933Y-56179156D01*
X188639197Y-56220974D01*
X188468662Y-56243618D01*
X188265569Y-56247649D01*
X188068156Y-56233624D01*
X187914663Y-56202103D01*
X187850380Y-56166162D01*
X187810719Y-56059509D01*
X187799309Y-55900806D01*
X187801136Y-55869828D01*
X187818889Y-55654222D01*
X188184036Y-55637097D01*
X188457673Y-55629808D01*
X188637988Y-55643815D01*
G37*
X188637988Y-55643815D02*
X188743746Y-55686981D01*
X188793713Y-55767170D01*
X188806654Y-55892245D01*
X188806667Y-55898009D01*
X188789732Y-56055724D01*
X188748067Y-56168076D01*
X188738933Y-56179156D01*
X188639197Y-56220974D01*
X188468662Y-56243618D01*
X188265569Y-56247649D01*
X188068156Y-56233624D01*
X187914663Y-56202103D01*
X187850380Y-56166162D01*
X187810719Y-56059509D01*
X187799309Y-55900806D01*
X187801136Y-55869828D01*
X187818889Y-55654222D01*
X188184036Y-55637097D01*
X188457673Y-55629808D01*
X188637988Y-55643815D01*
G36*
X189823321Y-55643815D02*
G01*
X189929079Y-55686981D01*
X189979046Y-55767170D01*
X189991987Y-55892245D01*
X189992000Y-55898009D01*
X189975066Y-56055724D01*
X189933400Y-56168076D01*
X189924267Y-56179156D01*
X189834038Y-56213728D01*
X189669556Y-56236066D01*
X189468879Y-56245352D01*
X189270064Y-56240769D01*
X189111169Y-56221497D01*
X189042894Y-56198097D01*
X188993121Y-56102928D01*
X188985636Y-55914737D01*
X188986450Y-55902628D01*
X189004222Y-55654222D01*
X189369370Y-55637097D01*
X189643006Y-55629808D01*
X189823321Y-55643815D01*
G37*
X189823321Y-55643815D02*
X189929079Y-55686981D01*
X189979046Y-55767170D01*
X189991987Y-55892245D01*
X189992000Y-55898009D01*
X189975066Y-56055724D01*
X189933400Y-56168076D01*
X189924267Y-56179156D01*
X189834038Y-56213728D01*
X189669556Y-56236066D01*
X189468879Y-56245352D01*
X189270064Y-56240769D01*
X189111169Y-56221497D01*
X189042894Y-56198097D01*
X188993121Y-56102928D01*
X188985636Y-55914737D01*
X188986450Y-55902628D01*
X189004222Y-55654222D01*
X189369370Y-55637097D01*
X189643006Y-55629808D01*
X189823321Y-55643815D01*
G36*
X179854898Y-50828222D02*
G01*
X184226005Y-50828222D01*
X184573333Y-51120480D01*
X184573333Y-55768265D01*
X184429938Y-55922910D01*
X184286543Y-56077556D01*
X179928494Y-56075839D01*
X179011069Y-56074721D01*
X178196019Y-56072140D01*
X177484682Y-56068114D01*
X176878398Y-56062661D01*
X176378505Y-56055798D01*
X175986342Y-56047545D01*
X175703250Y-56037918D01*
X175530565Y-56026935D01*
X175471665Y-56016589D01*
X175406664Y-55974471D01*
X175353100Y-55923853D01*
X175309870Y-55854125D01*
X175275869Y-55754678D01*
X175249995Y-55614903D01*
X175231142Y-55424189D01*
X175218206Y-55171928D01*
X175210085Y-54847509D01*
X175206941Y-54557266D01*
X175429333Y-54557266D01*
X175431911Y-54964339D01*
X175441134Y-55273837D01*
X175459237Y-55500986D01*
X175488453Y-55661016D01*
X175531018Y-55769152D01*
X175589166Y-55840623D01*
X175621228Y-55865025D01*
X175690108Y-55874500D01*
X175858908Y-55883261D01*
X176114660Y-55891050D01*
X176444397Y-55897611D01*
X176835150Y-55902686D01*
X177273953Y-55906020D01*
X177747836Y-55907354D01*
X177757667Y-55907358D01*
X178302218Y-55907114D01*
X178744193Y-55905605D01*
X179093903Y-55902414D01*
X179361659Y-55897125D01*
X179557771Y-55889321D01*
X179692548Y-55878585D01*
X179776302Y-55864502D01*
X179819343Y-55846655D01*
X179831981Y-55824626D01*
X179832000Y-55823556D01*
X179786818Y-55748723D01*
X179747333Y-55738889D01*
X179672219Y-55708411D01*
X179662667Y-55682445D01*
X179708384Y-55632368D01*
X179747333Y-55626000D01*
X179814903Y-55583985D01*
X179828645Y-55486223D01*
X179790466Y-55375140D01*
X179733222Y-55311698D01*
X179665126Y-55252524D01*
X179690369Y-55218444D01*
X179733222Y-55200659D01*
X179808102Y-55132604D01*
X179829619Y-55037918D01*
X179795136Y-54963734D01*
X179747333Y-54948667D01*
X179672501Y-54903485D01*
X179662667Y-54864000D01*
X179707849Y-54789168D01*
X179747333Y-54779334D01*
X179818199Y-54740661D01*
X179823980Y-54651271D01*
X179766863Y-54551101D01*
X179733222Y-54521476D01*
X179665126Y-54462302D01*
X179690369Y-54428222D01*
X179733222Y-54410437D01*
X179814490Y-54330973D01*
X179827616Y-54222778D01*
X180001333Y-54222778D01*
X180044298Y-54353925D01*
X180100111Y-54416302D01*
X180168207Y-54475476D01*
X180142964Y-54509556D01*
X180100111Y-54527341D01*
X180031367Y-54591304D01*
X180001459Y-54685227D01*
X180018368Y-54761603D01*
X180057778Y-54779334D01*
X180107854Y-54825051D01*
X180114222Y-54864000D01*
X180083744Y-54939115D01*
X180057778Y-54948667D01*
X180006485Y-54988579D01*
X180007150Y-55076644D01*
X180051792Y-55165352D01*
X180100111Y-55200659D01*
X180168207Y-55236081D01*
X180142964Y-55278966D01*
X180100111Y-55311698D01*
X180018730Y-55424167D01*
X180001333Y-55505223D01*
X180039048Y-55606935D01*
X180100111Y-55627795D01*
X180168003Y-55635112D01*
X180144292Y-55670138D01*
X180100111Y-55704573D01*
X180038382Y-55755595D01*
X180006635Y-55797329D01*
X180013819Y-55830703D01*
X180068883Y-55856645D01*
X180180775Y-55876084D01*
X180358445Y-55889946D01*
X180610841Y-55899161D01*
X180946912Y-55904655D01*
X181375607Y-55907357D01*
X181905875Y-55908195D01*
X182064121Y-55908222D01*
X184126909Y-55908222D01*
X184265455Y-55769677D01*
X184383653Y-55578987D01*
X184404000Y-55439945D01*
X184391686Y-55310927D01*
X184333356Y-55239347D01*
X184196926Y-55186593D01*
X184192333Y-55185211D01*
X183964114Y-55067776D01*
X183724442Y-54857738D01*
X183487644Y-54572399D01*
X183268042Y-54229063D01*
X183079962Y-53845031D01*
X183076976Y-53837906D01*
X183011222Y-53721187D01*
X182949714Y-53674934D01*
X182937229Y-53678182D01*
X182871721Y-53666662D01*
X182845340Y-53625800D01*
X182805143Y-53584473D01*
X183170017Y-53584473D01*
X183203286Y-53677836D01*
X183281350Y-53848662D01*
X183284598Y-53855573D01*
X183457487Y-54171190D01*
X183656279Y-54448837D01*
X183865321Y-54672169D01*
X184068959Y-54824842D01*
X184251543Y-54890511D01*
X184277000Y-54891850D01*
X184330515Y-54887798D01*
X184366390Y-54862738D01*
X184388149Y-54797877D01*
X184399320Y-54674422D01*
X184403428Y-54473577D01*
X184404000Y-54214889D01*
X184402892Y-53928968D01*
X184397491Y-53737222D01*
X184384678Y-53620944D01*
X184361336Y-53561426D01*
X184324346Y-53539963D01*
X184291111Y-53537556D01*
X184199175Y-53572849D01*
X184178222Y-53622222D01*
X184147744Y-53697337D01*
X184121778Y-53706889D01*
X184071701Y-53661171D01*
X184065333Y-53622222D01*
X184016266Y-53554127D01*
X183924222Y-53537556D01*
X183810730Y-53566996D01*
X183783111Y-53622222D01*
X183752633Y-53697337D01*
X183726667Y-53706889D01*
X183676590Y-53661171D01*
X183670222Y-53622222D01*
X183628166Y-53554644D01*
X183530069Y-53540960D01*
X183418041Y-53579293D01*
X183353684Y-53636334D01*
X183296065Y-53704225D01*
X183278606Y-53680515D01*
X183276906Y-53636334D01*
X183248711Y-53552515D01*
X183218667Y-53537556D01*
X183176743Y-53545428D01*
X183170017Y-53584473D01*
X182805143Y-53584473D01*
X182769511Y-53547841D01*
X182660576Y-53556313D01*
X182565698Y-53636334D01*
X182506524Y-53704430D01*
X182472444Y-53679187D01*
X182454659Y-53636334D01*
X182371379Y-53557356D01*
X182277963Y-53537556D01*
X182185900Y-53555042D01*
X182172034Y-53590100D01*
X182164868Y-53662545D01*
X182146744Y-53678344D01*
X182081453Y-53666679D01*
X182055118Y-53625800D01*
X181979075Y-53551362D01*
X181872317Y-53546696D01*
X181791334Y-53612558D01*
X181787144Y-53622222D01*
X181727429Y-53697015D01*
X181696438Y-53706889D01*
X181644800Y-53661199D01*
X181638222Y-53622222D01*
X181599550Y-53551357D01*
X181510160Y-53545575D01*
X181409990Y-53602693D01*
X181380365Y-53636334D01*
X181321191Y-53704430D01*
X181287111Y-53679187D01*
X181269326Y-53636334D01*
X181199717Y-53564700D01*
X181094206Y-53537934D01*
X180999186Y-53558159D01*
X180960889Y-53622222D01*
X180930411Y-53697337D01*
X180904445Y-53706889D01*
X180854368Y-53661171D01*
X180848000Y-53622222D01*
X180805943Y-53554644D01*
X180707847Y-53540960D01*
X180595819Y-53579293D01*
X180531462Y-53636334D01*
X180473842Y-53704225D01*
X180456384Y-53680515D01*
X180454684Y-53636334D01*
X180411195Y-53566000D01*
X180316702Y-53535523D01*
X180220304Y-53548385D01*
X180171103Y-53608070D01*
X180170667Y-53616183D01*
X180125137Y-53703320D01*
X180086000Y-53727301D01*
X180011753Y-53803385D01*
X180017341Y-53916017D01*
X180100111Y-54023427D01*
X180168003Y-54081047D01*
X180144292Y-54098505D01*
X180100111Y-54100205D01*
X180017486Y-54147821D01*
X180001333Y-54222778D01*
X179827616Y-54222778D01*
X179828439Y-54215999D01*
X179776969Y-54116251D01*
X179721075Y-54086159D01*
X179619762Y-54097492D01*
X179572231Y-54178354D01*
X179501239Y-54329377D01*
X179378457Y-54524644D01*
X179229930Y-54726637D01*
X179081706Y-54897836D01*
X179052740Y-54926666D01*
X178771834Y-55128783D01*
X178470819Y-55223599D01*
X178162723Y-55211729D01*
X177860576Y-55093787D01*
X177577408Y-54870388D01*
X177563979Y-54856458D01*
X177394597Y-54647532D01*
X177213040Y-54374013D01*
X177044557Y-54077815D01*
X176914396Y-53800852D01*
X176890249Y-53738002D01*
X176815354Y-53592831D01*
X176777661Y-53571635D01*
X177009778Y-53571635D01*
X177041049Y-53672785D01*
X177123501Y-53836537D01*
X177240094Y-54035548D01*
X177373786Y-54242479D01*
X177507536Y-54429989D01*
X177624302Y-54570736D01*
X177646463Y-54593137D01*
X177910779Y-54805935D01*
X178162707Y-54915475D01*
X178420955Y-54927022D01*
X178637315Y-54871930D01*
X178868434Y-54739032D01*
X179104843Y-54513933D01*
X179329350Y-54215059D01*
X179461387Y-53988749D01*
X179488190Y-53936583D01*
X179723034Y-53936583D01*
X179756653Y-53987365D01*
X179775556Y-53989111D01*
X179819275Y-53941306D01*
X179831136Y-53862111D01*
X179822224Y-53779635D01*
X179789022Y-53799913D01*
X179775556Y-53819778D01*
X179723034Y-53936583D01*
X179488190Y-53936583D01*
X179557339Y-53802005D01*
X179628441Y-53655718D01*
X179661699Y-53576820D01*
X179662667Y-53571635D01*
X179620077Y-53535683D01*
X179522306Y-53542510D01*
X179414349Y-53582852D01*
X179348365Y-53636334D01*
X179289191Y-53704430D01*
X179255111Y-53679187D01*
X179237326Y-53636334D01*
X179164530Y-53552841D01*
X179112517Y-53537556D01*
X179011197Y-53579334D01*
X178953254Y-53636334D01*
X178894080Y-53704430D01*
X178859999Y-53679187D01*
X178842215Y-53636334D01*
X178769419Y-53552841D01*
X178717406Y-53537556D01*
X178616086Y-53579334D01*
X178558143Y-53636334D01*
X178498969Y-53704430D01*
X178464888Y-53679187D01*
X178447104Y-53636334D01*
X178364740Y-53557670D01*
X178273739Y-53537556D01*
X178161625Y-53570878D01*
X178136872Y-53636334D01*
X178129555Y-53704225D01*
X178094529Y-53680515D01*
X178060093Y-53636334D01*
X177952361Y-53551935D01*
X177844803Y-53550791D01*
X177779588Y-53622222D01*
X177719873Y-53697015D01*
X177688883Y-53706889D01*
X177637245Y-53661199D01*
X177630667Y-53622222D01*
X177588353Y-53554238D01*
X177494209Y-53534186D01*
X177397428Y-53559622D01*
X177347205Y-53628104D01*
X177346649Y-53636334D01*
X177339333Y-53704225D01*
X177304306Y-53680515D01*
X177269871Y-53636334D01*
X177186581Y-53569364D01*
X177088164Y-53536167D01*
X177019266Y-53547848D01*
X177009778Y-53571635D01*
X176777661Y-53571635D01*
X176719969Y-53539193D01*
X176694033Y-53537556D01*
X176581036Y-53573293D01*
X176536438Y-53625800D01*
X176480098Y-53683886D01*
X176444811Y-53678344D01*
X176411835Y-53610717D01*
X176419522Y-53590100D01*
X176396984Y-53551629D01*
X176307553Y-53537556D01*
X176191570Y-53566421D01*
X176163111Y-53622222D01*
X176131695Y-53697322D01*
X176104895Y-53706889D01*
X176036160Y-53661783D01*
X176014190Y-53622222D01*
X175939058Y-53547023D01*
X175829738Y-53556790D01*
X175733684Y-53636334D01*
X175676065Y-53704225D01*
X175658606Y-53680515D01*
X175656906Y-53636334D01*
X175609123Y-53553118D01*
X175542222Y-53537556D01*
X175502152Y-53542354D01*
X175472886Y-53566949D01*
X175452730Y-53626639D01*
X175439991Y-53736721D01*
X175432974Y-53912495D01*
X175429987Y-54169260D01*
X175429335Y-54522312D01*
X175429333Y-54557266D01*
X175206941Y-54557266D01*
X175205673Y-54440323D01*
X175203867Y-53939761D01*
X175203556Y-53440029D01*
X175203987Y-52877376D01*
X175205018Y-52578000D01*
X175429333Y-52578000D01*
X175430171Y-52890703D01*
X175434335Y-53107869D01*
X175444305Y-53246847D01*
X175462559Y-53324983D01*
X175491575Y-53359628D01*
X175533832Y-53368129D01*
X175542222Y-53368222D01*
X175638061Y-53327735D01*
X175656906Y-53269445D01*
X175664223Y-53201553D01*
X175699249Y-53225263D01*
X175733684Y-53269445D01*
X175823428Y-53341994D01*
X175922020Y-53367651D01*
X175986846Y-53339479D01*
X175993778Y-53311778D01*
X176039495Y-53261702D01*
X176078445Y-53255334D01*
X176153559Y-53285812D01*
X176163111Y-53311778D01*
X176203024Y-53363071D01*
X176291088Y-53362406D01*
X176379796Y-53317764D01*
X176415104Y-53269445D01*
X176450327Y-53203062D01*
X176493847Y-53227720D01*
X176530454Y-53275341D01*
X176612212Y-53349655D01*
X176664149Y-53360007D01*
X176665399Y-53304605D01*
X176622451Y-53172047D01*
X176543525Y-52985161D01*
X176484281Y-52860426D01*
X176327088Y-52577890D01*
X176147550Y-52313379D01*
X175961251Y-52084843D01*
X175783776Y-51910236D01*
X175630708Y-51807510D01*
X175553139Y-51787778D01*
X175504207Y-51791747D01*
X175470234Y-51815262D01*
X175448492Y-51875732D01*
X175436253Y-51990566D01*
X175430791Y-52177176D01*
X175429377Y-52452970D01*
X175429333Y-52578000D01*
X175205018Y-52578000D01*
X175205574Y-52416667D01*
X175208751Y-52046957D01*
X175213954Y-51757304D01*
X175221621Y-51536765D01*
X175229827Y-51410650D01*
X175457222Y-51410650D01*
X175536386Y-51462564D01*
X175575071Y-51473451D01*
X175751247Y-51561962D01*
X175953219Y-51735317D01*
X176163944Y-51973914D01*
X176366382Y-52258152D01*
X176543493Y-52568428D01*
X176564930Y-52612067D01*
X176678626Y-52842675D01*
X176784015Y-53046509D01*
X176865509Y-53193858D01*
X176894071Y-53239449D01*
X177018731Y-53345642D01*
X177156393Y-53353354D01*
X177269871Y-53269445D01*
X177327491Y-53201553D01*
X177344950Y-53225263D01*
X177346649Y-53269445D01*
X177391893Y-53349751D01*
X177489556Y-53368222D01*
X177595632Y-53348901D01*
X177630667Y-53311778D01*
X177676384Y-53261702D01*
X177715333Y-53255334D01*
X177790448Y-53285812D01*
X177800000Y-53311778D01*
X177839559Y-53363282D01*
X177929827Y-53358200D01*
X178028192Y-53303466D01*
X178060093Y-53269445D01*
X178117713Y-53201553D01*
X178135172Y-53225263D01*
X178136872Y-53269445D01*
X178184488Y-53352070D01*
X178259444Y-53368222D01*
X178390592Y-53325258D01*
X178452968Y-53269445D01*
X178512143Y-53201348D01*
X178546223Y-53226591D01*
X178564008Y-53269445D01*
X178627970Y-53338188D01*
X178721894Y-53368096D01*
X178798269Y-53351187D01*
X178816000Y-53311778D01*
X178861718Y-53261702D01*
X178900667Y-53255334D01*
X178975781Y-53285812D01*
X178985333Y-53311778D01*
X179024801Y-53363322D01*
X179114589Y-53358279D01*
X179211771Y-53303696D01*
X179243191Y-53269445D01*
X179302365Y-53201348D01*
X179336445Y-53226591D01*
X179354230Y-53269445D01*
X179423839Y-53341079D01*
X179529350Y-53367844D01*
X179624370Y-53347619D01*
X179662667Y-53283556D01*
X179707849Y-53208723D01*
X179747333Y-53198889D01*
X179815429Y-53149822D01*
X179815818Y-53147657D01*
X180087886Y-53147657D01*
X180106137Y-53186787D01*
X180165138Y-53254124D01*
X180170667Y-53288259D01*
X180215442Y-53347354D01*
X180315951Y-53367333D01*
X180421468Y-53346635D01*
X180476407Y-53297667D01*
X180513476Y-53256157D01*
X180542259Y-53297667D01*
X180618537Y-53353081D01*
X180706889Y-53368222D01*
X180822934Y-53341213D01*
X180871519Y-53297667D01*
X180908587Y-53256157D01*
X180937370Y-53297667D01*
X181017727Y-53358237D01*
X181137294Y-53361055D01*
X181241215Y-53310785D01*
X181269326Y-53269445D01*
X181304747Y-53201348D01*
X181347633Y-53226591D01*
X181380365Y-53269445D01*
X181468443Y-53341929D01*
X181566355Y-53367701D01*
X181631175Y-53339714D01*
X181638222Y-53311778D01*
X181683940Y-53261702D01*
X181722889Y-53255334D01*
X181798003Y-53285812D01*
X181807556Y-53311778D01*
X181847114Y-53363282D01*
X181937382Y-53358200D01*
X182035748Y-53303466D01*
X182067649Y-53269445D01*
X182125269Y-53201553D01*
X182142727Y-53225263D01*
X182144427Y-53269445D01*
X182181596Y-53344064D01*
X182303057Y-53368124D01*
X182315556Y-53368222D01*
X182443855Y-53347332D01*
X182486384Y-53276734D01*
X182486684Y-53269445D01*
X182494000Y-53201553D01*
X182529027Y-53225263D01*
X182563462Y-53269445D01*
X182666458Y-53350048D01*
X182737119Y-53368222D01*
X182797454Y-53346034D01*
X182807867Y-53272070D01*
X182765143Y-53135234D01*
X182666068Y-52924430D01*
X182539959Y-52687563D01*
X182300327Y-52301097D01*
X182060221Y-52021027D01*
X181810845Y-51841167D01*
X181543401Y-51755329D01*
X181249089Y-51757329D01*
X181222643Y-51761336D01*
X181067752Y-51804416D01*
X180922153Y-51892709D01*
X180752877Y-52047547D01*
X180706889Y-52095065D01*
X180567291Y-52260185D01*
X180426605Y-52457888D01*
X180296577Y-52666830D01*
X180188951Y-52865669D01*
X180115472Y-53033059D01*
X180087886Y-53147657D01*
X179815818Y-53147657D01*
X179832000Y-53057778D01*
X179802560Y-52944286D01*
X179747333Y-52916667D01*
X179672219Y-52886188D01*
X179662667Y-52860222D01*
X179708384Y-52810146D01*
X179747333Y-52803778D01*
X179815429Y-52754711D01*
X179832000Y-52662667D01*
X179802560Y-52549174D01*
X179747333Y-52521556D01*
X179672173Y-52494285D01*
X179662667Y-52471150D01*
X179707586Y-52409446D01*
X179747333Y-52388255D01*
X179817057Y-52311689D01*
X179832000Y-52241105D01*
X179797122Y-52147778D01*
X179747333Y-52126445D01*
X179672233Y-52095029D01*
X179662667Y-52068229D01*
X179707773Y-51999493D01*
X179747333Y-51977523D01*
X179820573Y-51902146D01*
X179820103Y-51796232D01*
X179748647Y-51712321D01*
X179733222Y-51705354D01*
X179664395Y-51670448D01*
X179695967Y-51633393D01*
X179733222Y-51611844D01*
X179814097Y-51520345D01*
X179817624Y-51483372D01*
X180001333Y-51483372D01*
X180034656Y-51595486D01*
X180100111Y-51620240D01*
X180168003Y-51627556D01*
X180144292Y-51662583D01*
X180100111Y-51697018D01*
X180027562Y-51786762D01*
X180001905Y-51885353D01*
X180030077Y-51950180D01*
X180057778Y-51957111D01*
X180107854Y-52002829D01*
X180114222Y-52041778D01*
X180083744Y-52116892D01*
X180057778Y-52126445D01*
X180007850Y-52167738D01*
X180005760Y-52259072D01*
X180044846Y-52351623D01*
X180093919Y-52391294D01*
X180155474Y-52425987D01*
X180123938Y-52471668D01*
X180088960Y-52498149D01*
X180017619Y-52597548D01*
X180010485Y-52667938D01*
X180043274Y-52685899D01*
X180113852Y-52598140D01*
X180192765Y-52460533D01*
X180385511Y-52129135D01*
X180570983Y-51879755D01*
X180770666Y-51685249D01*
X180862285Y-51614586D01*
X181025788Y-51512660D01*
X181184480Y-51463071D01*
X181394102Y-51449179D01*
X181416525Y-51449111D01*
X181625434Y-51459123D01*
X181778227Y-51501292D01*
X181930809Y-51593822D01*
X181985003Y-51634200D01*
X182163275Y-51791371D01*
X182330428Y-51972354D01*
X182384923Y-52043422D01*
X182497854Y-52223677D01*
X182634647Y-52469768D01*
X182775556Y-52743404D01*
X182900835Y-53006294D01*
X182988063Y-53213000D01*
X183061307Y-53320047D01*
X183157112Y-53369394D01*
X183240609Y-53354226D01*
X183276906Y-53269445D01*
X183284223Y-53201553D01*
X183319249Y-53225263D01*
X183353684Y-53269445D01*
X183459720Y-53346819D01*
X183584816Y-53364589D01*
X183680481Y-53318731D01*
X183693741Y-53297667D01*
X183730809Y-53256157D01*
X183759593Y-53297667D01*
X183835871Y-53353081D01*
X183924222Y-53368222D01*
X184040267Y-53341213D01*
X184088852Y-53297667D01*
X184125921Y-53256157D01*
X184154704Y-53297667D01*
X184232301Y-53357030D01*
X184295815Y-53368222D01*
X184334730Y-53362333D01*
X184363007Y-53334344D01*
X184382337Y-53268775D01*
X184394410Y-53150147D01*
X184400916Y-52962978D01*
X184403548Y-52691788D01*
X184404000Y-52377642D01*
X184400388Y-51956977D01*
X184387772Y-51635033D01*
X184363486Y-51397820D01*
X184324859Y-51231346D01*
X184269224Y-51121622D01*
X184193913Y-51054658D01*
X184147471Y-51032618D01*
X184071497Y-51024524D01*
X183896013Y-51017090D01*
X183634396Y-51010536D01*
X183300023Y-51005085D01*
X182906274Y-51000958D01*
X182466524Y-50998376D01*
X182028717Y-50997556D01*
X181474372Y-50998094D01*
X181023972Y-51000333D01*
X180668579Y-51005206D01*
X180399252Y-51013645D01*
X180207051Y-51026586D01*
X180083035Y-51044961D01*
X180018265Y-51069705D01*
X180003800Y-51101750D01*
X180030701Y-51142031D01*
X180090027Y-51191481D01*
X180100111Y-51198969D01*
X180168207Y-51258143D01*
X180142964Y-51292223D01*
X180100111Y-51310008D01*
X180021447Y-51392372D01*
X180001333Y-51483372D01*
X179817624Y-51483372D01*
X179824835Y-51407789D01*
X179763103Y-51323123D01*
X179747333Y-51315811D01*
X179672541Y-51256095D01*
X179662667Y-51225105D01*
X179708356Y-51173467D01*
X179747333Y-51166889D01*
X179822166Y-51121707D01*
X179832000Y-51082222D01*
X179820417Y-51059895D01*
X179778761Y-51041794D01*
X179696674Y-51027492D01*
X179563799Y-51016562D01*
X179369776Y-51008578D01*
X179104249Y-51003112D01*
X178756859Y-50999738D01*
X178317247Y-50998028D01*
X177778031Y-50997556D01*
X177238390Y-50997930D01*
X176800310Y-50999396D01*
X176452465Y-51002471D01*
X176183528Y-51007669D01*
X175982174Y-51015508D01*
X175837076Y-51026503D01*
X175736907Y-51041170D01*
X175670342Y-51060026D01*
X175626054Y-51083585D01*
X175609825Y-51096334D01*
X175507852Y-51218298D01*
X175460736Y-51315559D01*
X175457222Y-51410650D01*
X175229827Y-51410650D01*
X175232187Y-51374396D01*
X175246089Y-51259254D01*
X175263763Y-51180395D01*
X175285644Y-51126877D01*
X175296480Y-51108893D01*
X175329515Y-51057404D01*
X175360477Y-51012618D01*
X175397005Y-50974068D01*
X175446741Y-50941288D01*
X175517325Y-50913811D01*
X175616398Y-50891172D01*
X175751600Y-50872903D01*
X175930571Y-50858539D01*
X176160952Y-50847612D01*
X176450383Y-50839658D01*
X176806506Y-50834209D01*
X177236959Y-50830799D01*
X177749385Y-50828961D01*
X178351423Y-50828230D01*
X179050714Y-50828139D01*
X179854898Y-50828222D01*
G37*
X179854898Y-50828222D02*
X184226005Y-50828222D01*
X184573333Y-51120480D01*
X184573333Y-55768265D01*
X184429938Y-55922910D01*
X184286543Y-56077556D01*
X179928494Y-56075839D01*
X179011069Y-56074721D01*
X178196019Y-56072140D01*
X177484682Y-56068114D01*
X176878398Y-56062661D01*
X176378505Y-56055798D01*
X175986342Y-56047545D01*
X175703250Y-56037918D01*
X175530565Y-56026935D01*
X175471665Y-56016589D01*
X175406664Y-55974471D01*
X175353100Y-55923853D01*
X175309870Y-55854125D01*
X175275869Y-55754678D01*
X175249995Y-55614903D01*
X175231142Y-55424189D01*
X175218206Y-55171928D01*
X175210085Y-54847509D01*
X175206941Y-54557266D01*
X175429333Y-54557266D01*
X175431911Y-54964339D01*
X175441134Y-55273837D01*
X175459237Y-55500986D01*
X175488453Y-55661016D01*
X175531018Y-55769152D01*
X175589166Y-55840623D01*
X175621228Y-55865025D01*
X175690108Y-55874500D01*
X175858908Y-55883261D01*
X176114660Y-55891050D01*
X176444397Y-55897611D01*
X176835150Y-55902686D01*
X177273953Y-55906020D01*
X177747836Y-55907354D01*
X177757667Y-55907358D01*
X178302218Y-55907114D01*
X178744193Y-55905605D01*
X179093903Y-55902414D01*
X179361659Y-55897125D01*
X179557771Y-55889321D01*
X179692548Y-55878585D01*
X179776302Y-55864502D01*
X179819343Y-55846655D01*
X179831981Y-55824626D01*
X179832000Y-55823556D01*
X179786818Y-55748723D01*
X179747333Y-55738889D01*
X179672219Y-55708411D01*
X179662667Y-55682445D01*
X179708384Y-55632368D01*
X179747333Y-55626000D01*
X179814903Y-55583985D01*
X179828645Y-55486223D01*
X179790466Y-55375140D01*
X179733222Y-55311698D01*
X179665126Y-55252524D01*
X179690369Y-55218444D01*
X179733222Y-55200659D01*
X179808102Y-55132604D01*
X179829619Y-55037918D01*
X179795136Y-54963734D01*
X179747333Y-54948667D01*
X179672501Y-54903485D01*
X179662667Y-54864000D01*
X179707849Y-54789168D01*
X179747333Y-54779334D01*
X179818199Y-54740661D01*
X179823980Y-54651271D01*
X179766863Y-54551101D01*
X179733222Y-54521476D01*
X179665126Y-54462302D01*
X179690369Y-54428222D01*
X179733222Y-54410437D01*
X179814490Y-54330973D01*
X179827616Y-54222778D01*
X180001333Y-54222778D01*
X180044298Y-54353925D01*
X180100111Y-54416302D01*
X180168207Y-54475476D01*
X180142964Y-54509556D01*
X180100111Y-54527341D01*
X180031367Y-54591304D01*
X180001459Y-54685227D01*
X180018368Y-54761603D01*
X180057778Y-54779334D01*
X180107854Y-54825051D01*
X180114222Y-54864000D01*
X180083744Y-54939115D01*
X180057778Y-54948667D01*
X180006485Y-54988579D01*
X180007150Y-55076644D01*
X180051792Y-55165352D01*
X180100111Y-55200659D01*
X180168207Y-55236081D01*
X180142964Y-55278966D01*
X180100111Y-55311698D01*
X180018730Y-55424167D01*
X180001333Y-55505223D01*
X180039048Y-55606935D01*
X180100111Y-55627795D01*
X180168003Y-55635112D01*
X180144292Y-55670138D01*
X180100111Y-55704573D01*
X180038382Y-55755595D01*
X180006635Y-55797329D01*
X180013819Y-55830703D01*
X180068883Y-55856645D01*
X180180775Y-55876084D01*
X180358445Y-55889946D01*
X180610841Y-55899161D01*
X180946912Y-55904655D01*
X181375607Y-55907357D01*
X181905875Y-55908195D01*
X182064121Y-55908222D01*
X184126909Y-55908222D01*
X184265455Y-55769677D01*
X184383653Y-55578987D01*
X184404000Y-55439945D01*
X184391686Y-55310927D01*
X184333356Y-55239347D01*
X184196926Y-55186593D01*
X184192333Y-55185211D01*
X183964114Y-55067776D01*
X183724442Y-54857738D01*
X183487644Y-54572399D01*
X183268042Y-54229063D01*
X183079962Y-53845031D01*
X183076976Y-53837906D01*
X183011222Y-53721187D01*
X182949714Y-53674934D01*
X182937229Y-53678182D01*
X182871721Y-53666662D01*
X182845340Y-53625800D01*
X182805143Y-53584473D01*
X183170017Y-53584473D01*
X183203286Y-53677836D01*
X183281350Y-53848662D01*
X183284598Y-53855573D01*
X183457487Y-54171190D01*
X183656279Y-54448837D01*
X183865321Y-54672169D01*
X184068959Y-54824842D01*
X184251543Y-54890511D01*
X184277000Y-54891850D01*
X184330515Y-54887798D01*
X184366390Y-54862738D01*
X184388149Y-54797877D01*
X184399320Y-54674422D01*
X184403428Y-54473577D01*
X184404000Y-54214889D01*
X184402892Y-53928968D01*
X184397491Y-53737222D01*
X184384678Y-53620944D01*
X184361336Y-53561426D01*
X184324346Y-53539963D01*
X184291111Y-53537556D01*
X184199175Y-53572849D01*
X184178222Y-53622222D01*
X184147744Y-53697337D01*
X184121778Y-53706889D01*
X184071701Y-53661171D01*
X184065333Y-53622222D01*
X184016266Y-53554127D01*
X183924222Y-53537556D01*
X183810730Y-53566996D01*
X183783111Y-53622222D01*
X183752633Y-53697337D01*
X183726667Y-53706889D01*
X183676590Y-53661171D01*
X183670222Y-53622222D01*
X183628166Y-53554644D01*
X183530069Y-53540960D01*
X183418041Y-53579293D01*
X183353684Y-53636334D01*
X183296065Y-53704225D01*
X183278606Y-53680515D01*
X183276906Y-53636334D01*
X183248711Y-53552515D01*
X183218667Y-53537556D01*
X183176743Y-53545428D01*
X183170017Y-53584473D01*
X182805143Y-53584473D01*
X182769511Y-53547841D01*
X182660576Y-53556313D01*
X182565698Y-53636334D01*
X182506524Y-53704430D01*
X182472444Y-53679187D01*
X182454659Y-53636334D01*
X182371379Y-53557356D01*
X182277963Y-53537556D01*
X182185900Y-53555042D01*
X182172034Y-53590100D01*
X182164868Y-53662545D01*
X182146744Y-53678344D01*
X182081453Y-53666679D01*
X182055118Y-53625800D01*
X181979075Y-53551362D01*
X181872317Y-53546696D01*
X181791334Y-53612558D01*
X181787144Y-53622222D01*
X181727429Y-53697015D01*
X181696438Y-53706889D01*
X181644800Y-53661199D01*
X181638222Y-53622222D01*
X181599550Y-53551357D01*
X181510160Y-53545575D01*
X181409990Y-53602693D01*
X181380365Y-53636334D01*
X181321191Y-53704430D01*
X181287111Y-53679187D01*
X181269326Y-53636334D01*
X181199717Y-53564700D01*
X181094206Y-53537934D01*
X180999186Y-53558159D01*
X180960889Y-53622222D01*
X180930411Y-53697337D01*
X180904445Y-53706889D01*
X180854368Y-53661171D01*
X180848000Y-53622222D01*
X180805943Y-53554644D01*
X180707847Y-53540960D01*
X180595819Y-53579293D01*
X180531462Y-53636334D01*
X180473842Y-53704225D01*
X180456384Y-53680515D01*
X180454684Y-53636334D01*
X180411195Y-53566000D01*
X180316702Y-53535523D01*
X180220304Y-53548385D01*
X180171103Y-53608070D01*
X180170667Y-53616183D01*
X180125137Y-53703320D01*
X180086000Y-53727301D01*
X180011753Y-53803385D01*
X180017341Y-53916017D01*
X180100111Y-54023427D01*
X180168003Y-54081047D01*
X180144292Y-54098505D01*
X180100111Y-54100205D01*
X180017486Y-54147821D01*
X180001333Y-54222778D01*
X179827616Y-54222778D01*
X179828439Y-54215999D01*
X179776969Y-54116251D01*
X179721075Y-54086159D01*
X179619762Y-54097492D01*
X179572231Y-54178354D01*
X179501239Y-54329377D01*
X179378457Y-54524644D01*
X179229930Y-54726637D01*
X179081706Y-54897836D01*
X179052740Y-54926666D01*
X178771834Y-55128783D01*
X178470819Y-55223599D01*
X178162723Y-55211729D01*
X177860576Y-55093787D01*
X177577408Y-54870388D01*
X177563979Y-54856458D01*
X177394597Y-54647532D01*
X177213040Y-54374013D01*
X177044557Y-54077815D01*
X176914396Y-53800852D01*
X176890249Y-53738002D01*
X176815354Y-53592831D01*
X176777661Y-53571635D01*
X177009778Y-53571635D01*
X177041049Y-53672785D01*
X177123501Y-53836537D01*
X177240094Y-54035548D01*
X177373786Y-54242479D01*
X177507536Y-54429989D01*
X177624302Y-54570736D01*
X177646463Y-54593137D01*
X177910779Y-54805935D01*
X178162707Y-54915475D01*
X178420955Y-54927022D01*
X178637315Y-54871930D01*
X178868434Y-54739032D01*
X179104843Y-54513933D01*
X179329350Y-54215059D01*
X179461387Y-53988749D01*
X179488190Y-53936583D01*
X179723034Y-53936583D01*
X179756653Y-53987365D01*
X179775556Y-53989111D01*
X179819275Y-53941306D01*
X179831136Y-53862111D01*
X179822224Y-53779635D01*
X179789022Y-53799913D01*
X179775556Y-53819778D01*
X179723034Y-53936583D01*
X179488190Y-53936583D01*
X179557339Y-53802005D01*
X179628441Y-53655718D01*
X179661699Y-53576820D01*
X179662667Y-53571635D01*
X179620077Y-53535683D01*
X179522306Y-53542510D01*
X179414349Y-53582852D01*
X179348365Y-53636334D01*
X179289191Y-53704430D01*
X179255111Y-53679187D01*
X179237326Y-53636334D01*
X179164530Y-53552841D01*
X179112517Y-53537556D01*
X179011197Y-53579334D01*
X178953254Y-53636334D01*
X178894080Y-53704430D01*
X178859999Y-53679187D01*
X178842215Y-53636334D01*
X178769419Y-53552841D01*
X178717406Y-53537556D01*
X178616086Y-53579334D01*
X178558143Y-53636334D01*
X178498969Y-53704430D01*
X178464888Y-53679187D01*
X178447104Y-53636334D01*
X178364740Y-53557670D01*
X178273739Y-53537556D01*
X178161625Y-53570878D01*
X178136872Y-53636334D01*
X178129555Y-53704225D01*
X178094529Y-53680515D01*
X178060093Y-53636334D01*
X177952361Y-53551935D01*
X177844803Y-53550791D01*
X177779588Y-53622222D01*
X177719873Y-53697015D01*
X177688883Y-53706889D01*
X177637245Y-53661199D01*
X177630667Y-53622222D01*
X177588353Y-53554238D01*
X177494209Y-53534186D01*
X177397428Y-53559622D01*
X177347205Y-53628104D01*
X177346649Y-53636334D01*
X177339333Y-53704225D01*
X177304306Y-53680515D01*
X177269871Y-53636334D01*
X177186581Y-53569364D01*
X177088164Y-53536167D01*
X177019266Y-53547848D01*
X177009778Y-53571635D01*
X176777661Y-53571635D01*
X176719969Y-53539193D01*
X176694033Y-53537556D01*
X176581036Y-53573293D01*
X176536438Y-53625800D01*
X176480098Y-53683886D01*
X176444811Y-53678344D01*
X176411835Y-53610717D01*
X176419522Y-53590100D01*
X176396984Y-53551629D01*
X176307553Y-53537556D01*
X176191570Y-53566421D01*
X176163111Y-53622222D01*
X176131695Y-53697322D01*
X176104895Y-53706889D01*
X176036160Y-53661783D01*
X176014190Y-53622222D01*
X175939058Y-53547023D01*
X175829738Y-53556790D01*
X175733684Y-53636334D01*
X175676065Y-53704225D01*
X175658606Y-53680515D01*
X175656906Y-53636334D01*
X175609123Y-53553118D01*
X175542222Y-53537556D01*
X175502152Y-53542354D01*
X175472886Y-53566949D01*
X175452730Y-53626639D01*
X175439991Y-53736721D01*
X175432974Y-53912495D01*
X175429987Y-54169260D01*
X175429335Y-54522312D01*
X175429333Y-54557266D01*
X175206941Y-54557266D01*
X175205673Y-54440323D01*
X175203867Y-53939761D01*
X175203556Y-53440029D01*
X175203987Y-52877376D01*
X175205018Y-52578000D01*
X175429333Y-52578000D01*
X175430171Y-52890703D01*
X175434335Y-53107869D01*
X175444305Y-53246847D01*
X175462559Y-53324983D01*
X175491575Y-53359628D01*
X175533832Y-53368129D01*
X175542222Y-53368222D01*
X175638061Y-53327735D01*
X175656906Y-53269445D01*
X175664223Y-53201553D01*
X175699249Y-53225263D01*
X175733684Y-53269445D01*
X175823428Y-53341994D01*
X175922020Y-53367651D01*
X175986846Y-53339479D01*
X175993778Y-53311778D01*
X176039495Y-53261702D01*
X176078445Y-53255334D01*
X176153559Y-53285812D01*
X176163111Y-53311778D01*
X176203024Y-53363071D01*
X176291088Y-53362406D01*
X176379796Y-53317764D01*
X176415104Y-53269445D01*
X176450327Y-53203062D01*
X176493847Y-53227720D01*
X176530454Y-53275341D01*
X176612212Y-53349655D01*
X176664149Y-53360007D01*
X176665399Y-53304605D01*
X176622451Y-53172047D01*
X176543525Y-52985161D01*
X176484281Y-52860426D01*
X176327088Y-52577890D01*
X176147550Y-52313379D01*
X175961251Y-52084843D01*
X175783776Y-51910236D01*
X175630708Y-51807510D01*
X175553139Y-51787778D01*
X175504207Y-51791747D01*
X175470234Y-51815262D01*
X175448492Y-51875732D01*
X175436253Y-51990566D01*
X175430791Y-52177176D01*
X175429377Y-52452970D01*
X175429333Y-52578000D01*
X175205018Y-52578000D01*
X175205574Y-52416667D01*
X175208751Y-52046957D01*
X175213954Y-51757304D01*
X175221621Y-51536765D01*
X175229827Y-51410650D01*
X175457222Y-51410650D01*
X175536386Y-51462564D01*
X175575071Y-51473451D01*
X175751247Y-51561962D01*
X175953219Y-51735317D01*
X176163944Y-51973914D01*
X176366382Y-52258152D01*
X176543493Y-52568428D01*
X176564930Y-52612067D01*
X176678626Y-52842675D01*
X176784015Y-53046509D01*
X176865509Y-53193858D01*
X176894071Y-53239449D01*
X177018731Y-53345642D01*
X177156393Y-53353354D01*
X177269871Y-53269445D01*
X177327491Y-53201553D01*
X177344950Y-53225263D01*
X177346649Y-53269445D01*
X177391893Y-53349751D01*
X177489556Y-53368222D01*
X177595632Y-53348901D01*
X177630667Y-53311778D01*
X177676384Y-53261702D01*
X177715333Y-53255334D01*
X177790448Y-53285812D01*
X177800000Y-53311778D01*
X177839559Y-53363282D01*
X177929827Y-53358200D01*
X178028192Y-53303466D01*
X178060093Y-53269445D01*
X178117713Y-53201553D01*
X178135172Y-53225263D01*
X178136872Y-53269445D01*
X178184488Y-53352070D01*
X178259444Y-53368222D01*
X178390592Y-53325258D01*
X178452968Y-53269445D01*
X178512143Y-53201348D01*
X178546223Y-53226591D01*
X178564008Y-53269445D01*
X178627970Y-53338188D01*
X178721894Y-53368096D01*
X178798269Y-53351187D01*
X178816000Y-53311778D01*
X178861718Y-53261702D01*
X178900667Y-53255334D01*
X178975781Y-53285812D01*
X178985333Y-53311778D01*
X179024801Y-53363322D01*
X179114589Y-53358279D01*
X179211771Y-53303696D01*
X179243191Y-53269445D01*
X179302365Y-53201348D01*
X179336445Y-53226591D01*
X179354230Y-53269445D01*
X179423839Y-53341079D01*
X179529350Y-53367844D01*
X179624370Y-53347619D01*
X179662667Y-53283556D01*
X179707849Y-53208723D01*
X179747333Y-53198889D01*
X179815429Y-53149822D01*
X179815818Y-53147657D01*
X180087886Y-53147657D01*
X180106137Y-53186787D01*
X180165138Y-53254124D01*
X180170667Y-53288259D01*
X180215442Y-53347354D01*
X180315951Y-53367333D01*
X180421468Y-53346635D01*
X180476407Y-53297667D01*
X180513476Y-53256157D01*
X180542259Y-53297667D01*
X180618537Y-53353081D01*
X180706889Y-53368222D01*
X180822934Y-53341213D01*
X180871519Y-53297667D01*
X180908587Y-53256157D01*
X180937370Y-53297667D01*
X181017727Y-53358237D01*
X181137294Y-53361055D01*
X181241215Y-53310785D01*
X181269326Y-53269445D01*
X181304747Y-53201348D01*
X181347633Y-53226591D01*
X181380365Y-53269445D01*
X181468443Y-53341929D01*
X181566355Y-53367701D01*
X181631175Y-53339714D01*
X181638222Y-53311778D01*
X181683940Y-53261702D01*
X181722889Y-53255334D01*
X181798003Y-53285812D01*
X181807556Y-53311778D01*
X181847114Y-53363282D01*
X181937382Y-53358200D01*
X182035748Y-53303466D01*
X182067649Y-53269445D01*
X182125269Y-53201553D01*
X182142727Y-53225263D01*
X182144427Y-53269445D01*
X182181596Y-53344064D01*
X182303057Y-53368124D01*
X182315556Y-53368222D01*
X182443855Y-53347332D01*
X182486384Y-53276734D01*
X182486684Y-53269445D01*
X182494000Y-53201553D01*
X182529027Y-53225263D01*
X182563462Y-53269445D01*
X182666458Y-53350048D01*
X182737119Y-53368222D01*
X182797454Y-53346034D01*
X182807867Y-53272070D01*
X182765143Y-53135234D01*
X182666068Y-52924430D01*
X182539959Y-52687563D01*
X182300327Y-52301097D01*
X182060221Y-52021027D01*
X181810845Y-51841167D01*
X181543401Y-51755329D01*
X181249089Y-51757329D01*
X181222643Y-51761336D01*
X181067752Y-51804416D01*
X180922153Y-51892709D01*
X180752877Y-52047547D01*
X180706889Y-52095065D01*
X180567291Y-52260185D01*
X180426605Y-52457888D01*
X180296577Y-52666830D01*
X180188951Y-52865669D01*
X180115472Y-53033059D01*
X180087886Y-53147657D01*
X179815818Y-53147657D01*
X179832000Y-53057778D01*
X179802560Y-52944286D01*
X179747333Y-52916667D01*
X179672219Y-52886188D01*
X179662667Y-52860222D01*
X179708384Y-52810146D01*
X179747333Y-52803778D01*
X179815429Y-52754711D01*
X179832000Y-52662667D01*
X179802560Y-52549174D01*
X179747333Y-52521556D01*
X179672173Y-52494285D01*
X179662667Y-52471150D01*
X179707586Y-52409446D01*
X179747333Y-52388255D01*
X179817057Y-52311689D01*
X179832000Y-52241105D01*
X179797122Y-52147778D01*
X179747333Y-52126445D01*
X179672233Y-52095029D01*
X179662667Y-52068229D01*
X179707773Y-51999493D01*
X179747333Y-51977523D01*
X179820573Y-51902146D01*
X179820103Y-51796232D01*
X179748647Y-51712321D01*
X179733222Y-51705354D01*
X179664395Y-51670448D01*
X179695967Y-51633393D01*
X179733222Y-51611844D01*
X179814097Y-51520345D01*
X179817624Y-51483372D01*
X180001333Y-51483372D01*
X180034656Y-51595486D01*
X180100111Y-51620240D01*
X180168003Y-51627556D01*
X180144292Y-51662583D01*
X180100111Y-51697018D01*
X180027562Y-51786762D01*
X180001905Y-51885353D01*
X180030077Y-51950180D01*
X180057778Y-51957111D01*
X180107854Y-52002829D01*
X180114222Y-52041778D01*
X180083744Y-52116892D01*
X180057778Y-52126445D01*
X180007850Y-52167738D01*
X180005760Y-52259072D01*
X180044846Y-52351623D01*
X180093919Y-52391294D01*
X180155474Y-52425987D01*
X180123938Y-52471668D01*
X180088960Y-52498149D01*
X180017619Y-52597548D01*
X180010485Y-52667938D01*
X180043274Y-52685899D01*
X180113852Y-52598140D01*
X180192765Y-52460533D01*
X180385511Y-52129135D01*
X180570983Y-51879755D01*
X180770666Y-51685249D01*
X180862285Y-51614586D01*
X181025788Y-51512660D01*
X181184480Y-51463071D01*
X181394102Y-51449179D01*
X181416525Y-51449111D01*
X181625434Y-51459123D01*
X181778227Y-51501292D01*
X181930809Y-51593822D01*
X181985003Y-51634200D01*
X182163275Y-51791371D01*
X182330428Y-51972354D01*
X182384923Y-52043422D01*
X182497854Y-52223677D01*
X182634647Y-52469768D01*
X182775556Y-52743404D01*
X182900835Y-53006294D01*
X182988063Y-53213000D01*
X183061307Y-53320047D01*
X183157112Y-53369394D01*
X183240609Y-53354226D01*
X183276906Y-53269445D01*
X183284223Y-53201553D01*
X183319249Y-53225263D01*
X183353684Y-53269445D01*
X183459720Y-53346819D01*
X183584816Y-53364589D01*
X183680481Y-53318731D01*
X183693741Y-53297667D01*
X183730809Y-53256157D01*
X183759593Y-53297667D01*
X183835871Y-53353081D01*
X183924222Y-53368222D01*
X184040267Y-53341213D01*
X184088852Y-53297667D01*
X184125921Y-53256157D01*
X184154704Y-53297667D01*
X184232301Y-53357030D01*
X184295815Y-53368222D01*
X184334730Y-53362333D01*
X184363007Y-53334344D01*
X184382337Y-53268775D01*
X184394410Y-53150147D01*
X184400916Y-52962978D01*
X184403548Y-52691788D01*
X184404000Y-52377642D01*
X184400388Y-51956977D01*
X184387772Y-51635033D01*
X184363486Y-51397820D01*
X184324859Y-51231346D01*
X184269224Y-51121622D01*
X184193913Y-51054658D01*
X184147471Y-51032618D01*
X184071497Y-51024524D01*
X183896013Y-51017090D01*
X183634396Y-51010536D01*
X183300023Y-51005085D01*
X182906274Y-51000958D01*
X182466524Y-50998376D01*
X182028717Y-50997556D01*
X181474372Y-50998094D01*
X181023972Y-51000333D01*
X180668579Y-51005206D01*
X180399252Y-51013645D01*
X180207051Y-51026586D01*
X180083035Y-51044961D01*
X180018265Y-51069705D01*
X180003800Y-51101750D01*
X180030701Y-51142031D01*
X180090027Y-51191481D01*
X180100111Y-51198969D01*
X180168207Y-51258143D01*
X180142964Y-51292223D01*
X180100111Y-51310008D01*
X180021447Y-51392372D01*
X180001333Y-51483372D01*
X179817624Y-51483372D01*
X179824835Y-51407789D01*
X179763103Y-51323123D01*
X179747333Y-51315811D01*
X179672541Y-51256095D01*
X179662667Y-51225105D01*
X179708356Y-51173467D01*
X179747333Y-51166889D01*
X179822166Y-51121707D01*
X179832000Y-51082222D01*
X179820417Y-51059895D01*
X179778761Y-51041794D01*
X179696674Y-51027492D01*
X179563799Y-51016562D01*
X179369776Y-51008578D01*
X179104249Y-51003112D01*
X178756859Y-50999738D01*
X178317247Y-50998028D01*
X177778031Y-50997556D01*
X177238390Y-50997930D01*
X176800310Y-50999396D01*
X176452465Y-51002471D01*
X176183528Y-51007669D01*
X175982174Y-51015508D01*
X175837076Y-51026503D01*
X175736907Y-51041170D01*
X175670342Y-51060026D01*
X175626054Y-51083585D01*
X175609825Y-51096334D01*
X175507852Y-51218298D01*
X175460736Y-51315559D01*
X175457222Y-51410650D01*
X175229827Y-51410650D01*
X175232187Y-51374396D01*
X175246089Y-51259254D01*
X175263763Y-51180395D01*
X175285644Y-51126877D01*
X175296480Y-51108893D01*
X175329515Y-51057404D01*
X175360477Y-51012618D01*
X175397005Y-50974068D01*
X175446741Y-50941288D01*
X175517325Y-50913811D01*
X175616398Y-50891172D01*
X175751600Y-50872903D01*
X175930571Y-50858539D01*
X176160952Y-50847612D01*
X176450383Y-50839658D01*
X176806506Y-50834209D01*
X177236959Y-50830799D01*
X177749385Y-50828961D01*
X178351423Y-50828230D01*
X179050714Y-50828139D01*
X179854898Y-50828222D01*
G36*
X185687894Y-51069385D02*
G01*
X185824584Y-51100398D01*
X185860267Y-51121734D01*
X185878282Y-51170715D01*
X185893147Y-51283247D01*
X185905072Y-51466688D01*
X185914266Y-51728398D01*
X185920939Y-52075737D01*
X185925299Y-52516065D01*
X185927558Y-53056740D01*
X185928000Y-53500289D01*
X185928355Y-54092141D01*
X185928115Y-54580939D01*
X185925326Y-54976510D01*
X185918034Y-55288681D01*
X185904283Y-55527278D01*
X185882119Y-55702127D01*
X185849588Y-55823057D01*
X185804733Y-55899893D01*
X185745602Y-55942463D01*
X185670238Y-55960592D01*
X185576688Y-55964109D01*
X185462995Y-55962838D01*
X185438143Y-55962872D01*
X185199924Y-55942337D01*
X185059501Y-55878274D01*
X185057143Y-55875968D01*
X185034877Y-55842717D01*
X185016612Y-55784871D01*
X185001964Y-55692118D01*
X184995716Y-55616593D01*
X185081333Y-55616593D01*
X185096499Y-55715392D01*
X185157301Y-55769355D01*
X185286698Y-55788247D01*
X185474203Y-55783685D01*
X185786889Y-55767111D01*
X185798961Y-55569556D01*
X185799481Y-55459514D01*
X185785709Y-55432849D01*
X185780146Y-55442556D01*
X185702621Y-55487362D01*
X185526482Y-55510453D01*
X185415296Y-55513111D01*
X185226465Y-55517913D01*
X185125018Y-55537540D01*
X185085670Y-55579830D01*
X185081333Y-55616593D01*
X184995716Y-55616593D01*
X184990549Y-55554140D01*
X184981985Y-55360625D01*
X184975888Y-55101256D01*
X184971875Y-54765720D01*
X184971022Y-54610000D01*
X185081333Y-54610000D01*
X185081333Y-55100583D01*
X185402987Y-55111093D01*
X185582173Y-55121086D01*
X185710043Y-55135951D01*
X185751061Y-55148024D01*
X185784788Y-55168787D01*
X185803642Y-55133740D01*
X185811099Y-55023847D01*
X185810655Y-54821667D01*
X185804409Y-54652180D01*
X185792387Y-54550984D01*
X185777729Y-54539445D01*
X185701659Y-54584479D01*
X185525426Y-54607438D01*
X185415296Y-54610000D01*
X185081333Y-54610000D01*
X184971022Y-54610000D01*
X184969563Y-54343700D01*
X184968569Y-53824883D01*
X184968530Y-53716522D01*
X185081333Y-53716522D01*
X185081333Y-54209502D01*
X185434111Y-54229542D01*
X185619607Y-54241558D01*
X185752573Y-54252966D01*
X185801000Y-54260458D01*
X185808879Y-54215960D01*
X185814054Y-54089962D01*
X185815230Y-53975000D01*
X185815348Y-53678667D01*
X185448341Y-53697594D01*
X185081333Y-53716522D01*
X184968530Y-53716522D01*
X184968445Y-53488368D01*
X184969358Y-52874455D01*
X184969918Y-52775556D01*
X185081333Y-52775556D01*
X185081333Y-53306391D01*
X185434111Y-53326431D01*
X185619607Y-53338447D01*
X185752573Y-53349854D01*
X185801000Y-53357347D01*
X185808859Y-53312849D01*
X185813982Y-53186851D01*
X185815111Y-53071889D01*
X185815111Y-52775556D01*
X185081333Y-52775556D01*
X184969918Y-52775556D01*
X184972240Y-52366045D01*
X184977301Y-51955764D01*
X184978361Y-51910299D01*
X185081333Y-51910299D01*
X185081333Y-52391249D01*
X185402987Y-52401760D01*
X185582173Y-52411752D01*
X185710043Y-52426617D01*
X185751061Y-52438691D01*
X185786761Y-52460001D01*
X185806235Y-52420209D01*
X185814121Y-52299807D01*
X185815230Y-52168778D01*
X185815348Y-51872445D01*
X185448341Y-51891372D01*
X185081333Y-51910299D01*
X184978361Y-51910299D01*
X184984752Y-51636241D01*
X184993507Y-51430557D01*
X185087701Y-51430557D01*
X185115546Y-51477728D01*
X185200088Y-51501357D01*
X185365916Y-51513740D01*
X185430631Y-51516883D01*
X185628115Y-51521962D01*
X185739496Y-51509550D01*
X185790972Y-51473637D01*
X185805464Y-51430895D01*
X185804974Y-51296536D01*
X185792035Y-51244614D01*
X185741648Y-51195728D01*
X185624686Y-51175303D01*
X185434794Y-51178163D01*
X185250951Y-51191573D01*
X185151385Y-51216672D01*
X185107509Y-51267586D01*
X185091964Y-51347550D01*
X185087701Y-51430557D01*
X184993507Y-51430557D01*
X184994804Y-51400102D01*
X185007668Y-51239974D01*
X185023556Y-51148486D01*
X185036178Y-51121734D01*
X185133519Y-51082186D01*
X185301696Y-51060279D01*
X185500043Y-51056012D01*
X185687894Y-51069385D01*
G37*
X185687894Y-51069385D02*
X185824584Y-51100398D01*
X185860267Y-51121734D01*
X185878282Y-51170715D01*
X185893147Y-51283247D01*
X185905072Y-51466688D01*
X185914266Y-51728398D01*
X185920939Y-52075737D01*
X185925299Y-52516065D01*
X185927558Y-53056740D01*
X185928000Y-53500289D01*
X185928355Y-54092141D01*
X185928115Y-54580939D01*
X185925326Y-54976510D01*
X185918034Y-55288681D01*
X185904283Y-55527278D01*
X185882119Y-55702127D01*
X185849588Y-55823057D01*
X185804733Y-55899893D01*
X185745602Y-55942463D01*
X185670238Y-55960592D01*
X185576688Y-55964109D01*
X185462995Y-55962838D01*
X185438143Y-55962872D01*
X185199924Y-55942337D01*
X185059501Y-55878274D01*
X185057143Y-55875968D01*
X185034877Y-55842717D01*
X185016612Y-55784871D01*
X185001964Y-55692118D01*
X184995716Y-55616593D01*
X185081333Y-55616593D01*
X185096499Y-55715392D01*
X185157301Y-55769355D01*
X185286698Y-55788247D01*
X185474203Y-55783685D01*
X185786889Y-55767111D01*
X185798961Y-55569556D01*
X185799481Y-55459514D01*
X185785709Y-55432849D01*
X185780146Y-55442556D01*
X185702621Y-55487362D01*
X185526482Y-55510453D01*
X185415296Y-55513111D01*
X185226465Y-55517913D01*
X185125018Y-55537540D01*
X185085670Y-55579830D01*
X185081333Y-55616593D01*
X184995716Y-55616593D01*
X184990549Y-55554140D01*
X184981985Y-55360625D01*
X184975888Y-55101256D01*
X184971875Y-54765720D01*
X184971022Y-54610000D01*
X185081333Y-54610000D01*
X185081333Y-55100583D01*
X185402987Y-55111093D01*
X185582173Y-55121086D01*
X185710043Y-55135951D01*
X185751061Y-55148024D01*
X185784788Y-55168787D01*
X185803642Y-55133740D01*
X185811099Y-55023847D01*
X185810655Y-54821667D01*
X185804409Y-54652180D01*
X185792387Y-54550984D01*
X185777729Y-54539445D01*
X185701659Y-54584479D01*
X185525426Y-54607438D01*
X185415296Y-54610000D01*
X185081333Y-54610000D01*
X184971022Y-54610000D01*
X184969563Y-54343700D01*
X184968569Y-53824883D01*
X184968530Y-53716522D01*
X185081333Y-53716522D01*
X185081333Y-54209502D01*
X185434111Y-54229542D01*
X185619607Y-54241558D01*
X185752573Y-54252966D01*
X185801000Y-54260458D01*
X185808879Y-54215960D01*
X185814054Y-54089962D01*
X185815230Y-53975000D01*
X185815348Y-53678667D01*
X185448341Y-53697594D01*
X185081333Y-53716522D01*
X184968530Y-53716522D01*
X184968445Y-53488368D01*
X184969358Y-52874455D01*
X184969918Y-52775556D01*
X185081333Y-52775556D01*
X185081333Y-53306391D01*
X185434111Y-53326431D01*
X185619607Y-53338447D01*
X185752573Y-53349854D01*
X185801000Y-53357347D01*
X185808859Y-53312849D01*
X185813982Y-53186851D01*
X185815111Y-53071889D01*
X185815111Y-52775556D01*
X185081333Y-52775556D01*
X184969918Y-52775556D01*
X184972240Y-52366045D01*
X184977301Y-51955764D01*
X184978361Y-51910299D01*
X185081333Y-51910299D01*
X185081333Y-52391249D01*
X185402987Y-52401760D01*
X185582173Y-52411752D01*
X185710043Y-52426617D01*
X185751061Y-52438691D01*
X185786761Y-52460001D01*
X185806235Y-52420209D01*
X185814121Y-52299807D01*
X185815230Y-52168778D01*
X185815348Y-51872445D01*
X185448341Y-51891372D01*
X185081333Y-51910299D01*
X184978361Y-51910299D01*
X184984752Y-51636241D01*
X184993507Y-51430557D01*
X185087701Y-51430557D01*
X185115546Y-51477728D01*
X185200088Y-51501357D01*
X185365916Y-51513740D01*
X185430631Y-51516883D01*
X185628115Y-51521962D01*
X185739496Y-51509550D01*
X185790972Y-51473637D01*
X185805464Y-51430895D01*
X185804974Y-51296536D01*
X185792035Y-51244614D01*
X185741648Y-51195728D01*
X185624686Y-51175303D01*
X185434794Y-51178163D01*
X185250951Y-51191573D01*
X185151385Y-51216672D01*
X185107509Y-51267586D01*
X185091964Y-51347550D01*
X185087701Y-51430557D01*
X184993507Y-51430557D01*
X184994804Y-51400102D01*
X185007668Y-51239974D01*
X185023556Y-51148486D01*
X185036178Y-51121734D01*
X185133519Y-51082186D01*
X185301696Y-51060279D01*
X185500043Y-51056012D01*
X185687894Y-51069385D01*
G36*
X187593111Y-55259111D02*
G01*
X187126554Y-55275520D01*
X186883906Y-55279607D01*
X186733017Y-55269304D01*
X186653366Y-55241923D01*
X186628689Y-55210337D01*
X186612003Y-55099507D01*
X186615019Y-54944738D01*
X186615468Y-54939929D01*
X186633556Y-54751111D01*
X187593111Y-54751111D01*
X187593111Y-55259111D01*
G37*
X187593111Y-55259111D02*
X187126554Y-55275520D01*
X186883906Y-55279607D01*
X186733017Y-55269304D01*
X186653366Y-55241923D01*
X186628689Y-55210337D01*
X186612003Y-55099507D01*
X186615019Y-54944738D01*
X186615468Y-54939929D01*
X186633556Y-54751111D01*
X187593111Y-54751111D01*
X187593111Y-55259111D01*
G36*
X188778445Y-55259111D02*
G01*
X188311888Y-55275520D01*
X188069239Y-55279607D01*
X187918350Y-55269304D01*
X187838700Y-55241923D01*
X187814022Y-55210337D01*
X187797336Y-55099507D01*
X187800353Y-54944738D01*
X187800801Y-54939929D01*
X187818889Y-54751111D01*
X188778445Y-54751111D01*
X188778445Y-55259111D01*
G37*
X188778445Y-55259111D02*
X188311888Y-55275520D01*
X188069239Y-55279607D01*
X187918350Y-55269304D01*
X187838700Y-55241923D01*
X187814022Y-55210337D01*
X187797336Y-55099507D01*
X187800353Y-54944738D01*
X187800801Y-54939929D01*
X187818889Y-54751111D01*
X188778445Y-54751111D01*
X188778445Y-55259111D01*
G36*
X189963778Y-55259111D02*
G01*
X189497221Y-55275520D01*
X189254573Y-55279607D01*
X189103684Y-55269304D01*
X189024033Y-55241923D01*
X188999355Y-55210337D01*
X188982670Y-55099507D01*
X188985686Y-54944738D01*
X188986134Y-54939929D01*
X189004222Y-54751111D01*
X189963778Y-54751111D01*
X189963778Y-55259111D01*
G37*
X189963778Y-55259111D02*
X189497221Y-55275520D01*
X189254573Y-55279607D01*
X189103684Y-55269304D01*
X189024033Y-55241923D01*
X188999355Y-55210337D01*
X188982670Y-55099507D01*
X188985686Y-54944738D01*
X188986134Y-54939929D01*
X189004222Y-54751111D01*
X189963778Y-54751111D01*
X189963778Y-55259111D01*
G36*
X187341366Y-53781595D02*
G01*
X187489720Y-53815447D01*
X187529993Y-53836140D01*
X187599245Y-53930794D01*
X187614042Y-54090869D01*
X187611337Y-54132474D01*
X187593111Y-54356000D01*
X187138949Y-54372208D01*
X186922223Y-54375149D01*
X186750752Y-54368542D01*
X186654302Y-54353803D01*
X186645060Y-54348690D01*
X186612318Y-54255693D01*
X186606582Y-54105547D01*
X186625053Y-53949986D01*
X186664931Y-53840746D01*
X186673067Y-53831067D01*
X186772218Y-53790499D01*
X186943036Y-53768887D01*
X187145945Y-53765997D01*
X187341366Y-53781595D01*
G37*
X187341366Y-53781595D02*
X187489720Y-53815447D01*
X187529993Y-53836140D01*
X187599245Y-53930794D01*
X187614042Y-54090869D01*
X187611337Y-54132474D01*
X187593111Y-54356000D01*
X187138949Y-54372208D01*
X186922223Y-54375149D01*
X186750752Y-54368542D01*
X186654302Y-54353803D01*
X186645060Y-54348690D01*
X186612318Y-54255693D01*
X186606582Y-54105547D01*
X186625053Y-53949986D01*
X186664931Y-53840746D01*
X186673067Y-53831067D01*
X186772218Y-53790499D01*
X186943036Y-53768887D01*
X187145945Y-53765997D01*
X187341366Y-53781595D01*
G36*
X188348064Y-53770467D02*
G01*
X188543601Y-53787338D01*
X188693904Y-53819381D01*
X188754349Y-53852972D01*
X188789047Y-53953184D01*
X188798152Y-54108125D01*
X188796198Y-54140394D01*
X188778445Y-54356000D01*
X188324282Y-54372208D01*
X188107556Y-54375149D01*
X187936085Y-54368542D01*
X187839635Y-54353803D01*
X187830393Y-54348690D01*
X187795893Y-54252437D01*
X187791973Y-54100292D01*
X187814666Y-53943833D01*
X187860007Y-53834642D01*
X187870777Y-53823560D01*
X187973578Y-53787310D01*
X188145365Y-53770035D01*
X188348064Y-53770467D01*
G37*
X188348064Y-53770467D02*
X188543601Y-53787338D01*
X188693904Y-53819381D01*
X188754349Y-53852972D01*
X188789047Y-53953184D01*
X188798152Y-54108125D01*
X188796198Y-54140394D01*
X188778445Y-54356000D01*
X188324282Y-54372208D01*
X188107556Y-54375149D01*
X187936085Y-54368542D01*
X187839635Y-54353803D01*
X187830393Y-54348690D01*
X187795893Y-54252437D01*
X187791973Y-54100292D01*
X187814666Y-53943833D01*
X187860007Y-53834642D01*
X187870777Y-53823560D01*
X187973578Y-53787310D01*
X188145365Y-53770035D01*
X188348064Y-53770467D01*
G36*
X189730153Y-53778913D02*
G01*
X189888360Y-53833167D01*
X189967844Y-53937366D01*
X189984000Y-54102782D01*
X189982003Y-54132474D01*
X189963778Y-54356000D01*
X189509615Y-54372208D01*
X189292889Y-54375149D01*
X189121418Y-54368542D01*
X189024968Y-54353803D01*
X189015727Y-54348690D01*
X188991019Y-54271887D01*
X188977116Y-54127604D01*
X188976000Y-54070409D01*
X188985387Y-53923707D01*
X189027859Y-53832809D01*
X189124883Y-53784580D01*
X189297927Y-53765884D01*
X189477828Y-53763334D01*
X189730153Y-53778913D01*
G37*
X189730153Y-53778913D02*
X189888360Y-53833167D01*
X189967844Y-53937366D01*
X189984000Y-54102782D01*
X189982003Y-54132474D01*
X189963778Y-54356000D01*
X189509615Y-54372208D01*
X189292889Y-54375149D01*
X189121418Y-54368542D01*
X189024968Y-54353803D01*
X189015727Y-54348690D01*
X188991019Y-54271887D01*
X188977116Y-54127604D01*
X188976000Y-54070409D01*
X188985387Y-53923707D01*
X189027859Y-53832809D01*
X189124883Y-53784580D01*
X189297927Y-53765884D01*
X189477828Y-53763334D01*
X189730153Y-53778913D01*
G36*
X187610864Y-53104050D02*
G01*
X187609551Y-53281533D01*
X187558368Y-53394171D01*
X187439421Y-53455528D01*
X187234814Y-53479166D01*
X187113333Y-53481111D01*
X186860967Y-53469301D01*
X186709593Y-53432729D01*
X186665047Y-53400384D01*
X186625386Y-53293732D01*
X186613976Y-53135028D01*
X186615802Y-53104050D01*
X186633556Y-52888445D01*
X187593111Y-52888445D01*
X187610864Y-53104050D01*
G37*
X187610864Y-53104050D02*
X187609551Y-53281533D01*
X187558368Y-53394171D01*
X187439421Y-53455528D01*
X187234814Y-53479166D01*
X187113333Y-53481111D01*
X186860967Y-53469301D01*
X186709593Y-53432729D01*
X186665047Y-53400384D01*
X186625386Y-53293732D01*
X186613976Y-53135028D01*
X186615802Y-53104050D01*
X186633556Y-52888445D01*
X187593111Y-52888445D01*
X187610864Y-53104050D01*
G36*
X188796198Y-53104050D02*
G01*
X188794636Y-53282661D01*
X188742460Y-53395533D01*
X188621802Y-53456374D01*
X188414795Y-53478894D01*
X188305867Y-53480247D01*
X188102521Y-53473034D01*
X187939606Y-53455051D01*
X187857561Y-53432319D01*
X187807788Y-53337150D01*
X187800303Y-53148959D01*
X187801116Y-53136850D01*
X187818889Y-52888445D01*
X188778445Y-52888445D01*
X188796198Y-53104050D01*
G37*
X188796198Y-53104050D02*
X188794636Y-53282661D01*
X188742460Y-53395533D01*
X188621802Y-53456374D01*
X188414795Y-53478894D01*
X188305867Y-53480247D01*
X188102521Y-53473034D01*
X187939606Y-53455051D01*
X187857561Y-53432319D01*
X187807788Y-53337150D01*
X187800303Y-53148959D01*
X187801116Y-53136850D01*
X187818889Y-52888445D01*
X188778445Y-52888445D01*
X188796198Y-53104050D01*
G36*
X189981531Y-53104050D02*
G01*
X189979969Y-53282661D01*
X189927793Y-53395533D01*
X189807135Y-53456374D01*
X189600129Y-53478894D01*
X189491200Y-53480247D01*
X189287854Y-53473034D01*
X189124940Y-53455051D01*
X189042894Y-53432319D01*
X188993121Y-53337150D01*
X188985636Y-53148959D01*
X188986450Y-53136850D01*
X189004222Y-52888445D01*
X189963778Y-52888445D01*
X189981531Y-53104050D01*
G37*
X189981531Y-53104050D02*
X189979969Y-53282661D01*
X189927793Y-53395533D01*
X189807135Y-53456374D01*
X189600129Y-53478894D01*
X189491200Y-53480247D01*
X189287854Y-53473034D01*
X189124940Y-53455051D01*
X189042894Y-53432319D01*
X188993121Y-53337150D01*
X188985636Y-53148959D01*
X188986450Y-53136850D01*
X189004222Y-52888445D01*
X189963778Y-52888445D01*
X189981531Y-53104050D01*
G36*
X187593111Y-52493334D02*
G01*
X187126554Y-52509742D01*
X186883906Y-52513830D01*
X186733017Y-52503526D01*
X186653366Y-52476145D01*
X186628689Y-52444559D01*
X186612003Y-52333730D01*
X186615019Y-52178961D01*
X186615468Y-52174151D01*
X186633556Y-51985334D01*
X187593111Y-51985334D01*
X187593111Y-52493334D01*
G37*
X187593111Y-52493334D02*
X187126554Y-52509742D01*
X186883906Y-52513830D01*
X186733017Y-52503526D01*
X186653366Y-52476145D01*
X186628689Y-52444559D01*
X186612003Y-52333730D01*
X186615019Y-52178961D01*
X186615468Y-52174151D01*
X186633556Y-51985334D01*
X187593111Y-51985334D01*
X187593111Y-52493334D01*
G36*
X188778445Y-52493334D02*
G01*
X188311888Y-52509742D01*
X188069239Y-52513830D01*
X187918350Y-52503526D01*
X187838700Y-52476145D01*
X187814022Y-52444559D01*
X187797336Y-52333730D01*
X187800353Y-52178961D01*
X187800801Y-52174151D01*
X187818889Y-51985334D01*
X188778445Y-51985334D01*
X188778445Y-52493334D01*
G37*
X188778445Y-52493334D02*
X188311888Y-52509742D01*
X188069239Y-52513830D01*
X187918350Y-52503526D01*
X187838700Y-52476145D01*
X187814022Y-52444559D01*
X187797336Y-52333730D01*
X187800353Y-52178961D01*
X187800801Y-52174151D01*
X187818889Y-51985334D01*
X188778445Y-51985334D01*
X188778445Y-52493334D01*
G36*
X189963778Y-51985334D02*
G01*
X189963778Y-52493334D01*
X189509615Y-52509541D01*
X189292889Y-52512483D01*
X189121418Y-52505875D01*
X189024968Y-52491136D01*
X189015727Y-52486023D01*
X188991376Y-52409529D01*
X188977348Y-52264491D01*
X188976000Y-52199506D01*
X188976000Y-51952716D01*
X189963778Y-51985334D01*
G37*
X189963778Y-51985334D02*
X189963778Y-52493334D01*
X189509615Y-52509541D01*
X189292889Y-52512483D01*
X189121418Y-52505875D01*
X189024968Y-52491136D01*
X189015727Y-52486023D01*
X188991376Y-52409529D01*
X188977348Y-52264491D01*
X188976000Y-52199506D01*
X188976000Y-51952716D01*
X189963778Y-51985334D01*
G36*
X187313205Y-50750227D02*
G01*
X187512786Y-50880325D01*
X187618300Y-51009064D01*
X187676297Y-51124816D01*
X187679987Y-51148436D01*
X187698276Y-51176320D01*
X187744791Y-51104735D01*
X187765509Y-51059598D01*
X187877684Y-50866497D01*
X188024254Y-50759576D01*
X188236347Y-50719175D01*
X188307760Y-50717129D01*
X188486293Y-50727914D01*
X188605356Y-50777931D01*
X188716983Y-50888998D01*
X188835782Y-51101078D01*
X188857419Y-51322105D01*
X188780745Y-51524658D01*
X188745498Y-51569858D01*
X188669151Y-51651061D01*
X188651451Y-51648017D01*
X188669966Y-51590222D01*
X188705199Y-51457483D01*
X188734731Y-51285103D01*
X188736818Y-51268239D01*
X188713782Y-51062739D01*
X188608724Y-50904092D01*
X188447477Y-50805815D01*
X188255874Y-50781430D01*
X188059751Y-50844455D01*
X188002177Y-50883774D01*
X187857189Y-51057932D01*
X187818744Y-51260315D01*
X187874136Y-51446795D01*
X187932772Y-51573686D01*
X187958105Y-51655426D01*
X187958122Y-51657975D01*
X187932319Y-51666044D01*
X187874286Y-51606707D01*
X187806571Y-51511269D01*
X187751722Y-51411030D01*
X187732013Y-51344080D01*
X187712438Y-51326249D01*
X187666689Y-51398156D01*
X187652920Y-51428224D01*
X187579982Y-51562409D01*
X187508003Y-51646788D01*
X187504426Y-51649150D01*
X187459050Y-51660038D01*
X187479004Y-51587127D01*
X187479765Y-51585371D01*
X187518243Y-51456275D01*
X187549281Y-51285987D01*
X187551438Y-51268737D01*
X187529617Y-51058856D01*
X187426040Y-50898916D01*
X187265529Y-50801649D01*
X187072908Y-50779783D01*
X186872998Y-50846049D01*
X186810501Y-50888764D01*
X186708282Y-50996966D01*
X186666593Y-51135843D01*
X186661778Y-51244364D01*
X186676707Y-51409222D01*
X186713967Y-51529382D01*
X186728570Y-51549771D01*
X186769895Y-51623375D01*
X186762550Y-51649376D01*
X186711249Y-51633393D01*
X186639313Y-51553091D01*
X186560095Y-51357270D01*
X186560835Y-51142256D01*
X186633403Y-50944588D01*
X186769667Y-50800808D01*
X186811769Y-50778002D01*
X187069831Y-50712882D01*
X187313205Y-50750227D01*
G37*
X187313205Y-50750227D02*
X187512786Y-50880325D01*
X187618300Y-51009064D01*
X187676297Y-51124816D01*
X187679987Y-51148436D01*
X187698276Y-51176320D01*
X187744791Y-51104735D01*
X187765509Y-51059598D01*
X187877684Y-50866497D01*
X188024254Y-50759576D01*
X188236347Y-50719175D01*
X188307760Y-50717129D01*
X188486293Y-50727914D01*
X188605356Y-50777931D01*
X188716983Y-50888998D01*
X188835782Y-51101078D01*
X188857419Y-51322105D01*
X188780745Y-51524658D01*
X188745498Y-51569858D01*
X188669151Y-51651061D01*
X188651451Y-51648017D01*
X188669966Y-51590222D01*
X188705199Y-51457483D01*
X188734731Y-51285103D01*
X188736818Y-51268239D01*
X188713782Y-51062739D01*
X188608724Y-50904092D01*
X188447477Y-50805815D01*
X188255874Y-50781430D01*
X188059751Y-50844455D01*
X188002177Y-50883774D01*
X187857189Y-51057932D01*
X187818744Y-51260315D01*
X187874136Y-51446795D01*
X187932772Y-51573686D01*
X187958105Y-51655426D01*
X187958122Y-51657975D01*
X187932319Y-51666044D01*
X187874286Y-51606707D01*
X187806571Y-51511269D01*
X187751722Y-51411030D01*
X187732013Y-51344080D01*
X187712438Y-51326249D01*
X187666689Y-51398156D01*
X187652920Y-51428224D01*
X187579982Y-51562409D01*
X187508003Y-51646788D01*
X187504426Y-51649150D01*
X187459050Y-51660038D01*
X187479004Y-51587127D01*
X187479765Y-51585371D01*
X187518243Y-51456275D01*
X187549281Y-51285987D01*
X187551438Y-51268737D01*
X187529617Y-51058856D01*
X187426040Y-50898916D01*
X187265529Y-50801649D01*
X187072908Y-50779783D01*
X186872998Y-50846049D01*
X186810501Y-50888764D01*
X186708282Y-50996966D01*
X186666593Y-51135843D01*
X186661778Y-51244364D01*
X186676707Y-51409222D01*
X186713967Y-51529382D01*
X186728570Y-51549771D01*
X186769895Y-51623375D01*
X186762550Y-51649376D01*
X186711249Y-51633393D01*
X186639313Y-51553091D01*
X186560095Y-51357270D01*
X186560835Y-51142256D01*
X186633403Y-50944588D01*
X186769667Y-50800808D01*
X186811769Y-50778002D01*
X187069831Y-50712882D01*
X187313205Y-50750227D01*
G36*
X189699159Y-50753926D02*
G01*
X189883453Y-50880325D01*
X190014674Y-51079998D01*
X190048681Y-51301825D01*
X189982047Y-51516073D01*
X189960577Y-51549441D01*
X189867168Y-51653820D01*
X189812304Y-51666146D01*
X189813465Y-51592880D01*
X189849439Y-51508359D01*
X189927409Y-51276599D01*
X189900298Y-51075190D01*
X189797140Y-50921131D01*
X189619587Y-50798974D01*
X189425462Y-50775790D01*
X189239808Y-50845618D01*
X189087672Y-51002494D01*
X189035777Y-51102400D01*
X188997393Y-51240487D01*
X189022392Y-51367833D01*
X189060382Y-51448560D01*
X189119194Y-51587144D01*
X189122829Y-51653272D01*
X189077074Y-51634942D01*
X189009980Y-51553091D01*
X188947640Y-51407098D01*
X188919669Y-51228953D01*
X188919556Y-51218471D01*
X188967301Y-51001811D01*
X189093976Y-50838312D01*
X189274738Y-50736688D01*
X189484746Y-50705654D01*
X189699159Y-50753926D01*
G37*
X189699159Y-50753926D02*
X189883453Y-50880325D01*
X190014674Y-51079998D01*
X190048681Y-51301825D01*
X189982047Y-51516073D01*
X189960577Y-51549441D01*
X189867168Y-51653820D01*
X189812304Y-51666146D01*
X189813465Y-51592880D01*
X189849439Y-51508359D01*
X189927409Y-51276599D01*
X189900298Y-51075190D01*
X189797140Y-50921131D01*
X189619587Y-50798974D01*
X189425462Y-50775790D01*
X189239808Y-50845618D01*
X189087672Y-51002494D01*
X189035777Y-51102400D01*
X188997393Y-51240487D01*
X189022392Y-51367833D01*
X189060382Y-51448560D01*
X189119194Y-51587144D01*
X189122829Y-51653272D01*
X189077074Y-51634942D01*
X189009980Y-51553091D01*
X188947640Y-51407098D01*
X188919669Y-51228953D01*
X188919556Y-51218471D01*
X188967301Y-51001811D01*
X189093976Y-50838312D01*
X189274738Y-50736688D01*
X189484746Y-50705654D01*
X189699159Y-50753926D01*
G36*
X187243828Y-50961474D02*
G01*
X187378948Y-51101719D01*
X187392198Y-51123959D01*
X187441948Y-51238578D01*
X187423838Y-51335132D01*
X187376786Y-51414385D01*
X187242363Y-51531308D01*
X187074631Y-51561118D01*
X186913732Y-51500313D01*
X186868082Y-51458778D01*
X186783316Y-51297631D01*
X186807993Y-51135373D01*
X186919382Y-51004805D01*
X187086720Y-50928182D01*
X187243828Y-50961474D01*
G37*
X187243828Y-50961474D02*
X187378948Y-51101719D01*
X187392198Y-51123959D01*
X187441948Y-51238578D01*
X187423838Y-51335132D01*
X187376786Y-51414385D01*
X187242363Y-51531308D01*
X187074631Y-51561118D01*
X186913732Y-51500313D01*
X186868082Y-51458778D01*
X186783316Y-51297631D01*
X186807993Y-51135373D01*
X186919382Y-51004805D01*
X187086720Y-50928182D01*
X187243828Y-50961474D01*
G36*
X188432266Y-50959221D02*
G01*
X188576978Y-51103071D01*
X188614614Y-51268459D01*
X188556046Y-51423653D01*
X188424711Y-51534215D01*
X188257838Y-51559481D01*
X188096567Y-51497010D01*
X188048879Y-51453766D01*
X187973355Y-51299552D01*
X188002733Y-51136647D01*
X188132975Y-50985967D01*
X188140214Y-50980499D01*
X188251885Y-50907975D01*
X188333345Y-50904096D01*
X188432266Y-50959221D01*
G37*
X188432266Y-50959221D02*
X188576978Y-51103071D01*
X188614614Y-51268459D01*
X188556046Y-51423653D01*
X188424711Y-51534215D01*
X188257838Y-51559481D01*
X188096567Y-51497010D01*
X188048879Y-51453766D01*
X187973355Y-51299552D01*
X188002733Y-51136647D01*
X188132975Y-50985967D01*
X188140214Y-50980499D01*
X188251885Y-50907975D01*
X188333345Y-50904096D01*
X188432266Y-50959221D01*
G36*
X189681523Y-51020691D02*
G01*
X189688195Y-51027286D01*
X189788389Y-51186756D01*
X189776972Y-51356130D01*
X189695958Y-51491445D01*
X189581060Y-51555842D01*
X189428224Y-51553684D01*
X189286182Y-51490750D01*
X189233201Y-51436552D01*
X189153055Y-51262019D01*
X189180351Y-51116080D01*
X189244111Y-51043106D01*
X189406992Y-50935664D01*
X189544532Y-50928486D01*
X189681523Y-51020691D01*
G37*
X189681523Y-51020691D02*
X189688195Y-51027286D01*
X189788389Y-51186756D01*
X189776972Y-51356130D01*
X189695958Y-51491445D01*
X189581060Y-51555842D01*
X189428224Y-51553684D01*
X189286182Y-51490750D01*
X189233201Y-51436552D01*
X189153055Y-51262019D01*
X189180351Y-51116080D01*
X189244111Y-51043106D01*
X189406992Y-50935664D01*
X189544532Y-50928486D01*
X189681523Y-51020691D01*
G36*
X176502764Y-57132239D02*
G01*
X176569874Y-57227199D01*
X176584009Y-57343510D01*
X176555228Y-57407608D01*
X176444777Y-57477867D01*
X176323444Y-57475839D01*
X176239910Y-57403251D01*
X176237023Y-57396328D01*
X176237747Y-57319334D01*
X176332445Y-57319334D01*
X176375397Y-57374138D01*
X176388889Y-57375778D01*
X176443693Y-57332825D01*
X176445333Y-57319334D01*
X176402381Y-57264529D01*
X176388889Y-57262889D01*
X176334085Y-57305842D01*
X176332445Y-57319334D01*
X176237747Y-57319334D01*
X176238269Y-57263888D01*
X176316795Y-57148183D01*
X176405242Y-57104262D01*
X176502764Y-57132239D01*
G37*
X176502764Y-57132239D02*
X176569874Y-57227199D01*
X176584009Y-57343510D01*
X176555228Y-57407608D01*
X176444777Y-57477867D01*
X176323444Y-57475839D01*
X176239910Y-57403251D01*
X176237023Y-57396328D01*
X176237747Y-57319334D01*
X176332445Y-57319334D01*
X176375397Y-57374138D01*
X176388889Y-57375778D01*
X176443693Y-57332825D01*
X176445333Y-57319334D01*
X176402381Y-57264529D01*
X176388889Y-57262889D01*
X176334085Y-57305842D01*
X176332445Y-57319334D01*
X176237747Y-57319334D01*
X176238269Y-57263888D01*
X176316795Y-57148183D01*
X176405242Y-57104262D01*
X176502764Y-57132239D01*
G36*
X178939069Y-57141633D02*
G01*
X179002002Y-57252399D01*
X179014167Y-57375654D01*
X179007314Y-57399911D01*
X178928699Y-57471256D01*
X178803231Y-57483220D01*
X178680321Y-57435390D01*
X178645788Y-57402941D01*
X178607096Y-57321834D01*
X178608347Y-57319334D01*
X178759556Y-57319334D01*
X178802508Y-57374138D01*
X178816000Y-57375778D01*
X178870804Y-57332825D01*
X178872445Y-57319334D01*
X178829492Y-57264529D01*
X178816000Y-57262889D01*
X178761196Y-57305842D01*
X178759556Y-57319334D01*
X178608347Y-57319334D01*
X178651050Y-57233998D01*
X178675847Y-57205386D01*
X178777719Y-57121028D01*
X178850985Y-57093556D01*
X178939069Y-57141633D01*
G37*
X178939069Y-57141633D02*
X179002002Y-57252399D01*
X179014167Y-57375654D01*
X179007314Y-57399911D01*
X178928699Y-57471256D01*
X178803231Y-57483220D01*
X178680321Y-57435390D01*
X178645788Y-57402941D01*
X178607096Y-57321834D01*
X178608347Y-57319334D01*
X178759556Y-57319334D01*
X178802508Y-57374138D01*
X178816000Y-57375778D01*
X178870804Y-57332825D01*
X178872445Y-57319334D01*
X178829492Y-57264529D01*
X178816000Y-57262889D01*
X178761196Y-57305842D01*
X178759556Y-57319334D01*
X178608347Y-57319334D01*
X178651050Y-57233998D01*
X178675847Y-57205386D01*
X178777719Y-57121028D01*
X178850985Y-57093556D01*
X178939069Y-57141633D01*
G36*
X181379491Y-57146074D02*
G01*
X181456152Y-57260613D01*
X181452192Y-57379357D01*
X181387644Y-57472850D01*
X181282540Y-57511639D01*
X181160104Y-57468638D01*
X181087333Y-57357904D01*
X181092803Y-57319334D01*
X181186667Y-57319334D01*
X181229620Y-57374138D01*
X181243111Y-57375778D01*
X181297915Y-57332825D01*
X181299556Y-57319334D01*
X181256603Y-57264529D01*
X181243111Y-57262889D01*
X181188307Y-57305842D01*
X181186667Y-57319334D01*
X181092803Y-57319334D01*
X181105667Y-57228649D01*
X181196047Y-57131101D01*
X181307132Y-57105348D01*
X181379491Y-57146074D01*
G37*
X181379491Y-57146074D02*
X181456152Y-57260613D01*
X181452192Y-57379357D01*
X181387644Y-57472850D01*
X181282540Y-57511639D01*
X181160104Y-57468638D01*
X181087333Y-57357904D01*
X181092803Y-57319334D01*
X181186667Y-57319334D01*
X181229620Y-57374138D01*
X181243111Y-57375778D01*
X181297915Y-57332825D01*
X181299556Y-57319334D01*
X181256603Y-57264529D01*
X181243111Y-57262889D01*
X181188307Y-57305842D01*
X181186667Y-57319334D01*
X181092803Y-57319334D01*
X181105667Y-57228649D01*
X181196047Y-57131101D01*
X181307132Y-57105348D01*
X181379491Y-57146074D01*
G36*
X183795907Y-57141495D02*
G01*
X183855293Y-57251363D01*
X183868816Y-57372235D01*
X183861536Y-57399911D01*
X183783431Y-57472309D01*
X183662058Y-57482706D01*
X183546893Y-57433463D01*
X183504691Y-57382882D01*
X183491592Y-57319334D01*
X183613778Y-57319334D01*
X183656731Y-57374138D01*
X183670222Y-57375778D01*
X183725027Y-57332825D01*
X183726667Y-57319334D01*
X183683714Y-57264529D01*
X183670222Y-57262889D01*
X183615418Y-57305842D01*
X183613778Y-57319334D01*
X183491592Y-57319334D01*
X183482824Y-57276805D01*
X183549483Y-57185327D01*
X183653201Y-57113488D01*
X183715014Y-57093556D01*
X183795907Y-57141495D01*
G37*
X183795907Y-57141495D02*
X183855293Y-57251363D01*
X183868816Y-57372235D01*
X183861536Y-57399911D01*
X183783431Y-57472309D01*
X183662058Y-57482706D01*
X183546893Y-57433463D01*
X183504691Y-57382882D01*
X183491592Y-57319334D01*
X183613778Y-57319334D01*
X183656731Y-57374138D01*
X183670222Y-57375778D01*
X183725027Y-57332825D01*
X183726667Y-57319334D01*
X183683714Y-57264529D01*
X183670222Y-57262889D01*
X183615418Y-57305842D01*
X183613778Y-57319334D01*
X183491592Y-57319334D01*
X183482824Y-57276805D01*
X183549483Y-57185327D01*
X183653201Y-57113488D01*
X183715014Y-57093556D01*
X183795907Y-57141495D01*
G36*
X186238960Y-57165510D02*
G01*
X186283609Y-57212884D01*
X186317370Y-57346381D01*
X186256821Y-57449093D01*
X186125556Y-57488667D01*
X186000542Y-57455547D01*
X185945468Y-57396328D01*
X185945229Y-57319334D01*
X186040889Y-57319334D01*
X186083842Y-57374138D01*
X186097333Y-57375778D01*
X186152138Y-57332825D01*
X186153778Y-57319334D01*
X186110825Y-57264529D01*
X186097333Y-57262889D01*
X186042529Y-57305842D01*
X186040889Y-57319334D01*
X185945229Y-57319334D01*
X185945062Y-57265614D01*
X186021017Y-57158858D01*
X186125556Y-57121778D01*
X186238960Y-57165510D01*
G37*
X186238960Y-57165510D02*
X186283609Y-57212884D01*
X186317370Y-57346381D01*
X186256821Y-57449093D01*
X186125556Y-57488667D01*
X186000542Y-57455547D01*
X185945468Y-57396328D01*
X185945229Y-57319334D01*
X186040889Y-57319334D01*
X186083842Y-57374138D01*
X186097333Y-57375778D01*
X186152138Y-57332825D01*
X186153778Y-57319334D01*
X186110825Y-57264529D01*
X186097333Y-57262889D01*
X186042529Y-57305842D01*
X186040889Y-57319334D01*
X185945229Y-57319334D01*
X185945062Y-57265614D01*
X186021017Y-57158858D01*
X186125556Y-57121778D01*
X186238960Y-57165510D01*
G36*
X188666071Y-57165510D02*
G01*
X188710720Y-57212884D01*
X188744481Y-57346381D01*
X188683932Y-57449093D01*
X188552667Y-57488667D01*
X188427654Y-57455547D01*
X188372579Y-57396328D01*
X188372340Y-57319334D01*
X188524445Y-57319334D01*
X188567397Y-57374138D01*
X188580889Y-57375778D01*
X188635693Y-57332825D01*
X188637333Y-57319334D01*
X188594381Y-57264529D01*
X188580889Y-57262889D01*
X188526085Y-57305842D01*
X188524445Y-57319334D01*
X188372340Y-57319334D01*
X188372173Y-57265614D01*
X188448128Y-57158858D01*
X188552667Y-57121778D01*
X188666071Y-57165510D01*
G37*
X188666071Y-57165510D02*
X188710720Y-57212884D01*
X188744481Y-57346381D01*
X188683932Y-57449093D01*
X188552667Y-57488667D01*
X188427654Y-57455547D01*
X188372579Y-57396328D01*
X188372340Y-57319334D01*
X188524445Y-57319334D01*
X188567397Y-57374138D01*
X188580889Y-57375778D01*
X188635693Y-57332825D01*
X188637333Y-57319334D01*
X188594381Y-57264529D01*
X188580889Y-57262889D01*
X188526085Y-57305842D01*
X188524445Y-57319334D01*
X188372340Y-57319334D01*
X188372173Y-57265614D01*
X188448128Y-57158858D01*
X188552667Y-57121778D01*
X188666071Y-57165510D01*
D12*
%TO.C,*%
X208210000Y-113030000D02*
G75*
G03*
X208210000Y-113030000I-1200000J0D01*
G01*
X205670000Y-113030000D02*
G75*
G03*
X205670000Y-113030000I-1200000J0D01*
G01*
X203130000Y-113030000D02*
G75*
G03*
X203130000Y-113030000I-1200000J0D01*
G01*
X200590000Y-113030000D02*
G75*
G03*
X200590000Y-113030000I-1200000J0D01*
G01*
X198050000Y-113030000D02*
G75*
G03*
X198050000Y-113030000I-1200000J0D01*
G01*
X195510000Y-113030000D02*
G75*
G03*
X195510000Y-113030000I-1200000J0D01*
G01*
X192970000Y-113030000D02*
G75*
G03*
X192970000Y-113030000I-1200000J0D01*
G01*
X190430000Y-113030000D02*
G75*
G03*
X190430000Y-113030000I-1200000J0D01*
G01*
X187890000Y-113030000D02*
G75*
G03*
X187890000Y-113030000I-1200000J0D01*
G01*
X185350000Y-113030000D02*
G75*
G03*
X185350000Y-113030000I-1200000J0D01*
G01*
X182810000Y-113030000D02*
G75*
G03*
X182810000Y-113030000I-1200000J0D01*
G01*
X180270000Y-113030000D02*
G75*
G03*
X180270000Y-113030000I-1200000J0D01*
G01*
X177730000Y-113030000D02*
G75*
G03*
X177730000Y-113030000I-1200000J0D01*
G01*
X208210000Y-110490000D02*
G75*
G03*
X208210000Y-110490000I-1200000J0D01*
G01*
X205670000Y-110490000D02*
G75*
G03*
X205670000Y-110490000I-1200000J0D01*
G01*
X203130000Y-110490000D02*
G75*
G03*
X203130000Y-110490000I-1200000J0D01*
G01*
X200590000Y-110490000D02*
G75*
G03*
X200590000Y-110490000I-1200000J0D01*
G01*
X198050000Y-110490000D02*
G75*
G03*
X198050000Y-110490000I-1200000J0D01*
G01*
X195510000Y-110490000D02*
G75*
G03*
X195510000Y-110490000I-1200000J0D01*
G01*
X192970000Y-110490000D02*
G75*
G03*
X192970000Y-110490000I-1200000J0D01*
G01*
X190430000Y-110490000D02*
G75*
G03*
X190430000Y-110490000I-1200000J0D01*
G01*
X187890000Y-110490000D02*
G75*
G03*
X187890000Y-110490000I-1200000J0D01*
G01*
X185350000Y-110490000D02*
G75*
G03*
X185350000Y-110490000I-1200000J0D01*
G01*
X182810000Y-110490000D02*
G75*
G03*
X182810000Y-110490000I-1200000J0D01*
G01*
X180270000Y-110490000D02*
G75*
G03*
X180270000Y-110490000I-1200000J0D01*
G01*
X177730000Y-110490000D02*
G75*
G03*
X177730000Y-110490000I-1200000J0D01*
G01*
X208210000Y-107950000D02*
G75*
G03*
X208210000Y-107950000I-1200000J0D01*
G01*
X205670000Y-107950000D02*
G75*
G03*
X205670000Y-107950000I-1200000J0D01*
G01*
X203130000Y-107950000D02*
G75*
G03*
X203130000Y-107950000I-1200000J0D01*
G01*
X200590000Y-107950000D02*
G75*
G03*
X200590000Y-107950000I-1200000J0D01*
G01*
X198050000Y-107950000D02*
G75*
G03*
X198050000Y-107950000I-1200000J0D01*
G01*
X195510000Y-107950000D02*
G75*
G03*
X195510000Y-107950000I-1200000J0D01*
G01*
X192970000Y-107950000D02*
G75*
G03*
X192970000Y-107950000I-1200000J0D01*
G01*
X190430000Y-107950000D02*
G75*
G03*
X190430000Y-107950000I-1200000J0D01*
G01*
X187890000Y-107950000D02*
G75*
G03*
X187890000Y-107950000I-1200000J0D01*
G01*
X185350000Y-107950000D02*
G75*
G03*
X185350000Y-107950000I-1200000J0D01*
G01*
X182810000Y-107950000D02*
G75*
G03*
X182810000Y-107950000I-1200000J0D01*
G01*
X180270000Y-107950000D02*
G75*
G03*
X180270000Y-107950000I-1200000J0D01*
G01*
X177730000Y-107950000D02*
G75*
G03*
X177730000Y-107950000I-1200000J0D01*
G01*
X208210000Y-105410000D02*
G75*
G03*
X208210000Y-105410000I-1200000J0D01*
G01*
X205670000Y-105410000D02*
G75*
G03*
X205670000Y-105410000I-1200000J0D01*
G01*
X203130000Y-105410000D02*
G75*
G03*
X203130000Y-105410000I-1200000J0D01*
G01*
X200590000Y-105410000D02*
G75*
G03*
X200590000Y-105410000I-1200000J0D01*
G01*
X198050000Y-105410000D02*
G75*
G03*
X198050000Y-105410000I-1200000J0D01*
G01*
X195510000Y-105410000D02*
G75*
G03*
X195510000Y-105410000I-1200000J0D01*
G01*
X192970000Y-105410000D02*
G75*
G03*
X192970000Y-105410000I-1200000J0D01*
G01*
X190430000Y-105410000D02*
G75*
G03*
X190430000Y-105410000I-1200000J0D01*
G01*
X187890000Y-105410000D02*
G75*
G03*
X187890000Y-105410000I-1200000J0D01*
G01*
X185350000Y-105410000D02*
G75*
G03*
X185350000Y-105410000I-1200000J0D01*
G01*
X182810000Y-105410000D02*
G75*
G03*
X182810000Y-105410000I-1200000J0D01*
G01*
X180270000Y-105410000D02*
G75*
G03*
X180270000Y-105410000I-1200000J0D01*
G01*
X177730000Y-105410000D02*
G75*
G03*
X177730000Y-105410000I-1200000J0D01*
G01*
X208210000Y-102870000D02*
G75*
G03*
X208210000Y-102870000I-1200000J0D01*
G01*
X205670000Y-102870000D02*
G75*
G03*
X205670000Y-102870000I-1200000J0D01*
G01*
X203130000Y-102870000D02*
G75*
G03*
X203130000Y-102870000I-1200000J0D01*
G01*
X200590000Y-102870000D02*
G75*
G03*
X200590000Y-102870000I-1200000J0D01*
G01*
X198050000Y-102870000D02*
G75*
G03*
X198050000Y-102870000I-1200000J0D01*
G01*
X195510000Y-102870000D02*
G75*
G03*
X195510000Y-102870000I-1200000J0D01*
G01*
X192970000Y-102870000D02*
G75*
G03*
X192970000Y-102870000I-1200000J0D01*
G01*
X190430000Y-102870000D02*
G75*
G03*
X190430000Y-102870000I-1200000J0D01*
G01*
X187890000Y-102870000D02*
G75*
G03*
X187890000Y-102870000I-1200000J0D01*
G01*
X185350000Y-102870000D02*
G75*
G03*
X185350000Y-102870000I-1200000J0D01*
G01*
X182810000Y-102870000D02*
G75*
G03*
X182810000Y-102870000I-1200000J0D01*
G01*
X180270000Y-102870000D02*
G75*
G03*
X180270000Y-102870000I-1200000J0D01*
G01*
X177730000Y-102870000D02*
G75*
G03*
X177730000Y-102870000I-1200000J0D01*
G01*
X208210000Y-100330000D02*
G75*
G03*
X208210000Y-100330000I-1200000J0D01*
G01*
X205670000Y-100330000D02*
G75*
G03*
X205670000Y-100330000I-1200000J0D01*
G01*
X203130000Y-100330000D02*
G75*
G03*
X203130000Y-100330000I-1200000J0D01*
G01*
X200590000Y-100330000D02*
G75*
G03*
X200590000Y-100330000I-1200000J0D01*
G01*
X198050000Y-100330000D02*
G75*
G03*
X198050000Y-100330000I-1200000J0D01*
G01*
X195510000Y-100330000D02*
G75*
G03*
X195510000Y-100330000I-1200000J0D01*
G01*
X192970000Y-100330000D02*
G75*
G03*
X192970000Y-100330000I-1200000J0D01*
G01*
X190430000Y-100330000D02*
G75*
G03*
X190430000Y-100330000I-1200000J0D01*
G01*
X187890000Y-100330000D02*
G75*
G03*
X187890000Y-100330000I-1200000J0D01*
G01*
X185350000Y-100330000D02*
G75*
G03*
X185350000Y-100330000I-1200000J0D01*
G01*
X182810000Y-100330000D02*
G75*
G03*
X182810000Y-100330000I-1200000J0D01*
G01*
X180270000Y-100330000D02*
G75*
G03*
X180270000Y-100330000I-1200000J0D01*
G01*
X177730000Y-100330000D02*
G75*
G03*
X177730000Y-100330000I-1200000J0D01*
G01*
X208210000Y-97790000D02*
G75*
G03*
X208210000Y-97790000I-1200000J0D01*
G01*
X205670000Y-97790000D02*
G75*
G03*
X205670000Y-97790000I-1200000J0D01*
G01*
X203130000Y-97790000D02*
G75*
G03*
X203130000Y-97790000I-1200000J0D01*
G01*
X200590000Y-97790000D02*
G75*
G03*
X200590000Y-97790000I-1200000J0D01*
G01*
X198050000Y-97790000D02*
G75*
G03*
X198050000Y-97790000I-1200000J0D01*
G01*
X195510000Y-97790000D02*
G75*
G03*
X195510000Y-97790000I-1200000J0D01*
G01*
X192970000Y-97790000D02*
G75*
G03*
X192970000Y-97790000I-1200000J0D01*
G01*
X190430000Y-97790000D02*
G75*
G03*
X190430000Y-97790000I-1200000J0D01*
G01*
X187890000Y-97790000D02*
G75*
G03*
X187890000Y-97790000I-1200000J0D01*
G01*
X185350000Y-97790000D02*
G75*
G03*
X185350000Y-97790000I-1200000J0D01*
G01*
X182810000Y-97790000D02*
G75*
G03*
X182810000Y-97790000I-1200000J0D01*
G01*
X180270000Y-97790000D02*
G75*
G03*
X180270000Y-97790000I-1200000J0D01*
G01*
X177730000Y-97790000D02*
G75*
G03*
X177730000Y-97790000I-1200000J0D01*
G01*
X208210000Y-95250000D02*
G75*
G03*
X208210000Y-95250000I-1200000J0D01*
G01*
X205670000Y-95250000D02*
G75*
G03*
X205670000Y-95250000I-1200000J0D01*
G01*
X203130000Y-95250000D02*
G75*
G03*
X203130000Y-95250000I-1200000J0D01*
G01*
X200590000Y-95250000D02*
G75*
G03*
X200590000Y-95250000I-1200000J0D01*
G01*
X198050000Y-95250000D02*
G75*
G03*
X198050000Y-95250000I-1200000J0D01*
G01*
X195510000Y-95250000D02*
G75*
G03*
X195510000Y-95250000I-1200000J0D01*
G01*
X192970000Y-95250000D02*
G75*
G03*
X192970000Y-95250000I-1200000J0D01*
G01*
X190430000Y-95250000D02*
G75*
G03*
X190430000Y-95250000I-1200000J0D01*
G01*
X187890000Y-95250000D02*
G75*
G03*
X187890000Y-95250000I-1200000J0D01*
G01*
X185350000Y-95250000D02*
G75*
G03*
X185350000Y-95250000I-1200000J0D01*
G01*
X182810000Y-95250000D02*
G75*
G03*
X182810000Y-95250000I-1200000J0D01*
G01*
X180270000Y-95250000D02*
G75*
G03*
X180270000Y-95250000I-1200000J0D01*
G01*
X177730000Y-95250000D02*
G75*
G03*
X177730000Y-95250000I-1200000J0D01*
G01*
X208210000Y-92710000D02*
G75*
G03*
X208210000Y-92710000I-1200000J0D01*
G01*
X205670000Y-92710000D02*
G75*
G03*
X205670000Y-92710000I-1200000J0D01*
G01*
X203130000Y-92710000D02*
G75*
G03*
X203130000Y-92710000I-1200000J0D01*
G01*
X200590000Y-92710000D02*
G75*
G03*
X200590000Y-92710000I-1200000J0D01*
G01*
X198050000Y-92710000D02*
G75*
G03*
X198050000Y-92710000I-1200000J0D01*
G01*
X195510000Y-92710000D02*
G75*
G03*
X195510000Y-92710000I-1200000J0D01*
G01*
X192970000Y-92710000D02*
G75*
G03*
X192970000Y-92710000I-1200000J0D01*
G01*
X190430000Y-92710000D02*
G75*
G03*
X190430000Y-92710000I-1200000J0D01*
G01*
X187890000Y-92710000D02*
G75*
G03*
X187890000Y-92710000I-1200000J0D01*
G01*
X185350000Y-92710000D02*
G75*
G03*
X185350000Y-92710000I-1200000J0D01*
G01*
X182810000Y-92710000D02*
G75*
G03*
X182810000Y-92710000I-1200000J0D01*
G01*
X180270000Y-92710000D02*
G75*
G03*
X180270000Y-92710000I-1200000J0D01*
G01*
X177730000Y-92710000D02*
G75*
G03*
X177730000Y-92710000I-1200000J0D01*
G01*
X208210000Y-90170000D02*
G75*
G03*
X208210000Y-90170000I-1200000J0D01*
G01*
X205670000Y-90170000D02*
G75*
G03*
X205670000Y-90170000I-1200000J0D01*
G01*
X203130000Y-90170000D02*
G75*
G03*
X203130000Y-90170000I-1200000J0D01*
G01*
X200590000Y-90170000D02*
G75*
G03*
X200590000Y-90170000I-1200000J0D01*
G01*
X198050000Y-90170000D02*
G75*
G03*
X198050000Y-90170000I-1200000J0D01*
G01*
X195510000Y-90170000D02*
G75*
G03*
X195510000Y-90170000I-1200000J0D01*
G01*
X192970000Y-90170000D02*
G75*
G03*
X192970000Y-90170000I-1200000J0D01*
G01*
X190430000Y-90170000D02*
G75*
G03*
X190430000Y-90170000I-1200000J0D01*
G01*
X187890000Y-90170000D02*
G75*
G03*
X187890000Y-90170000I-1200000J0D01*
G01*
X185350000Y-90170000D02*
G75*
G03*
X185350000Y-90170000I-1200000J0D01*
G01*
X182810000Y-90170000D02*
G75*
G03*
X182810000Y-90170000I-1200000J0D01*
G01*
X180270000Y-90170000D02*
G75*
G03*
X180270000Y-90170000I-1200000J0D01*
G01*
X177730000Y-90170000D02*
G75*
G03*
X177730000Y-90170000I-1200000J0D01*
G01*
%TO.C,J1*%
X181550000Y-64710000D02*
X182880000Y-64710000D01*
X181550000Y-66040000D02*
X181550000Y-64710000D01*
X181550000Y-67310000D02*
X184210000Y-67310000D01*
X184210000Y-67310000D02*
X184210000Y-85150000D01*
X181550000Y-67310000D02*
X181550000Y-85150000D01*
X181550000Y-85150000D02*
X184210000Y-85150000D01*
%TO.C,J2*%
X176470000Y-85150000D02*
X179130000Y-85150000D01*
X176470000Y-67310000D02*
X176470000Y-85150000D01*
X179130000Y-67310000D02*
X179130000Y-85150000D01*
X176470000Y-67310000D02*
X179130000Y-67310000D01*
X176470000Y-66040000D02*
X176470000Y-64710000D01*
X176470000Y-64710000D02*
X177800000Y-64710000D01*
%TO.C,J3*%
X199330000Y-64710000D02*
X200660000Y-64710000D01*
X199330000Y-66040000D02*
X199330000Y-64710000D01*
X199330000Y-67310000D02*
X201990000Y-67310000D01*
X201990000Y-67310000D02*
X201990000Y-85150000D01*
X199330000Y-67310000D02*
X199330000Y-85150000D01*
X199330000Y-85150000D02*
X201990000Y-85150000D01*
%TO.C,J4*%
X204410000Y-85150000D02*
X207070000Y-85150000D01*
X204410000Y-67310000D02*
X204410000Y-85150000D01*
X207070000Y-67310000D02*
X207070000Y-85150000D01*
X204410000Y-67310000D02*
X207070000Y-67310000D01*
X204410000Y-66040000D02*
X204410000Y-64710000D01*
X204410000Y-64710000D02*
X205740000Y-64710000D01*
%TO.C,J6*%
X217580000Y-104140000D02*
G75*
G03*
X217580000Y-104140000I-1680000J0D01*
G01*
X217580000Y-109220000D02*
G75*
G03*
X217580000Y-109220000I-1680000J0D01*
G01*
X217580000Y-114300000D02*
G75*
G03*
X217580000Y-114300000I-1680000J0D01*
G01*
X217580000Y-119380000D02*
G75*
G03*
X217580000Y-119380000I-1680000J0D01*
G01*
X217580000Y-124460000D02*
G75*
G03*
X217580000Y-124460000I-1680000J0D01*
G01*
X217580000Y-129540000D02*
G75*
G03*
X217580000Y-129540000I-1680000J0D01*
G01*
X217580000Y-134620000D02*
G75*
G03*
X217580000Y-134620000I-1680000J0D01*
G01*
X211200000Y-96460000D02*
X211200000Y-137220000D01*
X213400000Y-96460000D02*
X213400000Y-137220000D01*
X219200000Y-96460000D02*
X219200000Y-137220000D01*
X221260000Y-96460000D02*
X221260000Y-137220000D01*
X210540000Y-96460000D02*
X210540000Y-137220000D01*
X221260000Y-96460000D02*
X210540000Y-96460000D01*
X221260000Y-137220000D02*
X210540000Y-137220000D01*
X220950000Y-97810000D02*
X220950000Y-100310000D01*
X220450000Y-97810000D02*
X220450000Y-100310000D01*
X220950000Y-97810000D02*
X220450000Y-97810000D01*
X220950000Y-100310000D02*
X220450000Y-100310000D01*
X216969000Y-105415000D02*
X216876000Y-105321000D01*
X214684000Y-103130000D02*
X214626000Y-103071000D01*
X217175000Y-105210000D02*
X217116000Y-105151000D01*
X214924000Y-102960000D02*
X214831000Y-102866000D01*
X220950000Y-102890000D02*
X220950000Y-105390000D01*
X220450000Y-102890000D02*
X220450000Y-105390000D01*
X220950000Y-102890000D02*
X220450000Y-102890000D01*
X220950000Y-105390000D02*
X220450000Y-105390000D01*
X216969000Y-110495000D02*
X216876000Y-110401000D01*
X214684000Y-108210000D02*
X214626000Y-108151000D01*
X217175000Y-110290000D02*
X217116000Y-110231000D01*
X214924000Y-108040000D02*
X214831000Y-107946000D01*
X220950000Y-107970000D02*
X220950000Y-110470000D01*
X220450000Y-107970000D02*
X220450000Y-110470000D01*
X220950000Y-107970000D02*
X220450000Y-107970000D01*
X220950000Y-110470000D02*
X220450000Y-110470000D01*
X216969000Y-115575000D02*
X216876000Y-115481000D01*
X214684000Y-113290000D02*
X214626000Y-113231000D01*
X217175000Y-115370000D02*
X217116000Y-115311000D01*
X214924000Y-113120000D02*
X214831000Y-113026000D01*
X220950000Y-113050000D02*
X220950000Y-115550000D01*
X220450000Y-113050000D02*
X220450000Y-115550000D01*
X220950000Y-113050000D02*
X220450000Y-113050000D01*
X220950000Y-115550000D02*
X220450000Y-115550000D01*
X216969000Y-120655000D02*
X216876000Y-120561000D01*
X214684000Y-118370000D02*
X214626000Y-118311000D01*
X217175000Y-120450000D02*
X217116000Y-120391000D01*
X214924000Y-118200000D02*
X214831000Y-118106000D01*
X220950000Y-118130000D02*
X220950000Y-120630000D01*
X220450000Y-118130000D02*
X220450000Y-120630000D01*
X220950000Y-118130000D02*
X220450000Y-118130000D01*
X220950000Y-120630000D02*
X220450000Y-120630000D01*
X216969000Y-125735000D02*
X216876000Y-125641000D01*
X214684000Y-123450000D02*
X214626000Y-123391000D01*
X217175000Y-125530000D02*
X217116000Y-125471000D01*
X214924000Y-123280000D02*
X214831000Y-123186000D01*
X220950000Y-123210000D02*
X220950000Y-125710000D01*
X220450000Y-123210000D02*
X220450000Y-125710000D01*
X220950000Y-123210000D02*
X220450000Y-123210000D01*
X220950000Y-125710000D02*
X220450000Y-125710000D01*
X216969000Y-130815000D02*
X216876000Y-130721000D01*
X214684000Y-128530000D02*
X214626000Y-128471000D01*
X217175000Y-130610000D02*
X217116000Y-130551000D01*
X214924000Y-128360000D02*
X214831000Y-128266000D01*
X220950000Y-128290000D02*
X220950000Y-130790000D01*
X220450000Y-128290000D02*
X220450000Y-130790000D01*
X220950000Y-128290000D02*
X220450000Y-128290000D01*
X220950000Y-130790000D02*
X220450000Y-130790000D01*
X216969000Y-135895000D02*
X216876000Y-135801000D01*
X214684000Y-133610000D02*
X214626000Y-133551000D01*
X217175000Y-135690000D02*
X217116000Y-135631000D01*
X214924000Y-133440000D02*
X214831000Y-133346000D01*
X220950000Y-133370000D02*
X220950000Y-135870000D01*
X220450000Y-133370000D02*
X220450000Y-135870000D01*
X220950000Y-133370000D02*
X220450000Y-133370000D01*
X220950000Y-135870000D02*
X220450000Y-135870000D01*
X211140000Y-96220000D02*
X210300000Y-96220000D01*
X210300000Y-96220000D02*
X210300000Y-96820000D01*
X214416648Y-99848712D02*
G75*
G02*
X214220000Y-99060000I1483352J788712D01*
G01*
X216689088Y-100543953D02*
G75*
G02*
X215111000Y-100544000I-789088J1483953D01*
G01*
X217383953Y-98270912D02*
G75*
G02*
X217384000Y-99849000I-1483953J-789088D01*
G01*
X215110912Y-97576047D02*
G75*
G02*
X216689000Y-97576000I789088J-1483953D01*
G01*
X214219550Y-99089383D02*
G75*
G02*
X214416000Y-98271000I1680450J29383D01*
G01*
%TO.C,J7*%
X173240000Y-94280000D02*
X173240000Y-93680000D01*
X172400000Y-94280000D02*
X173240000Y-94280000D01*
X162590000Y-54630000D02*
X163090000Y-54630000D01*
X162590000Y-57130000D02*
X163090000Y-57130000D01*
X163090000Y-57130000D02*
X163090000Y-54630000D01*
X162590000Y-57130000D02*
X162590000Y-54630000D01*
X168616000Y-57060000D02*
X168709000Y-57154000D01*
X166365000Y-54810000D02*
X166424000Y-54869000D01*
X168856000Y-56890000D02*
X168914000Y-56949000D01*
X166571000Y-54605000D02*
X166664000Y-54699000D01*
X162590000Y-59710000D02*
X163090000Y-59710000D01*
X162590000Y-62210000D02*
X163090000Y-62210000D01*
X163090000Y-62210000D02*
X163090000Y-59710000D01*
X162590000Y-62210000D02*
X162590000Y-59710000D01*
X168616000Y-62140000D02*
X168709000Y-62234000D01*
X166365000Y-59890000D02*
X166424000Y-59949000D01*
X168856000Y-61970000D02*
X168914000Y-62029000D01*
X166571000Y-59685000D02*
X166664000Y-59779000D01*
X162590000Y-64790000D02*
X163090000Y-64790000D01*
X162590000Y-67290000D02*
X163090000Y-67290000D01*
X163090000Y-67290000D02*
X163090000Y-64790000D01*
X162590000Y-67290000D02*
X162590000Y-64790000D01*
X168616000Y-67220000D02*
X168709000Y-67314000D01*
X166365000Y-64970000D02*
X166424000Y-65029000D01*
X168856000Y-67050000D02*
X168914000Y-67109000D01*
X166571000Y-64765000D02*
X166664000Y-64859000D01*
X162590000Y-69870000D02*
X163090000Y-69870000D01*
X162590000Y-72370000D02*
X163090000Y-72370000D01*
X163090000Y-72370000D02*
X163090000Y-69870000D01*
X162590000Y-72370000D02*
X162590000Y-69870000D01*
X168616000Y-72300000D02*
X168709000Y-72394000D01*
X166365000Y-70050000D02*
X166424000Y-70109000D01*
X168856000Y-72130000D02*
X168914000Y-72189000D01*
X166571000Y-69845000D02*
X166664000Y-69939000D01*
X162590000Y-74950000D02*
X163090000Y-74950000D01*
X162590000Y-77450000D02*
X163090000Y-77450000D01*
X163090000Y-77450000D02*
X163090000Y-74950000D01*
X162590000Y-77450000D02*
X162590000Y-74950000D01*
X168616000Y-77380000D02*
X168709000Y-77474000D01*
X166365000Y-75130000D02*
X166424000Y-75189000D01*
X168856000Y-77210000D02*
X168914000Y-77269000D01*
X166571000Y-74925000D02*
X166664000Y-75019000D01*
X162590000Y-80030000D02*
X163090000Y-80030000D01*
X162590000Y-82530000D02*
X163090000Y-82530000D01*
X163090000Y-82530000D02*
X163090000Y-80030000D01*
X162590000Y-82530000D02*
X162590000Y-80030000D01*
X168616000Y-82460000D02*
X168709000Y-82554000D01*
X166365000Y-80210000D02*
X166424000Y-80269000D01*
X168856000Y-82290000D02*
X168914000Y-82349000D01*
X166571000Y-80005000D02*
X166664000Y-80099000D01*
X162590000Y-85110000D02*
X163090000Y-85110000D01*
X162590000Y-87610000D02*
X163090000Y-87610000D01*
X163090000Y-87610000D02*
X163090000Y-85110000D01*
X162590000Y-87610000D02*
X162590000Y-85110000D01*
X168616000Y-87540000D02*
X168709000Y-87634000D01*
X166365000Y-85290000D02*
X166424000Y-85349000D01*
X168856000Y-87370000D02*
X168914000Y-87429000D01*
X166571000Y-85085000D02*
X166664000Y-85179000D01*
X162590000Y-90190000D02*
X163090000Y-90190000D01*
X162590000Y-92690000D02*
X163090000Y-92690000D01*
X163090000Y-92690000D02*
X163090000Y-90190000D01*
X162590000Y-92690000D02*
X162590000Y-90190000D01*
X162280000Y-53280000D02*
X173000000Y-53280000D01*
X162280000Y-94040000D02*
X173000000Y-94040000D01*
X173000000Y-94040000D02*
X173000000Y-53280000D01*
X162280000Y-94040000D02*
X162280000Y-53280000D01*
X164340000Y-94040000D02*
X164340000Y-53280000D01*
X170140000Y-94040000D02*
X170140000Y-53280000D01*
X172340000Y-94040000D02*
X172340000Y-53280000D01*
X169320000Y-55880000D02*
G75*
G03*
X169320000Y-55880000I-1680000J0D01*
G01*
X169320000Y-60960000D02*
G75*
G03*
X169320000Y-60960000I-1680000J0D01*
G01*
X169320000Y-66040000D02*
G75*
G03*
X169320000Y-66040000I-1680000J0D01*
G01*
X169320000Y-71120000D02*
G75*
G03*
X169320000Y-71120000I-1680000J0D01*
G01*
X169320000Y-76200000D02*
G75*
G03*
X169320000Y-76200000I-1680000J0D01*
G01*
X169320000Y-81280000D02*
G75*
G03*
X169320000Y-81280000I-1680000J0D01*
G01*
X169320000Y-86360000D02*
G75*
G03*
X169320000Y-86360000I-1680000J0D01*
G01*
X169320450Y-91410617D02*
G75*
G02*
X169124000Y-92229000I-1680450J-29383D01*
G01*
X168429088Y-92923953D02*
G75*
G02*
X166851000Y-92924000I-789088J1483953D01*
G01*
X166156047Y-92229088D02*
G75*
G02*
X166156000Y-90651000I1483953J789088D01*
G01*
X166850912Y-89956047D02*
G75*
G02*
X168429000Y-89956000I789088J-1483953D01*
G01*
X169123352Y-90651288D02*
G75*
G02*
X169320000Y-91440000I-1483352J-788712D01*
G01*
%TO.C,J8*%
X206950000Y-116780000D02*
X208280000Y-116780000D01*
X206950000Y-118110000D02*
X206950000Y-116780000D01*
X206950000Y-119380000D02*
X209610000Y-119380000D01*
X209610000Y-119380000D02*
X209610000Y-137220000D01*
X206950000Y-119380000D02*
X206950000Y-137220000D01*
X206950000Y-137220000D02*
X209610000Y-137220000D01*
%TO.C,J9*%
X203140000Y-137220000D02*
X205800000Y-137220000D01*
X203140000Y-119380000D02*
X203140000Y-137220000D01*
X205800000Y-119380000D02*
X205800000Y-137220000D01*
X203140000Y-119380000D02*
X205800000Y-119380000D01*
X203140000Y-118110000D02*
X203140000Y-116780000D01*
X203140000Y-116780000D02*
X204470000Y-116780000D01*
%TO.C,J10*%
X181670000Y-116780000D02*
X179010000Y-116780000D01*
X181670000Y-134620000D02*
X181670000Y-116780000D01*
X179010000Y-134620000D02*
X179010000Y-116780000D01*
X181670000Y-134620000D02*
X179010000Y-134620000D01*
X181670000Y-135890000D02*
X181670000Y-137220000D01*
X181670000Y-137220000D02*
X180340000Y-137220000D01*
%TO.C,J11*%
X177860000Y-137220000D02*
X176530000Y-137220000D01*
X177860000Y-135890000D02*
X177860000Y-137220000D01*
X177860000Y-134620000D02*
X175200000Y-134620000D01*
X175200000Y-134620000D02*
X175200000Y-116780000D01*
X177860000Y-134620000D02*
X177860000Y-116780000D01*
X177860000Y-116780000D02*
X175200000Y-116780000D01*
%TO.C,J12*%
X173240000Y-137460000D02*
X173240000Y-136860000D01*
X172400000Y-137460000D02*
X173240000Y-137460000D01*
X162590000Y-97810000D02*
X163090000Y-97810000D01*
X162590000Y-100310000D02*
X163090000Y-100310000D01*
X163090000Y-100310000D02*
X163090000Y-97810000D01*
X162590000Y-100310000D02*
X162590000Y-97810000D01*
X168616000Y-100240000D02*
X168709000Y-100334000D01*
X166365000Y-97990000D02*
X166424000Y-98049000D01*
X168856000Y-100070000D02*
X168914000Y-100129000D01*
X166571000Y-97785000D02*
X166664000Y-97879000D01*
X162590000Y-102890000D02*
X163090000Y-102890000D01*
X162590000Y-105390000D02*
X163090000Y-105390000D01*
X163090000Y-105390000D02*
X163090000Y-102890000D01*
X162590000Y-105390000D02*
X162590000Y-102890000D01*
X168616000Y-105320000D02*
X168709000Y-105414000D01*
X166365000Y-103070000D02*
X166424000Y-103129000D01*
X168856000Y-105150000D02*
X168914000Y-105209000D01*
X166571000Y-102865000D02*
X166664000Y-102959000D01*
X162590000Y-107970000D02*
X163090000Y-107970000D01*
X162590000Y-110470000D02*
X163090000Y-110470000D01*
X163090000Y-110470000D02*
X163090000Y-107970000D01*
X162590000Y-110470000D02*
X162590000Y-107970000D01*
X168616000Y-110400000D02*
X168709000Y-110494000D01*
X166365000Y-108150000D02*
X166424000Y-108209000D01*
X168856000Y-110230000D02*
X168914000Y-110289000D01*
X166571000Y-107945000D02*
X166664000Y-108039000D01*
X162590000Y-113050000D02*
X163090000Y-113050000D01*
X162590000Y-115550000D02*
X163090000Y-115550000D01*
X163090000Y-115550000D02*
X163090000Y-113050000D01*
X162590000Y-115550000D02*
X162590000Y-113050000D01*
X168616000Y-115480000D02*
X168709000Y-115574000D01*
X166365000Y-113230000D02*
X166424000Y-113289000D01*
X168856000Y-115310000D02*
X168914000Y-115369000D01*
X166571000Y-113025000D02*
X166664000Y-113119000D01*
X162590000Y-118130000D02*
X163090000Y-118130000D01*
X162590000Y-120630000D02*
X163090000Y-120630000D01*
X163090000Y-120630000D02*
X163090000Y-118130000D01*
X162590000Y-120630000D02*
X162590000Y-118130000D01*
X168616000Y-120560000D02*
X168709000Y-120654000D01*
X166365000Y-118310000D02*
X166424000Y-118369000D01*
X168856000Y-120390000D02*
X168914000Y-120449000D01*
X166571000Y-118105000D02*
X166664000Y-118199000D01*
X162590000Y-123210000D02*
X163090000Y-123210000D01*
X162590000Y-125710000D02*
X163090000Y-125710000D01*
X163090000Y-125710000D02*
X163090000Y-123210000D01*
X162590000Y-125710000D02*
X162590000Y-123210000D01*
X168616000Y-125640000D02*
X168709000Y-125734000D01*
X166365000Y-123390000D02*
X166424000Y-123449000D01*
X168856000Y-125470000D02*
X168914000Y-125529000D01*
X166571000Y-123185000D02*
X166664000Y-123279000D01*
X162590000Y-128290000D02*
X163090000Y-128290000D01*
X162590000Y-130790000D02*
X163090000Y-130790000D01*
X163090000Y-130790000D02*
X163090000Y-128290000D01*
X162590000Y-130790000D02*
X162590000Y-128290000D01*
X168616000Y-130720000D02*
X168709000Y-130814000D01*
X166365000Y-128470000D02*
X166424000Y-128529000D01*
X168856000Y-130550000D02*
X168914000Y-130609000D01*
X166571000Y-128265000D02*
X166664000Y-128359000D01*
X162590000Y-133370000D02*
X163090000Y-133370000D01*
X162590000Y-135870000D02*
X163090000Y-135870000D01*
X163090000Y-135870000D02*
X163090000Y-133370000D01*
X162590000Y-135870000D02*
X162590000Y-133370000D01*
X162280000Y-96460000D02*
X173000000Y-96460000D01*
X162280000Y-137220000D02*
X173000000Y-137220000D01*
X173000000Y-137220000D02*
X173000000Y-96460000D01*
X162280000Y-137220000D02*
X162280000Y-96460000D01*
X164340000Y-137220000D02*
X164340000Y-96460000D01*
X170140000Y-137220000D02*
X170140000Y-96460000D01*
X172340000Y-137220000D02*
X172340000Y-96460000D01*
X169320000Y-99060000D02*
G75*
G03*
X169320000Y-99060000I-1680000J0D01*
G01*
X169320000Y-104140000D02*
G75*
G03*
X169320000Y-104140000I-1680000J0D01*
G01*
X169320000Y-109220000D02*
G75*
G03*
X169320000Y-109220000I-1680000J0D01*
G01*
X169320000Y-114300000D02*
G75*
G03*
X169320000Y-114300000I-1680000J0D01*
G01*
X169320000Y-119380000D02*
G75*
G03*
X169320000Y-119380000I-1680000J0D01*
G01*
X169320000Y-124460000D02*
G75*
G03*
X169320000Y-124460000I-1680000J0D01*
G01*
X169320000Y-129540000D02*
G75*
G03*
X169320000Y-129540000I-1680000J0D01*
G01*
X169320450Y-134590617D02*
G75*
G02*
X169124000Y-135409000I-1680450J-29383D01*
G01*
X168429088Y-136103953D02*
G75*
G02*
X166851000Y-136104000I-789088J1483953D01*
G01*
X166156047Y-135409088D02*
G75*
G02*
X166156000Y-133831000I1483953J789088D01*
G01*
X166850912Y-133136047D02*
G75*
G02*
X168429000Y-133136000I789088J-1483953D01*
G01*
X169123352Y-133831288D02*
G75*
G02*
X169320000Y-134620000I-1483352J-788712D01*
G01*
%TO.C,SW1*%
X195055800Y-64710000D02*
X192820800Y-64710000D01*
X195055800Y-85150000D02*
X195055800Y-64710000D01*
X188585800Y-85150000D02*
X195055800Y-85150000D01*
X188585800Y-64710000D02*
X188585800Y-85150000D01*
X190820800Y-64710000D02*
X188585800Y-64710000D01*
X192820800Y-64710000D02*
G75*
G02*
X190820800Y-64710000I-1000000J0D01*
G01*
%TO.C,GND*%
X189670000Y-144330000D02*
X189670000Y-143000000D01*
X191000000Y-144330000D02*
X189670000Y-144330000D01*
X192270000Y-144330000D02*
X192270000Y-141670000D01*
X192270000Y-141670000D02*
X194870000Y-141670000D01*
X192270000Y-144330000D02*
X194870000Y-144330000D01*
X194870000Y-144330000D02*
X194870000Y-141670000D01*
%TO.C,*%
D10*
%TO.C,J5*%
X219162380Y-73993333D02*
X219876666Y-73993333D01*
X220019523Y-74040952D01*
X220114761Y-74136190D01*
X220162380Y-74279047D01*
X220162380Y-74374285D01*
X219162380Y-73040952D02*
X219162380Y-73517142D01*
X219638571Y-73564761D01*
X219590952Y-73517142D01*
X219543333Y-73421904D01*
X219543333Y-73183809D01*
X219590952Y-73088571D01*
X219638571Y-73040952D01*
X219733809Y-72993333D01*
X219971904Y-72993333D01*
X220067142Y-73040952D01*
X220114761Y-73088571D01*
X220162380Y-73183809D01*
X220162380Y-73421904D01*
X220114761Y-73517142D01*
X220067142Y-73564761D01*
%TO.C,*%
X387858095Y-275090000D02*
X387762857Y-275042380D01*
X387620000Y-275042380D01*
X387477142Y-275090000D01*
X387381904Y-275185238D01*
X387334285Y-275280476D01*
X387286666Y-275470952D01*
X387286666Y-275613809D01*
X387334285Y-275804285D01*
X387381904Y-275899523D01*
X387477142Y-275994761D01*
X387620000Y-276042380D01*
X387715238Y-276042380D01*
X387858095Y-275994761D01*
X387905714Y-275947142D01*
X387905714Y-275613809D01*
X387715238Y-275613809D01*
X388334285Y-276042380D02*
X388334285Y-275042380D01*
X388905714Y-276042380D01*
X388905714Y-275042380D01*
X389381904Y-276042380D02*
X389381904Y-275042380D01*
X389620000Y-275042380D01*
X389762857Y-275090000D01*
X389858095Y-275185238D01*
X389905714Y-275280476D01*
X389953333Y-275470952D01*
X389953333Y-275613809D01*
X389905714Y-275804285D01*
X389858095Y-275899523D01*
X389762857Y-275994761D01*
X389620000Y-276042380D01*
X389381904Y-276042380D01*
%TO.C,J1*%
X182546666Y-63162380D02*
X182546666Y-63876666D01*
X182499047Y-64019523D01*
X182403809Y-64114761D01*
X182260952Y-64162380D01*
X182165714Y-64162380D01*
X183546666Y-64162380D02*
X182975238Y-64162380D01*
X183260952Y-64162380D02*
X183260952Y-63162380D01*
X183165714Y-63305238D01*
X183070476Y-63400476D01*
X182975238Y-63448095D01*
%TO.C,J2*%
X177466666Y-63162380D02*
X177466666Y-63876666D01*
X177419047Y-64019523D01*
X177323809Y-64114761D01*
X177180952Y-64162380D01*
X177085714Y-64162380D01*
X177895238Y-63257619D02*
X177942857Y-63210000D01*
X178038095Y-63162380D01*
X178276190Y-63162380D01*
X178371428Y-63210000D01*
X178419047Y-63257619D01*
X178466666Y-63352857D01*
X178466666Y-63448095D01*
X178419047Y-63590952D01*
X177847619Y-64162380D01*
X178466666Y-64162380D01*
%TO.C,J3*%
X200326666Y-63162380D02*
X200326666Y-63876666D01*
X200279047Y-64019523D01*
X200183809Y-64114761D01*
X200040952Y-64162380D01*
X199945714Y-64162380D01*
X200707619Y-63162380D02*
X201326666Y-63162380D01*
X200993333Y-63543333D01*
X201136190Y-63543333D01*
X201231428Y-63590952D01*
X201279047Y-63638571D01*
X201326666Y-63733809D01*
X201326666Y-63971904D01*
X201279047Y-64067142D01*
X201231428Y-64114761D01*
X201136190Y-64162380D01*
X200850476Y-64162380D01*
X200755238Y-64114761D01*
X200707619Y-64067142D01*
%TO.C,J4*%
X205406666Y-63162380D02*
X205406666Y-63876666D01*
X205359047Y-64019523D01*
X205263809Y-64114761D01*
X205120952Y-64162380D01*
X205025714Y-64162380D01*
X206311428Y-63495714D02*
X206311428Y-64162380D01*
X206073333Y-63114761D02*
X205835238Y-63829047D01*
X206454285Y-63829047D01*
%TO.C,J6*%
X219162380Y-117173333D02*
X219876666Y-117173333D01*
X220019523Y-117220952D01*
X220114761Y-117316190D01*
X220162380Y-117459047D01*
X220162380Y-117554285D01*
X219162380Y-116268571D02*
X219162380Y-116459047D01*
X219210000Y-116554285D01*
X219257619Y-116601904D01*
X219400476Y-116697142D01*
X219590952Y-116744761D01*
X219971904Y-116744761D01*
X220067142Y-116697142D01*
X220114761Y-116649523D01*
X220162380Y-116554285D01*
X220162380Y-116363809D01*
X220114761Y-116268571D01*
X220067142Y-116220952D01*
X219971904Y-116173333D01*
X219733809Y-116173333D01*
X219638571Y-116220952D01*
X219590952Y-116268571D01*
X219543333Y-116363809D01*
X219543333Y-116554285D01*
X219590952Y-116649523D01*
X219638571Y-116697142D01*
X219733809Y-116744761D01*
%TO.C,J7*%
X163282380Y-73993333D02*
X163996666Y-73993333D01*
X164139523Y-74040952D01*
X164234761Y-74136190D01*
X164282380Y-74279047D01*
X164282380Y-74374285D01*
X163282380Y-73612380D02*
X163282380Y-72945714D01*
X164282380Y-73374285D01*
%TO.C,J12*%
X163282380Y-117649523D02*
X163996666Y-117649523D01*
X164139523Y-117697142D01*
X164234761Y-117792380D01*
X164282380Y-117935238D01*
X164282380Y-118030476D01*
X164282380Y-116649523D02*
X164282380Y-117220952D01*
X164282380Y-116935238D02*
X163282380Y-116935238D01*
X163425238Y-117030476D01*
X163520476Y-117125714D01*
X163568095Y-117220952D01*
X163377619Y-116268571D02*
X163330000Y-116220952D01*
X163282380Y-116125714D01*
X163282380Y-115887619D01*
X163330000Y-115792380D01*
X163377619Y-115744761D01*
X163472857Y-115697142D01*
X163568095Y-115697142D01*
X163710952Y-115744761D01*
X164282380Y-116316190D01*
X164282380Y-115697142D01*
%TO.C,SW1*%
X190487466Y-64114761D02*
X190630323Y-64162380D01*
X190868419Y-64162380D01*
X190963657Y-64114761D01*
X191011276Y-64067142D01*
X191058895Y-63971904D01*
X191058895Y-63876666D01*
X191011276Y-63781428D01*
X190963657Y-63733809D01*
X190868419Y-63686190D01*
X190677942Y-63638571D01*
X190582704Y-63590952D01*
X190535085Y-63543333D01*
X190487466Y-63448095D01*
X190487466Y-63352857D01*
X190535085Y-63257619D01*
X190582704Y-63210000D01*
X190677942Y-63162380D01*
X190916038Y-63162380D01*
X191058895Y-63210000D01*
X191392228Y-63162380D02*
X191630323Y-64162380D01*
X191820800Y-63448095D01*
X192011276Y-64162380D01*
X192249371Y-63162380D01*
X193154133Y-64162380D02*
X192582704Y-64162380D01*
X192868419Y-64162380D02*
X192868419Y-63162380D01*
X192773180Y-63305238D01*
X192677942Y-63400476D01*
X192582704Y-63448095D01*
%TO.C,GND*%
X188170000Y-143761904D02*
X188122380Y-143857142D01*
X188122380Y-144000000D01*
X188170000Y-144142857D01*
X188265238Y-144238095D01*
X188360476Y-144285714D01*
X188550952Y-144333333D01*
X188693809Y-144333333D01*
X188884285Y-144285714D01*
X188979523Y-144238095D01*
X189074761Y-144142857D01*
X189122380Y-144000000D01*
X189122380Y-143904761D01*
X189074761Y-143761904D01*
X189027142Y-143714285D01*
X188693809Y-143714285D01*
X188693809Y-143904761D01*
X189122380Y-143285714D02*
X188122380Y-143285714D01*
X189122380Y-142714285D01*
X188122380Y-142714285D01*
X189122380Y-142238095D02*
X188122380Y-142238095D01*
X188122380Y-142000000D01*
X188170000Y-141857142D01*
X188265238Y-141761904D01*
X188360476Y-141714285D01*
X188550952Y-141666666D01*
X188693809Y-141666666D01*
X188884285Y-141714285D01*
X188979523Y-141761904D01*
X189074761Y-141857142D01*
X189122380Y-142000000D01*
X189122380Y-142238095D01*
%TD*%
M02*
