%TF.GenerationSoftware,KiCad,Pcbnew,(5.1.6)-1*%
%TF.CreationDate,2021-07-16T15:07:44-04:00*%
%TF.ProjectId,ProbeMaster,50726f62-654d-4617-9374-65722e6b6963,rev?*%
%TF.SameCoordinates,Original*%
%TF.FileFunction,Copper,L1,Top*%
%TF.FilePolarity,Positive*%
%FSLAX46Y46*%
G04 Gerber Fmt 4.6, Leading zero omitted, Abs format (unit mm)*
G04 Created by KiCad (PCBNEW (5.1.6)-1) date 2021-07-16 15:07:44*
%MOMM*%
%LPD*%
G01*
G04 APERTURE LIST*
%TA.AperFunction,ComponentPad*%
%ADD10C,2.000000*%
%TD*%
%TA.AperFunction,ComponentPad*%
%ADD11R,2.500000X2.500000*%
%TD*%
%TA.AperFunction,ComponentPad*%
%ADD12C,2.500000*%
%TD*%
%TA.AperFunction,SMDPad,CuDef*%
%ADD13R,10.000000X5.000000*%
%TD*%
%TA.AperFunction,ComponentPad*%
%ADD14C,6.400000*%
%TD*%
%TA.AperFunction,ComponentPad*%
%ADD15C,0.800000*%
%TD*%
%TA.AperFunction,ComponentPad*%
%ADD16O,1.700000X1.700000*%
%TD*%
%TA.AperFunction,ComponentPad*%
%ADD17R,1.700000X1.700000*%
%TD*%
%TA.AperFunction,ComponentPad*%
%ADD18R,1.600000X1.600000*%
%TD*%
%TA.AperFunction,ComponentPad*%
%ADD19O,1.600000X1.600000*%
%TD*%
%TA.AperFunction,ViaPad*%
%ADD20C,0.800000*%
%TD*%
%TA.AperFunction,Conductor*%
%ADD21C,0.250000*%
%TD*%
%TA.AperFunction,Conductor*%
%ADD22C,0.254000*%
%TD*%
G04 APERTURE END LIST*
D10*
%TO.P,,1*%
%TO.N,N/C*%
X199840000Y-136620000D03*
%TD*%
%TO.P,,1*%
%TO.N,N/C*%
X197300000Y-136620000D03*
%TD*%
%TO.P,,1*%
%TO.N,N/C*%
X194760000Y-136620000D03*
%TD*%
%TO.P,,1*%
%TO.N,N/C*%
X192220000Y-136620000D03*
%TD*%
%TO.P,,1*%
%TO.N,N/C*%
X189680000Y-136620000D03*
%TD*%
%TO.P,,1*%
%TO.N,N/C*%
X187140000Y-136620000D03*
%TD*%
%TO.P,,1*%
%TO.N,N/C*%
X184600000Y-136620000D03*
%TD*%
%TO.P,,1*%
%TO.N,N/C*%
X199840000Y-134080000D03*
%TD*%
%TO.P,,1*%
%TO.N,N/C*%
X197300000Y-134080000D03*
%TD*%
%TO.P,,1*%
%TO.N,N/C*%
X194760000Y-134080000D03*
%TD*%
%TO.P,,1*%
%TO.N,N/C*%
X192220000Y-134080000D03*
%TD*%
%TO.P,,1*%
%TO.N,N/C*%
X189680000Y-134080000D03*
%TD*%
%TO.P,,1*%
%TO.N,N/C*%
X187140000Y-134080000D03*
%TD*%
%TO.P,,1*%
%TO.N,N/C*%
X184600000Y-134080000D03*
%TD*%
%TO.P,,1*%
%TO.N,N/C*%
X199840000Y-131540000D03*
%TD*%
%TO.P,,1*%
%TO.N,N/C*%
X197300000Y-131540000D03*
%TD*%
%TO.P,,1*%
%TO.N,N/C*%
X194760000Y-131540000D03*
%TD*%
%TO.P,,1*%
%TO.N,N/C*%
X192220000Y-131540000D03*
%TD*%
%TO.P,,1*%
%TO.N,N/C*%
X189680000Y-131540000D03*
%TD*%
%TO.P,,1*%
%TO.N,N/C*%
X187140000Y-131540000D03*
%TD*%
%TO.P,,1*%
%TO.N,N/C*%
X184600000Y-131540000D03*
%TD*%
%TO.P,,1*%
%TO.N,N/C*%
X199840000Y-129000000D03*
%TD*%
%TO.P,,1*%
%TO.N,N/C*%
X197300000Y-129000000D03*
%TD*%
%TO.P,,1*%
%TO.N,N/C*%
X194760000Y-129000000D03*
%TD*%
%TO.P,,1*%
%TO.N,N/C*%
X192220000Y-129000000D03*
%TD*%
%TO.P,,1*%
%TO.N,N/C*%
X189680000Y-129000000D03*
%TD*%
%TO.P,,1*%
%TO.N,N/C*%
X187140000Y-129000000D03*
%TD*%
%TO.P,,1*%
%TO.N,N/C*%
X184600000Y-129000000D03*
%TD*%
%TO.P,,1*%
%TO.N,N/C*%
X199840000Y-126460000D03*
%TD*%
%TO.P,,1*%
%TO.N,N/C*%
X197300000Y-126460000D03*
%TD*%
%TO.P,,1*%
%TO.N,N/C*%
X194760000Y-126460000D03*
%TD*%
%TO.P,,1*%
%TO.N,N/C*%
X192220000Y-126460000D03*
%TD*%
%TO.P,,1*%
%TO.N,N/C*%
X189680000Y-126460000D03*
%TD*%
%TO.P,,1*%
%TO.N,N/C*%
X187140000Y-126460000D03*
%TD*%
%TO.P,,1*%
%TO.N,N/C*%
X184600000Y-126460000D03*
%TD*%
%TO.P,,1*%
%TO.N,N/C*%
X199840000Y-123920000D03*
%TD*%
%TO.P,,1*%
%TO.N,N/C*%
X197300000Y-123920000D03*
%TD*%
%TO.P,,1*%
%TO.N,N/C*%
X194760000Y-123920000D03*
%TD*%
%TO.P,,1*%
%TO.N,N/C*%
X192220000Y-123920000D03*
%TD*%
%TO.P,,1*%
%TO.N,N/C*%
X189680000Y-123920000D03*
%TD*%
%TO.P,,1*%
%TO.N,N/C*%
X187140000Y-123920000D03*
%TD*%
%TO.P,,1*%
%TO.N,N/C*%
X184600000Y-123920000D03*
%TD*%
%TO.P,,1*%
%TO.N,N/C*%
X199840000Y-121380000D03*
%TD*%
%TO.P,,1*%
%TO.N,N/C*%
X197300000Y-121380000D03*
%TD*%
%TO.P,,1*%
%TO.N,N/C*%
X194760000Y-121380000D03*
%TD*%
%TO.P,,1*%
%TO.N,N/C*%
X192220000Y-121380000D03*
%TD*%
%TO.P,,1*%
%TO.N,N/C*%
X189680000Y-121380000D03*
%TD*%
%TO.P,,1*%
%TO.N,N/C*%
X187140000Y-121380000D03*
%TD*%
%TO.P,,1*%
%TO.N,N/C*%
X184600000Y-121380000D03*
%TD*%
%TO.P,,1*%
%TO.N,N/C*%
X199840000Y-118840000D03*
%TD*%
%TO.P,,1*%
%TO.N,N/C*%
X197300000Y-118840000D03*
%TD*%
%TO.P,,1*%
%TO.N,N/C*%
X194760000Y-118840000D03*
%TD*%
%TO.P,,1*%
%TO.N,N/C*%
X192220000Y-118840000D03*
%TD*%
%TO.P,,1*%
%TO.N,N/C*%
X189680000Y-118840000D03*
%TD*%
%TO.P,,1*%
%TO.N,N/C*%
X187140000Y-118840000D03*
%TD*%
%TO.P,,1*%
%TO.N,N/C*%
X184600000Y-118840000D03*
%TD*%
%TO.P,,1*%
%TO.N,N/C*%
X199840000Y-116300000D03*
%TD*%
%TO.P,,1*%
%TO.N,N/C*%
X197300000Y-116300000D03*
%TD*%
%TO.P,,1*%
%TO.N,N/C*%
X194760000Y-116300000D03*
%TD*%
%TO.P,,1*%
%TO.N,N/C*%
X192220000Y-116300000D03*
%TD*%
%TO.P,,1*%
%TO.N,N/C*%
X189680000Y-116300000D03*
%TD*%
%TO.P,,1*%
%TO.N,N/C*%
X187140000Y-116300000D03*
%TD*%
%TO.P,,1*%
%TO.N,N/C*%
X184600000Y-116300000D03*
%TD*%
D11*
%TO.P,J5,1*%
%TO.N,Net-(J3-Pad1)*%
X215900000Y-55880000D03*
D12*
%TO.P,J5,2*%
%TO.N,Net-(J3-Pad2)*%
X215900000Y-60960000D03*
%TO.P,J5,3*%
%TO.N,Net-(J3-Pad3)*%
X215900000Y-66040000D03*
%TO.P,J5,4*%
%TO.N,Net-(J3-Pad4)*%
X215900000Y-71120000D03*
%TO.P,J5,5*%
%TO.N,Net-(J3-Pad5)*%
X215900000Y-76200000D03*
%TO.P,J5,6*%
%TO.N,Net-(J3-Pad6)*%
X215900000Y-81280000D03*
%TO.P,J5,7*%
%TO.N,Net-(J3-Pad7)*%
X215900000Y-86360000D03*
%TO.P,J5,8*%
%TO.N,Net-(J3-Pad8)*%
X215900000Y-91440000D03*
%TD*%
D13*
%TO.P,GND,1*%
%TO.N,GND*%
X203200000Y-142240000D03*
%TD*%
%TO.P,REF\u002A\u002A,1*%
%TO.N,GND*%
X180340000Y-142240000D03*
%TD*%
D14*
%TO.P,REF\u002A\u002A,1*%
%TO.N,GND*%
X167640000Y-142240000D03*
D15*
%TO.N,N/C*%
X170040000Y-142240000D03*
X169337056Y-143937056D03*
X167640000Y-144640000D03*
X165942944Y-143937056D03*
X165240000Y-142240000D03*
X165942944Y-140542944D03*
X167640000Y-139840000D03*
X169337056Y-140542944D03*
%TD*%
%TO.P,REF\u002A\u002A,1*%
%TO.N,N/C*%
X217597056Y-140542944D03*
X215900000Y-139840000D03*
X214202944Y-140542944D03*
X213500000Y-142240000D03*
X214202944Y-143937056D03*
X215900000Y-144640000D03*
X217597056Y-143937056D03*
X218300000Y-142240000D03*
D14*
%TO.N,GND*%
X215900000Y-142240000D03*
%TD*%
%TO.P,REF\u002A\u002A,1*%
%TO.N,GND*%
X215900000Y-49530000D03*
D15*
%TO.N,N/C*%
X218300000Y-49530000D03*
X217597056Y-51227056D03*
X215900000Y-51930000D03*
X214202944Y-51227056D03*
X213500000Y-49530000D03*
X214202944Y-47832944D03*
X215900000Y-47130000D03*
X217597056Y-47832944D03*
%TD*%
%TO.P,REF\u002A\u002A,1*%
%TO.N,N/C*%
X169337056Y-47405888D03*
X167640000Y-46702944D03*
X165942944Y-47405888D03*
X165240000Y-49102944D03*
X165942944Y-50800000D03*
X167640000Y-51502944D03*
X169337056Y-50800000D03*
X170040000Y-49102944D03*
D14*
%TO.N,GND*%
X167640000Y-49102944D03*
%TD*%
D10*
%TO.P,,1*%
%TO.N,N/C*%
X207010000Y-113030000D03*
%TD*%
%TO.P,,1*%
%TO.N,N/C*%
X204470000Y-113030000D03*
%TD*%
%TO.P,,1*%
%TO.N,N/C*%
X201930000Y-113030000D03*
%TD*%
%TO.P,,1*%
%TO.N,N/C*%
X199390000Y-113030000D03*
%TD*%
%TO.P,,1*%
%TO.N,N/C*%
X196850000Y-113030000D03*
%TD*%
%TO.P,,1*%
%TO.N,N/C*%
X194310000Y-113030000D03*
%TD*%
%TO.P,,1*%
%TO.N,N/C*%
X191770000Y-113030000D03*
%TD*%
%TO.P,,1*%
%TO.N,N/C*%
X189230000Y-113030000D03*
%TD*%
%TO.P,,1*%
%TO.N,N/C*%
X186690000Y-113030000D03*
%TD*%
%TO.P,,1*%
%TO.N,N/C*%
X184150000Y-113030000D03*
%TD*%
%TO.P,,1*%
%TO.N,N/C*%
X181610000Y-113030000D03*
%TD*%
%TO.P,,1*%
%TO.N,N/C*%
X179070000Y-113030000D03*
%TD*%
%TO.P,,1*%
%TO.N,N/C*%
X176530000Y-113030000D03*
%TD*%
%TO.P,,1*%
%TO.N,N/C*%
X207010000Y-110490000D03*
%TD*%
%TO.P,,1*%
%TO.N,N/C*%
X204470000Y-110490000D03*
%TD*%
%TO.P,,1*%
%TO.N,N/C*%
X201930000Y-110490000D03*
%TD*%
%TO.P,,1*%
%TO.N,N/C*%
X199390000Y-110490000D03*
%TD*%
%TO.P,,1*%
%TO.N,N/C*%
X196850000Y-110490000D03*
%TD*%
%TO.P,,1*%
%TO.N,N/C*%
X194310000Y-110490000D03*
%TD*%
%TO.P,,1*%
%TO.N,N/C*%
X191770000Y-110490000D03*
%TD*%
%TO.P,,1*%
%TO.N,N/C*%
X189230000Y-110490000D03*
%TD*%
%TO.P,,1*%
%TO.N,N/C*%
X186690000Y-110490000D03*
%TD*%
%TO.P,,1*%
%TO.N,N/C*%
X184150000Y-110490000D03*
%TD*%
%TO.P,,1*%
%TO.N,N/C*%
X181610000Y-110490000D03*
%TD*%
%TO.P,,1*%
%TO.N,N/C*%
X179070000Y-110490000D03*
%TD*%
%TO.P,,1*%
%TO.N,N/C*%
X176530000Y-110490000D03*
%TD*%
%TO.P,,1*%
%TO.N,N/C*%
X207010000Y-107950000D03*
%TD*%
%TO.P,,1*%
%TO.N,N/C*%
X204470000Y-107950000D03*
%TD*%
%TO.P,,1*%
%TO.N,N/C*%
X201930000Y-107950000D03*
%TD*%
%TO.P,,1*%
%TO.N,N/C*%
X199390000Y-107950000D03*
%TD*%
%TO.P,,1*%
%TO.N,N/C*%
X196850000Y-107950000D03*
%TD*%
%TO.P,,1*%
%TO.N,N/C*%
X194310000Y-107950000D03*
%TD*%
%TO.P,,1*%
%TO.N,N/C*%
X191770000Y-107950000D03*
%TD*%
%TO.P,,1*%
%TO.N,N/C*%
X189230000Y-107950000D03*
%TD*%
%TO.P,,1*%
%TO.N,N/C*%
X186690000Y-107950000D03*
%TD*%
%TO.P,,1*%
%TO.N,N/C*%
X184150000Y-107950000D03*
%TD*%
%TO.P,,1*%
%TO.N,N/C*%
X181610000Y-107950000D03*
%TD*%
%TO.P,,1*%
%TO.N,N/C*%
X179070000Y-107950000D03*
%TD*%
%TO.P,,1*%
%TO.N,N/C*%
X176530000Y-107950000D03*
%TD*%
%TO.P,,1*%
%TO.N,N/C*%
X207010000Y-105410000D03*
%TD*%
%TO.P,,1*%
%TO.N,N/C*%
X204470000Y-105410000D03*
%TD*%
%TO.P,,1*%
%TO.N,N/C*%
X201930000Y-105410000D03*
%TD*%
%TO.P,,1*%
%TO.N,N/C*%
X199390000Y-105410000D03*
%TD*%
%TO.P,,1*%
%TO.N,N/C*%
X196850000Y-105410000D03*
%TD*%
%TO.P,,1*%
%TO.N,N/C*%
X194310000Y-105410000D03*
%TD*%
%TO.P,,1*%
%TO.N,N/C*%
X191770000Y-105410000D03*
%TD*%
%TO.P,,1*%
%TO.N,N/C*%
X189230000Y-105410000D03*
%TD*%
%TO.P,,1*%
%TO.N,N/C*%
X186690000Y-105410000D03*
%TD*%
%TO.P,,1*%
%TO.N,N/C*%
X184150000Y-105410000D03*
%TD*%
%TO.P,,1*%
%TO.N,N/C*%
X181610000Y-105410000D03*
%TD*%
%TO.P,,1*%
%TO.N,N/C*%
X179070000Y-105410000D03*
%TD*%
%TO.P,,1*%
%TO.N,N/C*%
X176530000Y-105410000D03*
%TD*%
%TO.P,,1*%
%TO.N,N/C*%
X207010000Y-102870000D03*
%TD*%
%TO.P,,1*%
%TO.N,N/C*%
X204470000Y-102870000D03*
%TD*%
%TO.P,,1*%
%TO.N,N/C*%
X201930000Y-102870000D03*
%TD*%
%TO.P,,1*%
%TO.N,N/C*%
X199390000Y-102870000D03*
%TD*%
%TO.P,,1*%
%TO.N,N/C*%
X196850000Y-102870000D03*
%TD*%
%TO.P,,1*%
%TO.N,N/C*%
X194310000Y-102870000D03*
%TD*%
%TO.P,,1*%
%TO.N,N/C*%
X191770000Y-102870000D03*
%TD*%
%TO.P,,1*%
%TO.N,N/C*%
X189230000Y-102870000D03*
%TD*%
%TO.P,,1*%
%TO.N,N/C*%
X186690000Y-102870000D03*
%TD*%
%TO.P,,1*%
%TO.N,N/C*%
X184150000Y-102870000D03*
%TD*%
%TO.P,,1*%
%TO.N,N/C*%
X181610000Y-102870000D03*
%TD*%
%TO.P,,1*%
%TO.N,N/C*%
X179070000Y-102870000D03*
%TD*%
%TO.P,,1*%
%TO.N,N/C*%
X176530000Y-102870000D03*
%TD*%
%TO.P,,1*%
%TO.N,N/C*%
X207010000Y-100330000D03*
%TD*%
%TO.P,,1*%
%TO.N,N/C*%
X204470000Y-100330000D03*
%TD*%
%TO.P,,1*%
%TO.N,N/C*%
X201930000Y-100330000D03*
%TD*%
%TO.P,,1*%
%TO.N,N/C*%
X199390000Y-100330000D03*
%TD*%
%TO.P,,1*%
%TO.N,N/C*%
X196850000Y-100330000D03*
%TD*%
%TO.P,,1*%
%TO.N,N/C*%
X194310000Y-100330000D03*
%TD*%
%TO.P,,1*%
%TO.N,N/C*%
X191770000Y-100330000D03*
%TD*%
%TO.P,,1*%
%TO.N,N/C*%
X189230000Y-100330000D03*
%TD*%
%TO.P,,1*%
%TO.N,N/C*%
X186690000Y-100330000D03*
%TD*%
%TO.P,,1*%
%TO.N,N/C*%
X184150000Y-100330000D03*
%TD*%
%TO.P,,1*%
%TO.N,N/C*%
X181610000Y-100330000D03*
%TD*%
%TO.P,,1*%
%TO.N,N/C*%
X179070000Y-100330000D03*
%TD*%
%TO.P,,1*%
%TO.N,N/C*%
X176530000Y-100330000D03*
%TD*%
%TO.P,,1*%
%TO.N,N/C*%
X207010000Y-97790000D03*
%TD*%
%TO.P,,1*%
%TO.N,N/C*%
X204470000Y-97790000D03*
%TD*%
%TO.P,,1*%
%TO.N,N/C*%
X201930000Y-97790000D03*
%TD*%
%TO.P,,1*%
%TO.N,N/C*%
X199390000Y-97790000D03*
%TD*%
%TO.P,,1*%
%TO.N,N/C*%
X196850000Y-97790000D03*
%TD*%
%TO.P,,1*%
%TO.N,N/C*%
X194310000Y-97790000D03*
%TD*%
%TO.P,,1*%
%TO.N,N/C*%
X191770000Y-97790000D03*
%TD*%
%TO.P,,1*%
%TO.N,N/C*%
X189230000Y-97790000D03*
%TD*%
%TO.P,,1*%
%TO.N,N/C*%
X186690000Y-97790000D03*
%TD*%
%TO.P,,1*%
%TO.N,N/C*%
X184150000Y-97790000D03*
%TD*%
%TO.P,,1*%
%TO.N,N/C*%
X181610000Y-97790000D03*
%TD*%
%TO.P,,1*%
%TO.N,N/C*%
X179070000Y-97790000D03*
%TD*%
%TO.P,,1*%
%TO.N,N/C*%
X176530000Y-97790000D03*
%TD*%
%TO.P,,1*%
%TO.N,N/C*%
X207010000Y-95250000D03*
%TD*%
%TO.P,,1*%
%TO.N,N/C*%
X204470000Y-95250000D03*
%TD*%
%TO.P,,1*%
%TO.N,N/C*%
X201930000Y-95250000D03*
%TD*%
%TO.P,,1*%
%TO.N,N/C*%
X199390000Y-95250000D03*
%TD*%
%TO.P,,1*%
%TO.N,N/C*%
X196850000Y-95250000D03*
%TD*%
%TO.P,,1*%
%TO.N,N/C*%
X194310000Y-95250000D03*
%TD*%
%TO.P,,1*%
%TO.N,N/C*%
X191770000Y-95250000D03*
%TD*%
%TO.P,,1*%
%TO.N,N/C*%
X189230000Y-95250000D03*
%TD*%
%TO.P,,1*%
%TO.N,N/C*%
X186690000Y-95250000D03*
%TD*%
%TO.P,,1*%
%TO.N,N/C*%
X184150000Y-95250000D03*
%TD*%
%TO.P,,1*%
%TO.N,N/C*%
X181610000Y-95250000D03*
%TD*%
%TO.P,,1*%
%TO.N,N/C*%
X179070000Y-95250000D03*
%TD*%
%TO.P,,1*%
%TO.N,N/C*%
X176530000Y-95250000D03*
%TD*%
%TO.P,,1*%
%TO.N,N/C*%
X207010000Y-92710000D03*
%TD*%
%TO.P,,1*%
%TO.N,N/C*%
X204470000Y-92710000D03*
%TD*%
%TO.P,,1*%
%TO.N,N/C*%
X201930000Y-92710000D03*
%TD*%
%TO.P,,1*%
%TO.N,N/C*%
X199390000Y-92710000D03*
%TD*%
%TO.P,,1*%
%TO.N,N/C*%
X196850000Y-92710000D03*
%TD*%
%TO.P,,1*%
%TO.N,N/C*%
X194310000Y-92710000D03*
%TD*%
%TO.P,,1*%
%TO.N,N/C*%
X191770000Y-92710000D03*
%TD*%
%TO.P,,1*%
%TO.N,N/C*%
X189230000Y-92710000D03*
%TD*%
%TO.P,,1*%
%TO.N,N/C*%
X186690000Y-92710000D03*
%TD*%
%TO.P,,1*%
%TO.N,N/C*%
X184150000Y-92710000D03*
%TD*%
%TO.P,,1*%
%TO.N,N/C*%
X181610000Y-92710000D03*
%TD*%
%TO.P,,1*%
%TO.N,N/C*%
X179070000Y-92710000D03*
%TD*%
%TO.P,,1*%
%TO.N,N/C*%
X176530000Y-92710000D03*
%TD*%
%TO.P,,1*%
%TO.N,N/C*%
X207010000Y-90170000D03*
%TD*%
%TO.P,,1*%
%TO.N,N/C*%
X204470000Y-90170000D03*
%TD*%
%TO.P,,1*%
%TO.N,N/C*%
X201930000Y-90170000D03*
%TD*%
%TO.P,,1*%
%TO.N,N/C*%
X199390000Y-90170000D03*
%TD*%
%TO.P,,1*%
%TO.N,N/C*%
X196850000Y-90170000D03*
%TD*%
%TO.P,,1*%
%TO.N,N/C*%
X194310000Y-90170000D03*
%TD*%
%TO.P,,1*%
%TO.N,N/C*%
X191770000Y-90170000D03*
%TD*%
%TO.P,,1*%
%TO.N,N/C*%
X189230000Y-90170000D03*
%TD*%
%TO.P,,1*%
%TO.N,N/C*%
X186690000Y-90170000D03*
%TD*%
%TO.P,,1*%
%TO.N,N/C*%
X184150000Y-90170000D03*
%TD*%
%TO.P,,1*%
%TO.N,N/C*%
X181610000Y-90170000D03*
%TD*%
%TO.P,,1*%
%TO.N,N/C*%
X179070000Y-90170000D03*
%TD*%
%TO.P,,1*%
%TO.N,N/C*%
X176530000Y-90170000D03*
%TD*%
D16*
%TO.P,J1,8*%
%TO.N,Net-(J1-Pad8)*%
X182880000Y-83820000D03*
%TO.P,J1,7*%
%TO.N,Net-(J1-Pad7)*%
X182880000Y-81280000D03*
%TO.P,J1,6*%
%TO.N,Net-(J1-Pad6)*%
X182880000Y-78740000D03*
%TO.P,J1,5*%
%TO.N,Net-(J1-Pad5)*%
X182880000Y-76200000D03*
%TO.P,J1,4*%
%TO.N,Net-(J1-Pad4)*%
X182880000Y-73660000D03*
%TO.P,J1,3*%
%TO.N,Net-(J1-Pad3)*%
X182880000Y-71120000D03*
%TO.P,J1,2*%
%TO.N,Net-(J1-Pad2)*%
X182880000Y-68580000D03*
D17*
%TO.P,J1,1*%
%TO.N,Net-(J1-Pad1)*%
X182880000Y-66040000D03*
%TD*%
%TO.P,J2,1*%
%TO.N,Net-(J1-Pad1)*%
X177800000Y-66040000D03*
D16*
%TO.P,J2,2*%
%TO.N,Net-(J1-Pad2)*%
X177800000Y-68580000D03*
%TO.P,J2,3*%
%TO.N,Net-(J1-Pad3)*%
X177800000Y-71120000D03*
%TO.P,J2,4*%
%TO.N,Net-(J1-Pad4)*%
X177800000Y-73660000D03*
%TO.P,J2,5*%
%TO.N,Net-(J1-Pad5)*%
X177800000Y-76200000D03*
%TO.P,J2,6*%
%TO.N,Net-(J1-Pad6)*%
X177800000Y-78740000D03*
%TO.P,J2,7*%
%TO.N,Net-(J1-Pad7)*%
X177800000Y-81280000D03*
%TO.P,J2,8*%
%TO.N,Net-(J1-Pad8)*%
X177800000Y-83820000D03*
%TD*%
%TO.P,J3,8*%
%TO.N,Net-(J3-Pad8)*%
X200660000Y-83820000D03*
%TO.P,J3,7*%
%TO.N,Net-(J3-Pad7)*%
X200660000Y-81280000D03*
%TO.P,J3,6*%
%TO.N,Net-(J3-Pad6)*%
X200660000Y-78740000D03*
%TO.P,J3,5*%
%TO.N,Net-(J3-Pad5)*%
X200660000Y-76200000D03*
%TO.P,J3,4*%
%TO.N,Net-(J3-Pad4)*%
X200660000Y-73660000D03*
%TO.P,J3,3*%
%TO.N,Net-(J3-Pad3)*%
X200660000Y-71120000D03*
%TO.P,J3,2*%
%TO.N,Net-(J3-Pad2)*%
X200660000Y-68580000D03*
D17*
%TO.P,J3,1*%
%TO.N,Net-(J3-Pad1)*%
X200660000Y-66040000D03*
%TD*%
%TO.P,J4,1*%
%TO.N,Net-(J3-Pad1)*%
X205740000Y-66040000D03*
D16*
%TO.P,J4,2*%
%TO.N,Net-(J3-Pad2)*%
X205740000Y-68580000D03*
%TO.P,J4,3*%
%TO.N,Net-(J3-Pad3)*%
X205740000Y-71120000D03*
%TO.P,J4,4*%
%TO.N,Net-(J3-Pad4)*%
X205740000Y-73660000D03*
%TO.P,J4,5*%
%TO.N,Net-(J3-Pad5)*%
X205740000Y-76200000D03*
%TO.P,J4,6*%
%TO.N,Net-(J3-Pad6)*%
X205740000Y-78740000D03*
%TO.P,J4,7*%
%TO.N,Net-(J3-Pad7)*%
X205740000Y-81280000D03*
%TO.P,J4,8*%
%TO.N,Net-(J3-Pad8)*%
X205740000Y-83820000D03*
%TD*%
D11*
%TO.P,J6,1*%
%TO.N,Net-(J6-Pad1)*%
X215900000Y-99060000D03*
D12*
%TO.P,J6,2*%
%TO.N,Net-(J6-Pad2)*%
X215900000Y-104140000D03*
%TO.P,J6,3*%
%TO.N,Net-(J6-Pad3)*%
X215900000Y-109220000D03*
%TO.P,J6,4*%
%TO.N,Net-(J6-Pad4)*%
X215900000Y-114300000D03*
%TO.P,J6,5*%
%TO.N,Net-(J6-Pad5)*%
X215900000Y-119380000D03*
%TO.P,J6,6*%
%TO.N,Net-(J6-Pad6)*%
X215900000Y-124460000D03*
%TO.P,J6,7*%
%TO.N,Net-(J6-Pad7)*%
X215900000Y-129540000D03*
%TO.P,J6,8*%
%TO.N,Net-(J6-Pad8)*%
X215900000Y-134620000D03*
%TD*%
%TO.P,J7,8*%
%TO.N,Net-(J1-Pad1)*%
X167640000Y-55880000D03*
%TO.P,J7,7*%
%TO.N,Net-(J1-Pad2)*%
X167640000Y-60960000D03*
%TO.P,J7,6*%
%TO.N,Net-(J1-Pad3)*%
X167640000Y-66040000D03*
%TO.P,J7,5*%
%TO.N,Net-(J1-Pad4)*%
X167640000Y-71120000D03*
%TO.P,J7,4*%
%TO.N,Net-(J1-Pad5)*%
X167640000Y-76200000D03*
%TO.P,J7,3*%
%TO.N,Net-(J1-Pad6)*%
X167640000Y-81280000D03*
%TO.P,J7,2*%
%TO.N,Net-(J1-Pad7)*%
X167640000Y-86360000D03*
D11*
%TO.P,J7,1*%
%TO.N,Net-(J1-Pad8)*%
X167640000Y-91440000D03*
%TD*%
D16*
%TO.P,J8,8*%
%TO.N,Net-(J6-Pad8)*%
X208280000Y-135890000D03*
%TO.P,J8,7*%
%TO.N,Net-(J6-Pad7)*%
X208280000Y-133350000D03*
%TO.P,J8,6*%
%TO.N,Net-(J6-Pad6)*%
X208280000Y-130810000D03*
%TO.P,J8,5*%
%TO.N,Net-(J6-Pad5)*%
X208280000Y-128270000D03*
%TO.P,J8,4*%
%TO.N,Net-(J6-Pad4)*%
X208280000Y-125730000D03*
%TO.P,J8,3*%
%TO.N,Net-(J6-Pad3)*%
X208280000Y-123190000D03*
%TO.P,J8,2*%
%TO.N,Net-(J6-Pad2)*%
X208280000Y-120650000D03*
D17*
%TO.P,J8,1*%
%TO.N,Net-(J6-Pad1)*%
X208280000Y-118110000D03*
%TD*%
%TO.P,J9,1*%
%TO.N,Net-(J6-Pad1)*%
X204470000Y-118110000D03*
D16*
%TO.P,J9,2*%
%TO.N,Net-(J6-Pad2)*%
X204470000Y-120650000D03*
%TO.P,J9,3*%
%TO.N,Net-(J6-Pad3)*%
X204470000Y-123190000D03*
%TO.P,J9,4*%
%TO.N,Net-(J6-Pad4)*%
X204470000Y-125730000D03*
%TO.P,J9,5*%
%TO.N,Net-(J6-Pad5)*%
X204470000Y-128270000D03*
%TO.P,J9,6*%
%TO.N,Net-(J6-Pad6)*%
X204470000Y-130810000D03*
%TO.P,J9,7*%
%TO.N,Net-(J6-Pad7)*%
X204470000Y-133350000D03*
%TO.P,J9,8*%
%TO.N,Net-(J6-Pad8)*%
X204470000Y-135890000D03*
%TD*%
D17*
%TO.P,J10,1*%
%TO.N,Net-(J10-Pad1)*%
X180340000Y-135890000D03*
D16*
%TO.P,J10,2*%
%TO.N,Net-(J10-Pad2)*%
X180340000Y-133350000D03*
%TO.P,J10,3*%
%TO.N,Net-(J10-Pad3)*%
X180340000Y-130810000D03*
%TO.P,J10,4*%
%TO.N,Net-(J10-Pad4)*%
X180340000Y-128270000D03*
%TO.P,J10,5*%
%TO.N,Net-(J10-Pad5)*%
X180340000Y-125730000D03*
%TO.P,J10,6*%
%TO.N,Net-(J10-Pad6)*%
X180340000Y-123190000D03*
%TO.P,J10,7*%
%TO.N,Net-(J10-Pad7)*%
X180340000Y-120650000D03*
%TO.P,J10,8*%
%TO.N,Net-(J10-Pad8)*%
X180340000Y-118110000D03*
%TD*%
%TO.P,J11,8*%
%TO.N,Net-(J10-Pad8)*%
X176530000Y-118110000D03*
%TO.P,J11,7*%
%TO.N,Net-(J10-Pad7)*%
X176530000Y-120650000D03*
%TO.P,J11,6*%
%TO.N,Net-(J10-Pad6)*%
X176530000Y-123190000D03*
%TO.P,J11,5*%
%TO.N,Net-(J10-Pad5)*%
X176530000Y-125730000D03*
%TO.P,J11,4*%
%TO.N,Net-(J10-Pad4)*%
X176530000Y-128270000D03*
%TO.P,J11,3*%
%TO.N,Net-(J10-Pad3)*%
X176530000Y-130810000D03*
%TO.P,J11,2*%
%TO.N,Net-(J10-Pad2)*%
X176530000Y-133350000D03*
D17*
%TO.P,J11,1*%
%TO.N,Net-(J10-Pad1)*%
X176530000Y-135890000D03*
%TD*%
D12*
%TO.P,J12,8*%
%TO.N,Net-(J10-Pad8)*%
X167640000Y-99060000D03*
%TO.P,J12,7*%
%TO.N,Net-(J10-Pad7)*%
X167640000Y-104140000D03*
%TO.P,J12,6*%
%TO.N,Net-(J10-Pad6)*%
X167640000Y-109220000D03*
%TO.P,J12,5*%
%TO.N,Net-(J10-Pad5)*%
X167640000Y-114300000D03*
%TO.P,J12,4*%
%TO.N,Net-(J10-Pad4)*%
X167640000Y-119380000D03*
%TO.P,J12,3*%
%TO.N,Net-(J10-Pad3)*%
X167640000Y-124460000D03*
%TO.P,J12,2*%
%TO.N,Net-(J10-Pad2)*%
X167640000Y-129540000D03*
D11*
%TO.P,J12,1*%
%TO.N,Net-(J10-Pad1)*%
X167640000Y-134620000D03*
%TD*%
D18*
%TO.P,SW1,1*%
%TO.N,Net-(J1-Pad1)*%
X186740800Y-66040000D03*
D19*
%TO.P,SW1,9*%
%TO.N,Net-(J3-Pad8)*%
X196900800Y-83820000D03*
%TO.P,SW1,2*%
%TO.N,Net-(J1-Pad2)*%
X186740800Y-68580000D03*
%TO.P,SW1,10*%
%TO.N,Net-(J3-Pad7)*%
X196900800Y-81280000D03*
%TO.P,SW1,3*%
%TO.N,Net-(J1-Pad3)*%
X186740800Y-71120000D03*
%TO.P,SW1,11*%
%TO.N,Net-(J3-Pad6)*%
X196900800Y-78740000D03*
%TO.P,SW1,4*%
%TO.N,Net-(J1-Pad4)*%
X186740800Y-73660000D03*
%TO.P,SW1,12*%
%TO.N,Net-(J3-Pad5)*%
X196900800Y-76200000D03*
%TO.P,SW1,5*%
%TO.N,Net-(J1-Pad5)*%
X186740800Y-76200000D03*
%TO.P,SW1,13*%
%TO.N,Net-(J3-Pad4)*%
X196900800Y-73660000D03*
%TO.P,SW1,6*%
%TO.N,Net-(J1-Pad6)*%
X186740800Y-78740000D03*
%TO.P,SW1,14*%
%TO.N,Net-(J3-Pad3)*%
X196900800Y-71120000D03*
%TO.P,SW1,7*%
%TO.N,Net-(J1-Pad7)*%
X186740800Y-81280000D03*
%TO.P,SW1,15*%
%TO.N,Net-(J3-Pad2)*%
X196900800Y-68580000D03*
%TO.P,SW1,8*%
%TO.N,Net-(J1-Pad8)*%
X186740800Y-83820000D03*
%TO.P,SW1,16*%
%TO.N,Net-(J3-Pad1)*%
X196900800Y-66040000D03*
%TD*%
D17*
%TO.P,GND,1*%
%TO.N,GND*%
X191000000Y-143000000D03*
D16*
%TO.P,GND,2*%
X193540000Y-143000000D03*
%TD*%
D20*
%TO.N,GND*%
X173000000Y-49000000D03*
X211000000Y-49000000D03*
X172000000Y-139000000D03*
X211000000Y-139000000D03*
X165000000Y-96000000D03*
X219000000Y-95000000D03*
%TD*%
D21*
%TO.N,GND*%
X202784999Y-141824999D02*
X203200000Y-142240000D01*
%TO.N,Net-(J1-Pad8)*%
X186740800Y-83820000D02*
X182880000Y-83820000D01*
X182880000Y-83820000D02*
X177800000Y-83820000D01*
X170180000Y-91440000D02*
X177800000Y-83820000D01*
X167640000Y-91440000D02*
X170180000Y-91440000D01*
%TO.N,Net-(J1-Pad7)*%
X186740800Y-81280000D02*
X182880000Y-81280000D01*
X182880000Y-81280000D02*
X177800000Y-81280000D01*
X172720000Y-86360000D02*
X177800000Y-81280000D01*
X167640000Y-86360000D02*
X172720000Y-86360000D01*
%TO.N,Net-(J1-Pad6)*%
X186740800Y-78740000D02*
X182880000Y-78740000D01*
X182880000Y-78740000D02*
X177800000Y-78740000D01*
X175260000Y-81280000D02*
X177800000Y-78740000D01*
X167640000Y-81280000D02*
X175260000Y-81280000D01*
%TO.N,Net-(J1-Pad5)*%
X186740800Y-76200000D02*
X182880000Y-76200000D01*
X182880000Y-76200000D02*
X177800000Y-76200000D01*
X167640000Y-76200000D02*
X177800000Y-76200000D01*
%TO.N,Net-(J1-Pad4)*%
X186740800Y-73660000D02*
X182880000Y-73660000D01*
X182880000Y-73660000D02*
X177800000Y-73660000D01*
X170180000Y-73660000D02*
X177800000Y-73660000D01*
X167640000Y-71120000D02*
X170180000Y-73660000D01*
%TO.N,Net-(J1-Pad3)*%
X186740800Y-71120000D02*
X182880000Y-71120000D01*
X182880000Y-71120000D02*
X177800000Y-71120000D01*
X172720000Y-71120000D02*
X167640000Y-66040000D01*
X177800000Y-71120000D02*
X172720000Y-71120000D01*
%TO.N,Net-(J1-Pad2)*%
X186740800Y-68580000D02*
X182880000Y-68580000D01*
X182880000Y-68580000D02*
X177800000Y-68580000D01*
X175260000Y-68580000D02*
X167640000Y-60960000D01*
X177800000Y-68580000D02*
X175260000Y-68580000D01*
%TO.N,Net-(J1-Pad1)*%
X177800000Y-66040000D02*
X182880000Y-66040000D01*
X186740800Y-66040000D02*
X182880000Y-66040000D01*
X177800000Y-66040000D02*
X167640000Y-55880000D01*
%TO.N,Net-(J3-Pad8)*%
X196900800Y-83820000D02*
X200660000Y-83820000D01*
X200660000Y-83820000D02*
X205740000Y-83820000D01*
X213360000Y-91440000D02*
X215900000Y-91440000D01*
X205740000Y-83820000D02*
X213360000Y-91440000D01*
%TO.N,Net-(J3-Pad7)*%
X196900800Y-81280000D02*
X200660000Y-81280000D01*
X200660000Y-81280000D02*
X205740000Y-81280000D01*
X206942081Y-81280000D02*
X205740000Y-81280000D01*
X215900000Y-86360000D02*
X210820000Y-86360000D01*
X210820000Y-86360000D02*
X205740000Y-81280000D01*
%TO.N,Net-(J3-Pad6)*%
X196900800Y-78740000D02*
X200660000Y-78740000D01*
X200660000Y-78740000D02*
X205740000Y-78740000D01*
X208280000Y-81280000D02*
X205740000Y-78740000D01*
X215900000Y-81280000D02*
X208280000Y-81280000D01*
%TO.N,Net-(J3-Pad5)*%
X196900800Y-76200000D02*
X200660000Y-76200000D01*
X200660000Y-76200000D02*
X205740000Y-76200000D01*
X215900000Y-76200000D02*
X205740000Y-76200000D01*
%TO.N,Net-(J3-Pad4)*%
X196900800Y-73660000D02*
X200660000Y-73660000D01*
X200660000Y-73660000D02*
X205740000Y-73660000D01*
X208280000Y-71120000D02*
X205740000Y-73660000D01*
X215900000Y-71120000D02*
X208280000Y-71120000D01*
%TO.N,Net-(J3-Pad3)*%
X196900800Y-71120000D02*
X200660000Y-71120000D01*
X200660000Y-71120000D02*
X205740000Y-71120000D01*
X210820000Y-66040000D02*
X205740000Y-71120000D01*
X215900000Y-66040000D02*
X210820000Y-66040000D01*
%TO.N,Net-(J3-Pad2)*%
X196900800Y-68580000D02*
X200660000Y-68580000D01*
X200660000Y-68580000D02*
X205740000Y-68580000D01*
X213360000Y-60960000D02*
X205740000Y-68580000D01*
X215900000Y-60960000D02*
X213360000Y-60960000D01*
%TO.N,Net-(J3-Pad1)*%
X196900800Y-66040000D02*
X200660000Y-66040000D01*
X200660000Y-66040000D02*
X205740000Y-66040000D01*
X215900000Y-55880000D02*
X205740000Y-66040000D01*
%TO.N,Net-(J6-Pad1)*%
X204470000Y-118110000D02*
X208280000Y-118110000D01*
X212750400Y-102209600D02*
X215900000Y-99060000D01*
X212750400Y-116636800D02*
X212750400Y-102209600D01*
X208280000Y-118110000D02*
X211277200Y-118110000D01*
X211277200Y-118110000D02*
X212750400Y-116636800D01*
%TO.N,Net-(J6-Pad2)*%
X204470000Y-120650000D02*
X208280000Y-120650000D01*
X208280000Y-120650000D02*
X209854800Y-120650000D01*
X209854800Y-120650000D02*
X213512400Y-116992400D01*
X213512400Y-106527600D02*
X215900000Y-104140000D01*
X213512400Y-116992400D02*
X213512400Y-106527600D01*
%TO.N,Net-(J6-Pad3)*%
X204470000Y-123190000D02*
X208280000Y-123190000D01*
X208280000Y-122861210D02*
X213962411Y-117178800D01*
X208280000Y-123190000D02*
X208280000Y-122861210D01*
X213962411Y-111157589D02*
X215900000Y-109220000D01*
X213962411Y-117178800D02*
X213962411Y-111157589D01*
%TO.N,Net-(J6-Pad4)*%
X208280000Y-125730000D02*
X204470000Y-125730000D01*
X215900000Y-116067766D02*
X215900000Y-114300000D01*
X213396420Y-118571346D02*
X215900000Y-116067766D01*
X213396420Y-120613580D02*
X213396420Y-118571346D01*
X208280000Y-125730000D02*
X213396420Y-120613580D01*
%TO.N,Net-(J6-Pad5)*%
X204470000Y-128270000D02*
X208280000Y-128270000D01*
X208280000Y-128270000D02*
X211582000Y-128270000D01*
X211582000Y-128270000D02*
X213614000Y-126238000D01*
X213614000Y-121666000D02*
X215900000Y-119380000D01*
X213614000Y-126238000D02*
X213614000Y-121666000D01*
%TO.N,Net-(J6-Pad6)*%
X208280000Y-130810000D02*
X204470000Y-130810000D01*
X208280000Y-130810000D02*
X211531200Y-130810000D01*
X211531200Y-130810000D02*
X215900000Y-126441200D01*
X215900000Y-126441200D02*
X215900000Y-124460000D01*
%TO.N,Net-(J6-Pad7)*%
X204470000Y-133350000D02*
X208280000Y-133350000D01*
X212090000Y-133350000D02*
X215900000Y-129540000D01*
X208280000Y-133350000D02*
X212090000Y-133350000D01*
%TO.N,Net-(J6-Pad8)*%
X208280000Y-135890000D02*
X204470000Y-135890000D01*
X214630000Y-135890000D02*
X215900000Y-134620000D01*
X208280000Y-135890000D02*
X214630000Y-135890000D01*
%TO.N,Net-(J10-Pad1)*%
X167640000Y-134620000D02*
X173380400Y-134620000D01*
X174650400Y-135890000D02*
X180340000Y-135890000D01*
X173380400Y-134620000D02*
X174650400Y-135890000D01*
%TO.N,Net-(J10-Pad2)*%
X171450000Y-133350000D02*
X167640000Y-129540000D01*
X176530000Y-133350000D02*
X171450000Y-133350000D01*
X176530000Y-133350000D02*
X180340000Y-133350000D01*
%TO.N,Net-(J10-Pad3)*%
X180340000Y-130810000D02*
X176530000Y-130810000D01*
X173990000Y-130810000D02*
X167640000Y-124460000D01*
X176530000Y-130810000D02*
X173990000Y-130810000D01*
%TO.N,Net-(J10-Pad4)*%
X180340000Y-128270000D02*
X176530000Y-128270000D01*
X176530000Y-128270000D02*
X167640000Y-119380000D01*
%TO.N,Net-(J10-Pad5)*%
X180340000Y-125730000D02*
X176530000Y-125730000D01*
X176530000Y-125730000D02*
X170332400Y-119532400D01*
X170332400Y-116992400D02*
X167640000Y-114300000D01*
X170332400Y-119532400D02*
X170332400Y-116992400D01*
%TO.N,Net-(J10-Pad6)*%
X180340000Y-123190000D02*
X176530000Y-123190000D01*
X176530000Y-123190000D02*
X172313600Y-118973600D01*
X172313600Y-113893600D02*
X167640000Y-109220000D01*
X172313600Y-118973600D02*
X172313600Y-113893600D01*
%TO.N,Net-(J10-Pad7)*%
X180340000Y-120650000D02*
X176530000Y-120650000D01*
X172777989Y-116897989D02*
X172777989Y-112200400D01*
X171457189Y-107957189D02*
X167640000Y-104140000D01*
X171457189Y-110879600D02*
X171457189Y-107957189D01*
X172777989Y-112200400D02*
X171457189Y-110879600D01*
X176530000Y-120650000D02*
X172777989Y-116897989D01*
%TO.N,Net-(J10-Pad8)*%
X180340000Y-118110000D02*
X176530000Y-118110000D01*
X176530000Y-118110000D02*
X175204999Y-116784999D01*
X171907200Y-103327200D02*
X167640000Y-99060000D01*
X171907200Y-110693200D02*
X171907200Y-103327200D01*
X175204999Y-116784999D02*
X174442999Y-116784999D01*
X174442999Y-116784999D02*
X173431200Y-115773200D01*
X173431200Y-112217200D02*
X171907200Y-110693200D01*
X173431200Y-115773200D02*
X173431200Y-112217200D01*
%TO.N,GND*%
X191000000Y-143000000D02*
X185665001Y-143000000D01*
X181100000Y-143000000D02*
X180658205Y-142558205D01*
X191000000Y-143000000D02*
X181100000Y-143000000D01*
X202440000Y-143000000D02*
X202881795Y-142558205D01*
X193540000Y-143000000D02*
X202440000Y-143000000D01*
X203925001Y-141514999D02*
X203200000Y-142240000D01*
X215174999Y-141514999D02*
X203925001Y-141514999D01*
X215900000Y-142240000D02*
X215174999Y-141514999D01*
X193540000Y-143000000D02*
X191000000Y-143000000D01*
X168365001Y-141514999D02*
X167640000Y-142240000D01*
X179614999Y-141514999D02*
X168365001Y-141514999D01*
X180340000Y-142240000D02*
X179614999Y-141514999D01*
X212724943Y-49827945D02*
X213151999Y-50255001D01*
X168365001Y-49827945D02*
X212724943Y-49827945D01*
X215174999Y-50255001D02*
X215900000Y-49530000D01*
X213151999Y-50255001D02*
X215174999Y-50255001D01*
X167640000Y-49102944D02*
X168365001Y-49827945D01*
X216973002Y-49530000D02*
X220000000Y-52556998D01*
X215900000Y-49530000D02*
X216973002Y-49530000D01*
X215900000Y-141166998D02*
X215900000Y-142240000D01*
X220000000Y-137066998D02*
X215900000Y-141166998D01*
X220000000Y-52556998D02*
X220000000Y-137066998D01*
X165841997Y-49827945D02*
X164000000Y-51669942D01*
X167640000Y-49102944D02*
X166914999Y-49827945D01*
X166914999Y-49827945D02*
X165841997Y-49827945D01*
X166566998Y-142240000D02*
X167640000Y-142240000D01*
X164000000Y-139673002D02*
X166566998Y-142240000D01*
X164000000Y-51669942D02*
X164000000Y-139673002D01*
%TD*%
D22*
%TO.N,GND*%
G36*
X222835001Y-145365000D02*
G01*
X218109304Y-145365000D01*
X218421276Y-144940881D01*
X218235584Y-144755189D01*
X218256830Y-144740993D01*
X218400993Y-144596830D01*
X218415189Y-144575584D01*
X218600881Y-144761276D01*
X219090548Y-144401088D01*
X219450849Y-143737118D01*
X219674694Y-143015615D01*
X219753480Y-142264305D01*
X219684178Y-141512062D01*
X219469452Y-140787792D01*
X219117555Y-140119330D01*
X219090548Y-140078912D01*
X218600881Y-139718724D01*
X218415189Y-139904416D01*
X218400993Y-139883170D01*
X218256830Y-139739007D01*
X218235584Y-139724811D01*
X218421276Y-139539119D01*
X218061088Y-139049452D01*
X217397118Y-138689151D01*
X216675615Y-138465306D01*
X215924305Y-138386520D01*
X215172062Y-138455822D01*
X214447792Y-138670548D01*
X213779330Y-139022445D01*
X213738912Y-139049452D01*
X213378724Y-139539119D01*
X213564416Y-139724811D01*
X213543170Y-139739007D01*
X213399007Y-139883170D01*
X213384811Y-139904416D01*
X213199119Y-139718724D01*
X212709452Y-140078912D01*
X212349151Y-140742882D01*
X212125306Y-141464385D01*
X212046520Y-142215695D01*
X212115822Y-142967938D01*
X212330548Y-143692208D01*
X212682445Y-144360670D01*
X212709452Y-144401088D01*
X213199119Y-144761276D01*
X213384811Y-144575584D01*
X213399007Y-144596830D01*
X213543170Y-144740993D01*
X213564416Y-144755189D01*
X213378724Y-144940881D01*
X213690696Y-145365000D01*
X208327159Y-145365000D01*
X208444180Y-145329502D01*
X208554494Y-145270537D01*
X208651185Y-145191185D01*
X208730537Y-145094494D01*
X208789502Y-144984180D01*
X208825812Y-144864482D01*
X208838072Y-144740000D01*
X208835000Y-142525750D01*
X208676250Y-142367000D01*
X203327000Y-142367000D01*
X203327000Y-142387000D01*
X203073000Y-142387000D01*
X203073000Y-142367000D01*
X197723750Y-142367000D01*
X197565000Y-142525750D01*
X197561928Y-144740000D01*
X197574188Y-144864482D01*
X197610498Y-144984180D01*
X197669463Y-145094494D01*
X197748815Y-145191185D01*
X197845506Y-145270537D01*
X197955820Y-145329502D01*
X198072841Y-145365000D01*
X185467159Y-145365000D01*
X185584180Y-145329502D01*
X185694494Y-145270537D01*
X185791185Y-145191185D01*
X185870537Y-145094494D01*
X185929502Y-144984180D01*
X185965812Y-144864482D01*
X185978072Y-144740000D01*
X185976838Y-143850000D01*
X189511928Y-143850000D01*
X189524188Y-143974482D01*
X189560498Y-144094180D01*
X189619463Y-144204494D01*
X189698815Y-144301185D01*
X189795506Y-144380537D01*
X189905820Y-144439502D01*
X190025518Y-144475812D01*
X190150000Y-144488072D01*
X190714250Y-144485000D01*
X190873000Y-144326250D01*
X190873000Y-143127000D01*
X191127000Y-143127000D01*
X191127000Y-144326250D01*
X191285750Y-144485000D01*
X191850000Y-144488072D01*
X191974482Y-144475812D01*
X192094180Y-144439502D01*
X192204494Y-144380537D01*
X192301185Y-144301185D01*
X192380537Y-144204494D01*
X192439502Y-144094180D01*
X192463966Y-144013534D01*
X192539731Y-144097588D01*
X192773080Y-144271641D01*
X193035901Y-144396825D01*
X193183110Y-144441476D01*
X193413000Y-144320155D01*
X193413000Y-143127000D01*
X193667000Y-143127000D01*
X193667000Y-144320155D01*
X193896890Y-144441476D01*
X194044099Y-144396825D01*
X194306920Y-144271641D01*
X194540269Y-144097588D01*
X194735178Y-143881355D01*
X194884157Y-143631252D01*
X194981481Y-143356891D01*
X194860814Y-143127000D01*
X193667000Y-143127000D01*
X193413000Y-143127000D01*
X191127000Y-143127000D01*
X190873000Y-143127000D01*
X189673750Y-143127000D01*
X189515000Y-143285750D01*
X189511928Y-143850000D01*
X185976838Y-143850000D01*
X185975000Y-142525750D01*
X185816250Y-142367000D01*
X180467000Y-142367000D01*
X180467000Y-142387000D01*
X180213000Y-142387000D01*
X180213000Y-142367000D01*
X174863750Y-142367000D01*
X174705000Y-142525750D01*
X174701928Y-144740000D01*
X174714188Y-144864482D01*
X174750498Y-144984180D01*
X174809463Y-145094494D01*
X174888815Y-145191185D01*
X174985506Y-145270537D01*
X175095820Y-145329502D01*
X175212841Y-145365000D01*
X169849304Y-145365000D01*
X170161276Y-144940881D01*
X169975584Y-144755189D01*
X169996830Y-144740993D01*
X170140993Y-144596830D01*
X170155189Y-144575584D01*
X170340881Y-144761276D01*
X170830548Y-144401088D01*
X171190849Y-143737118D01*
X171414694Y-143015615D01*
X171493480Y-142264305D01*
X171482950Y-142150000D01*
X189511928Y-142150000D01*
X189515000Y-142714250D01*
X189673750Y-142873000D01*
X190873000Y-142873000D01*
X190873000Y-141673750D01*
X191127000Y-141673750D01*
X191127000Y-142873000D01*
X193413000Y-142873000D01*
X193413000Y-141679845D01*
X193667000Y-141679845D01*
X193667000Y-142873000D01*
X194860814Y-142873000D01*
X194981481Y-142643109D01*
X194884157Y-142368748D01*
X194735178Y-142118645D01*
X194540269Y-141902412D01*
X194306920Y-141728359D01*
X194044099Y-141603175D01*
X193896890Y-141558524D01*
X193667000Y-141679845D01*
X193413000Y-141679845D01*
X193183110Y-141558524D01*
X193035901Y-141603175D01*
X192773080Y-141728359D01*
X192539731Y-141902412D01*
X192463966Y-141986466D01*
X192439502Y-141905820D01*
X192380537Y-141795506D01*
X192301185Y-141698815D01*
X192204494Y-141619463D01*
X192094180Y-141560498D01*
X191974482Y-141524188D01*
X191850000Y-141511928D01*
X191285750Y-141515000D01*
X191127000Y-141673750D01*
X190873000Y-141673750D01*
X190714250Y-141515000D01*
X190150000Y-141511928D01*
X190025518Y-141524188D01*
X189905820Y-141560498D01*
X189795506Y-141619463D01*
X189698815Y-141698815D01*
X189619463Y-141795506D01*
X189560498Y-141905820D01*
X189524188Y-142025518D01*
X189511928Y-142150000D01*
X171482950Y-142150000D01*
X171424178Y-141512062D01*
X171209452Y-140787792D01*
X170857555Y-140119330D01*
X170830548Y-140078912D01*
X170369806Y-139740000D01*
X174701928Y-139740000D01*
X174705000Y-141954250D01*
X174863750Y-142113000D01*
X180213000Y-142113000D01*
X180213000Y-139263750D01*
X180467000Y-139263750D01*
X180467000Y-142113000D01*
X185816250Y-142113000D01*
X185975000Y-141954250D01*
X185978072Y-139740000D01*
X197561928Y-139740000D01*
X197565000Y-141954250D01*
X197723750Y-142113000D01*
X203073000Y-142113000D01*
X203073000Y-139263750D01*
X203327000Y-139263750D01*
X203327000Y-142113000D01*
X208676250Y-142113000D01*
X208835000Y-141954250D01*
X208838072Y-139740000D01*
X208825812Y-139615518D01*
X208789502Y-139495820D01*
X208730537Y-139385506D01*
X208651185Y-139288815D01*
X208554494Y-139209463D01*
X208444180Y-139150498D01*
X208324482Y-139114188D01*
X208200000Y-139101928D01*
X203485750Y-139105000D01*
X203327000Y-139263750D01*
X203073000Y-139263750D01*
X202914250Y-139105000D01*
X198200000Y-139101928D01*
X198075518Y-139114188D01*
X197955820Y-139150498D01*
X197845506Y-139209463D01*
X197748815Y-139288815D01*
X197669463Y-139385506D01*
X197610498Y-139495820D01*
X197574188Y-139615518D01*
X197561928Y-139740000D01*
X185978072Y-139740000D01*
X185965812Y-139615518D01*
X185929502Y-139495820D01*
X185870537Y-139385506D01*
X185791185Y-139288815D01*
X185694494Y-139209463D01*
X185584180Y-139150498D01*
X185464482Y-139114188D01*
X185340000Y-139101928D01*
X180625750Y-139105000D01*
X180467000Y-139263750D01*
X180213000Y-139263750D01*
X180054250Y-139105000D01*
X175340000Y-139101928D01*
X175215518Y-139114188D01*
X175095820Y-139150498D01*
X174985506Y-139209463D01*
X174888815Y-139288815D01*
X174809463Y-139385506D01*
X174750498Y-139495820D01*
X174714188Y-139615518D01*
X174701928Y-139740000D01*
X170369806Y-139740000D01*
X170340881Y-139718724D01*
X170155189Y-139904416D01*
X170140993Y-139883170D01*
X169996830Y-139739007D01*
X169975584Y-139724811D01*
X170161276Y-139539119D01*
X169801088Y-139049452D01*
X169137118Y-138689151D01*
X168415615Y-138465306D01*
X167664305Y-138386520D01*
X166912062Y-138455822D01*
X166187792Y-138670548D01*
X165519330Y-139022445D01*
X165478912Y-139049452D01*
X165118724Y-139539119D01*
X165304416Y-139724811D01*
X165283170Y-139739007D01*
X165139007Y-139883170D01*
X165124811Y-139904416D01*
X164939119Y-139718724D01*
X164449452Y-140078912D01*
X164089151Y-140742882D01*
X163865306Y-141464385D01*
X163786520Y-142215695D01*
X163855822Y-142967938D01*
X164070548Y-143692208D01*
X164422445Y-144360670D01*
X164449452Y-144401088D01*
X164939119Y-144761276D01*
X165124811Y-144575584D01*
X165139007Y-144596830D01*
X165283170Y-144740993D01*
X165304416Y-144755189D01*
X165118724Y-144940881D01*
X165430696Y-145365000D01*
X160705000Y-145365000D01*
X160705000Y-133370000D01*
X165751928Y-133370000D01*
X165751928Y-135870000D01*
X165764188Y-135994482D01*
X165800498Y-136114180D01*
X165859463Y-136224494D01*
X165938815Y-136321185D01*
X166035506Y-136400537D01*
X166145820Y-136459502D01*
X166265518Y-136495812D01*
X166390000Y-136508072D01*
X168890000Y-136508072D01*
X169014482Y-136495812D01*
X169134180Y-136459502D01*
X169244494Y-136400537D01*
X169341185Y-136321185D01*
X169420537Y-136224494D01*
X169479502Y-136114180D01*
X169515812Y-135994482D01*
X169528072Y-135870000D01*
X169528072Y-135380000D01*
X173065599Y-135380000D01*
X174086601Y-136401003D01*
X174110399Y-136430001D01*
X174226124Y-136524974D01*
X174358153Y-136595546D01*
X174501414Y-136639003D01*
X174613067Y-136650000D01*
X174613076Y-136650000D01*
X174650399Y-136653676D01*
X174687722Y-136650000D01*
X175041928Y-136650000D01*
X175041928Y-136740000D01*
X175054188Y-136864482D01*
X175090498Y-136984180D01*
X175149463Y-137094494D01*
X175228815Y-137191185D01*
X175325506Y-137270537D01*
X175435820Y-137329502D01*
X175555518Y-137365812D01*
X175680000Y-137378072D01*
X177380000Y-137378072D01*
X177504482Y-137365812D01*
X177624180Y-137329502D01*
X177734494Y-137270537D01*
X177831185Y-137191185D01*
X177910537Y-137094494D01*
X177969502Y-136984180D01*
X178005812Y-136864482D01*
X178018072Y-136740000D01*
X178018072Y-136650000D01*
X178851928Y-136650000D01*
X178851928Y-136740000D01*
X178864188Y-136864482D01*
X178900498Y-136984180D01*
X178959463Y-137094494D01*
X179038815Y-137191185D01*
X179135506Y-137270537D01*
X179245820Y-137329502D01*
X179365518Y-137365812D01*
X179490000Y-137378072D01*
X181190000Y-137378072D01*
X181314482Y-137365812D01*
X181434180Y-137329502D01*
X181544494Y-137270537D01*
X181641185Y-137191185D01*
X181720537Y-137094494D01*
X181779502Y-136984180D01*
X181815812Y-136864482D01*
X181828072Y-136740000D01*
X181828072Y-135040000D01*
X181815812Y-134915518D01*
X181779502Y-134795820D01*
X181720537Y-134685506D01*
X181641185Y-134588815D01*
X181544494Y-134509463D01*
X181434180Y-134450498D01*
X181361620Y-134428487D01*
X181493475Y-134296632D01*
X181655990Y-134053411D01*
X181767932Y-133783158D01*
X181825000Y-133496260D01*
X181825000Y-133203740D01*
X181767932Y-132916842D01*
X181655990Y-132646589D01*
X181493475Y-132403368D01*
X181286632Y-132196525D01*
X181112240Y-132080000D01*
X181286632Y-131963475D01*
X181493475Y-131756632D01*
X181655990Y-131513411D01*
X181767932Y-131243158D01*
X181825000Y-130956260D01*
X181825000Y-130663740D01*
X181767932Y-130376842D01*
X181655990Y-130106589D01*
X181493475Y-129863368D01*
X181286632Y-129656525D01*
X181112240Y-129540000D01*
X181286632Y-129423475D01*
X181493475Y-129216632D01*
X181655990Y-128973411D01*
X181767932Y-128703158D01*
X181825000Y-128416260D01*
X181825000Y-128123740D01*
X181767932Y-127836842D01*
X181655990Y-127566589D01*
X181493475Y-127323368D01*
X181286632Y-127116525D01*
X181112240Y-127000000D01*
X181286632Y-126883475D01*
X181493475Y-126676632D01*
X181655990Y-126433411D01*
X181767932Y-126163158D01*
X181825000Y-125876260D01*
X181825000Y-125583740D01*
X181767932Y-125296842D01*
X181655990Y-125026589D01*
X181493475Y-124783368D01*
X181286632Y-124576525D01*
X181112240Y-124460000D01*
X181286632Y-124343475D01*
X181493475Y-124136632D01*
X181655990Y-123893411D01*
X181767932Y-123623158D01*
X181825000Y-123336260D01*
X181825000Y-123043740D01*
X181767932Y-122756842D01*
X181655990Y-122486589D01*
X181493475Y-122243368D01*
X181286632Y-122036525D01*
X181112240Y-121920000D01*
X181286632Y-121803475D01*
X181493475Y-121596632D01*
X181655990Y-121353411D01*
X181767932Y-121083158D01*
X181825000Y-120796260D01*
X181825000Y-120503740D01*
X181767932Y-120216842D01*
X181655990Y-119946589D01*
X181493475Y-119703368D01*
X181286632Y-119496525D01*
X181112240Y-119380000D01*
X181286632Y-119263475D01*
X181493475Y-119056632D01*
X181655990Y-118813411D01*
X181767932Y-118543158D01*
X181825000Y-118256260D01*
X181825000Y-117963740D01*
X181767932Y-117676842D01*
X181655990Y-117406589D01*
X181493475Y-117163368D01*
X181286632Y-116956525D01*
X181043411Y-116794010D01*
X180773158Y-116682068D01*
X180486260Y-116625000D01*
X180193740Y-116625000D01*
X179906842Y-116682068D01*
X179636589Y-116794010D01*
X179393368Y-116956525D01*
X179186525Y-117163368D01*
X179061822Y-117350000D01*
X177808178Y-117350000D01*
X177683475Y-117163368D01*
X177476632Y-116956525D01*
X177233411Y-116794010D01*
X176963158Y-116682068D01*
X176676260Y-116625000D01*
X176383740Y-116625000D01*
X176163592Y-116668790D01*
X175768802Y-116274001D01*
X175745000Y-116244998D01*
X175629275Y-116150025D01*
X175608588Y-116138967D01*
X182965000Y-116138967D01*
X182965000Y-116461033D01*
X183027832Y-116776912D01*
X183151082Y-117074463D01*
X183330013Y-117342252D01*
X183557748Y-117569987D01*
X183557767Y-117570000D01*
X183557748Y-117570013D01*
X183330013Y-117797748D01*
X183151082Y-118065537D01*
X183027832Y-118363088D01*
X182965000Y-118678967D01*
X182965000Y-119001033D01*
X183027832Y-119316912D01*
X183151082Y-119614463D01*
X183330013Y-119882252D01*
X183557748Y-120109987D01*
X183557767Y-120110000D01*
X183557748Y-120110013D01*
X183330013Y-120337748D01*
X183151082Y-120605537D01*
X183027832Y-120903088D01*
X182965000Y-121218967D01*
X182965000Y-121541033D01*
X183027832Y-121856912D01*
X183151082Y-122154463D01*
X183330013Y-122422252D01*
X183557748Y-122649987D01*
X183557767Y-122650000D01*
X183557748Y-122650013D01*
X183330013Y-122877748D01*
X183151082Y-123145537D01*
X183027832Y-123443088D01*
X182965000Y-123758967D01*
X182965000Y-124081033D01*
X183027832Y-124396912D01*
X183151082Y-124694463D01*
X183330013Y-124962252D01*
X183557748Y-125189987D01*
X183557767Y-125190000D01*
X183557748Y-125190013D01*
X183330013Y-125417748D01*
X183151082Y-125685537D01*
X183027832Y-125983088D01*
X182965000Y-126298967D01*
X182965000Y-126621033D01*
X183027832Y-126936912D01*
X183151082Y-127234463D01*
X183330013Y-127502252D01*
X183557748Y-127729987D01*
X183557767Y-127730000D01*
X183557748Y-127730013D01*
X183330013Y-127957748D01*
X183151082Y-128225537D01*
X183027832Y-128523088D01*
X182965000Y-128838967D01*
X182965000Y-129161033D01*
X183027832Y-129476912D01*
X183151082Y-129774463D01*
X183330013Y-130042252D01*
X183557748Y-130269987D01*
X183557767Y-130270000D01*
X183557748Y-130270013D01*
X183330013Y-130497748D01*
X183151082Y-130765537D01*
X183027832Y-131063088D01*
X182965000Y-131378967D01*
X182965000Y-131701033D01*
X183027832Y-132016912D01*
X183151082Y-132314463D01*
X183330013Y-132582252D01*
X183557748Y-132809987D01*
X183557767Y-132810000D01*
X183557748Y-132810013D01*
X183330013Y-133037748D01*
X183151082Y-133305537D01*
X183027832Y-133603088D01*
X182965000Y-133918967D01*
X182965000Y-134241033D01*
X183027832Y-134556912D01*
X183151082Y-134854463D01*
X183330013Y-135122252D01*
X183557748Y-135349987D01*
X183557767Y-135350000D01*
X183557748Y-135350013D01*
X183330013Y-135577748D01*
X183151082Y-135845537D01*
X183027832Y-136143088D01*
X182965000Y-136458967D01*
X182965000Y-136781033D01*
X183027832Y-137096912D01*
X183151082Y-137394463D01*
X183330013Y-137662252D01*
X183557748Y-137889987D01*
X183825537Y-138068918D01*
X184123088Y-138192168D01*
X184438967Y-138255000D01*
X184761033Y-138255000D01*
X185076912Y-138192168D01*
X185374463Y-138068918D01*
X185642252Y-137889987D01*
X185869987Y-137662252D01*
X185870000Y-137662233D01*
X185870013Y-137662252D01*
X186097748Y-137889987D01*
X186365537Y-138068918D01*
X186663088Y-138192168D01*
X186978967Y-138255000D01*
X187301033Y-138255000D01*
X187616912Y-138192168D01*
X187914463Y-138068918D01*
X188182252Y-137889987D01*
X188409987Y-137662252D01*
X188410000Y-137662233D01*
X188410013Y-137662252D01*
X188637748Y-137889987D01*
X188905537Y-138068918D01*
X189203088Y-138192168D01*
X189518967Y-138255000D01*
X189841033Y-138255000D01*
X190156912Y-138192168D01*
X190454463Y-138068918D01*
X190722252Y-137889987D01*
X190949987Y-137662252D01*
X190950000Y-137662233D01*
X190950013Y-137662252D01*
X191177748Y-137889987D01*
X191445537Y-138068918D01*
X191743088Y-138192168D01*
X192058967Y-138255000D01*
X192381033Y-138255000D01*
X192696912Y-138192168D01*
X192994463Y-138068918D01*
X193262252Y-137889987D01*
X193489987Y-137662252D01*
X193490000Y-137662233D01*
X193490013Y-137662252D01*
X193717748Y-137889987D01*
X193985537Y-138068918D01*
X194283088Y-138192168D01*
X194598967Y-138255000D01*
X194921033Y-138255000D01*
X195236912Y-138192168D01*
X195534463Y-138068918D01*
X195802252Y-137889987D01*
X196029987Y-137662252D01*
X196030000Y-137662233D01*
X196030013Y-137662252D01*
X196257748Y-137889987D01*
X196525537Y-138068918D01*
X196823088Y-138192168D01*
X197138967Y-138255000D01*
X197461033Y-138255000D01*
X197776912Y-138192168D01*
X198074463Y-138068918D01*
X198342252Y-137889987D01*
X198569987Y-137662252D01*
X198570000Y-137662233D01*
X198570013Y-137662252D01*
X198797748Y-137889987D01*
X199065537Y-138068918D01*
X199363088Y-138192168D01*
X199678967Y-138255000D01*
X200001033Y-138255000D01*
X200316912Y-138192168D01*
X200614463Y-138068918D01*
X200882252Y-137889987D01*
X201109987Y-137662252D01*
X201288918Y-137394463D01*
X201412168Y-137096912D01*
X201475000Y-136781033D01*
X201475000Y-136458967D01*
X201412168Y-136143088D01*
X201288918Y-135845537D01*
X201109987Y-135577748D01*
X200882252Y-135350013D01*
X200882233Y-135350000D01*
X200882252Y-135349987D01*
X201109987Y-135122252D01*
X201288918Y-134854463D01*
X201412168Y-134556912D01*
X201475000Y-134241033D01*
X201475000Y-133918967D01*
X201412168Y-133603088D01*
X201288918Y-133305537D01*
X201109987Y-133037748D01*
X200882252Y-132810013D01*
X200882233Y-132810000D01*
X200882252Y-132809987D01*
X201109987Y-132582252D01*
X201288918Y-132314463D01*
X201412168Y-132016912D01*
X201475000Y-131701033D01*
X201475000Y-131378967D01*
X201412168Y-131063088D01*
X201288918Y-130765537D01*
X201109987Y-130497748D01*
X200882252Y-130270013D01*
X200882233Y-130270000D01*
X200882252Y-130269987D01*
X201109987Y-130042252D01*
X201288918Y-129774463D01*
X201412168Y-129476912D01*
X201475000Y-129161033D01*
X201475000Y-128838967D01*
X201412168Y-128523088D01*
X201288918Y-128225537D01*
X201109987Y-127957748D01*
X200882252Y-127730013D01*
X200882233Y-127730000D01*
X200882252Y-127729987D01*
X201109987Y-127502252D01*
X201288918Y-127234463D01*
X201412168Y-126936912D01*
X201475000Y-126621033D01*
X201475000Y-126298967D01*
X201412168Y-125983088D01*
X201288918Y-125685537D01*
X201109987Y-125417748D01*
X200882252Y-125190013D01*
X200882233Y-125190000D01*
X200882252Y-125189987D01*
X201109987Y-124962252D01*
X201288918Y-124694463D01*
X201412168Y-124396912D01*
X201475000Y-124081033D01*
X201475000Y-123758967D01*
X201412168Y-123443088D01*
X201288918Y-123145537D01*
X201109987Y-122877748D01*
X200882252Y-122650013D01*
X200882233Y-122650000D01*
X200882252Y-122649987D01*
X201109987Y-122422252D01*
X201288918Y-122154463D01*
X201412168Y-121856912D01*
X201475000Y-121541033D01*
X201475000Y-121218967D01*
X201412168Y-120903088D01*
X201288918Y-120605537D01*
X201109987Y-120337748D01*
X200882252Y-120110013D01*
X200882233Y-120110000D01*
X200882252Y-120109987D01*
X201109987Y-119882252D01*
X201288918Y-119614463D01*
X201412168Y-119316912D01*
X201475000Y-119001033D01*
X201475000Y-118678967D01*
X201412168Y-118363088D01*
X201288918Y-118065537D01*
X201109987Y-117797748D01*
X200882252Y-117570013D01*
X200882233Y-117570000D01*
X200882252Y-117569987D01*
X201109987Y-117342252D01*
X201164946Y-117260000D01*
X202981928Y-117260000D01*
X202981928Y-118960000D01*
X202994188Y-119084482D01*
X203030498Y-119204180D01*
X203089463Y-119314494D01*
X203168815Y-119411185D01*
X203265506Y-119490537D01*
X203375820Y-119549502D01*
X203448380Y-119571513D01*
X203316525Y-119703368D01*
X203154010Y-119946589D01*
X203042068Y-120216842D01*
X202985000Y-120503740D01*
X202985000Y-120796260D01*
X203042068Y-121083158D01*
X203154010Y-121353411D01*
X203316525Y-121596632D01*
X203523368Y-121803475D01*
X203697760Y-121920000D01*
X203523368Y-122036525D01*
X203316525Y-122243368D01*
X203154010Y-122486589D01*
X203042068Y-122756842D01*
X202985000Y-123043740D01*
X202985000Y-123336260D01*
X203042068Y-123623158D01*
X203154010Y-123893411D01*
X203316525Y-124136632D01*
X203523368Y-124343475D01*
X203697760Y-124460000D01*
X203523368Y-124576525D01*
X203316525Y-124783368D01*
X203154010Y-125026589D01*
X203042068Y-125296842D01*
X202985000Y-125583740D01*
X202985000Y-125876260D01*
X203042068Y-126163158D01*
X203154010Y-126433411D01*
X203316525Y-126676632D01*
X203523368Y-126883475D01*
X203697760Y-127000000D01*
X203523368Y-127116525D01*
X203316525Y-127323368D01*
X203154010Y-127566589D01*
X203042068Y-127836842D01*
X202985000Y-128123740D01*
X202985000Y-128416260D01*
X203042068Y-128703158D01*
X203154010Y-128973411D01*
X203316525Y-129216632D01*
X203523368Y-129423475D01*
X203697760Y-129540000D01*
X203523368Y-129656525D01*
X203316525Y-129863368D01*
X203154010Y-130106589D01*
X203042068Y-130376842D01*
X202985000Y-130663740D01*
X202985000Y-130956260D01*
X203042068Y-131243158D01*
X203154010Y-131513411D01*
X203316525Y-131756632D01*
X203523368Y-131963475D01*
X203697760Y-132080000D01*
X203523368Y-132196525D01*
X203316525Y-132403368D01*
X203154010Y-132646589D01*
X203042068Y-132916842D01*
X202985000Y-133203740D01*
X202985000Y-133496260D01*
X203042068Y-133783158D01*
X203154010Y-134053411D01*
X203316525Y-134296632D01*
X203523368Y-134503475D01*
X203697760Y-134620000D01*
X203523368Y-134736525D01*
X203316525Y-134943368D01*
X203154010Y-135186589D01*
X203042068Y-135456842D01*
X202985000Y-135743740D01*
X202985000Y-136036260D01*
X203042068Y-136323158D01*
X203154010Y-136593411D01*
X203316525Y-136836632D01*
X203523368Y-137043475D01*
X203766589Y-137205990D01*
X204036842Y-137317932D01*
X204323740Y-137375000D01*
X204616260Y-137375000D01*
X204903158Y-137317932D01*
X205173411Y-137205990D01*
X205416632Y-137043475D01*
X205623475Y-136836632D01*
X205748178Y-136650000D01*
X207001822Y-136650000D01*
X207126525Y-136836632D01*
X207333368Y-137043475D01*
X207576589Y-137205990D01*
X207846842Y-137317932D01*
X208133740Y-137375000D01*
X208426260Y-137375000D01*
X208713158Y-137317932D01*
X208983411Y-137205990D01*
X209226632Y-137043475D01*
X209433475Y-136836632D01*
X209558178Y-136650000D01*
X214592678Y-136650000D01*
X214630000Y-136653676D01*
X214667322Y-136650000D01*
X214667333Y-136650000D01*
X214778986Y-136639003D01*
X214922247Y-136595546D01*
X215054276Y-136524974D01*
X215170001Y-136430001D01*
X215193804Y-136400997D01*
X215217282Y-136377519D01*
X215350166Y-136432561D01*
X215714344Y-136505000D01*
X216085656Y-136505000D01*
X216449834Y-136432561D01*
X216792882Y-136290466D01*
X217101618Y-136084175D01*
X217364175Y-135821618D01*
X217570466Y-135512882D01*
X217712561Y-135169834D01*
X217785000Y-134805656D01*
X217785000Y-134434344D01*
X217712561Y-134070166D01*
X217570466Y-133727118D01*
X217364175Y-133418382D01*
X217101618Y-133155825D01*
X216792882Y-132949534D01*
X216449834Y-132807439D01*
X216085656Y-132735000D01*
X215714344Y-132735000D01*
X215350166Y-132807439D01*
X215007118Y-132949534D01*
X214698382Y-133155825D01*
X214435825Y-133418382D01*
X214229534Y-133727118D01*
X214087439Y-134070166D01*
X214015000Y-134434344D01*
X214015000Y-134805656D01*
X214079516Y-135130000D01*
X209558178Y-135130000D01*
X209433475Y-134943368D01*
X209226632Y-134736525D01*
X209052240Y-134620000D01*
X209226632Y-134503475D01*
X209433475Y-134296632D01*
X209558178Y-134110000D01*
X212052678Y-134110000D01*
X212090000Y-134113676D01*
X212127322Y-134110000D01*
X212127333Y-134110000D01*
X212238986Y-134099003D01*
X212382247Y-134055546D01*
X212514276Y-133984974D01*
X212630001Y-133890001D01*
X212653804Y-133860997D01*
X215217283Y-131297519D01*
X215350166Y-131352561D01*
X215714344Y-131425000D01*
X216085656Y-131425000D01*
X216449834Y-131352561D01*
X216792882Y-131210466D01*
X217101618Y-131004175D01*
X217364175Y-130741618D01*
X217570466Y-130432882D01*
X217712561Y-130089834D01*
X217785000Y-129725656D01*
X217785000Y-129354344D01*
X217712561Y-128990166D01*
X217570466Y-128647118D01*
X217364175Y-128338382D01*
X217101618Y-128075825D01*
X216792882Y-127869534D01*
X216449834Y-127727439D01*
X216085656Y-127655000D01*
X215761002Y-127655000D01*
X216411004Y-127004998D01*
X216440001Y-126981201D01*
X216534974Y-126865476D01*
X216605546Y-126733447D01*
X216649003Y-126590186D01*
X216660000Y-126478533D01*
X216660000Y-126478524D01*
X216663676Y-126441201D01*
X216660000Y-126403878D01*
X216660000Y-126185507D01*
X216792882Y-126130466D01*
X217101618Y-125924175D01*
X217364175Y-125661618D01*
X217570466Y-125352882D01*
X217712561Y-125009834D01*
X217785000Y-124645656D01*
X217785000Y-124274344D01*
X217712561Y-123910166D01*
X217570466Y-123567118D01*
X217364175Y-123258382D01*
X217101618Y-122995825D01*
X216792882Y-122789534D01*
X216449834Y-122647439D01*
X216085656Y-122575000D01*
X215714344Y-122575000D01*
X215350166Y-122647439D01*
X215007118Y-122789534D01*
X214698382Y-122995825D01*
X214435825Y-123258382D01*
X214374000Y-123350910D01*
X214374000Y-121980801D01*
X215217283Y-121137519D01*
X215350166Y-121192561D01*
X215714344Y-121265000D01*
X216085656Y-121265000D01*
X216449834Y-121192561D01*
X216792882Y-121050466D01*
X217101618Y-120844175D01*
X217364175Y-120581618D01*
X217570466Y-120272882D01*
X217712561Y-119929834D01*
X217785000Y-119565656D01*
X217785000Y-119194344D01*
X217712561Y-118830166D01*
X217570466Y-118487118D01*
X217364175Y-118178382D01*
X217101618Y-117915825D01*
X216792882Y-117709534D01*
X216449834Y-117567439D01*
X216085656Y-117495000D01*
X215714344Y-117495000D01*
X215506157Y-117536411D01*
X216411004Y-116631564D01*
X216440001Y-116607767D01*
X216534974Y-116492042D01*
X216605546Y-116360013D01*
X216649003Y-116216752D01*
X216660000Y-116105099D01*
X216660000Y-116105091D01*
X216663676Y-116067766D01*
X216660000Y-116030441D01*
X216660000Y-116025507D01*
X216792882Y-115970466D01*
X217101618Y-115764175D01*
X217364175Y-115501618D01*
X217570466Y-115192882D01*
X217712561Y-114849834D01*
X217785000Y-114485656D01*
X217785000Y-114114344D01*
X217712561Y-113750166D01*
X217570466Y-113407118D01*
X217364175Y-113098382D01*
X217101618Y-112835825D01*
X216792882Y-112629534D01*
X216449834Y-112487439D01*
X216085656Y-112415000D01*
X215714344Y-112415000D01*
X215350166Y-112487439D01*
X215007118Y-112629534D01*
X214722411Y-112819769D01*
X214722411Y-111472390D01*
X215217282Y-110977519D01*
X215350166Y-111032561D01*
X215714344Y-111105000D01*
X216085656Y-111105000D01*
X216449834Y-111032561D01*
X216792882Y-110890466D01*
X217101618Y-110684175D01*
X217364175Y-110421618D01*
X217570466Y-110112882D01*
X217712561Y-109769834D01*
X217785000Y-109405656D01*
X217785000Y-109034344D01*
X217712561Y-108670166D01*
X217570466Y-108327118D01*
X217364175Y-108018382D01*
X217101618Y-107755825D01*
X216792882Y-107549534D01*
X216449834Y-107407439D01*
X216085656Y-107335000D01*
X215714344Y-107335000D01*
X215350166Y-107407439D01*
X215007118Y-107549534D01*
X214698382Y-107755825D01*
X214435825Y-108018382D01*
X214272400Y-108262965D01*
X214272400Y-106842401D01*
X215217283Y-105897519D01*
X215350166Y-105952561D01*
X215714344Y-106025000D01*
X216085656Y-106025000D01*
X216449834Y-105952561D01*
X216792882Y-105810466D01*
X217101618Y-105604175D01*
X217364175Y-105341618D01*
X217570466Y-105032882D01*
X217712561Y-104689834D01*
X217785000Y-104325656D01*
X217785000Y-103954344D01*
X217712561Y-103590166D01*
X217570466Y-103247118D01*
X217364175Y-102938382D01*
X217101618Y-102675825D01*
X216792882Y-102469534D01*
X216449834Y-102327439D01*
X216085656Y-102255000D01*
X215714344Y-102255000D01*
X215350166Y-102327439D01*
X215007118Y-102469534D01*
X214698382Y-102675825D01*
X214435825Y-102938382D01*
X214229534Y-103247118D01*
X214087439Y-103590166D01*
X214015000Y-103954344D01*
X214015000Y-104325656D01*
X214087439Y-104689834D01*
X214142481Y-104822717D01*
X213510400Y-105454799D01*
X213510400Y-102524401D01*
X215086730Y-100948072D01*
X217150000Y-100948072D01*
X217274482Y-100935812D01*
X217394180Y-100899502D01*
X217504494Y-100840537D01*
X217601185Y-100761185D01*
X217680537Y-100664494D01*
X217739502Y-100554180D01*
X217775812Y-100434482D01*
X217788072Y-100310000D01*
X217788072Y-97810000D01*
X217775812Y-97685518D01*
X217739502Y-97565820D01*
X217680537Y-97455506D01*
X217601185Y-97358815D01*
X217504494Y-97279463D01*
X217394180Y-97220498D01*
X217274482Y-97184188D01*
X217150000Y-97171928D01*
X214650000Y-97171928D01*
X214525518Y-97184188D01*
X214405820Y-97220498D01*
X214295506Y-97279463D01*
X214198815Y-97358815D01*
X214119463Y-97455506D01*
X214060498Y-97565820D01*
X214024188Y-97685518D01*
X214011928Y-97810000D01*
X214011928Y-99873270D01*
X212239398Y-101645801D01*
X212210400Y-101669599D01*
X212186602Y-101698597D01*
X212186601Y-101698598D01*
X212115426Y-101785324D01*
X212044854Y-101917354D01*
X212001398Y-102060615D01*
X211986724Y-102209600D01*
X211990401Y-102246932D01*
X211990400Y-116321997D01*
X210962399Y-117350000D01*
X209768072Y-117350000D01*
X209768072Y-117260000D01*
X209755812Y-117135518D01*
X209719502Y-117015820D01*
X209660537Y-116905506D01*
X209581185Y-116808815D01*
X209484494Y-116729463D01*
X209374180Y-116670498D01*
X209254482Y-116634188D01*
X209130000Y-116621928D01*
X207430000Y-116621928D01*
X207305518Y-116634188D01*
X207185820Y-116670498D01*
X207075506Y-116729463D01*
X206978815Y-116808815D01*
X206899463Y-116905506D01*
X206840498Y-117015820D01*
X206804188Y-117135518D01*
X206791928Y-117260000D01*
X206791928Y-117350000D01*
X205958072Y-117350000D01*
X205958072Y-117260000D01*
X205945812Y-117135518D01*
X205909502Y-117015820D01*
X205850537Y-116905506D01*
X205771185Y-116808815D01*
X205674494Y-116729463D01*
X205564180Y-116670498D01*
X205444482Y-116634188D01*
X205320000Y-116621928D01*
X203620000Y-116621928D01*
X203495518Y-116634188D01*
X203375820Y-116670498D01*
X203265506Y-116729463D01*
X203168815Y-116808815D01*
X203089463Y-116905506D01*
X203030498Y-117015820D01*
X202994188Y-117135518D01*
X202981928Y-117260000D01*
X201164946Y-117260000D01*
X201288918Y-117074463D01*
X201412168Y-116776912D01*
X201475000Y-116461033D01*
X201475000Y-116138967D01*
X201412168Y-115823088D01*
X201288918Y-115525537D01*
X201109987Y-115257748D01*
X200882252Y-115030013D01*
X200614463Y-114851082D01*
X200316912Y-114727832D01*
X200001033Y-114665000D01*
X199678967Y-114665000D01*
X199363088Y-114727832D01*
X199065537Y-114851082D01*
X198797748Y-115030013D01*
X198570013Y-115257748D01*
X198570000Y-115257767D01*
X198569987Y-115257748D01*
X198342252Y-115030013D01*
X198074463Y-114851082D01*
X197776912Y-114727832D01*
X197461033Y-114665000D01*
X197138967Y-114665000D01*
X196823088Y-114727832D01*
X196525537Y-114851082D01*
X196257748Y-115030013D01*
X196030013Y-115257748D01*
X196030000Y-115257767D01*
X196029987Y-115257748D01*
X195802252Y-115030013D01*
X195534463Y-114851082D01*
X195236912Y-114727832D01*
X194921033Y-114665000D01*
X194598967Y-114665000D01*
X194283088Y-114727832D01*
X193985537Y-114851082D01*
X193717748Y-115030013D01*
X193490013Y-115257748D01*
X193490000Y-115257767D01*
X193489987Y-115257748D01*
X193262252Y-115030013D01*
X192994463Y-114851082D01*
X192696912Y-114727832D01*
X192381033Y-114665000D01*
X192058967Y-114665000D01*
X191743088Y-114727832D01*
X191445537Y-114851082D01*
X191177748Y-115030013D01*
X190950013Y-115257748D01*
X190950000Y-115257767D01*
X190949987Y-115257748D01*
X190722252Y-115030013D01*
X190454463Y-114851082D01*
X190156912Y-114727832D01*
X189841033Y-114665000D01*
X189518967Y-114665000D01*
X189203088Y-114727832D01*
X188905537Y-114851082D01*
X188637748Y-115030013D01*
X188410013Y-115257748D01*
X188410000Y-115257767D01*
X188409987Y-115257748D01*
X188182252Y-115030013D01*
X187914463Y-114851082D01*
X187616912Y-114727832D01*
X187301033Y-114665000D01*
X186978967Y-114665000D01*
X186663088Y-114727832D01*
X186365537Y-114851082D01*
X186097748Y-115030013D01*
X185870013Y-115257748D01*
X185870000Y-115257767D01*
X185869987Y-115257748D01*
X185642252Y-115030013D01*
X185374463Y-114851082D01*
X185076912Y-114727832D01*
X184761033Y-114665000D01*
X184438967Y-114665000D01*
X184123088Y-114727832D01*
X183825537Y-114851082D01*
X183557748Y-115030013D01*
X183330013Y-115257748D01*
X183151082Y-115525537D01*
X183027832Y-115823088D01*
X182965000Y-116138967D01*
X175608588Y-116138967D01*
X175497246Y-116079453D01*
X175353985Y-116035996D01*
X175242332Y-116024999D01*
X175242321Y-116024999D01*
X175204999Y-116021323D01*
X175167677Y-116024999D01*
X174757801Y-116024999D01*
X174191200Y-115458399D01*
X174191200Y-112254522D01*
X174194876Y-112217199D01*
X174191200Y-112179876D01*
X174191200Y-112179867D01*
X174180203Y-112068214D01*
X174136746Y-111924953D01*
X174066174Y-111792924D01*
X174039165Y-111760013D01*
X173994999Y-111706196D01*
X173994995Y-111706192D01*
X173971201Y-111677199D01*
X173942208Y-111653405D01*
X172667200Y-110378399D01*
X172667200Y-103364522D01*
X172670876Y-103327199D01*
X172667200Y-103289876D01*
X172667200Y-103289867D01*
X172656203Y-103178214D01*
X172612746Y-103034953D01*
X172610651Y-103031033D01*
X172542174Y-102902923D01*
X172470999Y-102816197D01*
X172447201Y-102787199D01*
X172418203Y-102763401D01*
X169397519Y-99742718D01*
X169452561Y-99609834D01*
X169525000Y-99245656D01*
X169525000Y-98874344D01*
X169452561Y-98510166D01*
X169310466Y-98167118D01*
X169104175Y-97858382D01*
X168841618Y-97595825D01*
X168532882Y-97389534D01*
X168189834Y-97247439D01*
X167825656Y-97175000D01*
X167454344Y-97175000D01*
X167090166Y-97247439D01*
X166747118Y-97389534D01*
X166438382Y-97595825D01*
X166175825Y-97858382D01*
X165969534Y-98167118D01*
X165827439Y-98510166D01*
X165755000Y-98874344D01*
X165755000Y-99245656D01*
X165827439Y-99609834D01*
X165969534Y-99952882D01*
X166175825Y-100261618D01*
X166438382Y-100524175D01*
X166747118Y-100730466D01*
X167090166Y-100872561D01*
X167454344Y-100945000D01*
X167825656Y-100945000D01*
X168189834Y-100872561D01*
X168322718Y-100817519D01*
X171147201Y-103642003D01*
X171147201Y-106572398D01*
X169397519Y-104822717D01*
X169452561Y-104689834D01*
X169525000Y-104325656D01*
X169525000Y-103954344D01*
X169452561Y-103590166D01*
X169310466Y-103247118D01*
X169104175Y-102938382D01*
X168841618Y-102675825D01*
X168532882Y-102469534D01*
X168189834Y-102327439D01*
X167825656Y-102255000D01*
X167454344Y-102255000D01*
X167090166Y-102327439D01*
X166747118Y-102469534D01*
X166438382Y-102675825D01*
X166175825Y-102938382D01*
X165969534Y-103247118D01*
X165827439Y-103590166D01*
X165755000Y-103954344D01*
X165755000Y-104325656D01*
X165827439Y-104689834D01*
X165969534Y-105032882D01*
X166175825Y-105341618D01*
X166438382Y-105604175D01*
X166747118Y-105810466D01*
X167090166Y-105952561D01*
X167454344Y-106025000D01*
X167825656Y-106025000D01*
X168189834Y-105952561D01*
X168322717Y-105897519D01*
X170697190Y-108271993D01*
X170697189Y-110842277D01*
X170693513Y-110879600D01*
X170697189Y-110916922D01*
X170697189Y-110916932D01*
X170708186Y-111028585D01*
X170735994Y-111120256D01*
X170751643Y-111171846D01*
X170822215Y-111303876D01*
X170842156Y-111328174D01*
X170917188Y-111419601D01*
X170946192Y-111443404D01*
X172017990Y-112515203D01*
X172017990Y-112523188D01*
X169397519Y-109902718D01*
X169452561Y-109769834D01*
X169525000Y-109405656D01*
X169525000Y-109034344D01*
X169452561Y-108670166D01*
X169310466Y-108327118D01*
X169104175Y-108018382D01*
X168841618Y-107755825D01*
X168532882Y-107549534D01*
X168189834Y-107407439D01*
X167825656Y-107335000D01*
X167454344Y-107335000D01*
X167090166Y-107407439D01*
X166747118Y-107549534D01*
X166438382Y-107755825D01*
X166175825Y-108018382D01*
X165969534Y-108327118D01*
X165827439Y-108670166D01*
X165755000Y-109034344D01*
X165755000Y-109405656D01*
X165827439Y-109769834D01*
X165969534Y-110112882D01*
X166175825Y-110421618D01*
X166438382Y-110684175D01*
X166747118Y-110890466D01*
X167090166Y-111032561D01*
X167454344Y-111105000D01*
X167825656Y-111105000D01*
X168189834Y-111032561D01*
X168322718Y-110977519D01*
X171553601Y-114208403D01*
X171553600Y-118936277D01*
X171549924Y-118973600D01*
X171553600Y-119010922D01*
X171553600Y-119010932D01*
X171564597Y-119122585D01*
X171600261Y-119240154D01*
X171608054Y-119265846D01*
X171678626Y-119397876D01*
X171689549Y-119411185D01*
X171773599Y-119513601D01*
X171802603Y-119537404D01*
X175088790Y-122823592D01*
X175045000Y-123043740D01*
X175045000Y-123170198D01*
X171092400Y-119217599D01*
X171092400Y-117029732D01*
X171096077Y-116992400D01*
X171081403Y-116843414D01*
X171037946Y-116700153D01*
X170967374Y-116568124D01*
X170896199Y-116481397D01*
X170872401Y-116452399D01*
X170843403Y-116428601D01*
X169397519Y-114982717D01*
X169452561Y-114849834D01*
X169525000Y-114485656D01*
X169525000Y-114114344D01*
X169452561Y-113750166D01*
X169310466Y-113407118D01*
X169104175Y-113098382D01*
X168841618Y-112835825D01*
X168532882Y-112629534D01*
X168189834Y-112487439D01*
X167825656Y-112415000D01*
X167454344Y-112415000D01*
X167090166Y-112487439D01*
X166747118Y-112629534D01*
X166438382Y-112835825D01*
X166175825Y-113098382D01*
X165969534Y-113407118D01*
X165827439Y-113750166D01*
X165755000Y-114114344D01*
X165755000Y-114485656D01*
X165827439Y-114849834D01*
X165969534Y-115192882D01*
X166175825Y-115501618D01*
X166438382Y-115764175D01*
X166747118Y-115970466D01*
X167090166Y-116112561D01*
X167454344Y-116185000D01*
X167825656Y-116185000D01*
X168189834Y-116112561D01*
X168322717Y-116057519D01*
X169572401Y-117307203D01*
X169572400Y-119495077D01*
X169568724Y-119532400D01*
X169572400Y-119569722D01*
X169572400Y-119569732D01*
X169583397Y-119681385D01*
X169620675Y-119804276D01*
X169626854Y-119824646D01*
X169697426Y-119956676D01*
X169715424Y-119978606D01*
X169792399Y-120072401D01*
X169821403Y-120096204D01*
X175088790Y-125363592D01*
X175045000Y-125583740D01*
X175045000Y-125710198D01*
X169397519Y-120062718D01*
X169452561Y-119929834D01*
X169525000Y-119565656D01*
X169525000Y-119194344D01*
X169452561Y-118830166D01*
X169310466Y-118487118D01*
X169104175Y-118178382D01*
X168841618Y-117915825D01*
X168532882Y-117709534D01*
X168189834Y-117567439D01*
X167825656Y-117495000D01*
X167454344Y-117495000D01*
X167090166Y-117567439D01*
X166747118Y-117709534D01*
X166438382Y-117915825D01*
X166175825Y-118178382D01*
X165969534Y-118487118D01*
X165827439Y-118830166D01*
X165755000Y-119194344D01*
X165755000Y-119565656D01*
X165827439Y-119929834D01*
X165969534Y-120272882D01*
X166175825Y-120581618D01*
X166438382Y-120844175D01*
X166747118Y-121050466D01*
X167090166Y-121192561D01*
X167454344Y-121265000D01*
X167825656Y-121265000D01*
X168189834Y-121192561D01*
X168322718Y-121137519D01*
X175088790Y-127903592D01*
X175045000Y-128123740D01*
X175045000Y-128416260D01*
X175102068Y-128703158D01*
X175214010Y-128973411D01*
X175376525Y-129216632D01*
X175583368Y-129423475D01*
X175757760Y-129540000D01*
X175583368Y-129656525D01*
X175376525Y-129863368D01*
X175251822Y-130050000D01*
X174304802Y-130050000D01*
X169397519Y-125142718D01*
X169452561Y-125009834D01*
X169525000Y-124645656D01*
X169525000Y-124274344D01*
X169452561Y-123910166D01*
X169310466Y-123567118D01*
X169104175Y-123258382D01*
X168841618Y-122995825D01*
X168532882Y-122789534D01*
X168189834Y-122647439D01*
X167825656Y-122575000D01*
X167454344Y-122575000D01*
X167090166Y-122647439D01*
X166747118Y-122789534D01*
X166438382Y-122995825D01*
X166175825Y-123258382D01*
X165969534Y-123567118D01*
X165827439Y-123910166D01*
X165755000Y-124274344D01*
X165755000Y-124645656D01*
X165827439Y-125009834D01*
X165969534Y-125352882D01*
X166175825Y-125661618D01*
X166438382Y-125924175D01*
X166747118Y-126130466D01*
X167090166Y-126272561D01*
X167454344Y-126345000D01*
X167825656Y-126345000D01*
X168189834Y-126272561D01*
X168322718Y-126217519D01*
X173426201Y-131321003D01*
X173449999Y-131350001D01*
X173478997Y-131373799D01*
X173565723Y-131444974D01*
X173693759Y-131513411D01*
X173697753Y-131515546D01*
X173841014Y-131559003D01*
X173952667Y-131570000D01*
X173952676Y-131570000D01*
X173989999Y-131573676D01*
X174027322Y-131570000D01*
X175251822Y-131570000D01*
X175376525Y-131756632D01*
X175583368Y-131963475D01*
X175757760Y-132080000D01*
X175583368Y-132196525D01*
X175376525Y-132403368D01*
X175251822Y-132590000D01*
X171764802Y-132590000D01*
X169397519Y-130222718D01*
X169452561Y-130089834D01*
X169525000Y-129725656D01*
X169525000Y-129354344D01*
X169452561Y-128990166D01*
X169310466Y-128647118D01*
X169104175Y-128338382D01*
X168841618Y-128075825D01*
X168532882Y-127869534D01*
X168189834Y-127727439D01*
X167825656Y-127655000D01*
X167454344Y-127655000D01*
X167090166Y-127727439D01*
X166747118Y-127869534D01*
X166438382Y-128075825D01*
X166175825Y-128338382D01*
X165969534Y-128647118D01*
X165827439Y-128990166D01*
X165755000Y-129354344D01*
X165755000Y-129725656D01*
X165827439Y-130089834D01*
X165969534Y-130432882D01*
X166175825Y-130741618D01*
X166438382Y-131004175D01*
X166747118Y-131210466D01*
X167090166Y-131352561D01*
X167454344Y-131425000D01*
X167825656Y-131425000D01*
X168189834Y-131352561D01*
X168322718Y-131297519D01*
X170885198Y-133860000D01*
X169528072Y-133860000D01*
X169528072Y-133370000D01*
X169515812Y-133245518D01*
X169479502Y-133125820D01*
X169420537Y-133015506D01*
X169341185Y-132918815D01*
X169244494Y-132839463D01*
X169134180Y-132780498D01*
X169014482Y-132744188D01*
X168890000Y-132731928D01*
X166390000Y-132731928D01*
X166265518Y-132744188D01*
X166145820Y-132780498D01*
X166035506Y-132839463D01*
X165938815Y-132918815D01*
X165859463Y-133015506D01*
X165800498Y-133125820D01*
X165764188Y-133245518D01*
X165751928Y-133370000D01*
X160705000Y-133370000D01*
X160705000Y-90190000D01*
X165751928Y-90190000D01*
X165751928Y-92690000D01*
X165764188Y-92814482D01*
X165800498Y-92934180D01*
X165859463Y-93044494D01*
X165938815Y-93141185D01*
X166035506Y-93220537D01*
X166145820Y-93279502D01*
X166265518Y-93315812D01*
X166390000Y-93328072D01*
X168890000Y-93328072D01*
X169014482Y-93315812D01*
X169134180Y-93279502D01*
X169244494Y-93220537D01*
X169341185Y-93141185D01*
X169420537Y-93044494D01*
X169479502Y-92934180D01*
X169515812Y-92814482D01*
X169528072Y-92690000D01*
X169528072Y-92200000D01*
X170142678Y-92200000D01*
X170180000Y-92203676D01*
X170217322Y-92200000D01*
X170217333Y-92200000D01*
X170328986Y-92189003D01*
X170472247Y-92145546D01*
X170604276Y-92074974D01*
X170720001Y-91980001D01*
X170743804Y-91950997D01*
X172685834Y-90008967D01*
X174895000Y-90008967D01*
X174895000Y-90331033D01*
X174957832Y-90646912D01*
X175081082Y-90944463D01*
X175260013Y-91212252D01*
X175487748Y-91439987D01*
X175487767Y-91440000D01*
X175487748Y-91440013D01*
X175260013Y-91667748D01*
X175081082Y-91935537D01*
X174957832Y-92233088D01*
X174895000Y-92548967D01*
X174895000Y-92871033D01*
X174957832Y-93186912D01*
X175081082Y-93484463D01*
X175260013Y-93752252D01*
X175487748Y-93979987D01*
X175487767Y-93980000D01*
X175487748Y-93980013D01*
X175260013Y-94207748D01*
X175081082Y-94475537D01*
X174957832Y-94773088D01*
X174895000Y-95088967D01*
X174895000Y-95411033D01*
X174957832Y-95726912D01*
X175081082Y-96024463D01*
X175260013Y-96292252D01*
X175487748Y-96519987D01*
X175487767Y-96520000D01*
X175487748Y-96520013D01*
X175260013Y-96747748D01*
X175081082Y-97015537D01*
X174957832Y-97313088D01*
X174895000Y-97628967D01*
X174895000Y-97951033D01*
X174957832Y-98266912D01*
X175081082Y-98564463D01*
X175260013Y-98832252D01*
X175487748Y-99059987D01*
X175487767Y-99060000D01*
X175487748Y-99060013D01*
X175260013Y-99287748D01*
X175081082Y-99555537D01*
X174957832Y-99853088D01*
X174895000Y-100168967D01*
X174895000Y-100491033D01*
X174957832Y-100806912D01*
X175081082Y-101104463D01*
X175260013Y-101372252D01*
X175487748Y-101599987D01*
X175487767Y-101600000D01*
X175487748Y-101600013D01*
X175260013Y-101827748D01*
X175081082Y-102095537D01*
X174957832Y-102393088D01*
X174895000Y-102708967D01*
X174895000Y-103031033D01*
X174957832Y-103346912D01*
X175081082Y-103644463D01*
X175260013Y-103912252D01*
X175487748Y-104139987D01*
X175487767Y-104140000D01*
X175487748Y-104140013D01*
X175260013Y-104367748D01*
X175081082Y-104635537D01*
X174957832Y-104933088D01*
X174895000Y-105248967D01*
X174895000Y-105571033D01*
X174957832Y-105886912D01*
X175081082Y-106184463D01*
X175260013Y-106452252D01*
X175487748Y-106679987D01*
X175487767Y-106680000D01*
X175487748Y-106680013D01*
X175260013Y-106907748D01*
X175081082Y-107175537D01*
X174957832Y-107473088D01*
X174895000Y-107788967D01*
X174895000Y-108111033D01*
X174957832Y-108426912D01*
X175081082Y-108724463D01*
X175260013Y-108992252D01*
X175487748Y-109219987D01*
X175487767Y-109220000D01*
X175487748Y-109220013D01*
X175260013Y-109447748D01*
X175081082Y-109715537D01*
X174957832Y-110013088D01*
X174895000Y-110328967D01*
X174895000Y-110651033D01*
X174957832Y-110966912D01*
X175081082Y-111264463D01*
X175260013Y-111532252D01*
X175487748Y-111759987D01*
X175487767Y-111760000D01*
X175487748Y-111760013D01*
X175260013Y-111987748D01*
X175081082Y-112255537D01*
X174957832Y-112553088D01*
X174895000Y-112868967D01*
X174895000Y-113191033D01*
X174957832Y-113506912D01*
X175081082Y-113804463D01*
X175260013Y-114072252D01*
X175487748Y-114299987D01*
X175755537Y-114478918D01*
X176053088Y-114602168D01*
X176368967Y-114665000D01*
X176691033Y-114665000D01*
X177006912Y-114602168D01*
X177304463Y-114478918D01*
X177572252Y-114299987D01*
X177799987Y-114072252D01*
X177800000Y-114072233D01*
X177800013Y-114072252D01*
X178027748Y-114299987D01*
X178295537Y-114478918D01*
X178593088Y-114602168D01*
X178908967Y-114665000D01*
X179231033Y-114665000D01*
X179546912Y-114602168D01*
X179844463Y-114478918D01*
X180112252Y-114299987D01*
X180339987Y-114072252D01*
X180340000Y-114072233D01*
X180340013Y-114072252D01*
X180567748Y-114299987D01*
X180835537Y-114478918D01*
X181133088Y-114602168D01*
X181448967Y-114665000D01*
X181771033Y-114665000D01*
X182086912Y-114602168D01*
X182384463Y-114478918D01*
X182652252Y-114299987D01*
X182879987Y-114072252D01*
X182880000Y-114072233D01*
X182880013Y-114072252D01*
X183107748Y-114299987D01*
X183375537Y-114478918D01*
X183673088Y-114602168D01*
X183988967Y-114665000D01*
X184311033Y-114665000D01*
X184626912Y-114602168D01*
X184924463Y-114478918D01*
X185192252Y-114299987D01*
X185419987Y-114072252D01*
X185420000Y-114072233D01*
X185420013Y-114072252D01*
X185647748Y-114299987D01*
X185915537Y-114478918D01*
X186213088Y-114602168D01*
X186528967Y-114665000D01*
X186851033Y-114665000D01*
X187166912Y-114602168D01*
X187464463Y-114478918D01*
X187732252Y-114299987D01*
X187959987Y-114072252D01*
X187960000Y-114072233D01*
X187960013Y-114072252D01*
X188187748Y-114299987D01*
X188455537Y-114478918D01*
X188753088Y-114602168D01*
X189068967Y-114665000D01*
X189391033Y-114665000D01*
X189706912Y-114602168D01*
X190004463Y-114478918D01*
X190272252Y-114299987D01*
X190499987Y-114072252D01*
X190500000Y-114072233D01*
X190500013Y-114072252D01*
X190727748Y-114299987D01*
X190995537Y-114478918D01*
X191293088Y-114602168D01*
X191608967Y-114665000D01*
X191931033Y-114665000D01*
X192246912Y-114602168D01*
X192544463Y-114478918D01*
X192812252Y-114299987D01*
X193039987Y-114072252D01*
X193040000Y-114072233D01*
X193040013Y-114072252D01*
X193267748Y-114299987D01*
X193535537Y-114478918D01*
X193833088Y-114602168D01*
X194148967Y-114665000D01*
X194471033Y-114665000D01*
X194786912Y-114602168D01*
X195084463Y-114478918D01*
X195352252Y-114299987D01*
X195579987Y-114072252D01*
X195580000Y-114072233D01*
X195580013Y-114072252D01*
X195807748Y-114299987D01*
X196075537Y-114478918D01*
X196373088Y-114602168D01*
X196688967Y-114665000D01*
X197011033Y-114665000D01*
X197326912Y-114602168D01*
X197624463Y-114478918D01*
X197892252Y-114299987D01*
X198119987Y-114072252D01*
X198120000Y-114072233D01*
X198120013Y-114072252D01*
X198347748Y-114299987D01*
X198615537Y-114478918D01*
X198913088Y-114602168D01*
X199228967Y-114665000D01*
X199551033Y-114665000D01*
X199866912Y-114602168D01*
X200164463Y-114478918D01*
X200432252Y-114299987D01*
X200659987Y-114072252D01*
X200660000Y-114072233D01*
X200660013Y-114072252D01*
X200887748Y-114299987D01*
X201155537Y-114478918D01*
X201453088Y-114602168D01*
X201768967Y-114665000D01*
X202091033Y-114665000D01*
X202406912Y-114602168D01*
X202704463Y-114478918D01*
X202972252Y-114299987D01*
X203199987Y-114072252D01*
X203200000Y-114072233D01*
X203200013Y-114072252D01*
X203427748Y-114299987D01*
X203695537Y-114478918D01*
X203993088Y-114602168D01*
X204308967Y-114665000D01*
X204631033Y-114665000D01*
X204946912Y-114602168D01*
X205244463Y-114478918D01*
X205512252Y-114299987D01*
X205739987Y-114072252D01*
X205740000Y-114072233D01*
X205740013Y-114072252D01*
X205967748Y-114299987D01*
X206235537Y-114478918D01*
X206533088Y-114602168D01*
X206848967Y-114665000D01*
X207171033Y-114665000D01*
X207486912Y-114602168D01*
X207784463Y-114478918D01*
X208052252Y-114299987D01*
X208279987Y-114072252D01*
X208458918Y-113804463D01*
X208582168Y-113506912D01*
X208645000Y-113191033D01*
X208645000Y-112868967D01*
X208582168Y-112553088D01*
X208458918Y-112255537D01*
X208279987Y-111987748D01*
X208052252Y-111760013D01*
X208052233Y-111760000D01*
X208052252Y-111759987D01*
X208279987Y-111532252D01*
X208458918Y-111264463D01*
X208582168Y-110966912D01*
X208645000Y-110651033D01*
X208645000Y-110328967D01*
X208582168Y-110013088D01*
X208458918Y-109715537D01*
X208279987Y-109447748D01*
X208052252Y-109220013D01*
X208052233Y-109220000D01*
X208052252Y-109219987D01*
X208279987Y-108992252D01*
X208458918Y-108724463D01*
X208582168Y-108426912D01*
X208645000Y-108111033D01*
X208645000Y-107788967D01*
X208582168Y-107473088D01*
X208458918Y-107175537D01*
X208279987Y-106907748D01*
X208052252Y-106680013D01*
X208052233Y-106680000D01*
X208052252Y-106679987D01*
X208279987Y-106452252D01*
X208458918Y-106184463D01*
X208582168Y-105886912D01*
X208645000Y-105571033D01*
X208645000Y-105248967D01*
X208582168Y-104933088D01*
X208458918Y-104635537D01*
X208279987Y-104367748D01*
X208052252Y-104140013D01*
X208052233Y-104140000D01*
X208052252Y-104139987D01*
X208279987Y-103912252D01*
X208458918Y-103644463D01*
X208582168Y-103346912D01*
X208645000Y-103031033D01*
X208645000Y-102708967D01*
X208582168Y-102393088D01*
X208458918Y-102095537D01*
X208279987Y-101827748D01*
X208052252Y-101600013D01*
X208052233Y-101600000D01*
X208052252Y-101599987D01*
X208279987Y-101372252D01*
X208458918Y-101104463D01*
X208582168Y-100806912D01*
X208645000Y-100491033D01*
X208645000Y-100168967D01*
X208582168Y-99853088D01*
X208458918Y-99555537D01*
X208279987Y-99287748D01*
X208052252Y-99060013D01*
X208052233Y-99060000D01*
X208052252Y-99059987D01*
X208279987Y-98832252D01*
X208458918Y-98564463D01*
X208582168Y-98266912D01*
X208645000Y-97951033D01*
X208645000Y-97628967D01*
X208582168Y-97313088D01*
X208458918Y-97015537D01*
X208279987Y-96747748D01*
X208052252Y-96520013D01*
X208052233Y-96520000D01*
X208052252Y-96519987D01*
X208279987Y-96292252D01*
X208458918Y-96024463D01*
X208582168Y-95726912D01*
X208645000Y-95411033D01*
X208645000Y-95088967D01*
X208582168Y-94773088D01*
X208458918Y-94475537D01*
X208279987Y-94207748D01*
X208052252Y-93980013D01*
X208052233Y-93980000D01*
X208052252Y-93979987D01*
X208279987Y-93752252D01*
X208458918Y-93484463D01*
X208582168Y-93186912D01*
X208645000Y-92871033D01*
X208645000Y-92548967D01*
X208582168Y-92233088D01*
X208458918Y-91935537D01*
X208279987Y-91667748D01*
X208052252Y-91440013D01*
X208052233Y-91440000D01*
X208052252Y-91439987D01*
X208279987Y-91212252D01*
X208458918Y-90944463D01*
X208582168Y-90646912D01*
X208645000Y-90331033D01*
X208645000Y-90008967D01*
X208582168Y-89693088D01*
X208458918Y-89395537D01*
X208279987Y-89127748D01*
X208052252Y-88900013D01*
X207784463Y-88721082D01*
X207486912Y-88597832D01*
X207171033Y-88535000D01*
X206848967Y-88535000D01*
X206533088Y-88597832D01*
X206235537Y-88721082D01*
X205967748Y-88900013D01*
X205740013Y-89127748D01*
X205740000Y-89127767D01*
X205739987Y-89127748D01*
X205512252Y-88900013D01*
X205244463Y-88721082D01*
X204946912Y-88597832D01*
X204631033Y-88535000D01*
X204308967Y-88535000D01*
X203993088Y-88597832D01*
X203695537Y-88721082D01*
X203427748Y-88900013D01*
X203200013Y-89127748D01*
X203200000Y-89127767D01*
X203199987Y-89127748D01*
X202972252Y-88900013D01*
X202704463Y-88721082D01*
X202406912Y-88597832D01*
X202091033Y-88535000D01*
X201768967Y-88535000D01*
X201453088Y-88597832D01*
X201155537Y-88721082D01*
X200887748Y-88900013D01*
X200660013Y-89127748D01*
X200660000Y-89127767D01*
X200659987Y-89127748D01*
X200432252Y-88900013D01*
X200164463Y-88721082D01*
X199866912Y-88597832D01*
X199551033Y-88535000D01*
X199228967Y-88535000D01*
X198913088Y-88597832D01*
X198615537Y-88721082D01*
X198347748Y-88900013D01*
X198120013Y-89127748D01*
X198120000Y-89127767D01*
X198119987Y-89127748D01*
X197892252Y-88900013D01*
X197624463Y-88721082D01*
X197326912Y-88597832D01*
X197011033Y-88535000D01*
X196688967Y-88535000D01*
X196373088Y-88597832D01*
X196075537Y-88721082D01*
X195807748Y-88900013D01*
X195580013Y-89127748D01*
X195580000Y-89127767D01*
X195579987Y-89127748D01*
X195352252Y-88900013D01*
X195084463Y-88721082D01*
X194786912Y-88597832D01*
X194471033Y-88535000D01*
X194148967Y-88535000D01*
X193833088Y-88597832D01*
X193535537Y-88721082D01*
X193267748Y-88900013D01*
X193040013Y-89127748D01*
X193040000Y-89127767D01*
X193039987Y-89127748D01*
X192812252Y-88900013D01*
X192544463Y-88721082D01*
X192246912Y-88597832D01*
X191931033Y-88535000D01*
X191608967Y-88535000D01*
X191293088Y-88597832D01*
X190995537Y-88721082D01*
X190727748Y-88900013D01*
X190500013Y-89127748D01*
X190500000Y-89127767D01*
X190499987Y-89127748D01*
X190272252Y-88900013D01*
X190004463Y-88721082D01*
X189706912Y-88597832D01*
X189391033Y-88535000D01*
X189068967Y-88535000D01*
X188753088Y-88597832D01*
X188455537Y-88721082D01*
X188187748Y-88900013D01*
X187960013Y-89127748D01*
X187960000Y-89127767D01*
X187959987Y-89127748D01*
X187732252Y-88900013D01*
X187464463Y-88721082D01*
X187166912Y-88597832D01*
X186851033Y-88535000D01*
X186528967Y-88535000D01*
X186213088Y-88597832D01*
X185915537Y-88721082D01*
X185647748Y-88900013D01*
X185420013Y-89127748D01*
X185420000Y-89127767D01*
X185419987Y-89127748D01*
X185192252Y-88900013D01*
X184924463Y-88721082D01*
X184626912Y-88597832D01*
X184311033Y-88535000D01*
X183988967Y-88535000D01*
X183673088Y-88597832D01*
X183375537Y-88721082D01*
X183107748Y-88900013D01*
X182880013Y-89127748D01*
X182880000Y-89127767D01*
X182879987Y-89127748D01*
X182652252Y-88900013D01*
X182384463Y-88721082D01*
X182086912Y-88597832D01*
X181771033Y-88535000D01*
X181448967Y-88535000D01*
X181133088Y-88597832D01*
X180835537Y-88721082D01*
X180567748Y-88900013D01*
X180340013Y-89127748D01*
X180340000Y-89127767D01*
X180339987Y-89127748D01*
X180112252Y-88900013D01*
X179844463Y-88721082D01*
X179546912Y-88597832D01*
X179231033Y-88535000D01*
X178908967Y-88535000D01*
X178593088Y-88597832D01*
X178295537Y-88721082D01*
X178027748Y-88900013D01*
X177800013Y-89127748D01*
X177800000Y-89127767D01*
X177799987Y-89127748D01*
X177572252Y-88900013D01*
X177304463Y-88721082D01*
X177006912Y-88597832D01*
X176691033Y-88535000D01*
X176368967Y-88535000D01*
X176053088Y-88597832D01*
X175755537Y-88721082D01*
X175487748Y-88900013D01*
X175260013Y-89127748D01*
X175081082Y-89395537D01*
X174957832Y-89693088D01*
X174895000Y-90008967D01*
X172685834Y-90008967D01*
X177433592Y-85261210D01*
X177653740Y-85305000D01*
X177946260Y-85305000D01*
X178233158Y-85247932D01*
X178503411Y-85135990D01*
X178746632Y-84973475D01*
X178953475Y-84766632D01*
X179078178Y-84580000D01*
X181601822Y-84580000D01*
X181726525Y-84766632D01*
X181933368Y-84973475D01*
X182176589Y-85135990D01*
X182446842Y-85247932D01*
X182733740Y-85305000D01*
X183026260Y-85305000D01*
X183313158Y-85247932D01*
X183583411Y-85135990D01*
X183826632Y-84973475D01*
X184033475Y-84766632D01*
X184158178Y-84580000D01*
X185522757Y-84580000D01*
X185626163Y-84734759D01*
X185826041Y-84934637D01*
X186061073Y-85091680D01*
X186322226Y-85199853D01*
X186599465Y-85255000D01*
X186882135Y-85255000D01*
X187159374Y-85199853D01*
X187420527Y-85091680D01*
X187655559Y-84934637D01*
X187855437Y-84734759D01*
X188012480Y-84499727D01*
X188120653Y-84238574D01*
X188175800Y-83961335D01*
X188175800Y-83678665D01*
X188120653Y-83401426D01*
X188012480Y-83140273D01*
X187855437Y-82905241D01*
X187655559Y-82705363D01*
X187423041Y-82550000D01*
X187655559Y-82394637D01*
X187855437Y-82194759D01*
X188012480Y-81959727D01*
X188120653Y-81698574D01*
X188175800Y-81421335D01*
X188175800Y-81138665D01*
X188120653Y-80861426D01*
X188012480Y-80600273D01*
X187855437Y-80365241D01*
X187655559Y-80165363D01*
X187423041Y-80010000D01*
X187655559Y-79854637D01*
X187855437Y-79654759D01*
X188012480Y-79419727D01*
X188120653Y-79158574D01*
X188175800Y-78881335D01*
X188175800Y-78598665D01*
X188120653Y-78321426D01*
X188012480Y-78060273D01*
X187855437Y-77825241D01*
X187655559Y-77625363D01*
X187423041Y-77470000D01*
X187655559Y-77314637D01*
X187855437Y-77114759D01*
X188012480Y-76879727D01*
X188120653Y-76618574D01*
X188175800Y-76341335D01*
X188175800Y-76058665D01*
X188120653Y-75781426D01*
X188012480Y-75520273D01*
X187855437Y-75285241D01*
X187655559Y-75085363D01*
X187423041Y-74930000D01*
X187655559Y-74774637D01*
X187855437Y-74574759D01*
X188012480Y-74339727D01*
X188120653Y-74078574D01*
X188175800Y-73801335D01*
X188175800Y-73518665D01*
X188120653Y-73241426D01*
X188012480Y-72980273D01*
X187855437Y-72745241D01*
X187655559Y-72545363D01*
X187423041Y-72390000D01*
X187655559Y-72234637D01*
X187855437Y-72034759D01*
X188012480Y-71799727D01*
X188120653Y-71538574D01*
X188175800Y-71261335D01*
X188175800Y-70978665D01*
X188120653Y-70701426D01*
X188012480Y-70440273D01*
X187855437Y-70205241D01*
X187655559Y-70005363D01*
X187423041Y-69850000D01*
X187655559Y-69694637D01*
X187855437Y-69494759D01*
X188012480Y-69259727D01*
X188120653Y-68998574D01*
X188175800Y-68721335D01*
X188175800Y-68438665D01*
X188120653Y-68161426D01*
X188012480Y-67900273D01*
X187855437Y-67665241D01*
X187656839Y-67466643D01*
X187665282Y-67465812D01*
X187784980Y-67429502D01*
X187895294Y-67370537D01*
X187991985Y-67291185D01*
X188071337Y-67194494D01*
X188130302Y-67084180D01*
X188166612Y-66964482D01*
X188178872Y-66840000D01*
X188178872Y-65898665D01*
X195465800Y-65898665D01*
X195465800Y-66181335D01*
X195520947Y-66458574D01*
X195629120Y-66719727D01*
X195786163Y-66954759D01*
X195986041Y-67154637D01*
X196218559Y-67310000D01*
X195986041Y-67465363D01*
X195786163Y-67665241D01*
X195629120Y-67900273D01*
X195520947Y-68161426D01*
X195465800Y-68438665D01*
X195465800Y-68721335D01*
X195520947Y-68998574D01*
X195629120Y-69259727D01*
X195786163Y-69494759D01*
X195986041Y-69694637D01*
X196218559Y-69850000D01*
X195986041Y-70005363D01*
X195786163Y-70205241D01*
X195629120Y-70440273D01*
X195520947Y-70701426D01*
X195465800Y-70978665D01*
X195465800Y-71261335D01*
X195520947Y-71538574D01*
X195629120Y-71799727D01*
X195786163Y-72034759D01*
X195986041Y-72234637D01*
X196218559Y-72390000D01*
X195986041Y-72545363D01*
X195786163Y-72745241D01*
X195629120Y-72980273D01*
X195520947Y-73241426D01*
X195465800Y-73518665D01*
X195465800Y-73801335D01*
X195520947Y-74078574D01*
X195629120Y-74339727D01*
X195786163Y-74574759D01*
X195986041Y-74774637D01*
X196218559Y-74930000D01*
X195986041Y-75085363D01*
X195786163Y-75285241D01*
X195629120Y-75520273D01*
X195520947Y-75781426D01*
X195465800Y-76058665D01*
X195465800Y-76341335D01*
X195520947Y-76618574D01*
X195629120Y-76879727D01*
X195786163Y-77114759D01*
X195986041Y-77314637D01*
X196218559Y-77470000D01*
X195986041Y-77625363D01*
X195786163Y-77825241D01*
X195629120Y-78060273D01*
X195520947Y-78321426D01*
X195465800Y-78598665D01*
X195465800Y-78881335D01*
X195520947Y-79158574D01*
X195629120Y-79419727D01*
X195786163Y-79654759D01*
X195986041Y-79854637D01*
X196218559Y-80010000D01*
X195986041Y-80165363D01*
X195786163Y-80365241D01*
X195629120Y-80600273D01*
X195520947Y-80861426D01*
X195465800Y-81138665D01*
X195465800Y-81421335D01*
X195520947Y-81698574D01*
X195629120Y-81959727D01*
X195786163Y-82194759D01*
X195986041Y-82394637D01*
X196218559Y-82550000D01*
X195986041Y-82705363D01*
X195786163Y-82905241D01*
X195629120Y-83140273D01*
X195520947Y-83401426D01*
X195465800Y-83678665D01*
X195465800Y-83961335D01*
X195520947Y-84238574D01*
X195629120Y-84499727D01*
X195786163Y-84734759D01*
X195986041Y-84934637D01*
X196221073Y-85091680D01*
X196482226Y-85199853D01*
X196759465Y-85255000D01*
X197042135Y-85255000D01*
X197319374Y-85199853D01*
X197580527Y-85091680D01*
X197815559Y-84934637D01*
X198015437Y-84734759D01*
X198118843Y-84580000D01*
X199381822Y-84580000D01*
X199506525Y-84766632D01*
X199713368Y-84973475D01*
X199956589Y-85135990D01*
X200226842Y-85247932D01*
X200513740Y-85305000D01*
X200806260Y-85305000D01*
X201093158Y-85247932D01*
X201363411Y-85135990D01*
X201606632Y-84973475D01*
X201813475Y-84766632D01*
X201938178Y-84580000D01*
X204461822Y-84580000D01*
X204586525Y-84766632D01*
X204793368Y-84973475D01*
X205036589Y-85135990D01*
X205306842Y-85247932D01*
X205593740Y-85305000D01*
X205886260Y-85305000D01*
X206106408Y-85261209D01*
X212796201Y-91951003D01*
X212819999Y-91980001D01*
X212935724Y-92074974D01*
X213067753Y-92145546D01*
X213211014Y-92189003D01*
X213322667Y-92200000D01*
X213322676Y-92200000D01*
X213359999Y-92203676D01*
X213397322Y-92200000D01*
X214174493Y-92200000D01*
X214229534Y-92332882D01*
X214435825Y-92641618D01*
X214698382Y-92904175D01*
X215007118Y-93110466D01*
X215350166Y-93252561D01*
X215714344Y-93325000D01*
X216085656Y-93325000D01*
X216449834Y-93252561D01*
X216792882Y-93110466D01*
X217101618Y-92904175D01*
X217364175Y-92641618D01*
X217570466Y-92332882D01*
X217712561Y-91989834D01*
X217785000Y-91625656D01*
X217785000Y-91254344D01*
X217712561Y-90890166D01*
X217570466Y-90547118D01*
X217364175Y-90238382D01*
X217101618Y-89975825D01*
X216792882Y-89769534D01*
X216449834Y-89627439D01*
X216085656Y-89555000D01*
X215714344Y-89555000D01*
X215350166Y-89627439D01*
X215007118Y-89769534D01*
X214698382Y-89975825D01*
X214435825Y-90238382D01*
X214229534Y-90547118D01*
X214174493Y-90680000D01*
X213674802Y-90680000D01*
X207181209Y-84186408D01*
X207225000Y-83966260D01*
X207225000Y-83839801D01*
X210256201Y-86871003D01*
X210279999Y-86900001D01*
X210308997Y-86923799D01*
X210395723Y-86994974D01*
X210527753Y-87065546D01*
X210671014Y-87109003D01*
X210782667Y-87120000D01*
X210782677Y-87120000D01*
X210820000Y-87123676D01*
X210857323Y-87120000D01*
X214174493Y-87120000D01*
X214229534Y-87252882D01*
X214435825Y-87561618D01*
X214698382Y-87824175D01*
X215007118Y-88030466D01*
X215350166Y-88172561D01*
X215714344Y-88245000D01*
X216085656Y-88245000D01*
X216449834Y-88172561D01*
X216792882Y-88030466D01*
X217101618Y-87824175D01*
X217364175Y-87561618D01*
X217570466Y-87252882D01*
X217712561Y-86909834D01*
X217785000Y-86545656D01*
X217785000Y-86174344D01*
X217712561Y-85810166D01*
X217570466Y-85467118D01*
X217364175Y-85158382D01*
X217101618Y-84895825D01*
X216792882Y-84689534D01*
X216449834Y-84547439D01*
X216085656Y-84475000D01*
X215714344Y-84475000D01*
X215350166Y-84547439D01*
X215007118Y-84689534D01*
X214698382Y-84895825D01*
X214435825Y-85158382D01*
X214229534Y-85467118D01*
X214174493Y-85600000D01*
X211134802Y-85600000D01*
X207412174Y-81877373D01*
X207482082Y-81820001D01*
X207577055Y-81704276D01*
X207595314Y-81670117D01*
X207716205Y-81791008D01*
X207739999Y-81820001D01*
X207768992Y-81843795D01*
X207768996Y-81843799D01*
X207839685Y-81901811D01*
X207855724Y-81914974D01*
X207987753Y-81985546D01*
X208131014Y-82029003D01*
X208242667Y-82040000D01*
X208242676Y-82040000D01*
X208279999Y-82043676D01*
X208317322Y-82040000D01*
X214174493Y-82040000D01*
X214229534Y-82172882D01*
X214435825Y-82481618D01*
X214698382Y-82744175D01*
X215007118Y-82950466D01*
X215350166Y-83092561D01*
X215714344Y-83165000D01*
X216085656Y-83165000D01*
X216449834Y-83092561D01*
X216792882Y-82950466D01*
X217101618Y-82744175D01*
X217364175Y-82481618D01*
X217570466Y-82172882D01*
X217712561Y-81829834D01*
X217785000Y-81465656D01*
X217785000Y-81094344D01*
X217712561Y-80730166D01*
X217570466Y-80387118D01*
X217364175Y-80078382D01*
X217101618Y-79815825D01*
X216792882Y-79609534D01*
X216449834Y-79467439D01*
X216085656Y-79395000D01*
X215714344Y-79395000D01*
X215350166Y-79467439D01*
X215007118Y-79609534D01*
X214698382Y-79815825D01*
X214435825Y-80078382D01*
X214229534Y-80387118D01*
X214174493Y-80520000D01*
X208594803Y-80520000D01*
X207181210Y-79106408D01*
X207225000Y-78886260D01*
X207225000Y-78593740D01*
X207167932Y-78306842D01*
X207055990Y-78036589D01*
X206893475Y-77793368D01*
X206686632Y-77586525D01*
X206512240Y-77470000D01*
X206686632Y-77353475D01*
X206893475Y-77146632D01*
X207018178Y-76960000D01*
X214174493Y-76960000D01*
X214229534Y-77092882D01*
X214435825Y-77401618D01*
X214698382Y-77664175D01*
X215007118Y-77870466D01*
X215350166Y-78012561D01*
X215714344Y-78085000D01*
X216085656Y-78085000D01*
X216449834Y-78012561D01*
X216792882Y-77870466D01*
X217101618Y-77664175D01*
X217364175Y-77401618D01*
X217570466Y-77092882D01*
X217712561Y-76749834D01*
X217785000Y-76385656D01*
X217785000Y-76014344D01*
X217712561Y-75650166D01*
X217570466Y-75307118D01*
X217364175Y-74998382D01*
X217101618Y-74735825D01*
X216792882Y-74529534D01*
X216449834Y-74387439D01*
X216085656Y-74315000D01*
X215714344Y-74315000D01*
X215350166Y-74387439D01*
X215007118Y-74529534D01*
X214698382Y-74735825D01*
X214435825Y-74998382D01*
X214229534Y-75307118D01*
X214174493Y-75440000D01*
X207018178Y-75440000D01*
X206893475Y-75253368D01*
X206686632Y-75046525D01*
X206512240Y-74930000D01*
X206686632Y-74813475D01*
X206893475Y-74606632D01*
X207055990Y-74363411D01*
X207167932Y-74093158D01*
X207225000Y-73806260D01*
X207225000Y-73513740D01*
X207181210Y-73293592D01*
X208594803Y-71880000D01*
X214174493Y-71880000D01*
X214229534Y-72012882D01*
X214435825Y-72321618D01*
X214698382Y-72584175D01*
X215007118Y-72790466D01*
X215350166Y-72932561D01*
X215714344Y-73005000D01*
X216085656Y-73005000D01*
X216449834Y-72932561D01*
X216792882Y-72790466D01*
X217101618Y-72584175D01*
X217364175Y-72321618D01*
X217570466Y-72012882D01*
X217712561Y-71669834D01*
X217785000Y-71305656D01*
X217785000Y-70934344D01*
X217712561Y-70570166D01*
X217570466Y-70227118D01*
X217364175Y-69918382D01*
X217101618Y-69655825D01*
X216792882Y-69449534D01*
X216449834Y-69307439D01*
X216085656Y-69235000D01*
X215714344Y-69235000D01*
X215350166Y-69307439D01*
X215007118Y-69449534D01*
X214698382Y-69655825D01*
X214435825Y-69918382D01*
X214229534Y-70227118D01*
X214174493Y-70360000D01*
X208317322Y-70360000D01*
X208279999Y-70356324D01*
X208242676Y-70360000D01*
X208242667Y-70360000D01*
X208131014Y-70370997D01*
X207987753Y-70414454D01*
X207855724Y-70485026D01*
X207855722Y-70485027D01*
X207855723Y-70485027D01*
X207768996Y-70556201D01*
X207768992Y-70556205D01*
X207739999Y-70579999D01*
X207716205Y-70608992D01*
X207225000Y-71100197D01*
X207225000Y-70973740D01*
X207181209Y-70753592D01*
X211134802Y-66800000D01*
X214174493Y-66800000D01*
X214229534Y-66932882D01*
X214435825Y-67241618D01*
X214698382Y-67504175D01*
X215007118Y-67710466D01*
X215350166Y-67852561D01*
X215714344Y-67925000D01*
X216085656Y-67925000D01*
X216449834Y-67852561D01*
X216792882Y-67710466D01*
X217101618Y-67504175D01*
X217364175Y-67241618D01*
X217570466Y-66932882D01*
X217712561Y-66589834D01*
X217785000Y-66225656D01*
X217785000Y-65854344D01*
X217712561Y-65490166D01*
X217570466Y-65147118D01*
X217364175Y-64838382D01*
X217101618Y-64575825D01*
X216792882Y-64369534D01*
X216449834Y-64227439D01*
X216085656Y-64155000D01*
X215714344Y-64155000D01*
X215350166Y-64227439D01*
X215007118Y-64369534D01*
X214698382Y-64575825D01*
X214435825Y-64838382D01*
X214229534Y-65147118D01*
X214174493Y-65280000D01*
X210857323Y-65280000D01*
X210820000Y-65276324D01*
X210782677Y-65280000D01*
X210782667Y-65280000D01*
X210671014Y-65290997D01*
X210527753Y-65334454D01*
X210395723Y-65405026D01*
X210312083Y-65473668D01*
X210279999Y-65499999D01*
X210256201Y-65528997D01*
X207225000Y-68560199D01*
X207225000Y-68433740D01*
X207181209Y-68213592D01*
X213674802Y-61720000D01*
X214174493Y-61720000D01*
X214229534Y-61852882D01*
X214435825Y-62161618D01*
X214698382Y-62424175D01*
X215007118Y-62630466D01*
X215350166Y-62772561D01*
X215714344Y-62845000D01*
X216085656Y-62845000D01*
X216449834Y-62772561D01*
X216792882Y-62630466D01*
X217101618Y-62424175D01*
X217364175Y-62161618D01*
X217570466Y-61852882D01*
X217712561Y-61509834D01*
X217785000Y-61145656D01*
X217785000Y-60774344D01*
X217712561Y-60410166D01*
X217570466Y-60067118D01*
X217364175Y-59758382D01*
X217101618Y-59495825D01*
X216792882Y-59289534D01*
X216449834Y-59147439D01*
X216085656Y-59075000D01*
X215714344Y-59075000D01*
X215350166Y-59147439D01*
X215007118Y-59289534D01*
X214698382Y-59495825D01*
X214435825Y-59758382D01*
X214229534Y-60067118D01*
X214174493Y-60200000D01*
X213397322Y-60200000D01*
X213359999Y-60196324D01*
X213322676Y-60200000D01*
X213322667Y-60200000D01*
X213211014Y-60210997D01*
X213067753Y-60254454D01*
X212935724Y-60325026D01*
X212819999Y-60419999D01*
X212796201Y-60448997D01*
X207228072Y-66017127D01*
X207228072Y-65626729D01*
X215086730Y-57768072D01*
X217150000Y-57768072D01*
X217274482Y-57755812D01*
X217394180Y-57719502D01*
X217504494Y-57660537D01*
X217601185Y-57581185D01*
X217680537Y-57484494D01*
X217739502Y-57374180D01*
X217775812Y-57254482D01*
X217788072Y-57130000D01*
X217788072Y-54630000D01*
X217775812Y-54505518D01*
X217739502Y-54385820D01*
X217680537Y-54275506D01*
X217601185Y-54178815D01*
X217504494Y-54099463D01*
X217394180Y-54040498D01*
X217274482Y-54004188D01*
X217150000Y-53991928D01*
X214650000Y-53991928D01*
X214525518Y-54004188D01*
X214405820Y-54040498D01*
X214295506Y-54099463D01*
X214198815Y-54178815D01*
X214119463Y-54275506D01*
X214060498Y-54385820D01*
X214024188Y-54505518D01*
X214011928Y-54630000D01*
X214011928Y-56693270D01*
X206153271Y-64551928D01*
X204890000Y-64551928D01*
X204765518Y-64564188D01*
X204645820Y-64600498D01*
X204535506Y-64659463D01*
X204438815Y-64738815D01*
X204359463Y-64835506D01*
X204300498Y-64945820D01*
X204264188Y-65065518D01*
X204251928Y-65190000D01*
X204251928Y-65280000D01*
X202148072Y-65280000D01*
X202148072Y-65190000D01*
X202135812Y-65065518D01*
X202099502Y-64945820D01*
X202040537Y-64835506D01*
X201961185Y-64738815D01*
X201864494Y-64659463D01*
X201754180Y-64600498D01*
X201634482Y-64564188D01*
X201510000Y-64551928D01*
X199810000Y-64551928D01*
X199685518Y-64564188D01*
X199565820Y-64600498D01*
X199455506Y-64659463D01*
X199358815Y-64738815D01*
X199279463Y-64835506D01*
X199220498Y-64945820D01*
X199184188Y-65065518D01*
X199171928Y-65190000D01*
X199171928Y-65280000D01*
X198118843Y-65280000D01*
X198015437Y-65125241D01*
X197815559Y-64925363D01*
X197580527Y-64768320D01*
X197319374Y-64660147D01*
X197042135Y-64605000D01*
X196759465Y-64605000D01*
X196482226Y-64660147D01*
X196221073Y-64768320D01*
X195986041Y-64925363D01*
X195786163Y-65125241D01*
X195629120Y-65360273D01*
X195520947Y-65621426D01*
X195465800Y-65898665D01*
X188178872Y-65898665D01*
X188178872Y-65240000D01*
X188166612Y-65115518D01*
X188130302Y-64995820D01*
X188071337Y-64885506D01*
X187991985Y-64788815D01*
X187895294Y-64709463D01*
X187784980Y-64650498D01*
X187665282Y-64614188D01*
X187540800Y-64601928D01*
X185940800Y-64601928D01*
X185816318Y-64614188D01*
X185696620Y-64650498D01*
X185586306Y-64709463D01*
X185489615Y-64788815D01*
X185410263Y-64885506D01*
X185351298Y-64995820D01*
X185314988Y-65115518D01*
X185302728Y-65240000D01*
X185302728Y-65280000D01*
X184368072Y-65280000D01*
X184368072Y-65190000D01*
X184355812Y-65065518D01*
X184319502Y-64945820D01*
X184260537Y-64835506D01*
X184181185Y-64738815D01*
X184084494Y-64659463D01*
X183974180Y-64600498D01*
X183854482Y-64564188D01*
X183730000Y-64551928D01*
X182030000Y-64551928D01*
X181905518Y-64564188D01*
X181785820Y-64600498D01*
X181675506Y-64659463D01*
X181578815Y-64738815D01*
X181499463Y-64835506D01*
X181440498Y-64945820D01*
X181404188Y-65065518D01*
X181391928Y-65190000D01*
X181391928Y-65280000D01*
X179288072Y-65280000D01*
X179288072Y-65190000D01*
X179275812Y-65065518D01*
X179239502Y-64945820D01*
X179180537Y-64835506D01*
X179101185Y-64738815D01*
X179004494Y-64659463D01*
X178894180Y-64600498D01*
X178774482Y-64564188D01*
X178650000Y-64551928D01*
X177386730Y-64551928D01*
X169397519Y-56562718D01*
X169452561Y-56429834D01*
X169525000Y-56065656D01*
X169525000Y-55694344D01*
X169452561Y-55330166D01*
X169310466Y-54987118D01*
X169104175Y-54678382D01*
X168841618Y-54415825D01*
X168532882Y-54209534D01*
X168189834Y-54067439D01*
X167825656Y-53995000D01*
X167454344Y-53995000D01*
X167090166Y-54067439D01*
X166747118Y-54209534D01*
X166438382Y-54415825D01*
X166175825Y-54678382D01*
X165969534Y-54987118D01*
X165827439Y-55330166D01*
X165755000Y-55694344D01*
X165755000Y-56065656D01*
X165827439Y-56429834D01*
X165969534Y-56772882D01*
X166175825Y-57081618D01*
X166438382Y-57344175D01*
X166747118Y-57550466D01*
X167090166Y-57692561D01*
X167454344Y-57765000D01*
X167825656Y-57765000D01*
X168189834Y-57692561D01*
X168322718Y-57637519D01*
X176311928Y-65626730D01*
X176311928Y-66890000D01*
X176324188Y-67014482D01*
X176360498Y-67134180D01*
X176419463Y-67244494D01*
X176498815Y-67341185D01*
X176595506Y-67420537D01*
X176705820Y-67479502D01*
X176778380Y-67501513D01*
X176646525Y-67633368D01*
X176521822Y-67820000D01*
X175574802Y-67820000D01*
X169397519Y-61642718D01*
X169452561Y-61509834D01*
X169525000Y-61145656D01*
X169525000Y-60774344D01*
X169452561Y-60410166D01*
X169310466Y-60067118D01*
X169104175Y-59758382D01*
X168841618Y-59495825D01*
X168532882Y-59289534D01*
X168189834Y-59147439D01*
X167825656Y-59075000D01*
X167454344Y-59075000D01*
X167090166Y-59147439D01*
X166747118Y-59289534D01*
X166438382Y-59495825D01*
X166175825Y-59758382D01*
X165969534Y-60067118D01*
X165827439Y-60410166D01*
X165755000Y-60774344D01*
X165755000Y-61145656D01*
X165827439Y-61509834D01*
X165969534Y-61852882D01*
X166175825Y-62161618D01*
X166438382Y-62424175D01*
X166747118Y-62630466D01*
X167090166Y-62772561D01*
X167454344Y-62845000D01*
X167825656Y-62845000D01*
X168189834Y-62772561D01*
X168322718Y-62717519D01*
X174696201Y-69091003D01*
X174719999Y-69120001D01*
X174835724Y-69214974D01*
X174967753Y-69285546D01*
X175111014Y-69329003D01*
X175222667Y-69340000D01*
X175222676Y-69340000D01*
X175259999Y-69343676D01*
X175297322Y-69340000D01*
X176521822Y-69340000D01*
X176646525Y-69526632D01*
X176853368Y-69733475D01*
X177027760Y-69850000D01*
X176853368Y-69966525D01*
X176646525Y-70173368D01*
X176521822Y-70360000D01*
X173034802Y-70360000D01*
X169397519Y-66722718D01*
X169452561Y-66589834D01*
X169525000Y-66225656D01*
X169525000Y-65854344D01*
X169452561Y-65490166D01*
X169310466Y-65147118D01*
X169104175Y-64838382D01*
X168841618Y-64575825D01*
X168532882Y-64369534D01*
X168189834Y-64227439D01*
X167825656Y-64155000D01*
X167454344Y-64155000D01*
X167090166Y-64227439D01*
X166747118Y-64369534D01*
X166438382Y-64575825D01*
X166175825Y-64838382D01*
X165969534Y-65147118D01*
X165827439Y-65490166D01*
X165755000Y-65854344D01*
X165755000Y-66225656D01*
X165827439Y-66589834D01*
X165969534Y-66932882D01*
X166175825Y-67241618D01*
X166438382Y-67504175D01*
X166747118Y-67710466D01*
X167090166Y-67852561D01*
X167454344Y-67925000D01*
X167825656Y-67925000D01*
X168189834Y-67852561D01*
X168322718Y-67797519D01*
X172156200Y-71631002D01*
X172179999Y-71660001D01*
X172208997Y-71683799D01*
X172295723Y-71754974D01*
X172423759Y-71823411D01*
X172427753Y-71825546D01*
X172571014Y-71869003D01*
X172682667Y-71880000D01*
X172682677Y-71880000D01*
X172720000Y-71883676D01*
X172757323Y-71880000D01*
X176521822Y-71880000D01*
X176646525Y-72066632D01*
X176853368Y-72273475D01*
X177027760Y-72390000D01*
X176853368Y-72506525D01*
X176646525Y-72713368D01*
X176521822Y-72900000D01*
X170494803Y-72900000D01*
X169397519Y-71802717D01*
X169452561Y-71669834D01*
X169525000Y-71305656D01*
X169525000Y-70934344D01*
X169452561Y-70570166D01*
X169310466Y-70227118D01*
X169104175Y-69918382D01*
X168841618Y-69655825D01*
X168532882Y-69449534D01*
X168189834Y-69307439D01*
X167825656Y-69235000D01*
X167454344Y-69235000D01*
X167090166Y-69307439D01*
X166747118Y-69449534D01*
X166438382Y-69655825D01*
X166175825Y-69918382D01*
X165969534Y-70227118D01*
X165827439Y-70570166D01*
X165755000Y-70934344D01*
X165755000Y-71305656D01*
X165827439Y-71669834D01*
X165969534Y-72012882D01*
X166175825Y-72321618D01*
X166438382Y-72584175D01*
X166747118Y-72790466D01*
X167090166Y-72932561D01*
X167454344Y-73005000D01*
X167825656Y-73005000D01*
X168189834Y-72932561D01*
X168322717Y-72877519D01*
X169616205Y-74171008D01*
X169639999Y-74200001D01*
X169668992Y-74223795D01*
X169668996Y-74223799D01*
X169739685Y-74281811D01*
X169755724Y-74294974D01*
X169887753Y-74365546D01*
X170031014Y-74409003D01*
X170142667Y-74420000D01*
X170142676Y-74420000D01*
X170179999Y-74423676D01*
X170217322Y-74420000D01*
X176521822Y-74420000D01*
X176646525Y-74606632D01*
X176853368Y-74813475D01*
X177027760Y-74930000D01*
X176853368Y-75046525D01*
X176646525Y-75253368D01*
X176521822Y-75440000D01*
X169365507Y-75440000D01*
X169310466Y-75307118D01*
X169104175Y-74998382D01*
X168841618Y-74735825D01*
X168532882Y-74529534D01*
X168189834Y-74387439D01*
X167825656Y-74315000D01*
X167454344Y-74315000D01*
X167090166Y-74387439D01*
X166747118Y-74529534D01*
X166438382Y-74735825D01*
X166175825Y-74998382D01*
X165969534Y-75307118D01*
X165827439Y-75650166D01*
X165755000Y-76014344D01*
X165755000Y-76385656D01*
X165827439Y-76749834D01*
X165969534Y-77092882D01*
X166175825Y-77401618D01*
X166438382Y-77664175D01*
X166747118Y-77870466D01*
X167090166Y-78012561D01*
X167454344Y-78085000D01*
X167825656Y-78085000D01*
X168189834Y-78012561D01*
X168532882Y-77870466D01*
X168841618Y-77664175D01*
X169104175Y-77401618D01*
X169310466Y-77092882D01*
X169365507Y-76960000D01*
X176521822Y-76960000D01*
X176646525Y-77146632D01*
X176853368Y-77353475D01*
X177027760Y-77470000D01*
X176853368Y-77586525D01*
X176646525Y-77793368D01*
X176484010Y-78036589D01*
X176372068Y-78306842D01*
X176315000Y-78593740D01*
X176315000Y-78886260D01*
X176358790Y-79106407D01*
X174945199Y-80520000D01*
X169365507Y-80520000D01*
X169310466Y-80387118D01*
X169104175Y-80078382D01*
X168841618Y-79815825D01*
X168532882Y-79609534D01*
X168189834Y-79467439D01*
X167825656Y-79395000D01*
X167454344Y-79395000D01*
X167090166Y-79467439D01*
X166747118Y-79609534D01*
X166438382Y-79815825D01*
X166175825Y-80078382D01*
X165969534Y-80387118D01*
X165827439Y-80730166D01*
X165755000Y-81094344D01*
X165755000Y-81465656D01*
X165827439Y-81829834D01*
X165969534Y-82172882D01*
X166175825Y-82481618D01*
X166438382Y-82744175D01*
X166747118Y-82950466D01*
X167090166Y-83092561D01*
X167454344Y-83165000D01*
X167825656Y-83165000D01*
X168189834Y-83092561D01*
X168532882Y-82950466D01*
X168841618Y-82744175D01*
X169104175Y-82481618D01*
X169310466Y-82172882D01*
X169365507Y-82040000D01*
X175222678Y-82040000D01*
X175260000Y-82043676D01*
X175297322Y-82040000D01*
X175297333Y-82040000D01*
X175408986Y-82029003D01*
X175552247Y-81985546D01*
X175684276Y-81914974D01*
X175800001Y-81820001D01*
X175823804Y-81790997D01*
X176315000Y-81299801D01*
X176315000Y-81426260D01*
X176358790Y-81646408D01*
X172405199Y-85600000D01*
X169365507Y-85600000D01*
X169310466Y-85467118D01*
X169104175Y-85158382D01*
X168841618Y-84895825D01*
X168532882Y-84689534D01*
X168189834Y-84547439D01*
X167825656Y-84475000D01*
X167454344Y-84475000D01*
X167090166Y-84547439D01*
X166747118Y-84689534D01*
X166438382Y-84895825D01*
X166175825Y-85158382D01*
X165969534Y-85467118D01*
X165827439Y-85810166D01*
X165755000Y-86174344D01*
X165755000Y-86545656D01*
X165827439Y-86909834D01*
X165969534Y-87252882D01*
X166175825Y-87561618D01*
X166438382Y-87824175D01*
X166747118Y-88030466D01*
X167090166Y-88172561D01*
X167454344Y-88245000D01*
X167825656Y-88245000D01*
X168189834Y-88172561D01*
X168532882Y-88030466D01*
X168841618Y-87824175D01*
X169104175Y-87561618D01*
X169310466Y-87252882D01*
X169365507Y-87120000D01*
X172682678Y-87120000D01*
X172720000Y-87123676D01*
X172757322Y-87120000D01*
X172757333Y-87120000D01*
X172868986Y-87109003D01*
X173012247Y-87065546D01*
X173144276Y-86994974D01*
X173260001Y-86900001D01*
X173283804Y-86870997D01*
X176315000Y-83839802D01*
X176315000Y-83966260D01*
X176358790Y-84186408D01*
X169865199Y-90680000D01*
X169528072Y-90680000D01*
X169528072Y-90190000D01*
X169515812Y-90065518D01*
X169479502Y-89945820D01*
X169420537Y-89835506D01*
X169341185Y-89738815D01*
X169244494Y-89659463D01*
X169134180Y-89600498D01*
X169014482Y-89564188D01*
X168890000Y-89551928D01*
X166390000Y-89551928D01*
X166265518Y-89564188D01*
X166145820Y-89600498D01*
X166035506Y-89659463D01*
X165938815Y-89738815D01*
X165859463Y-89835506D01*
X165800498Y-89945820D01*
X165764188Y-90065518D01*
X165751928Y-90190000D01*
X160705000Y-90190000D01*
X160705000Y-49078639D01*
X163786520Y-49078639D01*
X163855822Y-49830882D01*
X164070548Y-50555152D01*
X164422445Y-51223614D01*
X164449452Y-51264032D01*
X164939119Y-51624220D01*
X165124811Y-51438528D01*
X165139007Y-51459774D01*
X165283170Y-51603937D01*
X165304416Y-51618133D01*
X165118724Y-51803825D01*
X165478912Y-52293492D01*
X166142882Y-52653793D01*
X166864385Y-52877638D01*
X167615695Y-52956424D01*
X168367938Y-52887122D01*
X169092208Y-52672396D01*
X169760670Y-52320499D01*
X169801088Y-52293492D01*
X170161276Y-51803825D01*
X169975584Y-51618133D01*
X169996830Y-51603937D01*
X170140993Y-51459774D01*
X170155189Y-51438528D01*
X170340881Y-51624220D01*
X170830548Y-51264032D01*
X171190849Y-50600062D01*
X171414694Y-49878559D01*
X171453794Y-49505695D01*
X212046520Y-49505695D01*
X212115822Y-50257938D01*
X212330548Y-50982208D01*
X212682445Y-51650670D01*
X212709452Y-51691088D01*
X213199119Y-52051276D01*
X213384811Y-51865584D01*
X213399007Y-51886830D01*
X213543170Y-52030993D01*
X213564416Y-52045189D01*
X213378724Y-52230881D01*
X213738912Y-52720548D01*
X214402882Y-53080849D01*
X215124385Y-53304694D01*
X215875695Y-53383480D01*
X216627938Y-53314178D01*
X217352208Y-53099452D01*
X218020670Y-52747555D01*
X218061088Y-52720548D01*
X218421276Y-52230881D01*
X218235584Y-52045189D01*
X218256830Y-52030993D01*
X218400993Y-51886830D01*
X218415189Y-51865584D01*
X218600881Y-52051276D01*
X219090548Y-51691088D01*
X219450849Y-51027118D01*
X219674694Y-50305615D01*
X219753480Y-49554305D01*
X219684178Y-48802062D01*
X219469452Y-48077792D01*
X219117555Y-47409330D01*
X219090548Y-47368912D01*
X218600881Y-47008724D01*
X218415189Y-47194416D01*
X218400993Y-47173170D01*
X218256830Y-47029007D01*
X218235584Y-47014811D01*
X218421276Y-46829119D01*
X218061088Y-46339452D01*
X217397118Y-45979151D01*
X216675615Y-45755306D01*
X215924305Y-45676520D01*
X215172062Y-45745822D01*
X214447792Y-45960548D01*
X213779330Y-46312445D01*
X213738912Y-46339452D01*
X213378724Y-46829119D01*
X213564416Y-47014811D01*
X213543170Y-47029007D01*
X213399007Y-47173170D01*
X213384811Y-47194416D01*
X213199119Y-47008724D01*
X212709452Y-47368912D01*
X212349151Y-48032882D01*
X212125306Y-48754385D01*
X212046520Y-49505695D01*
X171453794Y-49505695D01*
X171493480Y-49127249D01*
X171424178Y-48375006D01*
X171209452Y-47650736D01*
X170857555Y-46982274D01*
X170830548Y-46941856D01*
X170340881Y-46581668D01*
X170155189Y-46767360D01*
X170140993Y-46746114D01*
X169996830Y-46601951D01*
X169975584Y-46587755D01*
X170161276Y-46402063D01*
X169801088Y-45912396D01*
X169137118Y-45552095D01*
X168415615Y-45328250D01*
X167664305Y-45249464D01*
X166912062Y-45318766D01*
X166187792Y-45533492D01*
X165519330Y-45885389D01*
X165478912Y-45912396D01*
X165118724Y-46402063D01*
X165304416Y-46587755D01*
X165283170Y-46601951D01*
X165139007Y-46746114D01*
X165124811Y-46767360D01*
X164939119Y-46581668D01*
X164449452Y-46941856D01*
X164089151Y-47605826D01*
X163865306Y-48327329D01*
X163786520Y-49078639D01*
X160705000Y-49078639D01*
X160705000Y-45135000D01*
X222835000Y-45135000D01*
X222835001Y-145365000D01*
G37*
X222835001Y-145365000D02*
X218109304Y-145365000D01*
X218421276Y-144940881D01*
X218235584Y-144755189D01*
X218256830Y-144740993D01*
X218400993Y-144596830D01*
X218415189Y-144575584D01*
X218600881Y-144761276D01*
X219090548Y-144401088D01*
X219450849Y-143737118D01*
X219674694Y-143015615D01*
X219753480Y-142264305D01*
X219684178Y-141512062D01*
X219469452Y-140787792D01*
X219117555Y-140119330D01*
X219090548Y-140078912D01*
X218600881Y-139718724D01*
X218415189Y-139904416D01*
X218400993Y-139883170D01*
X218256830Y-139739007D01*
X218235584Y-139724811D01*
X218421276Y-139539119D01*
X218061088Y-139049452D01*
X217397118Y-138689151D01*
X216675615Y-138465306D01*
X215924305Y-138386520D01*
X215172062Y-138455822D01*
X214447792Y-138670548D01*
X213779330Y-139022445D01*
X213738912Y-139049452D01*
X213378724Y-139539119D01*
X213564416Y-139724811D01*
X213543170Y-139739007D01*
X213399007Y-139883170D01*
X213384811Y-139904416D01*
X213199119Y-139718724D01*
X212709452Y-140078912D01*
X212349151Y-140742882D01*
X212125306Y-141464385D01*
X212046520Y-142215695D01*
X212115822Y-142967938D01*
X212330548Y-143692208D01*
X212682445Y-144360670D01*
X212709452Y-144401088D01*
X213199119Y-144761276D01*
X213384811Y-144575584D01*
X213399007Y-144596830D01*
X213543170Y-144740993D01*
X213564416Y-144755189D01*
X213378724Y-144940881D01*
X213690696Y-145365000D01*
X208327159Y-145365000D01*
X208444180Y-145329502D01*
X208554494Y-145270537D01*
X208651185Y-145191185D01*
X208730537Y-145094494D01*
X208789502Y-144984180D01*
X208825812Y-144864482D01*
X208838072Y-144740000D01*
X208835000Y-142525750D01*
X208676250Y-142367000D01*
X203327000Y-142367000D01*
X203327000Y-142387000D01*
X203073000Y-142387000D01*
X203073000Y-142367000D01*
X197723750Y-142367000D01*
X197565000Y-142525750D01*
X197561928Y-144740000D01*
X197574188Y-144864482D01*
X197610498Y-144984180D01*
X197669463Y-145094494D01*
X197748815Y-145191185D01*
X197845506Y-145270537D01*
X197955820Y-145329502D01*
X198072841Y-145365000D01*
X185467159Y-145365000D01*
X185584180Y-145329502D01*
X185694494Y-145270537D01*
X185791185Y-145191185D01*
X185870537Y-145094494D01*
X185929502Y-144984180D01*
X185965812Y-144864482D01*
X185978072Y-144740000D01*
X185976838Y-143850000D01*
X189511928Y-143850000D01*
X189524188Y-143974482D01*
X189560498Y-144094180D01*
X189619463Y-144204494D01*
X189698815Y-144301185D01*
X189795506Y-144380537D01*
X189905820Y-144439502D01*
X190025518Y-144475812D01*
X190150000Y-144488072D01*
X190714250Y-144485000D01*
X190873000Y-144326250D01*
X190873000Y-143127000D01*
X191127000Y-143127000D01*
X191127000Y-144326250D01*
X191285750Y-144485000D01*
X191850000Y-144488072D01*
X191974482Y-144475812D01*
X192094180Y-144439502D01*
X192204494Y-144380537D01*
X192301185Y-144301185D01*
X192380537Y-144204494D01*
X192439502Y-144094180D01*
X192463966Y-144013534D01*
X192539731Y-144097588D01*
X192773080Y-144271641D01*
X193035901Y-144396825D01*
X193183110Y-144441476D01*
X193413000Y-144320155D01*
X193413000Y-143127000D01*
X193667000Y-143127000D01*
X193667000Y-144320155D01*
X193896890Y-144441476D01*
X194044099Y-144396825D01*
X194306920Y-144271641D01*
X194540269Y-144097588D01*
X194735178Y-143881355D01*
X194884157Y-143631252D01*
X194981481Y-143356891D01*
X194860814Y-143127000D01*
X193667000Y-143127000D01*
X193413000Y-143127000D01*
X191127000Y-143127000D01*
X190873000Y-143127000D01*
X189673750Y-143127000D01*
X189515000Y-143285750D01*
X189511928Y-143850000D01*
X185976838Y-143850000D01*
X185975000Y-142525750D01*
X185816250Y-142367000D01*
X180467000Y-142367000D01*
X180467000Y-142387000D01*
X180213000Y-142387000D01*
X180213000Y-142367000D01*
X174863750Y-142367000D01*
X174705000Y-142525750D01*
X174701928Y-144740000D01*
X174714188Y-144864482D01*
X174750498Y-144984180D01*
X174809463Y-145094494D01*
X174888815Y-145191185D01*
X174985506Y-145270537D01*
X175095820Y-145329502D01*
X175212841Y-145365000D01*
X169849304Y-145365000D01*
X170161276Y-144940881D01*
X169975584Y-144755189D01*
X169996830Y-144740993D01*
X170140993Y-144596830D01*
X170155189Y-144575584D01*
X170340881Y-144761276D01*
X170830548Y-144401088D01*
X171190849Y-143737118D01*
X171414694Y-143015615D01*
X171493480Y-142264305D01*
X171482950Y-142150000D01*
X189511928Y-142150000D01*
X189515000Y-142714250D01*
X189673750Y-142873000D01*
X190873000Y-142873000D01*
X190873000Y-141673750D01*
X191127000Y-141673750D01*
X191127000Y-142873000D01*
X193413000Y-142873000D01*
X193413000Y-141679845D01*
X193667000Y-141679845D01*
X193667000Y-142873000D01*
X194860814Y-142873000D01*
X194981481Y-142643109D01*
X194884157Y-142368748D01*
X194735178Y-142118645D01*
X194540269Y-141902412D01*
X194306920Y-141728359D01*
X194044099Y-141603175D01*
X193896890Y-141558524D01*
X193667000Y-141679845D01*
X193413000Y-141679845D01*
X193183110Y-141558524D01*
X193035901Y-141603175D01*
X192773080Y-141728359D01*
X192539731Y-141902412D01*
X192463966Y-141986466D01*
X192439502Y-141905820D01*
X192380537Y-141795506D01*
X192301185Y-141698815D01*
X192204494Y-141619463D01*
X192094180Y-141560498D01*
X191974482Y-141524188D01*
X191850000Y-141511928D01*
X191285750Y-141515000D01*
X191127000Y-141673750D01*
X190873000Y-141673750D01*
X190714250Y-141515000D01*
X190150000Y-141511928D01*
X190025518Y-141524188D01*
X189905820Y-141560498D01*
X189795506Y-141619463D01*
X189698815Y-141698815D01*
X189619463Y-141795506D01*
X189560498Y-141905820D01*
X189524188Y-142025518D01*
X189511928Y-142150000D01*
X171482950Y-142150000D01*
X171424178Y-141512062D01*
X171209452Y-140787792D01*
X170857555Y-140119330D01*
X170830548Y-140078912D01*
X170369806Y-139740000D01*
X174701928Y-139740000D01*
X174705000Y-141954250D01*
X174863750Y-142113000D01*
X180213000Y-142113000D01*
X180213000Y-139263750D01*
X180467000Y-139263750D01*
X180467000Y-142113000D01*
X185816250Y-142113000D01*
X185975000Y-141954250D01*
X185978072Y-139740000D01*
X197561928Y-139740000D01*
X197565000Y-141954250D01*
X197723750Y-142113000D01*
X203073000Y-142113000D01*
X203073000Y-139263750D01*
X203327000Y-139263750D01*
X203327000Y-142113000D01*
X208676250Y-142113000D01*
X208835000Y-141954250D01*
X208838072Y-139740000D01*
X208825812Y-139615518D01*
X208789502Y-139495820D01*
X208730537Y-139385506D01*
X208651185Y-139288815D01*
X208554494Y-139209463D01*
X208444180Y-139150498D01*
X208324482Y-139114188D01*
X208200000Y-139101928D01*
X203485750Y-139105000D01*
X203327000Y-139263750D01*
X203073000Y-139263750D01*
X202914250Y-139105000D01*
X198200000Y-139101928D01*
X198075518Y-139114188D01*
X197955820Y-139150498D01*
X197845506Y-139209463D01*
X197748815Y-139288815D01*
X197669463Y-139385506D01*
X197610498Y-139495820D01*
X197574188Y-139615518D01*
X197561928Y-139740000D01*
X185978072Y-139740000D01*
X185965812Y-139615518D01*
X185929502Y-139495820D01*
X185870537Y-139385506D01*
X185791185Y-139288815D01*
X185694494Y-139209463D01*
X185584180Y-139150498D01*
X185464482Y-139114188D01*
X185340000Y-139101928D01*
X180625750Y-139105000D01*
X180467000Y-139263750D01*
X180213000Y-139263750D01*
X180054250Y-139105000D01*
X175340000Y-139101928D01*
X175215518Y-139114188D01*
X175095820Y-139150498D01*
X174985506Y-139209463D01*
X174888815Y-139288815D01*
X174809463Y-139385506D01*
X174750498Y-139495820D01*
X174714188Y-139615518D01*
X174701928Y-139740000D01*
X170369806Y-139740000D01*
X170340881Y-139718724D01*
X170155189Y-139904416D01*
X170140993Y-139883170D01*
X169996830Y-139739007D01*
X169975584Y-139724811D01*
X170161276Y-139539119D01*
X169801088Y-139049452D01*
X169137118Y-138689151D01*
X168415615Y-138465306D01*
X167664305Y-138386520D01*
X166912062Y-138455822D01*
X166187792Y-138670548D01*
X165519330Y-139022445D01*
X165478912Y-139049452D01*
X165118724Y-139539119D01*
X165304416Y-139724811D01*
X165283170Y-139739007D01*
X165139007Y-139883170D01*
X165124811Y-139904416D01*
X164939119Y-139718724D01*
X164449452Y-140078912D01*
X164089151Y-140742882D01*
X163865306Y-141464385D01*
X163786520Y-142215695D01*
X163855822Y-142967938D01*
X164070548Y-143692208D01*
X164422445Y-144360670D01*
X164449452Y-144401088D01*
X164939119Y-144761276D01*
X165124811Y-144575584D01*
X165139007Y-144596830D01*
X165283170Y-144740993D01*
X165304416Y-144755189D01*
X165118724Y-144940881D01*
X165430696Y-145365000D01*
X160705000Y-145365000D01*
X160705000Y-133370000D01*
X165751928Y-133370000D01*
X165751928Y-135870000D01*
X165764188Y-135994482D01*
X165800498Y-136114180D01*
X165859463Y-136224494D01*
X165938815Y-136321185D01*
X166035506Y-136400537D01*
X166145820Y-136459502D01*
X166265518Y-136495812D01*
X166390000Y-136508072D01*
X168890000Y-136508072D01*
X169014482Y-136495812D01*
X169134180Y-136459502D01*
X169244494Y-136400537D01*
X169341185Y-136321185D01*
X169420537Y-136224494D01*
X169479502Y-136114180D01*
X169515812Y-135994482D01*
X169528072Y-135870000D01*
X169528072Y-135380000D01*
X173065599Y-135380000D01*
X174086601Y-136401003D01*
X174110399Y-136430001D01*
X174226124Y-136524974D01*
X174358153Y-136595546D01*
X174501414Y-136639003D01*
X174613067Y-136650000D01*
X174613076Y-136650000D01*
X174650399Y-136653676D01*
X174687722Y-136650000D01*
X175041928Y-136650000D01*
X175041928Y-136740000D01*
X175054188Y-136864482D01*
X175090498Y-136984180D01*
X175149463Y-137094494D01*
X175228815Y-137191185D01*
X175325506Y-137270537D01*
X175435820Y-137329502D01*
X175555518Y-137365812D01*
X175680000Y-137378072D01*
X177380000Y-137378072D01*
X177504482Y-137365812D01*
X177624180Y-137329502D01*
X177734494Y-137270537D01*
X177831185Y-137191185D01*
X177910537Y-137094494D01*
X177969502Y-136984180D01*
X178005812Y-136864482D01*
X178018072Y-136740000D01*
X178018072Y-136650000D01*
X178851928Y-136650000D01*
X178851928Y-136740000D01*
X178864188Y-136864482D01*
X178900498Y-136984180D01*
X178959463Y-137094494D01*
X179038815Y-137191185D01*
X179135506Y-137270537D01*
X179245820Y-137329502D01*
X179365518Y-137365812D01*
X179490000Y-137378072D01*
X181190000Y-137378072D01*
X181314482Y-137365812D01*
X181434180Y-137329502D01*
X181544494Y-137270537D01*
X181641185Y-137191185D01*
X181720537Y-137094494D01*
X181779502Y-136984180D01*
X181815812Y-136864482D01*
X181828072Y-136740000D01*
X181828072Y-135040000D01*
X181815812Y-134915518D01*
X181779502Y-134795820D01*
X181720537Y-134685506D01*
X181641185Y-134588815D01*
X181544494Y-134509463D01*
X181434180Y-134450498D01*
X181361620Y-134428487D01*
X181493475Y-134296632D01*
X181655990Y-134053411D01*
X181767932Y-133783158D01*
X181825000Y-133496260D01*
X181825000Y-133203740D01*
X181767932Y-132916842D01*
X181655990Y-132646589D01*
X181493475Y-132403368D01*
X181286632Y-132196525D01*
X181112240Y-132080000D01*
X181286632Y-131963475D01*
X181493475Y-131756632D01*
X181655990Y-131513411D01*
X181767932Y-131243158D01*
X181825000Y-130956260D01*
X181825000Y-130663740D01*
X181767932Y-130376842D01*
X181655990Y-130106589D01*
X181493475Y-129863368D01*
X181286632Y-129656525D01*
X181112240Y-129540000D01*
X181286632Y-129423475D01*
X181493475Y-129216632D01*
X181655990Y-128973411D01*
X181767932Y-128703158D01*
X181825000Y-128416260D01*
X181825000Y-128123740D01*
X181767932Y-127836842D01*
X181655990Y-127566589D01*
X181493475Y-127323368D01*
X181286632Y-127116525D01*
X181112240Y-127000000D01*
X181286632Y-126883475D01*
X181493475Y-126676632D01*
X181655990Y-126433411D01*
X181767932Y-126163158D01*
X181825000Y-125876260D01*
X181825000Y-125583740D01*
X181767932Y-125296842D01*
X181655990Y-125026589D01*
X181493475Y-124783368D01*
X181286632Y-124576525D01*
X181112240Y-124460000D01*
X181286632Y-124343475D01*
X181493475Y-124136632D01*
X181655990Y-123893411D01*
X181767932Y-123623158D01*
X181825000Y-123336260D01*
X181825000Y-123043740D01*
X181767932Y-122756842D01*
X181655990Y-122486589D01*
X181493475Y-122243368D01*
X181286632Y-122036525D01*
X181112240Y-121920000D01*
X181286632Y-121803475D01*
X181493475Y-121596632D01*
X181655990Y-121353411D01*
X181767932Y-121083158D01*
X181825000Y-120796260D01*
X181825000Y-120503740D01*
X181767932Y-120216842D01*
X181655990Y-119946589D01*
X181493475Y-119703368D01*
X181286632Y-119496525D01*
X181112240Y-119380000D01*
X181286632Y-119263475D01*
X181493475Y-119056632D01*
X181655990Y-118813411D01*
X181767932Y-118543158D01*
X181825000Y-118256260D01*
X181825000Y-117963740D01*
X181767932Y-117676842D01*
X181655990Y-117406589D01*
X181493475Y-117163368D01*
X181286632Y-116956525D01*
X181043411Y-116794010D01*
X180773158Y-116682068D01*
X180486260Y-116625000D01*
X180193740Y-116625000D01*
X179906842Y-116682068D01*
X179636589Y-116794010D01*
X179393368Y-116956525D01*
X179186525Y-117163368D01*
X179061822Y-117350000D01*
X177808178Y-117350000D01*
X177683475Y-117163368D01*
X177476632Y-116956525D01*
X177233411Y-116794010D01*
X176963158Y-116682068D01*
X176676260Y-116625000D01*
X176383740Y-116625000D01*
X176163592Y-116668790D01*
X175768802Y-116274001D01*
X175745000Y-116244998D01*
X175629275Y-116150025D01*
X175608588Y-116138967D01*
X182965000Y-116138967D01*
X182965000Y-116461033D01*
X183027832Y-116776912D01*
X183151082Y-117074463D01*
X183330013Y-117342252D01*
X183557748Y-117569987D01*
X183557767Y-117570000D01*
X183557748Y-117570013D01*
X183330013Y-117797748D01*
X183151082Y-118065537D01*
X183027832Y-118363088D01*
X182965000Y-118678967D01*
X182965000Y-119001033D01*
X183027832Y-119316912D01*
X183151082Y-119614463D01*
X183330013Y-119882252D01*
X183557748Y-120109987D01*
X183557767Y-120110000D01*
X183557748Y-120110013D01*
X183330013Y-120337748D01*
X183151082Y-120605537D01*
X183027832Y-120903088D01*
X182965000Y-121218967D01*
X182965000Y-121541033D01*
X183027832Y-121856912D01*
X183151082Y-122154463D01*
X183330013Y-122422252D01*
X183557748Y-122649987D01*
X183557767Y-122650000D01*
X183557748Y-122650013D01*
X183330013Y-122877748D01*
X183151082Y-123145537D01*
X183027832Y-123443088D01*
X182965000Y-123758967D01*
X182965000Y-124081033D01*
X183027832Y-124396912D01*
X183151082Y-124694463D01*
X183330013Y-124962252D01*
X183557748Y-125189987D01*
X183557767Y-125190000D01*
X183557748Y-125190013D01*
X183330013Y-125417748D01*
X183151082Y-125685537D01*
X183027832Y-125983088D01*
X182965000Y-126298967D01*
X182965000Y-126621033D01*
X183027832Y-126936912D01*
X183151082Y-127234463D01*
X183330013Y-127502252D01*
X183557748Y-127729987D01*
X183557767Y-127730000D01*
X183557748Y-127730013D01*
X183330013Y-127957748D01*
X183151082Y-128225537D01*
X183027832Y-128523088D01*
X182965000Y-128838967D01*
X182965000Y-129161033D01*
X183027832Y-129476912D01*
X183151082Y-129774463D01*
X183330013Y-130042252D01*
X183557748Y-130269987D01*
X183557767Y-130270000D01*
X183557748Y-130270013D01*
X183330013Y-130497748D01*
X183151082Y-130765537D01*
X183027832Y-131063088D01*
X182965000Y-131378967D01*
X182965000Y-131701033D01*
X183027832Y-132016912D01*
X183151082Y-132314463D01*
X183330013Y-132582252D01*
X183557748Y-132809987D01*
X183557767Y-132810000D01*
X183557748Y-132810013D01*
X183330013Y-133037748D01*
X183151082Y-133305537D01*
X183027832Y-133603088D01*
X182965000Y-133918967D01*
X182965000Y-134241033D01*
X183027832Y-134556912D01*
X183151082Y-134854463D01*
X183330013Y-135122252D01*
X183557748Y-135349987D01*
X183557767Y-135350000D01*
X183557748Y-135350013D01*
X183330013Y-135577748D01*
X183151082Y-135845537D01*
X183027832Y-136143088D01*
X182965000Y-136458967D01*
X182965000Y-136781033D01*
X183027832Y-137096912D01*
X183151082Y-137394463D01*
X183330013Y-137662252D01*
X183557748Y-137889987D01*
X183825537Y-138068918D01*
X184123088Y-138192168D01*
X184438967Y-138255000D01*
X184761033Y-138255000D01*
X185076912Y-138192168D01*
X185374463Y-138068918D01*
X185642252Y-137889987D01*
X185869987Y-137662252D01*
X185870000Y-137662233D01*
X185870013Y-137662252D01*
X186097748Y-137889987D01*
X186365537Y-138068918D01*
X186663088Y-138192168D01*
X186978967Y-138255000D01*
X187301033Y-138255000D01*
X187616912Y-138192168D01*
X187914463Y-138068918D01*
X188182252Y-137889987D01*
X188409987Y-137662252D01*
X188410000Y-137662233D01*
X188410013Y-137662252D01*
X188637748Y-137889987D01*
X188905537Y-138068918D01*
X189203088Y-138192168D01*
X189518967Y-138255000D01*
X189841033Y-138255000D01*
X190156912Y-138192168D01*
X190454463Y-138068918D01*
X190722252Y-137889987D01*
X190949987Y-137662252D01*
X190950000Y-137662233D01*
X190950013Y-137662252D01*
X191177748Y-137889987D01*
X191445537Y-138068918D01*
X191743088Y-138192168D01*
X192058967Y-138255000D01*
X192381033Y-138255000D01*
X192696912Y-138192168D01*
X192994463Y-138068918D01*
X193262252Y-137889987D01*
X193489987Y-137662252D01*
X193490000Y-137662233D01*
X193490013Y-137662252D01*
X193717748Y-137889987D01*
X193985537Y-138068918D01*
X194283088Y-138192168D01*
X194598967Y-138255000D01*
X194921033Y-138255000D01*
X195236912Y-138192168D01*
X195534463Y-138068918D01*
X195802252Y-137889987D01*
X196029987Y-137662252D01*
X196030000Y-137662233D01*
X196030013Y-137662252D01*
X196257748Y-137889987D01*
X196525537Y-138068918D01*
X196823088Y-138192168D01*
X197138967Y-138255000D01*
X197461033Y-138255000D01*
X197776912Y-138192168D01*
X198074463Y-138068918D01*
X198342252Y-137889987D01*
X198569987Y-137662252D01*
X198570000Y-137662233D01*
X198570013Y-137662252D01*
X198797748Y-137889987D01*
X199065537Y-138068918D01*
X199363088Y-138192168D01*
X199678967Y-138255000D01*
X200001033Y-138255000D01*
X200316912Y-138192168D01*
X200614463Y-138068918D01*
X200882252Y-137889987D01*
X201109987Y-137662252D01*
X201288918Y-137394463D01*
X201412168Y-137096912D01*
X201475000Y-136781033D01*
X201475000Y-136458967D01*
X201412168Y-136143088D01*
X201288918Y-135845537D01*
X201109987Y-135577748D01*
X200882252Y-135350013D01*
X200882233Y-135350000D01*
X200882252Y-135349987D01*
X201109987Y-135122252D01*
X201288918Y-134854463D01*
X201412168Y-134556912D01*
X201475000Y-134241033D01*
X201475000Y-133918967D01*
X201412168Y-133603088D01*
X201288918Y-133305537D01*
X201109987Y-133037748D01*
X200882252Y-132810013D01*
X200882233Y-132810000D01*
X200882252Y-132809987D01*
X201109987Y-132582252D01*
X201288918Y-132314463D01*
X201412168Y-132016912D01*
X201475000Y-131701033D01*
X201475000Y-131378967D01*
X201412168Y-131063088D01*
X201288918Y-130765537D01*
X201109987Y-130497748D01*
X200882252Y-130270013D01*
X200882233Y-130270000D01*
X200882252Y-130269987D01*
X201109987Y-130042252D01*
X201288918Y-129774463D01*
X201412168Y-129476912D01*
X201475000Y-129161033D01*
X201475000Y-128838967D01*
X201412168Y-128523088D01*
X201288918Y-128225537D01*
X201109987Y-127957748D01*
X200882252Y-127730013D01*
X200882233Y-127730000D01*
X200882252Y-127729987D01*
X201109987Y-127502252D01*
X201288918Y-127234463D01*
X201412168Y-126936912D01*
X201475000Y-126621033D01*
X201475000Y-126298967D01*
X201412168Y-125983088D01*
X201288918Y-125685537D01*
X201109987Y-125417748D01*
X200882252Y-125190013D01*
X200882233Y-125190000D01*
X200882252Y-125189987D01*
X201109987Y-124962252D01*
X201288918Y-124694463D01*
X201412168Y-124396912D01*
X201475000Y-124081033D01*
X201475000Y-123758967D01*
X201412168Y-123443088D01*
X201288918Y-123145537D01*
X201109987Y-122877748D01*
X200882252Y-122650013D01*
X200882233Y-122650000D01*
X200882252Y-122649987D01*
X201109987Y-122422252D01*
X201288918Y-122154463D01*
X201412168Y-121856912D01*
X201475000Y-121541033D01*
X201475000Y-121218967D01*
X201412168Y-120903088D01*
X201288918Y-120605537D01*
X201109987Y-120337748D01*
X200882252Y-120110013D01*
X200882233Y-120110000D01*
X200882252Y-120109987D01*
X201109987Y-119882252D01*
X201288918Y-119614463D01*
X201412168Y-119316912D01*
X201475000Y-119001033D01*
X201475000Y-118678967D01*
X201412168Y-118363088D01*
X201288918Y-118065537D01*
X201109987Y-117797748D01*
X200882252Y-117570013D01*
X200882233Y-117570000D01*
X200882252Y-117569987D01*
X201109987Y-117342252D01*
X201164946Y-117260000D01*
X202981928Y-117260000D01*
X202981928Y-118960000D01*
X202994188Y-119084482D01*
X203030498Y-119204180D01*
X203089463Y-119314494D01*
X203168815Y-119411185D01*
X203265506Y-119490537D01*
X203375820Y-119549502D01*
X203448380Y-119571513D01*
X203316525Y-119703368D01*
X203154010Y-119946589D01*
X203042068Y-120216842D01*
X202985000Y-120503740D01*
X202985000Y-120796260D01*
X203042068Y-121083158D01*
X203154010Y-121353411D01*
X203316525Y-121596632D01*
X203523368Y-121803475D01*
X203697760Y-121920000D01*
X203523368Y-122036525D01*
X203316525Y-122243368D01*
X203154010Y-122486589D01*
X203042068Y-122756842D01*
X202985000Y-123043740D01*
X202985000Y-123336260D01*
X203042068Y-123623158D01*
X203154010Y-123893411D01*
X203316525Y-124136632D01*
X203523368Y-124343475D01*
X203697760Y-124460000D01*
X203523368Y-124576525D01*
X203316525Y-124783368D01*
X203154010Y-125026589D01*
X203042068Y-125296842D01*
X202985000Y-125583740D01*
X202985000Y-125876260D01*
X203042068Y-126163158D01*
X203154010Y-126433411D01*
X203316525Y-126676632D01*
X203523368Y-126883475D01*
X203697760Y-127000000D01*
X203523368Y-127116525D01*
X203316525Y-127323368D01*
X203154010Y-127566589D01*
X203042068Y-127836842D01*
X202985000Y-128123740D01*
X202985000Y-128416260D01*
X203042068Y-128703158D01*
X203154010Y-128973411D01*
X203316525Y-129216632D01*
X203523368Y-129423475D01*
X203697760Y-129540000D01*
X203523368Y-129656525D01*
X203316525Y-129863368D01*
X203154010Y-130106589D01*
X203042068Y-130376842D01*
X202985000Y-130663740D01*
X202985000Y-130956260D01*
X203042068Y-131243158D01*
X203154010Y-131513411D01*
X203316525Y-131756632D01*
X203523368Y-131963475D01*
X203697760Y-132080000D01*
X203523368Y-132196525D01*
X203316525Y-132403368D01*
X203154010Y-132646589D01*
X203042068Y-132916842D01*
X202985000Y-133203740D01*
X202985000Y-133496260D01*
X203042068Y-133783158D01*
X203154010Y-134053411D01*
X203316525Y-134296632D01*
X203523368Y-134503475D01*
X203697760Y-134620000D01*
X203523368Y-134736525D01*
X203316525Y-134943368D01*
X203154010Y-135186589D01*
X203042068Y-135456842D01*
X202985000Y-135743740D01*
X202985000Y-136036260D01*
X203042068Y-136323158D01*
X203154010Y-136593411D01*
X203316525Y-136836632D01*
X203523368Y-137043475D01*
X203766589Y-137205990D01*
X204036842Y-137317932D01*
X204323740Y-137375000D01*
X204616260Y-137375000D01*
X204903158Y-137317932D01*
X205173411Y-137205990D01*
X205416632Y-137043475D01*
X205623475Y-136836632D01*
X205748178Y-136650000D01*
X207001822Y-136650000D01*
X207126525Y-136836632D01*
X207333368Y-137043475D01*
X207576589Y-137205990D01*
X207846842Y-137317932D01*
X208133740Y-137375000D01*
X208426260Y-137375000D01*
X208713158Y-137317932D01*
X208983411Y-137205990D01*
X209226632Y-137043475D01*
X209433475Y-136836632D01*
X209558178Y-136650000D01*
X214592678Y-136650000D01*
X214630000Y-136653676D01*
X214667322Y-136650000D01*
X214667333Y-136650000D01*
X214778986Y-136639003D01*
X214922247Y-136595546D01*
X215054276Y-136524974D01*
X215170001Y-136430001D01*
X215193804Y-136400997D01*
X215217282Y-136377519D01*
X215350166Y-136432561D01*
X215714344Y-136505000D01*
X216085656Y-136505000D01*
X216449834Y-136432561D01*
X216792882Y-136290466D01*
X217101618Y-136084175D01*
X217364175Y-135821618D01*
X217570466Y-135512882D01*
X217712561Y-135169834D01*
X217785000Y-134805656D01*
X217785000Y-134434344D01*
X217712561Y-134070166D01*
X217570466Y-133727118D01*
X217364175Y-133418382D01*
X217101618Y-133155825D01*
X216792882Y-132949534D01*
X216449834Y-132807439D01*
X216085656Y-132735000D01*
X215714344Y-132735000D01*
X215350166Y-132807439D01*
X215007118Y-132949534D01*
X214698382Y-133155825D01*
X214435825Y-133418382D01*
X214229534Y-133727118D01*
X214087439Y-134070166D01*
X214015000Y-134434344D01*
X214015000Y-134805656D01*
X214079516Y-135130000D01*
X209558178Y-135130000D01*
X209433475Y-134943368D01*
X209226632Y-134736525D01*
X209052240Y-134620000D01*
X209226632Y-134503475D01*
X209433475Y-134296632D01*
X209558178Y-134110000D01*
X212052678Y-134110000D01*
X212090000Y-134113676D01*
X212127322Y-134110000D01*
X212127333Y-134110000D01*
X212238986Y-134099003D01*
X212382247Y-134055546D01*
X212514276Y-133984974D01*
X212630001Y-133890001D01*
X212653804Y-133860997D01*
X215217283Y-131297519D01*
X215350166Y-131352561D01*
X215714344Y-131425000D01*
X216085656Y-131425000D01*
X216449834Y-131352561D01*
X216792882Y-131210466D01*
X217101618Y-131004175D01*
X217364175Y-130741618D01*
X217570466Y-130432882D01*
X217712561Y-130089834D01*
X217785000Y-129725656D01*
X217785000Y-129354344D01*
X217712561Y-128990166D01*
X217570466Y-128647118D01*
X217364175Y-128338382D01*
X217101618Y-128075825D01*
X216792882Y-127869534D01*
X216449834Y-127727439D01*
X216085656Y-127655000D01*
X215761002Y-127655000D01*
X216411004Y-127004998D01*
X216440001Y-126981201D01*
X216534974Y-126865476D01*
X216605546Y-126733447D01*
X216649003Y-126590186D01*
X216660000Y-126478533D01*
X216660000Y-126478524D01*
X216663676Y-126441201D01*
X216660000Y-126403878D01*
X216660000Y-126185507D01*
X216792882Y-126130466D01*
X217101618Y-125924175D01*
X217364175Y-125661618D01*
X217570466Y-125352882D01*
X217712561Y-125009834D01*
X217785000Y-124645656D01*
X217785000Y-124274344D01*
X217712561Y-123910166D01*
X217570466Y-123567118D01*
X217364175Y-123258382D01*
X217101618Y-122995825D01*
X216792882Y-122789534D01*
X216449834Y-122647439D01*
X216085656Y-122575000D01*
X215714344Y-122575000D01*
X215350166Y-122647439D01*
X215007118Y-122789534D01*
X214698382Y-122995825D01*
X214435825Y-123258382D01*
X214374000Y-123350910D01*
X214374000Y-121980801D01*
X215217283Y-121137519D01*
X215350166Y-121192561D01*
X215714344Y-121265000D01*
X216085656Y-121265000D01*
X216449834Y-121192561D01*
X216792882Y-121050466D01*
X217101618Y-120844175D01*
X217364175Y-120581618D01*
X217570466Y-120272882D01*
X217712561Y-119929834D01*
X217785000Y-119565656D01*
X217785000Y-119194344D01*
X217712561Y-118830166D01*
X217570466Y-118487118D01*
X217364175Y-118178382D01*
X217101618Y-117915825D01*
X216792882Y-117709534D01*
X216449834Y-117567439D01*
X216085656Y-117495000D01*
X215714344Y-117495000D01*
X215506157Y-117536411D01*
X216411004Y-116631564D01*
X216440001Y-116607767D01*
X216534974Y-116492042D01*
X216605546Y-116360013D01*
X216649003Y-116216752D01*
X216660000Y-116105099D01*
X216660000Y-116105091D01*
X216663676Y-116067766D01*
X216660000Y-116030441D01*
X216660000Y-116025507D01*
X216792882Y-115970466D01*
X217101618Y-115764175D01*
X217364175Y-115501618D01*
X217570466Y-115192882D01*
X217712561Y-114849834D01*
X217785000Y-114485656D01*
X217785000Y-114114344D01*
X217712561Y-113750166D01*
X217570466Y-113407118D01*
X217364175Y-113098382D01*
X217101618Y-112835825D01*
X216792882Y-112629534D01*
X216449834Y-112487439D01*
X216085656Y-112415000D01*
X215714344Y-112415000D01*
X215350166Y-112487439D01*
X215007118Y-112629534D01*
X214722411Y-112819769D01*
X214722411Y-111472390D01*
X215217282Y-110977519D01*
X215350166Y-111032561D01*
X215714344Y-111105000D01*
X216085656Y-111105000D01*
X216449834Y-111032561D01*
X216792882Y-110890466D01*
X217101618Y-110684175D01*
X217364175Y-110421618D01*
X217570466Y-110112882D01*
X217712561Y-109769834D01*
X217785000Y-109405656D01*
X217785000Y-109034344D01*
X217712561Y-108670166D01*
X217570466Y-108327118D01*
X217364175Y-108018382D01*
X217101618Y-107755825D01*
X216792882Y-107549534D01*
X216449834Y-107407439D01*
X216085656Y-107335000D01*
X215714344Y-107335000D01*
X215350166Y-107407439D01*
X215007118Y-107549534D01*
X214698382Y-107755825D01*
X214435825Y-108018382D01*
X214272400Y-108262965D01*
X214272400Y-106842401D01*
X215217283Y-105897519D01*
X215350166Y-105952561D01*
X215714344Y-106025000D01*
X216085656Y-106025000D01*
X216449834Y-105952561D01*
X216792882Y-105810466D01*
X217101618Y-105604175D01*
X217364175Y-105341618D01*
X217570466Y-105032882D01*
X217712561Y-104689834D01*
X217785000Y-104325656D01*
X217785000Y-103954344D01*
X217712561Y-103590166D01*
X217570466Y-103247118D01*
X217364175Y-102938382D01*
X217101618Y-102675825D01*
X216792882Y-102469534D01*
X216449834Y-102327439D01*
X216085656Y-102255000D01*
X215714344Y-102255000D01*
X215350166Y-102327439D01*
X215007118Y-102469534D01*
X214698382Y-102675825D01*
X214435825Y-102938382D01*
X214229534Y-103247118D01*
X214087439Y-103590166D01*
X214015000Y-103954344D01*
X214015000Y-104325656D01*
X214087439Y-104689834D01*
X214142481Y-104822717D01*
X213510400Y-105454799D01*
X213510400Y-102524401D01*
X215086730Y-100948072D01*
X217150000Y-100948072D01*
X217274482Y-100935812D01*
X217394180Y-100899502D01*
X217504494Y-100840537D01*
X217601185Y-100761185D01*
X217680537Y-100664494D01*
X217739502Y-100554180D01*
X217775812Y-100434482D01*
X217788072Y-100310000D01*
X217788072Y-97810000D01*
X217775812Y-97685518D01*
X217739502Y-97565820D01*
X217680537Y-97455506D01*
X217601185Y-97358815D01*
X217504494Y-97279463D01*
X217394180Y-97220498D01*
X217274482Y-97184188D01*
X217150000Y-97171928D01*
X214650000Y-97171928D01*
X214525518Y-97184188D01*
X214405820Y-97220498D01*
X214295506Y-97279463D01*
X214198815Y-97358815D01*
X214119463Y-97455506D01*
X214060498Y-97565820D01*
X214024188Y-97685518D01*
X214011928Y-97810000D01*
X214011928Y-99873270D01*
X212239398Y-101645801D01*
X212210400Y-101669599D01*
X212186602Y-101698597D01*
X212186601Y-101698598D01*
X212115426Y-101785324D01*
X212044854Y-101917354D01*
X212001398Y-102060615D01*
X211986724Y-102209600D01*
X211990401Y-102246932D01*
X211990400Y-116321997D01*
X210962399Y-117350000D01*
X209768072Y-117350000D01*
X209768072Y-117260000D01*
X209755812Y-117135518D01*
X209719502Y-117015820D01*
X209660537Y-116905506D01*
X209581185Y-116808815D01*
X209484494Y-116729463D01*
X209374180Y-116670498D01*
X209254482Y-116634188D01*
X209130000Y-116621928D01*
X207430000Y-116621928D01*
X207305518Y-116634188D01*
X207185820Y-116670498D01*
X207075506Y-116729463D01*
X206978815Y-116808815D01*
X206899463Y-116905506D01*
X206840498Y-117015820D01*
X206804188Y-117135518D01*
X206791928Y-117260000D01*
X206791928Y-117350000D01*
X205958072Y-117350000D01*
X205958072Y-117260000D01*
X205945812Y-117135518D01*
X205909502Y-117015820D01*
X205850537Y-116905506D01*
X205771185Y-116808815D01*
X205674494Y-116729463D01*
X205564180Y-116670498D01*
X205444482Y-116634188D01*
X205320000Y-116621928D01*
X203620000Y-116621928D01*
X203495518Y-116634188D01*
X203375820Y-116670498D01*
X203265506Y-116729463D01*
X203168815Y-116808815D01*
X203089463Y-116905506D01*
X203030498Y-117015820D01*
X202994188Y-117135518D01*
X202981928Y-117260000D01*
X201164946Y-117260000D01*
X201288918Y-117074463D01*
X201412168Y-116776912D01*
X201475000Y-116461033D01*
X201475000Y-116138967D01*
X201412168Y-115823088D01*
X201288918Y-115525537D01*
X201109987Y-115257748D01*
X200882252Y-115030013D01*
X200614463Y-114851082D01*
X200316912Y-114727832D01*
X200001033Y-114665000D01*
X199678967Y-114665000D01*
X199363088Y-114727832D01*
X199065537Y-114851082D01*
X198797748Y-115030013D01*
X198570013Y-115257748D01*
X198570000Y-115257767D01*
X198569987Y-115257748D01*
X198342252Y-115030013D01*
X198074463Y-114851082D01*
X197776912Y-114727832D01*
X197461033Y-114665000D01*
X197138967Y-114665000D01*
X196823088Y-114727832D01*
X196525537Y-114851082D01*
X196257748Y-115030013D01*
X196030013Y-115257748D01*
X196030000Y-115257767D01*
X196029987Y-115257748D01*
X195802252Y-115030013D01*
X195534463Y-114851082D01*
X195236912Y-114727832D01*
X194921033Y-114665000D01*
X194598967Y-114665000D01*
X194283088Y-114727832D01*
X193985537Y-114851082D01*
X193717748Y-115030013D01*
X193490013Y-115257748D01*
X193490000Y-115257767D01*
X193489987Y-115257748D01*
X193262252Y-115030013D01*
X192994463Y-114851082D01*
X192696912Y-114727832D01*
X192381033Y-114665000D01*
X192058967Y-114665000D01*
X191743088Y-114727832D01*
X191445537Y-114851082D01*
X191177748Y-115030013D01*
X190950013Y-115257748D01*
X190950000Y-115257767D01*
X190949987Y-115257748D01*
X190722252Y-115030013D01*
X190454463Y-114851082D01*
X190156912Y-114727832D01*
X189841033Y-114665000D01*
X189518967Y-114665000D01*
X189203088Y-114727832D01*
X188905537Y-114851082D01*
X188637748Y-115030013D01*
X188410013Y-115257748D01*
X188410000Y-115257767D01*
X188409987Y-115257748D01*
X188182252Y-115030013D01*
X187914463Y-114851082D01*
X187616912Y-114727832D01*
X187301033Y-114665000D01*
X186978967Y-114665000D01*
X186663088Y-114727832D01*
X186365537Y-114851082D01*
X186097748Y-115030013D01*
X185870013Y-115257748D01*
X185870000Y-115257767D01*
X185869987Y-115257748D01*
X185642252Y-115030013D01*
X185374463Y-114851082D01*
X185076912Y-114727832D01*
X184761033Y-114665000D01*
X184438967Y-114665000D01*
X184123088Y-114727832D01*
X183825537Y-114851082D01*
X183557748Y-115030013D01*
X183330013Y-115257748D01*
X183151082Y-115525537D01*
X183027832Y-115823088D01*
X182965000Y-116138967D01*
X175608588Y-116138967D01*
X175497246Y-116079453D01*
X175353985Y-116035996D01*
X175242332Y-116024999D01*
X175242321Y-116024999D01*
X175204999Y-116021323D01*
X175167677Y-116024999D01*
X174757801Y-116024999D01*
X174191200Y-115458399D01*
X174191200Y-112254522D01*
X174194876Y-112217199D01*
X174191200Y-112179876D01*
X174191200Y-112179867D01*
X174180203Y-112068214D01*
X174136746Y-111924953D01*
X174066174Y-111792924D01*
X174039165Y-111760013D01*
X173994999Y-111706196D01*
X173994995Y-111706192D01*
X173971201Y-111677199D01*
X173942208Y-111653405D01*
X172667200Y-110378399D01*
X172667200Y-103364522D01*
X172670876Y-103327199D01*
X172667200Y-103289876D01*
X172667200Y-103289867D01*
X172656203Y-103178214D01*
X172612746Y-103034953D01*
X172610651Y-103031033D01*
X172542174Y-102902923D01*
X172470999Y-102816197D01*
X172447201Y-102787199D01*
X172418203Y-102763401D01*
X169397519Y-99742718D01*
X169452561Y-99609834D01*
X169525000Y-99245656D01*
X169525000Y-98874344D01*
X169452561Y-98510166D01*
X169310466Y-98167118D01*
X169104175Y-97858382D01*
X168841618Y-97595825D01*
X168532882Y-97389534D01*
X168189834Y-97247439D01*
X167825656Y-97175000D01*
X167454344Y-97175000D01*
X167090166Y-97247439D01*
X166747118Y-97389534D01*
X166438382Y-97595825D01*
X166175825Y-97858382D01*
X165969534Y-98167118D01*
X165827439Y-98510166D01*
X165755000Y-98874344D01*
X165755000Y-99245656D01*
X165827439Y-99609834D01*
X165969534Y-99952882D01*
X166175825Y-100261618D01*
X166438382Y-100524175D01*
X166747118Y-100730466D01*
X167090166Y-100872561D01*
X167454344Y-100945000D01*
X167825656Y-100945000D01*
X168189834Y-100872561D01*
X168322718Y-100817519D01*
X171147201Y-103642003D01*
X171147201Y-106572398D01*
X169397519Y-104822717D01*
X169452561Y-104689834D01*
X169525000Y-104325656D01*
X169525000Y-103954344D01*
X169452561Y-103590166D01*
X169310466Y-103247118D01*
X169104175Y-102938382D01*
X168841618Y-102675825D01*
X168532882Y-102469534D01*
X168189834Y-102327439D01*
X167825656Y-102255000D01*
X167454344Y-102255000D01*
X167090166Y-102327439D01*
X166747118Y-102469534D01*
X166438382Y-102675825D01*
X166175825Y-102938382D01*
X165969534Y-103247118D01*
X165827439Y-103590166D01*
X165755000Y-103954344D01*
X165755000Y-104325656D01*
X165827439Y-104689834D01*
X165969534Y-105032882D01*
X166175825Y-105341618D01*
X166438382Y-105604175D01*
X166747118Y-105810466D01*
X167090166Y-105952561D01*
X167454344Y-106025000D01*
X167825656Y-106025000D01*
X168189834Y-105952561D01*
X168322717Y-105897519D01*
X170697190Y-108271993D01*
X170697189Y-110842277D01*
X170693513Y-110879600D01*
X170697189Y-110916922D01*
X170697189Y-110916932D01*
X170708186Y-111028585D01*
X170735994Y-111120256D01*
X170751643Y-111171846D01*
X170822215Y-111303876D01*
X170842156Y-111328174D01*
X170917188Y-111419601D01*
X170946192Y-111443404D01*
X172017990Y-112515203D01*
X172017990Y-112523188D01*
X169397519Y-109902718D01*
X169452561Y-109769834D01*
X169525000Y-109405656D01*
X169525000Y-109034344D01*
X169452561Y-108670166D01*
X169310466Y-108327118D01*
X169104175Y-108018382D01*
X168841618Y-107755825D01*
X168532882Y-107549534D01*
X168189834Y-107407439D01*
X167825656Y-107335000D01*
X167454344Y-107335000D01*
X167090166Y-107407439D01*
X166747118Y-107549534D01*
X166438382Y-107755825D01*
X166175825Y-108018382D01*
X165969534Y-108327118D01*
X165827439Y-108670166D01*
X165755000Y-109034344D01*
X165755000Y-109405656D01*
X165827439Y-109769834D01*
X165969534Y-110112882D01*
X166175825Y-110421618D01*
X166438382Y-110684175D01*
X166747118Y-110890466D01*
X167090166Y-111032561D01*
X167454344Y-111105000D01*
X167825656Y-111105000D01*
X168189834Y-111032561D01*
X168322718Y-110977519D01*
X171553601Y-114208403D01*
X171553600Y-118936277D01*
X171549924Y-118973600D01*
X171553600Y-119010922D01*
X171553600Y-119010932D01*
X171564597Y-119122585D01*
X171600261Y-119240154D01*
X171608054Y-119265846D01*
X171678626Y-119397876D01*
X171689549Y-119411185D01*
X171773599Y-119513601D01*
X171802603Y-119537404D01*
X175088790Y-122823592D01*
X175045000Y-123043740D01*
X175045000Y-123170198D01*
X171092400Y-119217599D01*
X171092400Y-117029732D01*
X171096077Y-116992400D01*
X171081403Y-116843414D01*
X171037946Y-116700153D01*
X170967374Y-116568124D01*
X170896199Y-116481397D01*
X170872401Y-116452399D01*
X170843403Y-116428601D01*
X169397519Y-114982717D01*
X169452561Y-114849834D01*
X169525000Y-114485656D01*
X169525000Y-114114344D01*
X169452561Y-113750166D01*
X169310466Y-113407118D01*
X169104175Y-113098382D01*
X168841618Y-112835825D01*
X168532882Y-112629534D01*
X168189834Y-112487439D01*
X167825656Y-112415000D01*
X167454344Y-112415000D01*
X167090166Y-112487439D01*
X166747118Y-112629534D01*
X166438382Y-112835825D01*
X166175825Y-113098382D01*
X165969534Y-113407118D01*
X165827439Y-113750166D01*
X165755000Y-114114344D01*
X165755000Y-114485656D01*
X165827439Y-114849834D01*
X165969534Y-115192882D01*
X166175825Y-115501618D01*
X166438382Y-115764175D01*
X166747118Y-115970466D01*
X167090166Y-116112561D01*
X167454344Y-116185000D01*
X167825656Y-116185000D01*
X168189834Y-116112561D01*
X168322717Y-116057519D01*
X169572401Y-117307203D01*
X169572400Y-119495077D01*
X169568724Y-119532400D01*
X169572400Y-119569722D01*
X169572400Y-119569732D01*
X169583397Y-119681385D01*
X169620675Y-119804276D01*
X169626854Y-119824646D01*
X169697426Y-119956676D01*
X169715424Y-119978606D01*
X169792399Y-120072401D01*
X169821403Y-120096204D01*
X175088790Y-125363592D01*
X175045000Y-125583740D01*
X175045000Y-125710198D01*
X169397519Y-120062718D01*
X169452561Y-119929834D01*
X169525000Y-119565656D01*
X169525000Y-119194344D01*
X169452561Y-118830166D01*
X169310466Y-118487118D01*
X169104175Y-118178382D01*
X168841618Y-117915825D01*
X168532882Y-117709534D01*
X168189834Y-117567439D01*
X167825656Y-117495000D01*
X167454344Y-117495000D01*
X167090166Y-117567439D01*
X166747118Y-117709534D01*
X166438382Y-117915825D01*
X166175825Y-118178382D01*
X165969534Y-118487118D01*
X165827439Y-118830166D01*
X165755000Y-119194344D01*
X165755000Y-119565656D01*
X165827439Y-119929834D01*
X165969534Y-120272882D01*
X166175825Y-120581618D01*
X166438382Y-120844175D01*
X166747118Y-121050466D01*
X167090166Y-121192561D01*
X167454344Y-121265000D01*
X167825656Y-121265000D01*
X168189834Y-121192561D01*
X168322718Y-121137519D01*
X175088790Y-127903592D01*
X175045000Y-128123740D01*
X175045000Y-128416260D01*
X175102068Y-128703158D01*
X175214010Y-128973411D01*
X175376525Y-129216632D01*
X175583368Y-129423475D01*
X175757760Y-129540000D01*
X175583368Y-129656525D01*
X175376525Y-129863368D01*
X175251822Y-130050000D01*
X174304802Y-130050000D01*
X169397519Y-125142718D01*
X169452561Y-125009834D01*
X169525000Y-124645656D01*
X169525000Y-124274344D01*
X169452561Y-123910166D01*
X169310466Y-123567118D01*
X169104175Y-123258382D01*
X168841618Y-122995825D01*
X168532882Y-122789534D01*
X168189834Y-122647439D01*
X167825656Y-122575000D01*
X167454344Y-122575000D01*
X167090166Y-122647439D01*
X166747118Y-122789534D01*
X166438382Y-122995825D01*
X166175825Y-123258382D01*
X165969534Y-123567118D01*
X165827439Y-123910166D01*
X165755000Y-124274344D01*
X165755000Y-124645656D01*
X165827439Y-125009834D01*
X165969534Y-125352882D01*
X166175825Y-125661618D01*
X166438382Y-125924175D01*
X166747118Y-126130466D01*
X167090166Y-126272561D01*
X167454344Y-126345000D01*
X167825656Y-126345000D01*
X168189834Y-126272561D01*
X168322718Y-126217519D01*
X173426201Y-131321003D01*
X173449999Y-131350001D01*
X173478997Y-131373799D01*
X173565723Y-131444974D01*
X173693759Y-131513411D01*
X173697753Y-131515546D01*
X173841014Y-131559003D01*
X173952667Y-131570000D01*
X173952676Y-131570000D01*
X173989999Y-131573676D01*
X174027322Y-131570000D01*
X175251822Y-131570000D01*
X175376525Y-131756632D01*
X175583368Y-131963475D01*
X175757760Y-132080000D01*
X175583368Y-132196525D01*
X175376525Y-132403368D01*
X175251822Y-132590000D01*
X171764802Y-132590000D01*
X169397519Y-130222718D01*
X169452561Y-130089834D01*
X169525000Y-129725656D01*
X169525000Y-129354344D01*
X169452561Y-128990166D01*
X169310466Y-128647118D01*
X169104175Y-128338382D01*
X168841618Y-128075825D01*
X168532882Y-127869534D01*
X168189834Y-127727439D01*
X167825656Y-127655000D01*
X167454344Y-127655000D01*
X167090166Y-127727439D01*
X166747118Y-127869534D01*
X166438382Y-128075825D01*
X166175825Y-128338382D01*
X165969534Y-128647118D01*
X165827439Y-128990166D01*
X165755000Y-129354344D01*
X165755000Y-129725656D01*
X165827439Y-130089834D01*
X165969534Y-130432882D01*
X166175825Y-130741618D01*
X166438382Y-131004175D01*
X166747118Y-131210466D01*
X167090166Y-131352561D01*
X167454344Y-131425000D01*
X167825656Y-131425000D01*
X168189834Y-131352561D01*
X168322718Y-131297519D01*
X170885198Y-133860000D01*
X169528072Y-133860000D01*
X169528072Y-133370000D01*
X169515812Y-133245518D01*
X169479502Y-133125820D01*
X169420537Y-133015506D01*
X169341185Y-132918815D01*
X169244494Y-132839463D01*
X169134180Y-132780498D01*
X169014482Y-132744188D01*
X168890000Y-132731928D01*
X166390000Y-132731928D01*
X166265518Y-132744188D01*
X166145820Y-132780498D01*
X166035506Y-132839463D01*
X165938815Y-132918815D01*
X165859463Y-133015506D01*
X165800498Y-133125820D01*
X165764188Y-133245518D01*
X165751928Y-133370000D01*
X160705000Y-133370000D01*
X160705000Y-90190000D01*
X165751928Y-90190000D01*
X165751928Y-92690000D01*
X165764188Y-92814482D01*
X165800498Y-92934180D01*
X165859463Y-93044494D01*
X165938815Y-93141185D01*
X166035506Y-93220537D01*
X166145820Y-93279502D01*
X166265518Y-93315812D01*
X166390000Y-93328072D01*
X168890000Y-93328072D01*
X169014482Y-93315812D01*
X169134180Y-93279502D01*
X169244494Y-93220537D01*
X169341185Y-93141185D01*
X169420537Y-93044494D01*
X169479502Y-92934180D01*
X169515812Y-92814482D01*
X169528072Y-92690000D01*
X169528072Y-92200000D01*
X170142678Y-92200000D01*
X170180000Y-92203676D01*
X170217322Y-92200000D01*
X170217333Y-92200000D01*
X170328986Y-92189003D01*
X170472247Y-92145546D01*
X170604276Y-92074974D01*
X170720001Y-91980001D01*
X170743804Y-91950997D01*
X172685834Y-90008967D01*
X174895000Y-90008967D01*
X174895000Y-90331033D01*
X174957832Y-90646912D01*
X175081082Y-90944463D01*
X175260013Y-91212252D01*
X175487748Y-91439987D01*
X175487767Y-91440000D01*
X175487748Y-91440013D01*
X175260013Y-91667748D01*
X175081082Y-91935537D01*
X174957832Y-92233088D01*
X174895000Y-92548967D01*
X174895000Y-92871033D01*
X174957832Y-93186912D01*
X175081082Y-93484463D01*
X175260013Y-93752252D01*
X175487748Y-93979987D01*
X175487767Y-93980000D01*
X175487748Y-93980013D01*
X175260013Y-94207748D01*
X175081082Y-94475537D01*
X174957832Y-94773088D01*
X174895000Y-95088967D01*
X174895000Y-95411033D01*
X174957832Y-95726912D01*
X175081082Y-96024463D01*
X175260013Y-96292252D01*
X175487748Y-96519987D01*
X175487767Y-96520000D01*
X175487748Y-96520013D01*
X175260013Y-96747748D01*
X175081082Y-97015537D01*
X174957832Y-97313088D01*
X174895000Y-97628967D01*
X174895000Y-97951033D01*
X174957832Y-98266912D01*
X175081082Y-98564463D01*
X175260013Y-98832252D01*
X175487748Y-99059987D01*
X175487767Y-99060000D01*
X175487748Y-99060013D01*
X175260013Y-99287748D01*
X175081082Y-99555537D01*
X174957832Y-99853088D01*
X174895000Y-100168967D01*
X174895000Y-100491033D01*
X174957832Y-100806912D01*
X175081082Y-101104463D01*
X175260013Y-101372252D01*
X175487748Y-101599987D01*
X175487767Y-101600000D01*
X175487748Y-101600013D01*
X175260013Y-101827748D01*
X175081082Y-102095537D01*
X174957832Y-102393088D01*
X174895000Y-102708967D01*
X174895000Y-103031033D01*
X174957832Y-103346912D01*
X175081082Y-103644463D01*
X175260013Y-103912252D01*
X175487748Y-104139987D01*
X175487767Y-104140000D01*
X175487748Y-104140013D01*
X175260013Y-104367748D01*
X175081082Y-104635537D01*
X174957832Y-104933088D01*
X174895000Y-105248967D01*
X174895000Y-105571033D01*
X174957832Y-105886912D01*
X175081082Y-106184463D01*
X175260013Y-106452252D01*
X175487748Y-106679987D01*
X175487767Y-106680000D01*
X175487748Y-106680013D01*
X175260013Y-106907748D01*
X175081082Y-107175537D01*
X174957832Y-107473088D01*
X174895000Y-107788967D01*
X174895000Y-108111033D01*
X174957832Y-108426912D01*
X175081082Y-108724463D01*
X175260013Y-108992252D01*
X175487748Y-109219987D01*
X175487767Y-109220000D01*
X175487748Y-109220013D01*
X175260013Y-109447748D01*
X175081082Y-109715537D01*
X174957832Y-110013088D01*
X174895000Y-110328967D01*
X174895000Y-110651033D01*
X174957832Y-110966912D01*
X175081082Y-111264463D01*
X175260013Y-111532252D01*
X175487748Y-111759987D01*
X175487767Y-111760000D01*
X175487748Y-111760013D01*
X175260013Y-111987748D01*
X175081082Y-112255537D01*
X174957832Y-112553088D01*
X174895000Y-112868967D01*
X174895000Y-113191033D01*
X174957832Y-113506912D01*
X175081082Y-113804463D01*
X175260013Y-114072252D01*
X175487748Y-114299987D01*
X175755537Y-114478918D01*
X176053088Y-114602168D01*
X176368967Y-114665000D01*
X176691033Y-114665000D01*
X177006912Y-114602168D01*
X177304463Y-114478918D01*
X177572252Y-114299987D01*
X177799987Y-114072252D01*
X177800000Y-114072233D01*
X177800013Y-114072252D01*
X178027748Y-114299987D01*
X178295537Y-114478918D01*
X178593088Y-114602168D01*
X178908967Y-114665000D01*
X179231033Y-114665000D01*
X179546912Y-114602168D01*
X179844463Y-114478918D01*
X180112252Y-114299987D01*
X180339987Y-114072252D01*
X180340000Y-114072233D01*
X180340013Y-114072252D01*
X180567748Y-114299987D01*
X180835537Y-114478918D01*
X181133088Y-114602168D01*
X181448967Y-114665000D01*
X181771033Y-114665000D01*
X182086912Y-114602168D01*
X182384463Y-114478918D01*
X182652252Y-114299987D01*
X182879987Y-114072252D01*
X182880000Y-114072233D01*
X182880013Y-114072252D01*
X183107748Y-114299987D01*
X183375537Y-114478918D01*
X183673088Y-114602168D01*
X183988967Y-114665000D01*
X184311033Y-114665000D01*
X184626912Y-114602168D01*
X184924463Y-114478918D01*
X185192252Y-114299987D01*
X185419987Y-114072252D01*
X185420000Y-114072233D01*
X185420013Y-114072252D01*
X185647748Y-114299987D01*
X185915537Y-114478918D01*
X186213088Y-114602168D01*
X186528967Y-114665000D01*
X186851033Y-114665000D01*
X187166912Y-114602168D01*
X187464463Y-114478918D01*
X187732252Y-114299987D01*
X187959987Y-114072252D01*
X187960000Y-114072233D01*
X187960013Y-114072252D01*
X188187748Y-114299987D01*
X188455537Y-114478918D01*
X188753088Y-114602168D01*
X189068967Y-114665000D01*
X189391033Y-114665000D01*
X189706912Y-114602168D01*
X190004463Y-114478918D01*
X190272252Y-114299987D01*
X190499987Y-114072252D01*
X190500000Y-114072233D01*
X190500013Y-114072252D01*
X190727748Y-114299987D01*
X190995537Y-114478918D01*
X191293088Y-114602168D01*
X191608967Y-114665000D01*
X191931033Y-114665000D01*
X192246912Y-114602168D01*
X192544463Y-114478918D01*
X192812252Y-114299987D01*
X193039987Y-114072252D01*
X193040000Y-114072233D01*
X193040013Y-114072252D01*
X193267748Y-114299987D01*
X193535537Y-114478918D01*
X193833088Y-114602168D01*
X194148967Y-114665000D01*
X194471033Y-114665000D01*
X194786912Y-114602168D01*
X195084463Y-114478918D01*
X195352252Y-114299987D01*
X195579987Y-114072252D01*
X195580000Y-114072233D01*
X195580013Y-114072252D01*
X195807748Y-114299987D01*
X196075537Y-114478918D01*
X196373088Y-114602168D01*
X196688967Y-114665000D01*
X197011033Y-114665000D01*
X197326912Y-114602168D01*
X197624463Y-114478918D01*
X197892252Y-114299987D01*
X198119987Y-114072252D01*
X198120000Y-114072233D01*
X198120013Y-114072252D01*
X198347748Y-114299987D01*
X198615537Y-114478918D01*
X198913088Y-114602168D01*
X199228967Y-114665000D01*
X199551033Y-114665000D01*
X199866912Y-114602168D01*
X200164463Y-114478918D01*
X200432252Y-114299987D01*
X200659987Y-114072252D01*
X200660000Y-114072233D01*
X200660013Y-114072252D01*
X200887748Y-114299987D01*
X201155537Y-114478918D01*
X201453088Y-114602168D01*
X201768967Y-114665000D01*
X202091033Y-114665000D01*
X202406912Y-114602168D01*
X202704463Y-114478918D01*
X202972252Y-114299987D01*
X203199987Y-114072252D01*
X203200000Y-114072233D01*
X203200013Y-114072252D01*
X203427748Y-114299987D01*
X203695537Y-114478918D01*
X203993088Y-114602168D01*
X204308967Y-114665000D01*
X204631033Y-114665000D01*
X204946912Y-114602168D01*
X205244463Y-114478918D01*
X205512252Y-114299987D01*
X205739987Y-114072252D01*
X205740000Y-114072233D01*
X205740013Y-114072252D01*
X205967748Y-114299987D01*
X206235537Y-114478918D01*
X206533088Y-114602168D01*
X206848967Y-114665000D01*
X207171033Y-114665000D01*
X207486912Y-114602168D01*
X207784463Y-114478918D01*
X208052252Y-114299987D01*
X208279987Y-114072252D01*
X208458918Y-113804463D01*
X208582168Y-113506912D01*
X208645000Y-113191033D01*
X208645000Y-112868967D01*
X208582168Y-112553088D01*
X208458918Y-112255537D01*
X208279987Y-111987748D01*
X208052252Y-111760013D01*
X208052233Y-111760000D01*
X208052252Y-111759987D01*
X208279987Y-111532252D01*
X208458918Y-111264463D01*
X208582168Y-110966912D01*
X208645000Y-110651033D01*
X208645000Y-110328967D01*
X208582168Y-110013088D01*
X208458918Y-109715537D01*
X208279987Y-109447748D01*
X208052252Y-109220013D01*
X208052233Y-109220000D01*
X208052252Y-109219987D01*
X208279987Y-108992252D01*
X208458918Y-108724463D01*
X208582168Y-108426912D01*
X208645000Y-108111033D01*
X208645000Y-107788967D01*
X208582168Y-107473088D01*
X208458918Y-107175537D01*
X208279987Y-106907748D01*
X208052252Y-106680013D01*
X208052233Y-106680000D01*
X208052252Y-106679987D01*
X208279987Y-106452252D01*
X208458918Y-106184463D01*
X208582168Y-105886912D01*
X208645000Y-105571033D01*
X208645000Y-105248967D01*
X208582168Y-104933088D01*
X208458918Y-104635537D01*
X208279987Y-104367748D01*
X208052252Y-104140013D01*
X208052233Y-104140000D01*
X208052252Y-104139987D01*
X208279987Y-103912252D01*
X208458918Y-103644463D01*
X208582168Y-103346912D01*
X208645000Y-103031033D01*
X208645000Y-102708967D01*
X208582168Y-102393088D01*
X208458918Y-102095537D01*
X208279987Y-101827748D01*
X208052252Y-101600013D01*
X208052233Y-101600000D01*
X208052252Y-101599987D01*
X208279987Y-101372252D01*
X208458918Y-101104463D01*
X208582168Y-100806912D01*
X208645000Y-100491033D01*
X208645000Y-100168967D01*
X208582168Y-99853088D01*
X208458918Y-99555537D01*
X208279987Y-99287748D01*
X208052252Y-99060013D01*
X208052233Y-99060000D01*
X208052252Y-99059987D01*
X208279987Y-98832252D01*
X208458918Y-98564463D01*
X208582168Y-98266912D01*
X208645000Y-97951033D01*
X208645000Y-97628967D01*
X208582168Y-97313088D01*
X208458918Y-97015537D01*
X208279987Y-96747748D01*
X208052252Y-96520013D01*
X208052233Y-96520000D01*
X208052252Y-96519987D01*
X208279987Y-96292252D01*
X208458918Y-96024463D01*
X208582168Y-95726912D01*
X208645000Y-95411033D01*
X208645000Y-95088967D01*
X208582168Y-94773088D01*
X208458918Y-94475537D01*
X208279987Y-94207748D01*
X208052252Y-93980013D01*
X208052233Y-93980000D01*
X208052252Y-93979987D01*
X208279987Y-93752252D01*
X208458918Y-93484463D01*
X208582168Y-93186912D01*
X208645000Y-92871033D01*
X208645000Y-92548967D01*
X208582168Y-92233088D01*
X208458918Y-91935537D01*
X208279987Y-91667748D01*
X208052252Y-91440013D01*
X208052233Y-91440000D01*
X208052252Y-91439987D01*
X208279987Y-91212252D01*
X208458918Y-90944463D01*
X208582168Y-90646912D01*
X208645000Y-90331033D01*
X208645000Y-90008967D01*
X208582168Y-89693088D01*
X208458918Y-89395537D01*
X208279987Y-89127748D01*
X208052252Y-88900013D01*
X207784463Y-88721082D01*
X207486912Y-88597832D01*
X207171033Y-88535000D01*
X206848967Y-88535000D01*
X206533088Y-88597832D01*
X206235537Y-88721082D01*
X205967748Y-88900013D01*
X205740013Y-89127748D01*
X205740000Y-89127767D01*
X205739987Y-89127748D01*
X205512252Y-88900013D01*
X205244463Y-88721082D01*
X204946912Y-88597832D01*
X204631033Y-88535000D01*
X204308967Y-88535000D01*
X203993088Y-88597832D01*
X203695537Y-88721082D01*
X203427748Y-88900013D01*
X203200013Y-89127748D01*
X203200000Y-89127767D01*
X203199987Y-89127748D01*
X202972252Y-88900013D01*
X202704463Y-88721082D01*
X202406912Y-88597832D01*
X202091033Y-88535000D01*
X201768967Y-88535000D01*
X201453088Y-88597832D01*
X201155537Y-88721082D01*
X200887748Y-88900013D01*
X200660013Y-89127748D01*
X200660000Y-89127767D01*
X200659987Y-89127748D01*
X200432252Y-88900013D01*
X200164463Y-88721082D01*
X199866912Y-88597832D01*
X199551033Y-88535000D01*
X199228967Y-88535000D01*
X198913088Y-88597832D01*
X198615537Y-88721082D01*
X198347748Y-88900013D01*
X198120013Y-89127748D01*
X198120000Y-89127767D01*
X198119987Y-89127748D01*
X197892252Y-88900013D01*
X197624463Y-88721082D01*
X197326912Y-88597832D01*
X197011033Y-88535000D01*
X196688967Y-88535000D01*
X196373088Y-88597832D01*
X196075537Y-88721082D01*
X195807748Y-88900013D01*
X195580013Y-89127748D01*
X195580000Y-89127767D01*
X195579987Y-89127748D01*
X195352252Y-88900013D01*
X195084463Y-88721082D01*
X194786912Y-88597832D01*
X194471033Y-88535000D01*
X194148967Y-88535000D01*
X193833088Y-88597832D01*
X193535537Y-88721082D01*
X193267748Y-88900013D01*
X193040013Y-89127748D01*
X193040000Y-89127767D01*
X193039987Y-89127748D01*
X192812252Y-88900013D01*
X192544463Y-88721082D01*
X192246912Y-88597832D01*
X191931033Y-88535000D01*
X191608967Y-88535000D01*
X191293088Y-88597832D01*
X190995537Y-88721082D01*
X190727748Y-88900013D01*
X190500013Y-89127748D01*
X190500000Y-89127767D01*
X190499987Y-89127748D01*
X190272252Y-88900013D01*
X190004463Y-88721082D01*
X189706912Y-88597832D01*
X189391033Y-88535000D01*
X189068967Y-88535000D01*
X188753088Y-88597832D01*
X188455537Y-88721082D01*
X188187748Y-88900013D01*
X187960013Y-89127748D01*
X187960000Y-89127767D01*
X187959987Y-89127748D01*
X187732252Y-88900013D01*
X187464463Y-88721082D01*
X187166912Y-88597832D01*
X186851033Y-88535000D01*
X186528967Y-88535000D01*
X186213088Y-88597832D01*
X185915537Y-88721082D01*
X185647748Y-88900013D01*
X185420013Y-89127748D01*
X185420000Y-89127767D01*
X185419987Y-89127748D01*
X185192252Y-88900013D01*
X184924463Y-88721082D01*
X184626912Y-88597832D01*
X184311033Y-88535000D01*
X183988967Y-88535000D01*
X183673088Y-88597832D01*
X183375537Y-88721082D01*
X183107748Y-88900013D01*
X182880013Y-89127748D01*
X182880000Y-89127767D01*
X182879987Y-89127748D01*
X182652252Y-88900013D01*
X182384463Y-88721082D01*
X182086912Y-88597832D01*
X181771033Y-88535000D01*
X181448967Y-88535000D01*
X181133088Y-88597832D01*
X180835537Y-88721082D01*
X180567748Y-88900013D01*
X180340013Y-89127748D01*
X180340000Y-89127767D01*
X180339987Y-89127748D01*
X180112252Y-88900013D01*
X179844463Y-88721082D01*
X179546912Y-88597832D01*
X179231033Y-88535000D01*
X178908967Y-88535000D01*
X178593088Y-88597832D01*
X178295537Y-88721082D01*
X178027748Y-88900013D01*
X177800013Y-89127748D01*
X177800000Y-89127767D01*
X177799987Y-89127748D01*
X177572252Y-88900013D01*
X177304463Y-88721082D01*
X177006912Y-88597832D01*
X176691033Y-88535000D01*
X176368967Y-88535000D01*
X176053088Y-88597832D01*
X175755537Y-88721082D01*
X175487748Y-88900013D01*
X175260013Y-89127748D01*
X175081082Y-89395537D01*
X174957832Y-89693088D01*
X174895000Y-90008967D01*
X172685834Y-90008967D01*
X177433592Y-85261210D01*
X177653740Y-85305000D01*
X177946260Y-85305000D01*
X178233158Y-85247932D01*
X178503411Y-85135990D01*
X178746632Y-84973475D01*
X178953475Y-84766632D01*
X179078178Y-84580000D01*
X181601822Y-84580000D01*
X181726525Y-84766632D01*
X181933368Y-84973475D01*
X182176589Y-85135990D01*
X182446842Y-85247932D01*
X182733740Y-85305000D01*
X183026260Y-85305000D01*
X183313158Y-85247932D01*
X183583411Y-85135990D01*
X183826632Y-84973475D01*
X184033475Y-84766632D01*
X184158178Y-84580000D01*
X185522757Y-84580000D01*
X185626163Y-84734759D01*
X185826041Y-84934637D01*
X186061073Y-85091680D01*
X186322226Y-85199853D01*
X186599465Y-85255000D01*
X186882135Y-85255000D01*
X187159374Y-85199853D01*
X187420527Y-85091680D01*
X187655559Y-84934637D01*
X187855437Y-84734759D01*
X188012480Y-84499727D01*
X188120653Y-84238574D01*
X188175800Y-83961335D01*
X188175800Y-83678665D01*
X188120653Y-83401426D01*
X188012480Y-83140273D01*
X187855437Y-82905241D01*
X187655559Y-82705363D01*
X187423041Y-82550000D01*
X187655559Y-82394637D01*
X187855437Y-82194759D01*
X188012480Y-81959727D01*
X188120653Y-81698574D01*
X188175800Y-81421335D01*
X188175800Y-81138665D01*
X188120653Y-80861426D01*
X188012480Y-80600273D01*
X187855437Y-80365241D01*
X187655559Y-80165363D01*
X187423041Y-80010000D01*
X187655559Y-79854637D01*
X187855437Y-79654759D01*
X188012480Y-79419727D01*
X188120653Y-79158574D01*
X188175800Y-78881335D01*
X188175800Y-78598665D01*
X188120653Y-78321426D01*
X188012480Y-78060273D01*
X187855437Y-77825241D01*
X187655559Y-77625363D01*
X187423041Y-77470000D01*
X187655559Y-77314637D01*
X187855437Y-77114759D01*
X188012480Y-76879727D01*
X188120653Y-76618574D01*
X188175800Y-76341335D01*
X188175800Y-76058665D01*
X188120653Y-75781426D01*
X188012480Y-75520273D01*
X187855437Y-75285241D01*
X187655559Y-75085363D01*
X187423041Y-74930000D01*
X187655559Y-74774637D01*
X187855437Y-74574759D01*
X188012480Y-74339727D01*
X188120653Y-74078574D01*
X188175800Y-73801335D01*
X188175800Y-73518665D01*
X188120653Y-73241426D01*
X188012480Y-72980273D01*
X187855437Y-72745241D01*
X187655559Y-72545363D01*
X187423041Y-72390000D01*
X187655559Y-72234637D01*
X187855437Y-72034759D01*
X188012480Y-71799727D01*
X188120653Y-71538574D01*
X188175800Y-71261335D01*
X188175800Y-70978665D01*
X188120653Y-70701426D01*
X188012480Y-70440273D01*
X187855437Y-70205241D01*
X187655559Y-70005363D01*
X187423041Y-69850000D01*
X187655559Y-69694637D01*
X187855437Y-69494759D01*
X188012480Y-69259727D01*
X188120653Y-68998574D01*
X188175800Y-68721335D01*
X188175800Y-68438665D01*
X188120653Y-68161426D01*
X188012480Y-67900273D01*
X187855437Y-67665241D01*
X187656839Y-67466643D01*
X187665282Y-67465812D01*
X187784980Y-67429502D01*
X187895294Y-67370537D01*
X187991985Y-67291185D01*
X188071337Y-67194494D01*
X188130302Y-67084180D01*
X188166612Y-66964482D01*
X188178872Y-66840000D01*
X188178872Y-65898665D01*
X195465800Y-65898665D01*
X195465800Y-66181335D01*
X195520947Y-66458574D01*
X195629120Y-66719727D01*
X195786163Y-66954759D01*
X195986041Y-67154637D01*
X196218559Y-67310000D01*
X195986041Y-67465363D01*
X195786163Y-67665241D01*
X195629120Y-67900273D01*
X195520947Y-68161426D01*
X195465800Y-68438665D01*
X195465800Y-68721335D01*
X195520947Y-68998574D01*
X195629120Y-69259727D01*
X195786163Y-69494759D01*
X195986041Y-69694637D01*
X196218559Y-69850000D01*
X195986041Y-70005363D01*
X195786163Y-70205241D01*
X195629120Y-70440273D01*
X195520947Y-70701426D01*
X195465800Y-70978665D01*
X195465800Y-71261335D01*
X195520947Y-71538574D01*
X195629120Y-71799727D01*
X195786163Y-72034759D01*
X195986041Y-72234637D01*
X196218559Y-72390000D01*
X195986041Y-72545363D01*
X195786163Y-72745241D01*
X195629120Y-72980273D01*
X195520947Y-73241426D01*
X195465800Y-73518665D01*
X195465800Y-73801335D01*
X195520947Y-74078574D01*
X195629120Y-74339727D01*
X195786163Y-74574759D01*
X195986041Y-74774637D01*
X196218559Y-74930000D01*
X195986041Y-75085363D01*
X195786163Y-75285241D01*
X195629120Y-75520273D01*
X195520947Y-75781426D01*
X195465800Y-76058665D01*
X195465800Y-76341335D01*
X195520947Y-76618574D01*
X195629120Y-76879727D01*
X195786163Y-77114759D01*
X195986041Y-77314637D01*
X196218559Y-77470000D01*
X195986041Y-77625363D01*
X195786163Y-77825241D01*
X195629120Y-78060273D01*
X195520947Y-78321426D01*
X195465800Y-78598665D01*
X195465800Y-78881335D01*
X195520947Y-79158574D01*
X195629120Y-79419727D01*
X195786163Y-79654759D01*
X195986041Y-79854637D01*
X196218559Y-80010000D01*
X195986041Y-80165363D01*
X195786163Y-80365241D01*
X195629120Y-80600273D01*
X195520947Y-80861426D01*
X195465800Y-81138665D01*
X195465800Y-81421335D01*
X195520947Y-81698574D01*
X195629120Y-81959727D01*
X195786163Y-82194759D01*
X195986041Y-82394637D01*
X196218559Y-82550000D01*
X195986041Y-82705363D01*
X195786163Y-82905241D01*
X195629120Y-83140273D01*
X195520947Y-83401426D01*
X195465800Y-83678665D01*
X195465800Y-83961335D01*
X195520947Y-84238574D01*
X195629120Y-84499727D01*
X195786163Y-84734759D01*
X195986041Y-84934637D01*
X196221073Y-85091680D01*
X196482226Y-85199853D01*
X196759465Y-85255000D01*
X197042135Y-85255000D01*
X197319374Y-85199853D01*
X197580527Y-85091680D01*
X197815559Y-84934637D01*
X198015437Y-84734759D01*
X198118843Y-84580000D01*
X199381822Y-84580000D01*
X199506525Y-84766632D01*
X199713368Y-84973475D01*
X199956589Y-85135990D01*
X200226842Y-85247932D01*
X200513740Y-85305000D01*
X200806260Y-85305000D01*
X201093158Y-85247932D01*
X201363411Y-85135990D01*
X201606632Y-84973475D01*
X201813475Y-84766632D01*
X201938178Y-84580000D01*
X204461822Y-84580000D01*
X204586525Y-84766632D01*
X204793368Y-84973475D01*
X205036589Y-85135990D01*
X205306842Y-85247932D01*
X205593740Y-85305000D01*
X205886260Y-85305000D01*
X206106408Y-85261209D01*
X212796201Y-91951003D01*
X212819999Y-91980001D01*
X212935724Y-92074974D01*
X213067753Y-92145546D01*
X213211014Y-92189003D01*
X213322667Y-92200000D01*
X213322676Y-92200000D01*
X213359999Y-92203676D01*
X213397322Y-92200000D01*
X214174493Y-92200000D01*
X214229534Y-92332882D01*
X214435825Y-92641618D01*
X214698382Y-92904175D01*
X215007118Y-93110466D01*
X215350166Y-93252561D01*
X215714344Y-93325000D01*
X216085656Y-93325000D01*
X216449834Y-93252561D01*
X216792882Y-93110466D01*
X217101618Y-92904175D01*
X217364175Y-92641618D01*
X217570466Y-92332882D01*
X217712561Y-91989834D01*
X217785000Y-91625656D01*
X217785000Y-91254344D01*
X217712561Y-90890166D01*
X217570466Y-90547118D01*
X217364175Y-90238382D01*
X217101618Y-89975825D01*
X216792882Y-89769534D01*
X216449834Y-89627439D01*
X216085656Y-89555000D01*
X215714344Y-89555000D01*
X215350166Y-89627439D01*
X215007118Y-89769534D01*
X214698382Y-89975825D01*
X214435825Y-90238382D01*
X214229534Y-90547118D01*
X214174493Y-90680000D01*
X213674802Y-90680000D01*
X207181209Y-84186408D01*
X207225000Y-83966260D01*
X207225000Y-83839801D01*
X210256201Y-86871003D01*
X210279999Y-86900001D01*
X210308997Y-86923799D01*
X210395723Y-86994974D01*
X210527753Y-87065546D01*
X210671014Y-87109003D01*
X210782667Y-87120000D01*
X210782677Y-87120000D01*
X210820000Y-87123676D01*
X210857323Y-87120000D01*
X214174493Y-87120000D01*
X214229534Y-87252882D01*
X214435825Y-87561618D01*
X214698382Y-87824175D01*
X215007118Y-88030466D01*
X215350166Y-88172561D01*
X215714344Y-88245000D01*
X216085656Y-88245000D01*
X216449834Y-88172561D01*
X216792882Y-88030466D01*
X217101618Y-87824175D01*
X217364175Y-87561618D01*
X217570466Y-87252882D01*
X217712561Y-86909834D01*
X217785000Y-86545656D01*
X217785000Y-86174344D01*
X217712561Y-85810166D01*
X217570466Y-85467118D01*
X217364175Y-85158382D01*
X217101618Y-84895825D01*
X216792882Y-84689534D01*
X216449834Y-84547439D01*
X216085656Y-84475000D01*
X215714344Y-84475000D01*
X215350166Y-84547439D01*
X215007118Y-84689534D01*
X214698382Y-84895825D01*
X214435825Y-85158382D01*
X214229534Y-85467118D01*
X214174493Y-85600000D01*
X211134802Y-85600000D01*
X207412174Y-81877373D01*
X207482082Y-81820001D01*
X207577055Y-81704276D01*
X207595314Y-81670117D01*
X207716205Y-81791008D01*
X207739999Y-81820001D01*
X207768992Y-81843795D01*
X207768996Y-81843799D01*
X207839685Y-81901811D01*
X207855724Y-81914974D01*
X207987753Y-81985546D01*
X208131014Y-82029003D01*
X208242667Y-82040000D01*
X208242676Y-82040000D01*
X208279999Y-82043676D01*
X208317322Y-82040000D01*
X214174493Y-82040000D01*
X214229534Y-82172882D01*
X214435825Y-82481618D01*
X214698382Y-82744175D01*
X215007118Y-82950466D01*
X215350166Y-83092561D01*
X215714344Y-83165000D01*
X216085656Y-83165000D01*
X216449834Y-83092561D01*
X216792882Y-82950466D01*
X217101618Y-82744175D01*
X217364175Y-82481618D01*
X217570466Y-82172882D01*
X217712561Y-81829834D01*
X217785000Y-81465656D01*
X217785000Y-81094344D01*
X217712561Y-80730166D01*
X217570466Y-80387118D01*
X217364175Y-80078382D01*
X217101618Y-79815825D01*
X216792882Y-79609534D01*
X216449834Y-79467439D01*
X216085656Y-79395000D01*
X215714344Y-79395000D01*
X215350166Y-79467439D01*
X215007118Y-79609534D01*
X214698382Y-79815825D01*
X214435825Y-80078382D01*
X214229534Y-80387118D01*
X214174493Y-80520000D01*
X208594803Y-80520000D01*
X207181210Y-79106408D01*
X207225000Y-78886260D01*
X207225000Y-78593740D01*
X207167932Y-78306842D01*
X207055990Y-78036589D01*
X206893475Y-77793368D01*
X206686632Y-77586525D01*
X206512240Y-77470000D01*
X206686632Y-77353475D01*
X206893475Y-77146632D01*
X207018178Y-76960000D01*
X214174493Y-76960000D01*
X214229534Y-77092882D01*
X214435825Y-77401618D01*
X214698382Y-77664175D01*
X215007118Y-77870466D01*
X215350166Y-78012561D01*
X215714344Y-78085000D01*
X216085656Y-78085000D01*
X216449834Y-78012561D01*
X216792882Y-77870466D01*
X217101618Y-77664175D01*
X217364175Y-77401618D01*
X217570466Y-77092882D01*
X217712561Y-76749834D01*
X217785000Y-76385656D01*
X217785000Y-76014344D01*
X217712561Y-75650166D01*
X217570466Y-75307118D01*
X217364175Y-74998382D01*
X217101618Y-74735825D01*
X216792882Y-74529534D01*
X216449834Y-74387439D01*
X216085656Y-74315000D01*
X215714344Y-74315000D01*
X215350166Y-74387439D01*
X215007118Y-74529534D01*
X214698382Y-74735825D01*
X214435825Y-74998382D01*
X214229534Y-75307118D01*
X214174493Y-75440000D01*
X207018178Y-75440000D01*
X206893475Y-75253368D01*
X206686632Y-75046525D01*
X206512240Y-74930000D01*
X206686632Y-74813475D01*
X206893475Y-74606632D01*
X207055990Y-74363411D01*
X207167932Y-74093158D01*
X207225000Y-73806260D01*
X207225000Y-73513740D01*
X207181210Y-73293592D01*
X208594803Y-71880000D01*
X214174493Y-71880000D01*
X214229534Y-72012882D01*
X214435825Y-72321618D01*
X214698382Y-72584175D01*
X215007118Y-72790466D01*
X215350166Y-72932561D01*
X215714344Y-73005000D01*
X216085656Y-73005000D01*
X216449834Y-72932561D01*
X216792882Y-72790466D01*
X217101618Y-72584175D01*
X217364175Y-72321618D01*
X217570466Y-72012882D01*
X217712561Y-71669834D01*
X217785000Y-71305656D01*
X217785000Y-70934344D01*
X217712561Y-70570166D01*
X217570466Y-70227118D01*
X217364175Y-69918382D01*
X217101618Y-69655825D01*
X216792882Y-69449534D01*
X216449834Y-69307439D01*
X216085656Y-69235000D01*
X215714344Y-69235000D01*
X215350166Y-69307439D01*
X215007118Y-69449534D01*
X214698382Y-69655825D01*
X214435825Y-69918382D01*
X214229534Y-70227118D01*
X214174493Y-70360000D01*
X208317322Y-70360000D01*
X208279999Y-70356324D01*
X208242676Y-70360000D01*
X208242667Y-70360000D01*
X208131014Y-70370997D01*
X207987753Y-70414454D01*
X207855724Y-70485026D01*
X207855722Y-70485027D01*
X207855723Y-70485027D01*
X207768996Y-70556201D01*
X207768992Y-70556205D01*
X207739999Y-70579999D01*
X207716205Y-70608992D01*
X207225000Y-71100197D01*
X207225000Y-70973740D01*
X207181209Y-70753592D01*
X211134802Y-66800000D01*
X214174493Y-66800000D01*
X214229534Y-66932882D01*
X214435825Y-67241618D01*
X214698382Y-67504175D01*
X215007118Y-67710466D01*
X215350166Y-67852561D01*
X215714344Y-67925000D01*
X216085656Y-67925000D01*
X216449834Y-67852561D01*
X216792882Y-67710466D01*
X217101618Y-67504175D01*
X217364175Y-67241618D01*
X217570466Y-66932882D01*
X217712561Y-66589834D01*
X217785000Y-66225656D01*
X217785000Y-65854344D01*
X217712561Y-65490166D01*
X217570466Y-65147118D01*
X217364175Y-64838382D01*
X217101618Y-64575825D01*
X216792882Y-64369534D01*
X216449834Y-64227439D01*
X216085656Y-64155000D01*
X215714344Y-64155000D01*
X215350166Y-64227439D01*
X215007118Y-64369534D01*
X214698382Y-64575825D01*
X214435825Y-64838382D01*
X214229534Y-65147118D01*
X214174493Y-65280000D01*
X210857323Y-65280000D01*
X210820000Y-65276324D01*
X210782677Y-65280000D01*
X210782667Y-65280000D01*
X210671014Y-65290997D01*
X210527753Y-65334454D01*
X210395723Y-65405026D01*
X210312083Y-65473668D01*
X210279999Y-65499999D01*
X210256201Y-65528997D01*
X207225000Y-68560199D01*
X207225000Y-68433740D01*
X207181209Y-68213592D01*
X213674802Y-61720000D01*
X214174493Y-61720000D01*
X214229534Y-61852882D01*
X214435825Y-62161618D01*
X214698382Y-62424175D01*
X215007118Y-62630466D01*
X215350166Y-62772561D01*
X215714344Y-62845000D01*
X216085656Y-62845000D01*
X216449834Y-62772561D01*
X216792882Y-62630466D01*
X217101618Y-62424175D01*
X217364175Y-62161618D01*
X217570466Y-61852882D01*
X217712561Y-61509834D01*
X217785000Y-61145656D01*
X217785000Y-60774344D01*
X217712561Y-60410166D01*
X217570466Y-60067118D01*
X217364175Y-59758382D01*
X217101618Y-59495825D01*
X216792882Y-59289534D01*
X216449834Y-59147439D01*
X216085656Y-59075000D01*
X215714344Y-59075000D01*
X215350166Y-59147439D01*
X215007118Y-59289534D01*
X214698382Y-59495825D01*
X214435825Y-59758382D01*
X214229534Y-60067118D01*
X214174493Y-60200000D01*
X213397322Y-60200000D01*
X213359999Y-60196324D01*
X213322676Y-60200000D01*
X213322667Y-60200000D01*
X213211014Y-60210997D01*
X213067753Y-60254454D01*
X212935724Y-60325026D01*
X212819999Y-60419999D01*
X212796201Y-60448997D01*
X207228072Y-66017127D01*
X207228072Y-65626729D01*
X215086730Y-57768072D01*
X217150000Y-57768072D01*
X217274482Y-57755812D01*
X217394180Y-57719502D01*
X217504494Y-57660537D01*
X217601185Y-57581185D01*
X217680537Y-57484494D01*
X217739502Y-57374180D01*
X217775812Y-57254482D01*
X217788072Y-57130000D01*
X217788072Y-54630000D01*
X217775812Y-54505518D01*
X217739502Y-54385820D01*
X217680537Y-54275506D01*
X217601185Y-54178815D01*
X217504494Y-54099463D01*
X217394180Y-54040498D01*
X217274482Y-54004188D01*
X217150000Y-53991928D01*
X214650000Y-53991928D01*
X214525518Y-54004188D01*
X214405820Y-54040498D01*
X214295506Y-54099463D01*
X214198815Y-54178815D01*
X214119463Y-54275506D01*
X214060498Y-54385820D01*
X214024188Y-54505518D01*
X214011928Y-54630000D01*
X214011928Y-56693270D01*
X206153271Y-64551928D01*
X204890000Y-64551928D01*
X204765518Y-64564188D01*
X204645820Y-64600498D01*
X204535506Y-64659463D01*
X204438815Y-64738815D01*
X204359463Y-64835506D01*
X204300498Y-64945820D01*
X204264188Y-65065518D01*
X204251928Y-65190000D01*
X204251928Y-65280000D01*
X202148072Y-65280000D01*
X202148072Y-65190000D01*
X202135812Y-65065518D01*
X202099502Y-64945820D01*
X202040537Y-64835506D01*
X201961185Y-64738815D01*
X201864494Y-64659463D01*
X201754180Y-64600498D01*
X201634482Y-64564188D01*
X201510000Y-64551928D01*
X199810000Y-64551928D01*
X199685518Y-64564188D01*
X199565820Y-64600498D01*
X199455506Y-64659463D01*
X199358815Y-64738815D01*
X199279463Y-64835506D01*
X199220498Y-64945820D01*
X199184188Y-65065518D01*
X199171928Y-65190000D01*
X199171928Y-65280000D01*
X198118843Y-65280000D01*
X198015437Y-65125241D01*
X197815559Y-64925363D01*
X197580527Y-64768320D01*
X197319374Y-64660147D01*
X197042135Y-64605000D01*
X196759465Y-64605000D01*
X196482226Y-64660147D01*
X196221073Y-64768320D01*
X195986041Y-64925363D01*
X195786163Y-65125241D01*
X195629120Y-65360273D01*
X195520947Y-65621426D01*
X195465800Y-65898665D01*
X188178872Y-65898665D01*
X188178872Y-65240000D01*
X188166612Y-65115518D01*
X188130302Y-64995820D01*
X188071337Y-64885506D01*
X187991985Y-64788815D01*
X187895294Y-64709463D01*
X187784980Y-64650498D01*
X187665282Y-64614188D01*
X187540800Y-64601928D01*
X185940800Y-64601928D01*
X185816318Y-64614188D01*
X185696620Y-64650498D01*
X185586306Y-64709463D01*
X185489615Y-64788815D01*
X185410263Y-64885506D01*
X185351298Y-64995820D01*
X185314988Y-65115518D01*
X185302728Y-65240000D01*
X185302728Y-65280000D01*
X184368072Y-65280000D01*
X184368072Y-65190000D01*
X184355812Y-65065518D01*
X184319502Y-64945820D01*
X184260537Y-64835506D01*
X184181185Y-64738815D01*
X184084494Y-64659463D01*
X183974180Y-64600498D01*
X183854482Y-64564188D01*
X183730000Y-64551928D01*
X182030000Y-64551928D01*
X181905518Y-64564188D01*
X181785820Y-64600498D01*
X181675506Y-64659463D01*
X181578815Y-64738815D01*
X181499463Y-64835506D01*
X181440498Y-64945820D01*
X181404188Y-65065518D01*
X181391928Y-65190000D01*
X181391928Y-65280000D01*
X179288072Y-65280000D01*
X179288072Y-65190000D01*
X179275812Y-65065518D01*
X179239502Y-64945820D01*
X179180537Y-64835506D01*
X179101185Y-64738815D01*
X179004494Y-64659463D01*
X178894180Y-64600498D01*
X178774482Y-64564188D01*
X178650000Y-64551928D01*
X177386730Y-64551928D01*
X169397519Y-56562718D01*
X169452561Y-56429834D01*
X169525000Y-56065656D01*
X169525000Y-55694344D01*
X169452561Y-55330166D01*
X169310466Y-54987118D01*
X169104175Y-54678382D01*
X168841618Y-54415825D01*
X168532882Y-54209534D01*
X168189834Y-54067439D01*
X167825656Y-53995000D01*
X167454344Y-53995000D01*
X167090166Y-54067439D01*
X166747118Y-54209534D01*
X166438382Y-54415825D01*
X166175825Y-54678382D01*
X165969534Y-54987118D01*
X165827439Y-55330166D01*
X165755000Y-55694344D01*
X165755000Y-56065656D01*
X165827439Y-56429834D01*
X165969534Y-56772882D01*
X166175825Y-57081618D01*
X166438382Y-57344175D01*
X166747118Y-57550466D01*
X167090166Y-57692561D01*
X167454344Y-57765000D01*
X167825656Y-57765000D01*
X168189834Y-57692561D01*
X168322718Y-57637519D01*
X176311928Y-65626730D01*
X176311928Y-66890000D01*
X176324188Y-67014482D01*
X176360498Y-67134180D01*
X176419463Y-67244494D01*
X176498815Y-67341185D01*
X176595506Y-67420537D01*
X176705820Y-67479502D01*
X176778380Y-67501513D01*
X176646525Y-67633368D01*
X176521822Y-67820000D01*
X175574802Y-67820000D01*
X169397519Y-61642718D01*
X169452561Y-61509834D01*
X169525000Y-61145656D01*
X169525000Y-60774344D01*
X169452561Y-60410166D01*
X169310466Y-60067118D01*
X169104175Y-59758382D01*
X168841618Y-59495825D01*
X168532882Y-59289534D01*
X168189834Y-59147439D01*
X167825656Y-59075000D01*
X167454344Y-59075000D01*
X167090166Y-59147439D01*
X166747118Y-59289534D01*
X166438382Y-59495825D01*
X166175825Y-59758382D01*
X165969534Y-60067118D01*
X165827439Y-60410166D01*
X165755000Y-60774344D01*
X165755000Y-61145656D01*
X165827439Y-61509834D01*
X165969534Y-61852882D01*
X166175825Y-62161618D01*
X166438382Y-62424175D01*
X166747118Y-62630466D01*
X167090166Y-62772561D01*
X167454344Y-62845000D01*
X167825656Y-62845000D01*
X168189834Y-62772561D01*
X168322718Y-62717519D01*
X174696201Y-69091003D01*
X174719999Y-69120001D01*
X174835724Y-69214974D01*
X174967753Y-69285546D01*
X175111014Y-69329003D01*
X175222667Y-69340000D01*
X175222676Y-69340000D01*
X175259999Y-69343676D01*
X175297322Y-69340000D01*
X176521822Y-69340000D01*
X176646525Y-69526632D01*
X176853368Y-69733475D01*
X177027760Y-69850000D01*
X176853368Y-69966525D01*
X176646525Y-70173368D01*
X176521822Y-70360000D01*
X173034802Y-70360000D01*
X169397519Y-66722718D01*
X169452561Y-66589834D01*
X169525000Y-66225656D01*
X169525000Y-65854344D01*
X169452561Y-65490166D01*
X169310466Y-65147118D01*
X169104175Y-64838382D01*
X168841618Y-64575825D01*
X168532882Y-64369534D01*
X168189834Y-64227439D01*
X167825656Y-64155000D01*
X167454344Y-64155000D01*
X167090166Y-64227439D01*
X166747118Y-64369534D01*
X166438382Y-64575825D01*
X166175825Y-64838382D01*
X165969534Y-65147118D01*
X165827439Y-65490166D01*
X165755000Y-65854344D01*
X165755000Y-66225656D01*
X165827439Y-66589834D01*
X165969534Y-66932882D01*
X166175825Y-67241618D01*
X166438382Y-67504175D01*
X166747118Y-67710466D01*
X167090166Y-67852561D01*
X167454344Y-67925000D01*
X167825656Y-67925000D01*
X168189834Y-67852561D01*
X168322718Y-67797519D01*
X172156200Y-71631002D01*
X172179999Y-71660001D01*
X172208997Y-71683799D01*
X172295723Y-71754974D01*
X172423759Y-71823411D01*
X172427753Y-71825546D01*
X172571014Y-71869003D01*
X172682667Y-71880000D01*
X172682677Y-71880000D01*
X172720000Y-71883676D01*
X172757323Y-71880000D01*
X176521822Y-71880000D01*
X176646525Y-72066632D01*
X176853368Y-72273475D01*
X177027760Y-72390000D01*
X176853368Y-72506525D01*
X176646525Y-72713368D01*
X176521822Y-72900000D01*
X170494803Y-72900000D01*
X169397519Y-71802717D01*
X169452561Y-71669834D01*
X169525000Y-71305656D01*
X169525000Y-70934344D01*
X169452561Y-70570166D01*
X169310466Y-70227118D01*
X169104175Y-69918382D01*
X168841618Y-69655825D01*
X168532882Y-69449534D01*
X168189834Y-69307439D01*
X167825656Y-69235000D01*
X167454344Y-69235000D01*
X167090166Y-69307439D01*
X166747118Y-69449534D01*
X166438382Y-69655825D01*
X166175825Y-69918382D01*
X165969534Y-70227118D01*
X165827439Y-70570166D01*
X165755000Y-70934344D01*
X165755000Y-71305656D01*
X165827439Y-71669834D01*
X165969534Y-72012882D01*
X166175825Y-72321618D01*
X166438382Y-72584175D01*
X166747118Y-72790466D01*
X167090166Y-72932561D01*
X167454344Y-73005000D01*
X167825656Y-73005000D01*
X168189834Y-72932561D01*
X168322717Y-72877519D01*
X169616205Y-74171008D01*
X169639999Y-74200001D01*
X169668992Y-74223795D01*
X169668996Y-74223799D01*
X169739685Y-74281811D01*
X169755724Y-74294974D01*
X169887753Y-74365546D01*
X170031014Y-74409003D01*
X170142667Y-74420000D01*
X170142676Y-74420000D01*
X170179999Y-74423676D01*
X170217322Y-74420000D01*
X176521822Y-74420000D01*
X176646525Y-74606632D01*
X176853368Y-74813475D01*
X177027760Y-74930000D01*
X176853368Y-75046525D01*
X176646525Y-75253368D01*
X176521822Y-75440000D01*
X169365507Y-75440000D01*
X169310466Y-75307118D01*
X169104175Y-74998382D01*
X168841618Y-74735825D01*
X168532882Y-74529534D01*
X168189834Y-74387439D01*
X167825656Y-74315000D01*
X167454344Y-74315000D01*
X167090166Y-74387439D01*
X166747118Y-74529534D01*
X166438382Y-74735825D01*
X166175825Y-74998382D01*
X165969534Y-75307118D01*
X165827439Y-75650166D01*
X165755000Y-76014344D01*
X165755000Y-76385656D01*
X165827439Y-76749834D01*
X165969534Y-77092882D01*
X166175825Y-77401618D01*
X166438382Y-77664175D01*
X166747118Y-77870466D01*
X167090166Y-78012561D01*
X167454344Y-78085000D01*
X167825656Y-78085000D01*
X168189834Y-78012561D01*
X168532882Y-77870466D01*
X168841618Y-77664175D01*
X169104175Y-77401618D01*
X169310466Y-77092882D01*
X169365507Y-76960000D01*
X176521822Y-76960000D01*
X176646525Y-77146632D01*
X176853368Y-77353475D01*
X177027760Y-77470000D01*
X176853368Y-77586525D01*
X176646525Y-77793368D01*
X176484010Y-78036589D01*
X176372068Y-78306842D01*
X176315000Y-78593740D01*
X176315000Y-78886260D01*
X176358790Y-79106407D01*
X174945199Y-80520000D01*
X169365507Y-80520000D01*
X169310466Y-80387118D01*
X169104175Y-80078382D01*
X168841618Y-79815825D01*
X168532882Y-79609534D01*
X168189834Y-79467439D01*
X167825656Y-79395000D01*
X167454344Y-79395000D01*
X167090166Y-79467439D01*
X166747118Y-79609534D01*
X166438382Y-79815825D01*
X166175825Y-80078382D01*
X165969534Y-80387118D01*
X165827439Y-80730166D01*
X165755000Y-81094344D01*
X165755000Y-81465656D01*
X165827439Y-81829834D01*
X165969534Y-82172882D01*
X166175825Y-82481618D01*
X166438382Y-82744175D01*
X166747118Y-82950466D01*
X167090166Y-83092561D01*
X167454344Y-83165000D01*
X167825656Y-83165000D01*
X168189834Y-83092561D01*
X168532882Y-82950466D01*
X168841618Y-82744175D01*
X169104175Y-82481618D01*
X169310466Y-82172882D01*
X169365507Y-82040000D01*
X175222678Y-82040000D01*
X175260000Y-82043676D01*
X175297322Y-82040000D01*
X175297333Y-82040000D01*
X175408986Y-82029003D01*
X175552247Y-81985546D01*
X175684276Y-81914974D01*
X175800001Y-81820001D01*
X175823804Y-81790997D01*
X176315000Y-81299801D01*
X176315000Y-81426260D01*
X176358790Y-81646408D01*
X172405199Y-85600000D01*
X169365507Y-85600000D01*
X169310466Y-85467118D01*
X169104175Y-85158382D01*
X168841618Y-84895825D01*
X168532882Y-84689534D01*
X168189834Y-84547439D01*
X167825656Y-84475000D01*
X167454344Y-84475000D01*
X167090166Y-84547439D01*
X166747118Y-84689534D01*
X166438382Y-84895825D01*
X166175825Y-85158382D01*
X165969534Y-85467118D01*
X165827439Y-85810166D01*
X165755000Y-86174344D01*
X165755000Y-86545656D01*
X165827439Y-86909834D01*
X165969534Y-87252882D01*
X166175825Y-87561618D01*
X166438382Y-87824175D01*
X166747118Y-88030466D01*
X167090166Y-88172561D01*
X167454344Y-88245000D01*
X167825656Y-88245000D01*
X168189834Y-88172561D01*
X168532882Y-88030466D01*
X168841618Y-87824175D01*
X169104175Y-87561618D01*
X169310466Y-87252882D01*
X169365507Y-87120000D01*
X172682678Y-87120000D01*
X172720000Y-87123676D01*
X172757322Y-87120000D01*
X172757333Y-87120000D01*
X172868986Y-87109003D01*
X173012247Y-87065546D01*
X173144276Y-86994974D01*
X173260001Y-86900001D01*
X173283804Y-86870997D01*
X176315000Y-83839802D01*
X176315000Y-83966260D01*
X176358790Y-84186408D01*
X169865199Y-90680000D01*
X169528072Y-90680000D01*
X169528072Y-90190000D01*
X169515812Y-90065518D01*
X169479502Y-89945820D01*
X169420537Y-89835506D01*
X169341185Y-89738815D01*
X169244494Y-89659463D01*
X169134180Y-89600498D01*
X169014482Y-89564188D01*
X168890000Y-89551928D01*
X166390000Y-89551928D01*
X166265518Y-89564188D01*
X166145820Y-89600498D01*
X166035506Y-89659463D01*
X165938815Y-89738815D01*
X165859463Y-89835506D01*
X165800498Y-89945820D01*
X165764188Y-90065518D01*
X165751928Y-90190000D01*
X160705000Y-90190000D01*
X160705000Y-49078639D01*
X163786520Y-49078639D01*
X163855822Y-49830882D01*
X164070548Y-50555152D01*
X164422445Y-51223614D01*
X164449452Y-51264032D01*
X164939119Y-51624220D01*
X165124811Y-51438528D01*
X165139007Y-51459774D01*
X165283170Y-51603937D01*
X165304416Y-51618133D01*
X165118724Y-51803825D01*
X165478912Y-52293492D01*
X166142882Y-52653793D01*
X166864385Y-52877638D01*
X167615695Y-52956424D01*
X168367938Y-52887122D01*
X169092208Y-52672396D01*
X169760670Y-52320499D01*
X169801088Y-52293492D01*
X170161276Y-51803825D01*
X169975584Y-51618133D01*
X169996830Y-51603937D01*
X170140993Y-51459774D01*
X170155189Y-51438528D01*
X170340881Y-51624220D01*
X170830548Y-51264032D01*
X171190849Y-50600062D01*
X171414694Y-49878559D01*
X171453794Y-49505695D01*
X212046520Y-49505695D01*
X212115822Y-50257938D01*
X212330548Y-50982208D01*
X212682445Y-51650670D01*
X212709452Y-51691088D01*
X213199119Y-52051276D01*
X213384811Y-51865584D01*
X213399007Y-51886830D01*
X213543170Y-52030993D01*
X213564416Y-52045189D01*
X213378724Y-52230881D01*
X213738912Y-52720548D01*
X214402882Y-53080849D01*
X215124385Y-53304694D01*
X215875695Y-53383480D01*
X216627938Y-53314178D01*
X217352208Y-53099452D01*
X218020670Y-52747555D01*
X218061088Y-52720548D01*
X218421276Y-52230881D01*
X218235584Y-52045189D01*
X218256830Y-52030993D01*
X218400993Y-51886830D01*
X218415189Y-51865584D01*
X218600881Y-52051276D01*
X219090548Y-51691088D01*
X219450849Y-51027118D01*
X219674694Y-50305615D01*
X219753480Y-49554305D01*
X219684178Y-48802062D01*
X219469452Y-48077792D01*
X219117555Y-47409330D01*
X219090548Y-47368912D01*
X218600881Y-47008724D01*
X218415189Y-47194416D01*
X218400993Y-47173170D01*
X218256830Y-47029007D01*
X218235584Y-47014811D01*
X218421276Y-46829119D01*
X218061088Y-46339452D01*
X217397118Y-45979151D01*
X216675615Y-45755306D01*
X215924305Y-45676520D01*
X215172062Y-45745822D01*
X214447792Y-45960548D01*
X213779330Y-46312445D01*
X213738912Y-46339452D01*
X213378724Y-46829119D01*
X213564416Y-47014811D01*
X213543170Y-47029007D01*
X213399007Y-47173170D01*
X213384811Y-47194416D01*
X213199119Y-47008724D01*
X212709452Y-47368912D01*
X212349151Y-48032882D01*
X212125306Y-48754385D01*
X212046520Y-49505695D01*
X171453794Y-49505695D01*
X171493480Y-49127249D01*
X171424178Y-48375006D01*
X171209452Y-47650736D01*
X170857555Y-46982274D01*
X170830548Y-46941856D01*
X170340881Y-46581668D01*
X170155189Y-46767360D01*
X170140993Y-46746114D01*
X169996830Y-46601951D01*
X169975584Y-46587755D01*
X170161276Y-46402063D01*
X169801088Y-45912396D01*
X169137118Y-45552095D01*
X168415615Y-45328250D01*
X167664305Y-45249464D01*
X166912062Y-45318766D01*
X166187792Y-45533492D01*
X165519330Y-45885389D01*
X165478912Y-45912396D01*
X165118724Y-46402063D01*
X165304416Y-46587755D01*
X165283170Y-46601951D01*
X165139007Y-46746114D01*
X165124811Y-46767360D01*
X164939119Y-46581668D01*
X164449452Y-46941856D01*
X164089151Y-47605826D01*
X163865306Y-48327329D01*
X163786520Y-49078639D01*
X160705000Y-49078639D01*
X160705000Y-45135000D01*
X222835000Y-45135000D01*
X222835001Y-145365000D01*
G36*
X216793119Y-48492718D02*
G01*
X216937282Y-48636881D01*
X216958528Y-48651077D01*
X216079605Y-49530000D01*
X216958528Y-50408923D01*
X216937282Y-50423119D01*
X216793119Y-50567282D01*
X216778923Y-50588528D01*
X215900000Y-49709605D01*
X215021077Y-50588528D01*
X215006881Y-50567282D01*
X214862718Y-50423119D01*
X214841472Y-50408923D01*
X215720395Y-49530000D01*
X214841472Y-48651077D01*
X214862718Y-48636881D01*
X215006881Y-48492718D01*
X215021077Y-48471472D01*
X215900000Y-49350395D01*
X216778923Y-48471472D01*
X216793119Y-48492718D01*
G37*
X216793119Y-48492718D02*
X216937282Y-48636881D01*
X216958528Y-48651077D01*
X216079605Y-49530000D01*
X216958528Y-50408923D01*
X216937282Y-50423119D01*
X216793119Y-50567282D01*
X216778923Y-50588528D01*
X215900000Y-49709605D01*
X215021077Y-50588528D01*
X215006881Y-50567282D01*
X214862718Y-50423119D01*
X214841472Y-50408923D01*
X215720395Y-49530000D01*
X214841472Y-48651077D01*
X214862718Y-48636881D01*
X215006881Y-48492718D01*
X215021077Y-48471472D01*
X215900000Y-49350395D01*
X216778923Y-48471472D01*
X216793119Y-48492718D01*
G36*
X168533119Y-48065662D02*
G01*
X168677282Y-48209825D01*
X168698528Y-48224021D01*
X167819605Y-49102944D01*
X168698528Y-49981867D01*
X168677282Y-49996063D01*
X168533119Y-50140226D01*
X168518923Y-50161472D01*
X167640000Y-49282549D01*
X166761077Y-50161472D01*
X166746881Y-50140226D01*
X166602718Y-49996063D01*
X166581472Y-49981867D01*
X167460395Y-49102944D01*
X166581472Y-48224021D01*
X166602718Y-48209825D01*
X166746881Y-48065662D01*
X166761077Y-48044416D01*
X167640000Y-48923339D01*
X168518923Y-48044416D01*
X168533119Y-48065662D01*
G37*
X168533119Y-48065662D02*
X168677282Y-48209825D01*
X168698528Y-48224021D01*
X167819605Y-49102944D01*
X168698528Y-49981867D01*
X168677282Y-49996063D01*
X168533119Y-50140226D01*
X168518923Y-50161472D01*
X167640000Y-49282549D01*
X166761077Y-50161472D01*
X166746881Y-50140226D01*
X166602718Y-49996063D01*
X166581472Y-49981867D01*
X167460395Y-49102944D01*
X166581472Y-48224021D01*
X166602718Y-48209825D01*
X166746881Y-48065662D01*
X166761077Y-48044416D01*
X167640000Y-48923339D01*
X168518923Y-48044416D01*
X168533119Y-48065662D01*
G36*
X216793119Y-141202718D02*
G01*
X216937282Y-141346881D01*
X216958528Y-141361077D01*
X216079605Y-142240000D01*
X216958528Y-143118923D01*
X216937282Y-143133119D01*
X216793119Y-143277282D01*
X216778923Y-143298528D01*
X215900000Y-142419605D01*
X215021077Y-143298528D01*
X215006881Y-143277282D01*
X214862718Y-143133119D01*
X214841472Y-143118923D01*
X215720395Y-142240000D01*
X214841472Y-141361077D01*
X214862718Y-141346881D01*
X215006881Y-141202718D01*
X215021077Y-141181472D01*
X215900000Y-142060395D01*
X216778923Y-141181472D01*
X216793119Y-141202718D01*
G37*
X216793119Y-141202718D02*
X216937282Y-141346881D01*
X216958528Y-141361077D01*
X216079605Y-142240000D01*
X216958528Y-143118923D01*
X216937282Y-143133119D01*
X216793119Y-143277282D01*
X216778923Y-143298528D01*
X215900000Y-142419605D01*
X215021077Y-143298528D01*
X215006881Y-143277282D01*
X214862718Y-143133119D01*
X214841472Y-143118923D01*
X215720395Y-142240000D01*
X214841472Y-141361077D01*
X214862718Y-141346881D01*
X215006881Y-141202718D01*
X215021077Y-141181472D01*
X215900000Y-142060395D01*
X216778923Y-141181472D01*
X216793119Y-141202718D01*
G36*
X168533119Y-141202718D02*
G01*
X168677282Y-141346881D01*
X168698528Y-141361077D01*
X167819605Y-142240000D01*
X168698528Y-143118923D01*
X168677282Y-143133119D01*
X168533119Y-143277282D01*
X168518923Y-143298528D01*
X167640000Y-142419605D01*
X166761077Y-143298528D01*
X166746881Y-143277282D01*
X166602718Y-143133119D01*
X166581472Y-143118923D01*
X167460395Y-142240000D01*
X166581472Y-141361077D01*
X166602718Y-141346881D01*
X166746881Y-141202718D01*
X166761077Y-141181472D01*
X167640000Y-142060395D01*
X168518923Y-141181472D01*
X168533119Y-141202718D01*
G37*
X168533119Y-141202718D02*
X168677282Y-141346881D01*
X168698528Y-141361077D01*
X167819605Y-142240000D01*
X168698528Y-143118923D01*
X168677282Y-143133119D01*
X168533119Y-143277282D01*
X168518923Y-143298528D01*
X167640000Y-142419605D01*
X166761077Y-143298528D01*
X166746881Y-143277282D01*
X166602718Y-143133119D01*
X166581472Y-143118923D01*
X167460395Y-142240000D01*
X166581472Y-141361077D01*
X166602718Y-141346881D01*
X166746881Y-141202718D01*
X166761077Y-141181472D01*
X167640000Y-142060395D01*
X168518923Y-141181472D01*
X168533119Y-141202718D01*
%TD*%
M02*
